# Blender 4.5.11 LTS
# www.blender.org
mtllib ENV_ParedInterior.mtl
o Cube.004
v -0.284392 0.545997 5.541740
v -0.256392 0.505997 5.541740
v -0.256392 0.545997 5.581740
v -0.276191 0.517713 5.541740
v -0.272558 0.522903 5.564835
v -0.256392 0.517713 5.570024
v -0.276191 0.545997 5.570024
v -0.284392 8.325577 5.541740
v -0.256392 8.325577 5.581740
v -0.256392 8.365577 5.541740
v -0.276191 8.325577 5.570024
v -0.272558 8.348671 5.564835
v -0.256392 8.353861 5.570024
v -0.276191 8.353861 5.541740
v -0.284392 0.545997 -5.541740
v -0.256392 0.545997 -5.581740
v -0.256392 0.505997 -5.541740
v -0.276191 0.545997 -5.570024
v -0.272558 0.522903 -5.564835
v -0.256392 0.517713 -5.570024
v -0.276191 0.517713 -5.541740
v -0.284392 8.325577 -5.541740
v -0.256392 8.365577 -5.541740
v -0.256392 8.325577 -5.581740
v -0.276191 8.353861 -5.541740
v -0.272558 8.348671 -5.564835
v -0.256392 8.353861 -5.570024
v -0.276191 8.325577 -5.570024
v 0.284392 0.545997 5.541740
v 0.256392 0.545997 5.581740
v 0.256392 0.505997 5.541740
v 0.276191 0.545997 5.570024
v 0.272558 0.522903 5.564835
v 0.256392 0.517713 5.570024
v 0.276191 0.517713 5.541740
v 0.284392 8.325577 5.541740
v 0.256392 8.365577 5.541740
v 0.256392 8.325577 5.581740
v 0.276191 8.353861 5.541740
v 0.272558 8.348671 5.564835
v 0.256392 8.353861 5.570024
v 0.276191 8.325577 5.570024
v 0.256392 0.505997 -5.541740
v 0.256392 0.545997 -5.581740
v 0.284392 0.545997 -5.541740
v 0.256392 0.517713 -5.570024
v 0.272558 0.522903 -5.564835
v 0.276191 0.545997 -5.570024
v 0.276191 0.517713 -5.541740
v 0.256392 8.365577 -5.541740
v 0.284392 8.325577 -5.541740
v 0.256392 8.325577 -5.581740
v 0.276191 8.353861 -5.541740
v 0.272558 8.348671 -5.564835
v 0.276191 8.325577 -5.570024
v 0.256392 8.353861 -5.570024
v -0.284392 0.545997 0.640987
v -0.256392 0.505997 0.640987
v -0.276191 0.517712 0.640987
v -0.256392 0.505997 -0.640987
v -0.284392 0.545997 -0.640987
v -0.276191 0.517712 -0.640987
v -0.284392 8.325577 -0.640987
v -0.256392 8.365577 -0.640987
v -0.276191 8.353862 -0.640987
v -0.256392 8.365577 0.640987
v -0.284392 8.325577 0.640987
v -0.276191 8.353862 0.640987
v 0.284392 0.545997 -0.640987
v 0.256392 0.505997 -0.640987
v 0.276191 0.517712 -0.640987
v 0.256392 0.505997 0.640987
v 0.284392 0.545997 0.640987
v 0.276191 0.517712 0.640987
v 0.284392 8.325577 0.640987
v 0.256392 8.365577 0.640987
v 0.276191 8.353862 0.640987
v 0.256392 8.365577 -0.640987
v 0.284392 8.325577 -0.640987
v 0.276191 8.353862 -0.640987
vn -0.9402 -0.2409 0.2409
vn -0.4408 -0.8429 0.3085
vn -0.4408 -0.3085 0.8429
vn -0.9402 0.2409 0.2409
vn -0.4407 0.3085 0.8429
vn -0.4407 0.8430 0.3085
vn -0.9402 -0.2409 -0.2409
vn -0.4408 -0.3085 -0.8429
vn -0.4408 -0.8429 -0.3085
vn -0.9402 0.2409 -0.2409
vn -0.4407 0.8430 -0.3085
vn -0.4408 0.3085 -0.8429
vn 0.9402 -0.2409 0.2409
vn 0.4408 -0.3085 0.8429
vn 0.4408 -0.8429 0.3085
vn 0.9402 0.2409 0.2409
vn 0.4407 0.8430 0.3085
vn 0.4408 0.3085 0.8429
vn 0.4408 -0.8429 -0.3085
vn 0.4408 -0.3085 -0.8429
vn 0.9402 -0.2409 -0.2409
vn 0.4407 0.8430 -0.3085
vn 0.9402 0.2409 -0.2409
vn 0.4407 0.3085 -0.8429
vn -0.5092 -0.0000 0.8606
vn -0.9604 -0.0000 0.2785
vn -0.5092 -0.0000 -0.8606
vn -0.9604 -0.0000 -0.2785
vn -0.0000 -0.9239 -0.3827
vn -0.0000 -0.3827 -0.9239
vn -0.0000 0.9239 -0.3827
vn -0.0000 0.3827 -0.9239
vn 0.9604 -0.0000 -0.2785
vn 0.5092 -0.0000 -0.8606
vn 0.5092 -0.0000 0.8606
vn 0.9604 -0.0000 0.2785
vn -0.0000 -0.9239 0.3827
vn -0.0000 -0.3827 0.9239
vn -0.0000 0.9239 0.3827
vn -0.0000 0.3827 0.9239
vn -0.9604 0.2785 -0.0000
vn -0.5092 0.8606 -0.0000
vn 0.9604 0.2785 -0.0000
vn 0.5092 0.8606 -0.0000
vn 0.9604 -0.2785 -0.0000
vn 0.5093 -0.8606 -0.0000
vn -0.9604 -0.2785 -0.0000
vn -0.5093 -0.8606 -0.0000
vn -0.5093 0.8606 -0.0000
vn 0.5093 0.8606 -0.0000
vn -0.0000 -0.0000 1.0000
vn -0.0000 -1.0000 -0.0000
vn -1.0000 -0.0000 -0.0000
vn -0.0000 1.0000 -0.0000
vn -0.0000 -0.0000 -1.0000
vn 1.0000 -0.0000 -0.0000
vt 0.430669 0.612634
vt 0.432872 0.612634
vt 0.432872 0.613906
vt 0.430669 0.614837
vt 0.908294 0.002203
vt 0.908293 0.000000
vt 0.909565 0.000000
vt 0.910497 0.002203
vt 0.957451 0.435075
vt 0.955248 0.435075
vt 0.955248 0.433803
vt 0.957451 0.432872
vt 0.002203 0.612634
vt 0.002203 0.614837
vt 0.000931 0.614837
vt -0.000000 0.612634
vt 0.957451 0.863542
vt 0.957451 0.865745
vt 0.956179 0.865745
vt 0.955248 0.863542
vt 0.953046 0.612634
vt 0.955248 0.612634
vt 0.955248 0.613906
vt 0.953045 0.614837
vt 0.430669 0.002203
vt 0.430669 0.000000
vt 0.431941 0.000000
vt 0.432872 0.002203
vt 0.997797 0.002203
vt 0.997797 -0.000000
vt 0.999069 -0.000000
vt 1.000000 0.002203
vt 0.908293 0.612634
vt 0.910496 0.612634
vt 0.910496 0.613906
vt 0.908293 0.614837
vt 0.002203 0.002203
vt 0.000000 0.002203
vt 0.000000 0.000931
vt 0.002203 0.000000
vt 0.953046 0.002203
vt 0.953045 0.000000
vt 0.954317 0.000000
vt 0.955248 0.002203
vt 0.997797 0.430669
vt 1.000000 0.430669
vt 1.000000 0.431941
vt 0.997797 0.432872
vt 0.863542 0.002203
vt 0.863542 0.000000
vt 0.865279 0.000466
vt 0.865745 0.002203
vt 0.997797 0.435075
vt 0.997797 0.432872
vt 0.999069 0.432872
vt 1.000000 0.435075
vt 0.867948 0.002203
vt 0.867948 0.000000
vt 0.435075 0.002203
vt 0.432872 0.002203
vt 0.432872 0.000931
vt 0.435075 0.000000
vt 0.912700 0.612634
vt 0.912700 0.614837
vt 0.911428 0.614837
vt 0.910497 0.612634
vt 0.997797 0.863542
vt 1.000000 0.863542
vt 1.000000 0.864814
vt 0.997797 0.865745
vt 0.867948 0.612634
vt 0.867948 0.614837
vt 0.866210 0.614372
vt 0.865745 0.612634
vt 0.957451 0.002203
vt 0.955248 0.002203
vt 0.955248 0.000931
vt 0.957451 -0.000000
vt 0.863542 0.612634
vt 0.863542 0.614837
vt 0.912700 0.002203
vt 0.910497 0.002203
vt 0.910497 0.000931
vt 0.912700 0.000000
vt 0.435075 0.612634
vt 0.435075 0.614837
vt 0.433804 0.614837
vt 0.432872 0.612634
vt 0.957451 0.430669
vt 0.957451 0.432872
vt 0.956179 0.432872
vt 0.955248 0.430669
vt 0.002203 0.272116
vt 0.002203 0.342721
vt 0.000000 0.342721
vt 0.000000 0.272116
vt 0.955248 0.272116
vt 0.955248 0.342721
vt 0.953045 0.342721
vt 0.953045 0.272116
vt 0.435076 0.272116
vt 0.435076 0.342721
vt 0.432872 0.342721
vt 0.432872 0.272116
vt 0.910497 0.342721
vt 0.910497 0.272116
vt 0.912700 0.272116
vt 0.912700 0.342721
vt 0.863542 0.342721
vt 0.863542 0.272116
vt 0.865745 0.272116
vt 0.865745 0.342721
vt 0.867948 0.272116
vt 0.867948 0.342721
vt 0.430669 0.342722
vt 0.430669 0.272116
vt 0.432872 0.272116
vt 0.432872 0.342721
vt 0.910497 0.272116
vt 0.910497 0.342721
vt 0.908294 0.342721
vt 0.908293 0.272116
s 0
usemtl Material.003
f 1/1/1 4/2/1 5/3/1 7/4/1
f 2/5/2 6/6/2 5/7/2 4/8/2
f 3/9/3 7/10/3 5/11/3 6/12/3
f 8/13/4 11/14/4 12/15/4 14/16/4
f 9/17/5 13/18/5 12/19/5 11/20/5
f 10/21/6 14/22/6 12/23/6 13/24/6
f 15/25/7 18/26/7 19/27/7 21/28/7
f 16/29/8 20/30/8 19/31/8 18/32/8
f 17/33/9 21/34/9 19/35/9 20/36/9
f 22/37/10 25/38/10 26/39/10 28/40/10
f 23/41/11 27/42/11 26/43/11 25/44/11
f 24/45/12 28/46/12 26/47/12 27/48/12
f 29/49/13 32/50/13 33/51/13 35/52/13
f 30/53/14 34/54/14 33/55/14 32/56/14
f 31/57/15 35/52/15 33/51/15 34/58/15
f 36/59/16 39/60/16 40/61/16 42/62/16
f 37/63/17 41/64/17 40/65/17 39/66/17
f 38/67/18 42/68/18 40/69/18 41/70/18
f 43/71/19 46/72/19 47/73/19 49/74/19
f 44/75/20 48/76/20 47/77/20 46/78/20
f 45/79/21 49/74/21 47/73/21 48/80/21
f 50/81/22 53/82/22 54/83/22 56/84/22
f 51/85/23 55/86/23 54/87/23 53/88/23
f 52/89/24 56/90/24 54/91/24 55/92/24
f 3/9/25 9/17/25 11/20/25 7/10/25
f 7/4/26 11/14/26 8/13/26 1/1/26
f 24/45/27 16/29/27 18/32/27 28/46/27
f 28/40/28 18/26/28 15/25/28 22/37/28
f 43/71/29 17/33/29 20/36/29 46/72/29
f 46/78/30 20/30/30 16/29/30 44/75/30
f 23/41/31 50/81/31 56/84/31 27/42/31
f 27/48/32 56/90/32 52/89/32 24/45/32
f 51/85/33 45/79/33 48/80/33 55/86/33
f 55/92/34 48/76/34 44/75/34 52/89/34
f 38/67/35 30/53/35 32/56/35 42/68/35
f 42/62/36 32/50/36 29/49/36 36/59/36
f 2/5/37 31/57/37 34/58/37 6/6/37
f 6/12/38 34/54/38 30/53/38 3/9/38
f 37/63/39 10/21/39 13/24/39 41/64/39
f 41/70/40 13/18/40 9/17/40 38/67/40
f 63/93/41 67/94/41 68/95/41 65/96/41
f 65/97/42 68/98/42 66/99/42 64/100/42
f 75/101/43 79/102/43 80/103/43 77/104/43
f 77/105/44 80/106/44 78/107/44 76/108/44
f 69/109/45 73/110/45 74/111/45 71/112/45
f 71/112/46 74/111/46 72/113/46 70/114/46
f 57/115/47 61/116/47 62/117/47 59/118/47
f 59/119/48 62/120/48 60/121/48 58/122/48
f 58/122/48 2/5/48 4/8/48 59/119/48
f 59/118/47 4/2/47 1/1/47 57/115/47
f 10/21/49 66/99/49 68/98/49 14/22/49
f 14/16/41 68/95/41 67/94/41 8/13/41
f 61/116/47 15/25/47 21/28/47 62/117/47
f 62/120/48 21/34/48 17/33/48 60/121/48
f 45/79/45 69/109/45 71/112/45 49/74/45
f 49/74/46 71/112/46 70/114/46 43/71/46
f 73/110/45 29/49/45 35/52/45 74/111/45
f 74/111/46 35/52/46 31/57/46 72/113/46
f 64/100/49 23/41/49 25/44/49 65/97/49
f 65/96/41 25/38/41 22/37/41 63/93/41
f 79/102/43 51/85/43 53/88/43 80/103/43
f 80/106/50 53/82/50 50/81/50 78/107/50
f 36/59/43 75/101/43 77/104/43 39/60/43
f 39/66/50 77/105/50 76/108/50 37/63/50
f 30/53/51 38/67/51 9/17/51 3/9/51
f 43/71/52 70/114/52 72/113/52 31/57/52 2/5/52 58/122/52 60/121/52 17/33/52
f 1/1/53 8/13/53 67/94/53 63/93/53 22/37/53 15/25/53 61/116/53 57/115/53
f 23/41/54 64/100/54 66/99/54 10/21/54 37/63/54 76/108/54 78/107/54 50/81/54
f 16/29/55 24/45/55 52/89/55 44/75/55
f 51/85/56 79/102/56 75/101/56 36/59/56 29/49/56 73/110/56 69/109/56 45/79/56
