# Blender 4.5.0
# www.blender.org
mtllib llave.mtl
o Cube
v -0.036506 0.005328 0.005815
v -0.036506 -0.005328 0.005815
v 0.036548 -0.005328 0.064112
v 0.036548 0.005328 0.064112
v 0.015803 -0.005328 0.005815
v 0.015803 0.005328 0.005815
v -0.036506 0.005328 0.064112
v -0.036506 -0.005328 0.064112
v 0.015803 -0.005328 0.064112
v 0.015803 0.005328 0.064112
v 0.041281 0.005328 0.215102
v 0.041281 0.005328 0.177355
v 0.041281 0.005328 0.139607
v 0.041281 0.005328 0.101860
v 0.004545 0.005328 0.215102
v 0.006794 0.005328 0.177354
v 0.009141 0.005328 0.139607
v 0.011147 0.005328 0.101860
v -0.043358 0.005328 0.215102
v -0.039735 0.005328 0.177355
v -0.038636 0.005328 0.139607
v -0.036506 0.005328 0.101860
v 0.041281 -0.005328 0.101860
v 0.041281 -0.005328 0.139607
v 0.041281 -0.005328 0.177355
v 0.041281 -0.005328 0.215102
v 0.011147 -0.005328 0.101860
v 0.009141 -0.005328 0.139607
v 0.006794 -0.005328 0.177354
v 0.004545 -0.005328 0.215102
v -0.036506 -0.005328 0.101860
v -0.038636 -0.005328 0.139607
v -0.039735 -0.005328 0.177355
v -0.043358 -0.005328 0.215102
v -0.021299 -0.003717 -0.209314
v -0.018655 -0.003717 -0.210701
v -0.019915 -0.005328 -0.208959
v -0.020093 -0.003717 -0.210230
v -0.020097 -0.004647 -0.210024
v -0.019317 -0.004856 -0.210163
v -0.020787 -0.004860 -0.209329
v -0.034879 -0.005328 0.004203
v -0.038117 -0.003717 0.002591
v -0.036506 -0.003717 0.000979
v -0.036498 -0.004856 0.003063
v -0.036502 -0.004647 0.002590
v -0.036978 -0.003717 0.002119
v -0.036029 -0.004856 0.002585
v -0.018655 0.003717 -0.210701
v -0.021299 0.003717 -0.209314
v -0.019915 0.005328 -0.208959
v -0.020093 0.003717 -0.210230
v -0.020097 0.004647 -0.210024
v -0.020787 0.004860 -0.209329
v -0.019317 0.004856 -0.210163
v -0.038117 0.003717 0.002591
v -0.034879 0.005328 0.004203
v -0.036506 0.003717 0.000979
v -0.036498 0.004856 0.003063
v -0.036502 0.004647 0.002590
v -0.036029 0.004856 0.002585
v -0.036978 0.003717 0.002119
v -0.012433 -0.003717 -0.211307
v -0.009637 -0.003717 -0.210377
v -0.011111 -0.005328 -0.209816
v -0.010977 -0.003717 -0.211183
v -0.010976 -0.004647 -0.210852
v -0.010042 -0.004856 -0.210129
v -0.012019 -0.004856 -0.210786
v 0.017415 -0.003717 0.002591
v 0.013942 -0.005328 0.004203
v 0.015803 -0.003717 0.000979
v 0.015679 -0.004856 0.003063
v 0.015751 -0.004647 0.002571
v 0.015260 -0.004854 0.002492
v 0.016275 -0.003717 0.002119
v -0.012433 0.003717 -0.211307
v -0.011111 0.005328 -0.209816
v -0.009637 0.003717 -0.210377
v -0.011804 0.004856 -0.210894
v -0.010957 0.004647 -0.210898
v -0.010196 0.004859 -0.210324
v -0.010950 0.003717 -0.211099
v 0.017415 0.003717 0.002591
v 0.015803 0.003717 0.000979
v 0.013942 0.005328 0.004203
v 0.016275 0.003717 0.002119
v 0.015751 0.004647 0.002571
v 0.015260 0.004854 0.002492
v 0.015679 0.004856 0.003063
v -0.034839 -0.005328 -0.172065
v -0.036506 -0.003717 -0.172065
v -0.036018 -0.004856 -0.172065
v -0.034852 -0.005328 -0.146947
v -0.036506 -0.003717 -0.146947
v -0.036021 -0.004856 -0.146947
v -0.034861 -0.005328 -0.132818
v -0.036506 -0.003717 -0.132818
v -0.036024 -0.004856 -0.132818
v -0.034861 0.005328 -0.132818
v -0.036506 0.003717 -0.132818
v -0.036024 0.004856 -0.132818
v -0.034852 0.005328 -0.146947
v -0.036506 0.003717 -0.146947
v -0.036021 0.004856 -0.146947
v -0.034839 0.005328 -0.172065
v -0.036506 0.003717 -0.172065
v -0.036018 0.004856 -0.172065
v 0.030585 0.003717 -0.131456
v 0.030309 0.003717 -0.133960
v 0.029456 0.005328 -0.132818
v 0.030861 0.003717 -0.132754
v 0.030622 0.004647 -0.132774
v 0.030091 0.004859 -0.133589
v 0.030313 0.004855 -0.131946
v 0.018509 0.003717 -0.145805
v 0.018159 0.003717 -0.148354
v 0.015350 0.005328 -0.146947
v 0.017935 0.003717 -0.147025
v 0.017368 0.004647 -0.147029
v 0.017099 0.004855 -0.147516
v 0.017085 0.004857 -0.146639
v 0.030639 0.003717 -0.170659
v 0.030260 0.003717 -0.173178
v 0.029384 0.005328 -0.172065
v 0.030854 0.003717 -0.171979
v 0.030602 0.004647 -0.172007
v 0.030024 0.004859 -0.172828
v 0.030329 0.004853 -0.171169
v 0.030585 -0.003717 -0.131456
v 0.029456 -0.005328 -0.132818
v 0.030309 -0.003717 -0.133960
v 0.030313 -0.004855 -0.131946
v 0.030622 -0.004647 -0.132774
v 0.030091 -0.004859 -0.133589
v 0.030861 -0.003717 -0.132754
v 0.018509 -0.003717 -0.145805
v 0.015350 -0.005328 -0.146947
v 0.018159 -0.003717 -0.148354
v 0.017085 -0.004857 -0.146639
v 0.017368 -0.004647 -0.147029
v 0.017099 -0.004855 -0.147516
v 0.017935 -0.003717 -0.147025
v 0.030639 -0.003717 -0.170659
v 0.029384 -0.005328 -0.172065
v 0.030260 -0.003717 -0.173178
v 0.030329 -0.004853 -0.171169
v 0.030602 -0.004647 -0.172007
v 0.030024 -0.004859 -0.172828
v 0.030854 -0.003717 -0.171979
v -0.035466 0.003717 -0.192537
v -0.036506 0.003717 -0.189694
v -0.034822 0.005328 -0.191327
v -0.036201 0.003717 -0.191194
v -0.035975 0.004647 -0.191259
v -0.036013 0.004855 -0.190494
v -0.035358 0.004861 -0.192078
v 0.008591 0.005328 -0.191875
v 0.010640 0.003717 -0.191901
v 0.010040 0.004856 -0.191893
v 0.010640 -0.003717 -0.191901
v 0.008591 -0.005328 -0.191875
v 0.010040 -0.004856 -0.191893
v -0.036506 -0.003717 -0.189694
v -0.035466 -0.003717 -0.192537
v -0.034822 -0.005328 -0.191327
v -0.036201 -0.003717 -0.191194
v -0.035975 -0.004647 -0.191259
v -0.035358 -0.004861 -0.192078
v -0.036013 -0.004855 -0.190494
v -0.034868 -0.005328 -0.118775
v -0.036506 -0.003717 -0.118775
v -0.036026 -0.004856 -0.118775
v -0.034873 -0.005328 -0.106089
v -0.036506 -0.003717 -0.106089
v -0.036028 -0.004856 -0.106089
v -0.034876 -0.005328 -0.088351
v -0.036506 -0.003717 -0.088351
v -0.036028 -0.004856 -0.088351
v -0.034876 0.005328 -0.088351
v -0.036506 0.003717 -0.088351
v -0.036028 0.004856 -0.088351
v -0.034873 0.005328 -0.106089
v -0.036506 0.003717 -0.106089
v -0.036028 0.004856 -0.106089
v -0.036506 0.003717 -0.118775
v -0.034868 0.005328 -0.118775
v -0.036026 0.004856 -0.118775
v 0.034452 0.003717 -0.087148
v 0.035525 0.003717 -0.089962
v 0.033629 0.005328 -0.088351
v 0.035211 0.003717 -0.088471
v 0.034944 0.004647 -0.088409
v 0.034973 0.004853 -0.089213
v 0.034263 0.004859 -0.087564
v 0.035525 0.003717 -0.104477
v 0.034373 0.003717 -0.107216
v 0.033610 0.005328 -0.106089
v 0.035188 0.003717 -0.105947
v 0.034919 0.004647 -0.106014
v 0.034190 0.004860 -0.106841
v 0.034967 0.004852 -0.105222
v 0.020599 0.005328 -0.118775
v 0.023715 0.003717 -0.117648
v 0.023425 0.003717 -0.120137
v 0.022282 0.004858 -0.118485
v 0.022578 0.004647 -0.118846
v 0.023153 0.003717 -0.118844
v 0.022312 0.004856 -0.119286
v 0.034452 -0.003717 -0.087148
v 0.033629 -0.005328 -0.088351
v 0.035525 -0.003717 -0.089962
v 0.034263 -0.004859 -0.087564
v 0.034944 -0.004647 -0.088409
v 0.034973 -0.004853 -0.089213
v 0.035211 -0.003717 -0.088471
v 0.035525 -0.003717 -0.104477
v 0.033610 -0.005328 -0.106089
v 0.034373 -0.003717 -0.107216
v 0.034967 -0.004852 -0.105222
v 0.034919 -0.004647 -0.106014
v 0.034190 -0.004860 -0.106841
v 0.035188 -0.003717 -0.105947
v 0.023425 -0.003717 -0.120137
v 0.023715 -0.003717 -0.117648
v 0.020599 -0.005328 -0.118775
v 0.023153 -0.003717 -0.118844
v 0.022578 -0.004647 -0.118846
v 0.022282 -0.004858 -0.118485
v 0.022312 -0.004856 -0.119286
v -0.036506 -0.003717 -0.066259
v -0.034878 -0.005328 -0.066259
v -0.036029 -0.004856 -0.066259
v -0.036506 0.003717 -0.066259
v -0.034878 0.005328 -0.066259
v -0.036029 0.004856 -0.066259
v 0.013932 0.005328 -0.066259
v 0.015803 0.003717 -0.064647
v 0.016877 0.003717 -0.067462
v 0.015258 0.004853 -0.065401
v 0.015668 0.004647 -0.066109
v 0.016118 0.003717 -0.066139
v 0.015561 0.004858 -0.066604
v 0.016877 -0.003717 -0.067462
v 0.015803 -0.003717 -0.064647
v 0.013932 -0.005328 -0.066259
v 0.016118 -0.003717 -0.066139
v 0.015668 -0.004647 -0.066109
v 0.015258 -0.004853 -0.065401
v 0.015561 -0.004858 -0.066604
v -0.055513 -0.003717 0.004203
v -0.053902 -0.003717 0.002591
v -0.053792 -0.005328 0.004203
v -0.055041 -0.003717 0.003063
v -0.054809 -0.004647 0.003272
v -0.053847 -0.004856 0.003063
v -0.055011 -0.004854 0.004203
v -0.055513 0.003717 0.004203
v -0.053792 0.005328 0.004203
v -0.053902 0.003717 0.002591
v -0.054987 0.004856 0.004203
v -0.054809 0.004647 0.003272
v -0.053847 0.004856 0.003063
v -0.055064 0.003717 0.003063
v 0.034936 -0.003717 0.002591
v 0.036548 -0.003717 0.004203
v 0.034936 -0.005328 0.004203
v 0.036076 -0.003717 0.003063
v 0.035867 -0.004647 0.003272
v 0.036076 -0.004856 0.004203
v 0.034936 -0.004856 0.003063
v 0.034936 0.003717 0.002591
v 0.034936 0.005328 0.004203
v 0.036548 0.003717 0.004203
v 0.034936 0.004856 0.003063
v 0.035867 0.004647 0.003272
v 0.036076 0.004856 0.004203
v 0.036076 0.003717 0.003063
v 0.038160 -0.003717 0.005815
v 0.034936 -0.005328 0.007426
v 0.036548 -0.003717 0.004203
v 0.036548 -0.004856 0.006287
v 0.036548 -0.004647 0.005815
v 0.036076 -0.004856 0.005815
v 0.037020 -0.003717 0.005343
v 0.038160 0.003717 0.005815
v 0.036548 0.003717 0.004203
v 0.034936 0.005328 0.007426
v 0.037020 0.003717 0.005343
v 0.036548 0.004647 0.005815
v 0.036076 0.004856 0.005815
v 0.036548 0.004856 0.006287
v 0.046503 -0.003717 0.007426
v 0.044734 -0.005328 0.007426
v 0.044891 -0.003717 0.005815
v 0.045952 -0.004856 0.007426
v 0.045789 -0.004647 0.006496
v 0.044813 -0.004856 0.006287
v 0.046064 -0.003717 0.006287
v 0.046503 0.003717 0.007426
v 0.044891 0.003717 0.005815
v 0.044734 0.005328 0.007426
v 0.046031 0.003717 0.006287
v 0.045789 0.004647 0.006496
v 0.044813 0.004856 0.006287
v 0.045987 0.004854 0.007426
v 0.047760 -0.003717 0.065122
v 0.044728 -0.005328 0.064112
v 0.046503 -0.003717 0.062500
v 0.046209 -0.004859 0.064298
v 0.046388 -0.004647 0.063912
v 0.045985 -0.004854 0.063272
v 0.046871 -0.003717 0.063936
v 0.047760 0.003717 0.065122
v 0.046503 0.003717 0.062500
v 0.044728 0.005328 0.064112
v 0.046871 0.003717 0.063936
v 0.046388 0.004647 0.063912
v 0.045985 0.004854 0.063272
v 0.046209 0.004859 0.064298
v 0.046503 -0.003717 0.290597
v 0.046386 -0.005328 0.288908
v 0.046469 -0.004856 0.290102
v 0.046386 0.005328 0.288908
v 0.046503 0.003717 0.290597
v 0.046469 0.004856 0.290102
v -0.055236 -0.005328 0.288876
v -0.055513 -0.003717 0.290597
v -0.055432 -0.004856 0.290093
v -0.055236 0.005328 0.288876
v -0.055513 0.003717 0.290597
v -0.055432 0.004856 0.290093
v 0.097400 -0.003717 0.253794
v 0.097262 -0.005328 0.252112
v 0.099315 -0.003717 0.251357
v 0.097522 -0.004858 0.253181
v 0.098296 -0.004647 0.252620
v 0.098599 -0.004856 0.251860
v 0.098502 -0.003717 0.252689
v 0.112369 -0.005328 0.215102
v 0.114115 -0.003717 0.215102
v 0.113604 -0.004856 0.215102
v 0.120771 -0.005328 0.177354
v 0.122521 -0.003717 0.177354
v 0.122008 -0.004856 0.177354
v 0.109654 -0.005328 0.139607
v 0.111415 -0.003717 0.139607
v 0.110900 -0.004856 0.139607
v 0.093495 -0.003717 0.101860
v 0.091719 -0.005328 0.101860
v 0.092975 -0.004856 0.101860
v 0.091719 0.005328 0.101860
v 0.093495 0.003717 0.101860
v 0.092975 0.004856 0.101860
v 0.109654 0.005328 0.139607
v 0.111415 0.003717 0.139607
v 0.110900 0.004856 0.139607
v 0.120771 0.005328 0.177354
v 0.122521 0.003717 0.177354
v 0.122008 0.004856 0.177354
v 0.112369 0.005328 0.215102
v 0.114115 0.003717 0.215102
v 0.113604 0.004856 0.215102
v 0.097400 0.003717 0.253794
v 0.099315 0.003717 0.251357
v 0.097262 0.005328 0.252112
v 0.098502 0.003717 0.252689
v 0.098296 0.004647 0.252620
v 0.098599 0.004856 0.251860
v 0.097522 0.004858 0.253181
v -0.106411 0.003717 0.253794
v -0.106374 0.005328 0.251896
v -0.108326 0.003717 0.251357
v -0.106587 0.004857 0.253101
v -0.107332 0.004647 0.252571
v -0.107657 0.004856 0.251754
v -0.107513 0.003717 0.252689
v -0.121394 0.005328 0.215102
v -0.123125 0.003717 0.215102
v -0.122618 0.004856 0.215102
v -0.129797 0.005328 0.177354
v -0.131531 0.003717 0.177354
v -0.131023 0.004856 0.177354
v -0.118683 0.005328 0.139607
v -0.120426 0.003717 0.139607
v -0.119915 0.004856 0.139607
v -0.100753 0.005328 0.101860
v -0.102506 0.003717 0.101860
v -0.101992 0.004856 0.101860
v -0.102506 -0.003717 0.101860
v -0.100753 -0.005328 0.101860
v -0.101992 -0.004856 0.101860
v -0.118683 -0.005328 0.139607
v -0.120426 -0.003717 0.139607
v -0.119915 -0.004856 0.139607
v -0.129797 -0.005328 0.177354
v -0.131531 -0.003717 0.177354
v -0.131023 -0.004856 0.177354
v -0.121394 -0.005328 0.215102
v -0.123125 -0.003717 0.215102
v -0.122618 -0.004856 0.215102
v -0.106411 -0.003717 0.253794
v -0.108326 -0.003717 0.251357
v -0.106374 -0.005328 0.251896
v -0.107513 -0.003717 0.252689
v -0.107332 -0.004647 0.252571
v -0.107657 -0.004856 0.251753
v -0.106587 -0.004857 0.253101
v -0.004505 0.003717 0.301196
v -0.004322 0.005328 0.299454
v -0.004452 0.004856 0.300686
v -0.004322 -0.005328 0.299454
v -0.004505 -0.003717 0.301196
v -0.004452 -0.004856 0.300686
v -0.053788 -0.005328 0.005815
v -0.055513 -0.003717 0.005815
v -0.055008 -0.004856 0.005815
v -0.055513 0.003717 0.005815
v -0.053788 0.005328 0.005815
v -0.055008 0.004856 0.005815
v -0.055513 -0.003717 0.062500
v -0.053775 -0.005328 0.064112
v -0.056770 -0.003717 0.065122
v -0.055005 -0.004855 0.063280
v -0.055404 -0.004647 0.063913
v -0.055228 -0.004859 0.064296
v -0.055881 -0.003717 0.063936
v -0.055513 0.003717 0.062500
v -0.056770 0.003717 0.065122
v -0.053775 0.005328 0.064112
v -0.055881 0.003717 0.063936
v -0.055404 0.004647 0.063913
v -0.055228 0.004859 0.064296
v -0.055005 0.004855 0.063280
vn -0.0000 1.0000 -0.0000
vn -0.0000 -1.0000 -0.0000
vn -0.6174 -0.2210 -0.7550
vn -0.2783 -0.2447 -0.9288
vn -0.2729 -0.8309 -0.4850
vn -0.2036 -0.9584 -0.1998
vn -0.3918 -0.6791 -0.6207
vn -0.6228 -0.6779 -0.3905
vn -0.2783 0.2447 -0.9288
vn -0.6174 0.2210 -0.7550
vn -0.2729 0.8309 -0.4850
vn -0.3918 0.6791 -0.6207
vn -0.2036 0.9584 -0.1998
vn -0.6228 0.6779 -0.3905
vn 0.0523 -0.3708 -0.9272
vn 0.5078 -0.3224 -0.7989
vn 0.1745 -0.8331 -0.5248
vn 0.3983 -0.6998 -0.5930
vn 0.2163 -0.9628 -0.1622
vn 0.6254 -0.6825 -0.3782
vn 0.1065 0.2533 -0.9615
vn 0.1779 0.8440 -0.5059
vn 0.4972 0.2380 -0.8343
vn 0.3983 0.6998 -0.5930
vn 0.6254 0.6825 -0.3782
vn 0.2163 0.9628 -0.1622
vn 0.9306 0.2861 0.2284
vn 0.8616 0.2633 -0.4341
vn 0.5051 0.8605 -0.0662
vn 0.7461 0.6296 -0.2169
vn 0.7946 0.6052 0.0491
vn 0.3199 0.9474 0.0024
vn 0.9356 0.3021 0.1828
vn 0.8447 0.2708 -0.4617
vn 0.4894 0.8677 -0.0871
vn 0.9306 -0.2861 0.2284
vn 0.5051 -0.8605 -0.0662
vn 0.8615 -0.2633 -0.4341
vn 0.7461 -0.6296 -0.2169
vn 0.3199 -0.9474 0.0024
vn 0.7946 -0.6052 0.0491
vn 0.9356 -0.3021 0.1828
vn 0.4894 -0.8677 -0.0871
vn 0.8447 -0.2708 -0.4617
vn -0.8353 0.2291 -0.4998
vn -0.9509 0.2599 -0.1677
vn -0.5066 0.8371 -0.2067
vn -0.9509 -0.2599 -0.1677
vn -0.8353 -0.2291 -0.4998
vn -0.5066 -0.8371 -0.2067
vn 0.8145 0.2668 0.5151
vn 0.9373 0.3058 0.1673
vn 0.4580 0.8676 0.1938
vn 0.9352 0.3007 -0.1869
vn 0.7907 0.2553 -0.5565
vn 0.4603 0.8608 -0.2173
vn 0.3258 0.9454 0.0099
vn 0.7433 0.6343 -0.2128
vn 0.7878 0.6113 0.0761
vn 0.8145 -0.2668 0.5151
vn 0.4580 -0.8676 0.1938
vn 0.9373 -0.3058 0.1673
vn 0.9352 -0.3007 -0.1869
vn 0.4603 -0.8608 -0.2173
vn 0.7907 -0.2553 -0.5565
vn 0.7878 -0.6112 0.0761
vn 0.7433 -0.6343 -0.2128
vn 0.3258 -0.9454 0.0099
vn 0.3568 0.9295 0.0934
vn 0.8423 0.4867 0.2318
vn 0.7825 0.5209 0.3411
vn 0.7825 -0.5209 0.3411
vn 0.8423 -0.4867 0.2318
vn 0.3568 -0.9295 0.0934
vn -0.8816 -0.3457 -0.3215
vn -0.3205 -0.3358 -0.8857
vn -0.3111 -0.8962 -0.3162
vn -0.8809 0.3632 -0.3035
vn -0.3136 0.8963 -0.3136
vn -0.3174 0.3389 -0.8857
vn 0.3251 -0.3251 -0.8881
vn 0.8881 -0.3251 -0.3251
vn 0.3251 -0.8881 -0.3251
vn 0.3251 0.3251 -0.8881
vn 0.3251 0.8881 -0.3251
vn 0.8881 0.3251 -0.3251
vn 0.3913 -0.6778 -0.6225
vn 0.2025 -0.9581 -0.2025
vn 0.6225 -0.6778 -0.3913
vn 0.3913 0.6778 -0.6225
vn 0.6225 0.6778 -0.3913
vn 0.2025 0.9581 -0.2025
vn 0.8772 -0.3796 -0.2939
vn 0.3087 -0.8997 -0.3087
vn 0.3141 -0.3447 -0.8846
vn 0.8786 0.3547 -0.3198
vn 0.3185 0.3405 -0.8847
vn 0.3053 0.8995 -0.3125
vn 0.7301 -0.5509 -0.4043
vn 0.3694 -0.9253 -0.0855
vn 0.8293 -0.4953 -0.2587
vn 0.7301 0.5509 -0.4043
vn 0.8293 0.4953 -0.2587
vn 0.3694 0.9253 -0.0855
vn 0.6573 -0.2596 0.7075
vn 0.4026 -0.8550 0.3271
vn 0.8369 -0.2737 0.4740
vn 0.6573 0.2596 0.7075
vn 0.8369 0.2736 0.4740
vn 0.4026 0.8550 0.3271
vn -0.6545 0.2764 0.7037
vn -0.3943 0.8642 0.3125
vn -0.8369 0.2801 0.4703
vn -0.6545 -0.2764 0.7037
vn -0.8369 -0.2801 0.4703
vn -0.3943 -0.8642 0.3125
vn -0.8318 -0.4911 -0.2589
vn -0.3753 -0.9228 -0.0864
vn -0.7320 -0.5468 -0.4066
vn -0.8318 0.4911 -0.2589
vn -0.7319 0.5468 -0.4066
vn -0.3753 0.9228 -0.0864
vn -0.3111 -0.0000 -0.9504
vn -0.6053 -0.0000 -0.7960
vn -0.3796 -0.9251 -0.0000
vn -0.9226 -0.3858 -0.0000
vn -0.3827 -0.0000 -0.9239
vn -0.9239 -0.0000 -0.3827
vn -0.3524 0.8872 -0.2978
vn -0.7251 0.3150 -0.6124
vn -0.0895 0.3827 -0.9195
vn -0.0371 0.9239 -0.3809
vn 0.6333 0.3401 -0.6952
vn 0.2891 0.9032 -0.3174
vn 0.1120 0.0054 -0.9937
vn 0.4992 0.0040 -0.8665
vn 0.3827 -0.0000 -0.9239
vn 0.9239 -0.0000 -0.3827
vn 0.2945 -0.8991 -0.3239
vn 0.6291 -0.3549 -0.6916
vn -0.0824 -0.4126 -0.9072
vn -0.0362 -0.9185 -0.3938
vn -0.3705 -0.9288 -0.0002
vn -0.9186 -0.3953 -0.0001
vn -0.3731 -0.9278 -0.0001
vn -0.9198 -0.3924 -0.0001
vn -0.3753 -0.9269 -0.0002
vn -0.9207 -0.3902 -0.0001
vn -0.3769 0.9263 -0.0001
vn -0.9214 0.3885 -0.0001
vn -0.3753 0.9269 -0.0002
vn -0.9207 0.3902 -0.0001
vn -0.3731 0.9278 -0.0001
vn -0.9198 0.3924 -0.0001
vn 0.7767 0.3945 0.4910
vn 0.3139 0.9285 0.1982
vn 0.6651 0.3442 -0.6627
vn 0.3008 0.9053 -0.3001
vn 0.7943 0.4143 0.4443
vn 0.3084 0.9355 0.1724
vn 0.3139 -0.9285 0.1982
vn 0.7767 -0.3945 0.4910
vn 0.3008 -0.9053 -0.3001
vn 0.6651 -0.3442 -0.6627
vn 0.3084 -0.9355 0.1724
vn 0.7943 -0.4143 0.4443
vn 0.9870 -0.0000 0.1607
vn 0.8960 -0.0000 -0.4440
vn 0.9048 -0.0000 -0.4258
vn 0.9862 -0.0000 0.1657
vn 0.9781 -0.0000 0.2081
vn 0.9093 -0.0000 -0.4161
vn -0.3705 0.9288 -0.0002
vn -0.9186 0.3953 -0.0001
vn 0.6482 0.3440 -0.6794
vn 0.2931 0.9053 -0.3075
vn 0.2931 -0.9053 -0.3075
vn 0.6482 -0.3440 -0.6793
vn -0.3524 -0.8872 -0.2978
vn -0.7251 -0.3150 -0.6124
vn -0.9800 -0.0000 -0.1989
vn -0.8771 -0.0000 -0.4803
vn -0.3769 -0.9263 -0.0001
vn -0.9214 -0.3885 -0.0001
vn -0.3781 -0.9258 -0.0001
vn -0.9219 -0.3873 -0.0001
vn -0.3789 -0.9254 -0.0000
vn -0.9223 -0.3865 -0.0000
vn -0.3794 0.9252 -0.0000
vn -0.9225 0.3860 -0.0000
vn -0.3789 0.9254 -0.0000
vn -0.9223 0.3865 -0.0000
vn -0.3781 0.9258 -0.0001
vn -0.9219 0.3873 -0.0001
vn 0.7013 0.3410 0.6260
vn 0.3198 0.9035 0.2853
vn 0.8984 0.4391 -0.0002
vn 0.3324 0.9432 -0.0003
vn 0.6599 0.3307 -0.6746
vn 0.3081 0.8975 -0.3156
vn 0.3198 -0.9035 0.2853
vn 0.7013 -0.3410 0.6260
vn 0.3324 -0.9432 -0.0003
vn 0.8984 -0.4391 -0.0002
vn 0.3081 -0.8975 -0.3156
vn 0.6599 -0.3307 -0.6746
vn 0.9050 -0.0000 -0.4253
vn 0.9786 -0.0000 0.2057
vn 0.9747 -0.0000 -0.2237
vn 0.8416 -0.0000 -0.5401
vn 0.8673 -0.0000 0.4978
vn 0.9785 -0.0000 0.2062
vn -0.3794 -0.9252 -0.0000
vn -0.9225 -0.3860 -0.0000
vn -0.3796 0.9251 -0.0000
vn -0.9226 0.3858 -0.0000
vn 0.9019 0.4319 -0.0000
vn 0.3381 0.9411 -0.0000
vn 0.3381 -0.9411 -0.0000
vn 0.9019 -0.4319 -0.0000
vn -0.9271 -0.0014 -0.3748
vn -0.3795 -0.0006 -0.9252
vn -0.0000 0.9239 -0.3827
vn -0.0000 0.3827 -0.9239
vn -0.0000 -0.9239 -0.3827
vn -0.0000 -0.3827 -0.9239
vn 0.3827 -0.9239 -0.0000
vn 0.9239 -0.3827 -0.0000
vn 0.3827 0.9239 -0.0000
vn 0.9239 0.3827 -0.0000
vn 0.9285 0.0020 -0.3713
vn 0.3781 0.0008 -0.9258
vn 0.8003 -0.0000 -0.5996
vn 0.9687 -0.0000 -0.2484
vn 0.3571 -0.9341 -0.0001
vn 0.9052 -0.4251 -0.0003
vn 0.3537 0.9354 -0.0000
vn 0.9103 0.4140 -0.0000
vn -0.2308 -0.9192 0.3191
vn -0.5439 -0.3719 0.7522
vn 0.3221 -0.8576 -0.4009
vn 0.6020 -0.2756 -0.7494
vn 0.2463 0.9074 0.3406
vn 0.5494 0.3478 0.7597
vn -0.0728 0.9338 0.3504
vn -0.1857 0.4086 0.8936
vn -0.1857 -0.4086 0.8936
vn -0.0728 -0.9338 0.3504
vn 0.2463 -0.9074 0.3406
vn 0.5494 -0.3478 0.7597
vn 0.3535 -0.9242 0.1443
vn 0.8550 -0.3836 0.3490
vn 0.3557 -0.9312 0.0792
vn 0.8940 -0.4015 0.1991
vn 0.3536 -0.9296 -0.1041
vn 0.8804 -0.3972 -0.2591
vn 0.3483 -0.9227 -0.1654
vn 0.8357 -0.3798 -0.3968
vn 0.3221 0.8576 -0.4009
vn 0.6020 0.2756 -0.7494
vn 0.3483 0.9227 -0.1654
vn 0.8357 0.3798 -0.3968
vn 0.3536 0.9296 -0.1041
vn 0.8804 0.3972 -0.2591
vn 0.3557 0.9312 0.0792
vn 0.8940 0.4015 0.1991
vn 0.3535 0.9242 0.1443
vn 0.8550 0.3836 0.3490
vn 0.7080 -0.0000 0.7062
vn 0.8534 -0.0000 0.5212
vn -0.2308 0.9192 0.3191
vn -0.5439 0.3719 0.7522
vn -0.3559 0.9232 0.1453
vn -0.8560 0.3810 0.3494
vn -0.3584 0.9302 0.0798
vn -0.8952 0.3986 0.1993
vn -0.3566 0.9283 -0.1050
vn -0.8818 0.3939 -0.2595
vn -0.3519 0.9210 -0.1671
vn -0.8371 0.3759 -0.3974
vn -0.3519 -0.9210 -0.1671
vn -0.8371 -0.3759 -0.3974
vn -0.3566 -0.9283 -0.1050
vn -0.8818 -0.3939 -0.2595
vn -0.3584 -0.9302 0.0798
vn -0.8952 -0.3986 0.1993
vn -0.3559 -0.9232 0.1453
vn -0.8560 -0.3810 0.3494
vn -0.7080 -0.0000 0.7062
vn -0.8534 -0.0000 0.5212
vn 0.0755 0.9288 0.3629
vn 0.1869 0.3949 0.8995
vn 0.1869 -0.3949 0.8995
vn 0.0755 -0.9288 0.3629
vn -0.9110 0.4124 -0.0060
vn -0.3642 0.9313 -0.0019
vn -0.9144 -0.4047 0.0005
vn -0.3617 -0.9323 0.0002
vn -0.9137 0.4065 -0.0000
vn -0.3601 0.9329 0.0001
vn -0.9137 -0.4065 -0.0000
vn -0.3601 -0.9329 0.0001
vn -0.8003 -0.0000 -0.5996
vn -0.9687 -0.0000 -0.2484
vn -0.3261 0.8538 -0.4059
vn -0.6028 0.2713 -0.7504
vn -0.3261 -0.8538 -0.4059
vn -0.6028 -0.2714 -0.7504
vn -0.7640 -0.0000 -0.6452
vn -0.0968 -0.0000 -0.9953
vn -1.0000 -0.0000 -0.0000
vn -0.0000 -0.0000 -1.0000
vn 0.6735 -0.0000 -0.7392
vn 1.0000 -0.0000 -0.0000
vn 0.8451 -0.0000 0.5346
vn 0.7085 -0.0000 -0.7057
vn 0.8727 -0.0000 0.4883
vn 0.6904 -0.0000 -0.7235
vn 0.7460 -0.0000 0.6660
vn 0.6995 -0.0000 -0.7147
vn 0.6262 -0.0000 -0.7796
vn 0.2035 -0.0000 0.9791
vn 0.5860 -0.0000 0.8103
vn -0.2035 -0.0000 0.9791
vn -0.5860 -0.0000 0.8103
vn 0.9258 -0.0000 0.3779
vn 0.9761 -0.0000 0.2174
vn 0.9593 -0.0000 -0.2822
vn 0.9034 -0.0000 -0.4289
vn -0.9258 -0.0000 0.3779
vn -0.9761 -0.0000 0.2174
vn -0.9593 -0.0000 -0.2822
vn -0.9034 -0.0000 -0.4289
vn -0.6262 -0.0000 -0.7796
vt 0.642753 0.020940
vt 0.730107 0.062434
vt 0.683863 0.159789
vt 0.596508 0.118295
vt 0.432914 0.845603
vt 0.530269 0.799359
vt 0.571763 0.886713
vt 0.474408 0.932957
vt 0.464131 0.287196
vt 0.521724 0.314553
vt 0.495536 0.379374
vt 0.434188 0.350233
vt 0.599426 0.351462
vt 0.575532 0.417373
vt 0.494075 0.224159
vt 0.547748 0.249654
vt 0.627535 0.287553
vt 0.524018 0.161122
vt 0.574340 0.185026
vt 0.653919 0.222826
vt 0.561865 0.101840
vt 0.573096 0.726868
vt 0.597000 0.777190
vt 0.513813 0.764716
vt 0.634800 0.856770
vt 0.636133 0.696925
vt 0.661628 0.750598
vt 0.699527 0.830385
vt 0.699170 0.666981
vt 0.726527 0.724574
vt 0.763436 0.802276
vt 0.762207 0.637038
vt 0.791348 0.698387
vt 0.829347 0.778382
vt 0.515932 0.553913
vt 0.516911 0.561332
vt 0.512459 0.561397
vt 0.510177 0.557072
vt 0.517317 0.568294
vt 0.511793 0.565078
vt 0.506124 0.561028
vt 0.062737 0.911780
vt 0.055755 0.908101
vt 0.054728 0.906282
vt 0.056912 0.905605
vt 0.047514 0.909988
vt 0.049739 0.904608
vt 0.050549 0.898569
vt 0.551237 0.568470
vt 0.551679 0.561447
vt 0.556194 0.561513
vt 0.556887 0.565248
vt 0.552692 0.553902
vt 0.558503 0.557148
vt 0.562543 0.561123
vt 0.015526 0.909706
vt 0.007670 0.908074
vt 0.008652 0.906292
vt 0.013493 0.904709
vt 0.000755 0.911780
vt 0.006500 0.905647
vt 0.012788 0.898681
vt 0.517156 0.596235
vt 0.516874 0.602876
vt 0.512307 0.602829
vt 0.511400 0.597996
vt 0.515682 0.610538
vt 0.509575 0.608059
vt 0.506124 0.602551
vt 0.924118 0.004106
vt 0.931880 0.005713
vt 0.930731 0.007381
vt 0.926005 0.008737
vt 0.938966 0.002132
vt 0.932792 0.008290
vt 0.926650 0.014494
vt 0.550852 0.596484
vt 0.556378 0.599153
vt 0.555694 0.603079
vt 0.551252 0.603421
vt 0.562136 0.602809
vt 0.557865 0.607407
vt 0.552066 0.610641
vt 0.894198 0.003758
vt 0.892152 0.008748
vt 0.887242 0.007281
vt 0.886038 0.005557
vt 0.891395 0.014547
vt 0.885126 0.008215
vt 0.878813 0.001983
vt 0.951896 0.896924
vt 0.952123 0.891017
vt 0.956443 0.891348
vt 0.957277 0.895305
vt 0.953297 0.884473
vt 0.959285 0.887433
vt 0.963079 0.892258
vt 0.850157 0.497439
vt 0.850755 0.504048
vt 0.845925 0.505606
vt 0.843687 0.504640
vt 0.852372 0.509953
vt 0.845388 0.508095
vt 0.838039 0.510262
vt 0.950716 0.606459
vt 0.949695 0.600230
vt 0.953791 0.599168
vt 0.956256 0.602762
vt 0.949346 0.594341
vt 0.954682 0.594854
vt 0.959791 0.596387
vt 0.919634 0.897607
vt 0.914282 0.896192
vt 0.914946 0.892286
vt 0.919144 0.891779
vt 0.908515 0.893406
vt 0.912048 0.888591
vt 0.917729 0.885526
vt 0.887351 0.497543
vt 0.893678 0.504658
vt 0.891468 0.505593
vt 0.886746 0.504081
vt 0.899232 0.510262
vt 0.891965 0.508029
vt 0.885191 0.509709
vt 0.916070 0.606343
vt 0.910603 0.602773
vt 0.913025 0.599221
vt 0.917087 0.600280
vt 0.907042 0.596477
vt 0.912125 0.594934
vt 0.917426 0.594410
vt 0.011884 0.001290
vt 0.012765 0.008376
vt 0.008520 0.008223
vt 0.006380 0.003901
vt 0.013150 0.015087
vt 0.007817 0.011612
vt 0.002351 0.007161
vt 0.045497 0.014861
vt 0.045765 0.008089
vt 0.050065 0.007865
vt 0.050825 0.011282
vt 0.046549 0.000857
vt 0.052182 0.003451
vt 0.056298 0.006711
vt 0.408690 0.044891
vt 0.401750 0.044659
vt 0.402863 0.040370
vt 0.407739 0.039378
vt 0.394527 0.044126
vt 0.399301 0.038579
vt 0.406287 0.034239
vt 0.076851 0.923214
vt 0.069968 0.922939
vt 0.069657 0.918458
vt 0.073317 0.917655
vt 0.062566 0.921998
vt 0.064806 0.915937
vt 0.068111 0.911309
vt 0.001276 0.999612
vt 0.006632 0.994223
vt 0.008823 0.995018
vt 0.008242 0.997248
vt 0.012995 0.987069
vt 0.013560 0.993533
vt 0.015149 0.999044
vt 0.408915 0.078313
vt 0.408001 0.083818
vt 0.403134 0.082866
vt 0.401976 0.078612
vt 0.406588 0.088945
vt 0.399618 0.084675
vt 0.394864 0.079239
vt 0.077257 0.956338
vt 0.073882 0.961905
vt 0.070264 0.961200
vt 0.070455 0.956794
vt 0.068898 0.968246
vt 0.065570 0.963773
vt 0.063260 0.957905
vt 0.048263 0.999358
vt 0.049930 0.993494
vt 0.054869 0.995033
vt 0.055512 0.997346
vt 0.050494 0.986973
vt 0.057117 0.994183
vt 0.062737 0.999612
vt 0.881775 0.329977
vt 0.887948 0.326717
vt 0.889550 0.329914
vt 0.888482 0.331853
vt 0.893628 0.323530
vt 0.893921 0.330326
vt 0.894574 0.336689
vt 0.926033 0.336689
vt 0.926683 0.330155
vt 0.931108 0.329727
vt 0.932199 0.331684
vt 0.926978 0.323332
vt 0.932702 0.326501
vt 0.938927 0.329735
vt 0.320330 0.921039
vt 0.325549 0.919858
vt 0.326094 0.923576
vt 0.323034 0.926105
vt 0.330342 0.919869
vt 0.329781 0.924807
vt 0.327746 0.930012
vt 0.321367 0.889939
vt 0.324394 0.885223
vt 0.327145 0.887915
vt 0.326290 0.891506
vt 0.329125 0.881767
vt 0.330831 0.886916
vt 0.331150 0.891808
vt 0.339404 0.092715
vt 0.339105 0.097578
vt 0.335264 0.096740
vt 0.334441 0.093093
vt 0.337460 0.102759
vt 0.332176 0.099567
vt 0.329344 0.094840
vt 0.367459 0.094291
vt 0.372332 0.094715
vt 0.371485 0.098375
vt 0.367683 0.099220
vt 0.377368 0.096390
vt 0.374447 0.101072
vt 0.369646 0.105215
vt 0.333106 0.117147
vt 0.324202 0.108454
vt 0.327261 0.107487
vt 0.334175 0.110110
vt 0.315098 0.101451
vt 0.325693 0.104712
vt 0.337458 0.102766
vt 0.372714 0.118483
vt 0.372160 0.111368
vt 0.379301 0.109134
vt 0.382460 0.110238
vt 0.369645 0.105229
vt 0.381095 0.106128
vt 0.392271 0.103237
vt 0.335264 0.160936
vt 0.329947 0.157990
vt 0.332862 0.154929
vt 0.336713 0.155810
vt 0.326136 0.152681
vt 0.331740 0.150905
vt 0.336978 0.150577
vt 0.366923 0.163116
vt 0.366081 0.157513
vt 0.370126 0.157150
vt 0.372744 0.160732
vt 0.366360 0.152370
vt 0.371647 0.153134
vt 0.377300 0.155445
vt 0.263010 0.936745
vt 0.256303 0.931085
vt 0.257622 0.929613
vt 0.262205 0.930286
vt 0.249911 0.929788
vt 0.256036 0.926576
vt 0.261967 0.923304
vt 0.296239 0.936875
vt 0.297100 0.930193
vt 0.301751 0.929538
vt 0.303082 0.931033
vt 0.297401 0.923195
vt 0.303352 0.926487
vt 0.309503 0.929720
vt 0.113206 0.528625
vt 0.118984 0.531139
vt 0.117588 0.535561
vt 0.113122 0.535808
vt 0.124429 0.534453
vt 0.118719 0.539355
vt 0.113021 0.542978
vt 0.078832 0.528652
vt 0.078911 0.535843
vt 0.074443 0.535593
vt 0.073049 0.531169
vt 0.079003 0.543028
vt 0.073307 0.539388
vt 0.067604 0.534481
vt 0.140766 0.378474
vt 0.135007 0.375592
vt 0.136317 0.371365
vt 0.140780 0.371307
vt 0.129313 0.371648
vt 0.135092 0.367297
vt 0.140823 0.364142
vt 0.174940 0.378440
vt 0.174933 0.371270
vt 0.179396 0.371332
vt 0.180703 0.375559
vt 0.174902 0.364095
vt 0.180627 0.367264
vt 0.186396 0.371621
vt 0.201522 0.673382
vt 0.195592 0.670049
vt 0.197183 0.667029
vt 0.201823 0.666387
vt 0.189555 0.666835
vt 0.195862 0.665544
vt 0.202679 0.659708
vt 0.236936 0.673276
vt 0.236697 0.666297
vt 0.241270 0.666956
vt 0.242846 0.669963
vt 0.235897 0.659838
vt 0.242579 0.665495
vt 0.248857 0.666770
vt 0.059010 0.574615
vt 0.053308 0.574647
vt 0.047652 0.574675
vt 0.729679 0.453251
vt 0.836495 0.453208
vt 0.835198 0.457918
vt 0.730735 0.457922
vt 0.833618 0.463496
vt 0.732034 0.463496
vt 0.950885 0.472277
vt 0.950994 0.342518
vt 0.956765 0.340736
vt 0.956612 0.470277
vt 0.961969 0.339157
vt 0.961791 0.465455
vt 0.904857 0.465473
vt 0.904591 0.339157
vt 0.909631 0.341895
vt 0.910042 0.470291
vt 0.915462 0.342505
vt 0.915774 0.472282
vt 0.058163 0.092461
vt 0.052382 0.092529
vt 0.046774 0.092584
vt 0.058339 0.206876
vt 0.052593 0.206888
vt 0.046951 0.206900
vt 0.058447 0.271276
vt 0.052728 0.271290
vt 0.047089 0.271303
vt 0.002036 0.335428
vt 0.001842 0.271420
vt 0.007561 0.271405
vt 0.007734 0.335414
vt 0.013201 0.271389
vt 0.013370 0.335399
vt 0.001623 0.207015
vt 0.007369 0.206998
vt 0.013012 0.206980
vt 0.001218 0.092591
vt 0.006989 0.092618
vt 0.012590 0.092634
vt 0.955453 0.958433
vt 0.961865 0.964398
vt 0.968243 0.970334
vt 0.854124 0.419209
vt 0.848763 0.418420
vt 0.843893 0.417690
vt 0.457579 0.556478
vt 0.457579 0.674717
vt 0.451796 0.676076
vt 0.451799 0.550700
vt 0.445557 0.677561
vt 0.445620 0.544456
vt 0.905413 0.970334
vt 0.911536 0.964334
vt 0.917692 0.958305
vt 0.894204 0.417509
vt 0.889315 0.418196
vt 0.883918 0.418940
vt 0.503925 0.544456
vt 0.503988 0.677561
vt 0.497749 0.676076
vt 0.497746 0.550700
vt 0.491966 0.674717
vt 0.491966 0.556478
vt 0.836495 0.508171
vt 0.729679 0.508128
vt 0.730735 0.503457
vt 0.835198 0.503461
vt 0.732034 0.497883
vt 0.833618 0.497883
vt 0.058580 0.335283
vt 0.052882 0.335298
vt 0.047247 0.335312
vt 0.058706 0.393098
vt 0.053023 0.393112
vt 0.047391 0.393125
vt 0.058877 0.473923
vt 0.053204 0.473933
vt 0.047573 0.473943
vt 0.002821 0.574802
vt 0.002453 0.474070
vt 0.008128 0.474051
vt 0.008522 0.574806
vt 0.013759 0.474033
vt 0.014180 0.574806
vt 0.002208 0.393244
vt 0.007891 0.393228
vt 0.013522 0.393212
vt 0.530455 0.043527
vt 0.537558 0.037700
vt 0.543722 0.032549
vt 0.143529 0.920819
vt 0.146842 0.914671
vt 0.150569 0.907875
vt 0.016209 0.917645
vt 0.010924 0.916795
vt 0.006300 0.916039
vt 0.543722 0.089923
vt 0.537545 0.084816
vt 0.530429 0.079039
vt 0.150569 0.970334
vt 0.146772 0.963666
vt 0.143394 0.957631
vt 0.055542 0.914799
vt 0.050865 0.915683
vt 0.045519 0.916680
vt 0.416156 0.872568
vt 0.408877 0.879348
vt 0.401544 0.886085
vt 0.416156 0.942672
vt 0.409063 0.935513
vt 0.401909 0.928381
vt 0.251280 0.667167
vt 0.257218 0.667196
vt 0.262973 0.667219
vt 0.308018 0.667167
vt 0.301932 0.667199
vt 0.296257 0.667226
vt 0.186056 0.664790
vt 0.180286 0.666299
vt 0.174644 0.666875
vt 0.245782 0.362535
vt 0.248857 0.660831
vt 0.244274 0.654586
vt 0.240912 0.358728
vt 0.238027 0.645710
vt 0.235348 0.357333
vt 0.067980 0.238833
vt 0.073498 0.236861
vt 0.079127 0.236116
vt 0.128300 0.900434
vt 0.129917 0.664663
vt 0.135689 0.666170
vt 0.134493 0.901055
vt 0.141332 0.666742
vt 0.140298 0.901323
vt 0.175719 0.901239
vt 0.181518 0.900969
vt 0.187706 0.900348
vt 0.123729 0.238890
vt 0.118213 0.236917
vt 0.112586 0.236169
vt 0.124888 0.721173
vt 0.118957 0.722921
vt 0.113186 0.723631
vt 0.125474 0.901586
vt 0.119343 0.902876
vt 0.113478 0.903415
vt 0.248254 0.004002
vt 0.247288 0.179580
vt 0.241668 0.177540
vt 0.242486 0.002392
vt 0.236168 0.176705
vt 0.236899 0.001713
vt 0.188181 0.660831
vt 0.192203 0.362228
vt 0.197090 0.358439
vt 0.192789 0.654593
vt 0.202659 0.357067
vt 0.199071 0.645728
vt 0.191659 0.179421
vt 0.197286 0.177412
vt 0.202787 0.176605
vt 0.191571 0.003922
vt 0.197344 0.002341
vt 0.202933 0.001690
vt 0.065959 0.901482
vt 0.066818 0.721179
vt 0.072744 0.722936
vt 0.072085 0.902780
vt 0.078512 0.723656
vt 0.077945 0.903327
vt 0.128841 0.184195
vt 0.134779 0.182447
vt 0.140595 0.181737
vt 0.128300 0.002226
vt 0.134436 0.000938
vt 0.140342 0.000401
vt 0.311068 0.004163
vt 0.310071 0.179716
vt 0.304500 0.177697
vt 0.305346 0.002567
vt 0.299009 0.176870
vt 0.299767 0.001893
vt 0.308565 0.362719
vt 0.303746 0.358965
vt 0.298189 0.357589
vt 0.255091 0.362415
vt 0.254548 0.179570
vt 0.260128 0.177582
vt 0.259926 0.358680
vt 0.265622 0.176784
vt 0.265488 0.357326
vt 0.254480 0.003958
vt 0.260213 0.002391
vt 0.265797 0.001747
vt 0.188211 0.002347
vt 0.187300 0.184201
vt 0.181367 0.182441
vt 0.182081 0.001047
vt 0.175555 0.181719
vt 0.176180 0.000499
vt 0.066703 0.004491
vt 0.072657 0.002690
vt 0.078404 0.001943
vt 0.113784 0.002069
vt 0.119526 0.002828
vt 0.125474 0.004640
vt 0.313953 0.886420
vt 0.317945 0.879734
vt 0.324430 0.874292
vt 0.311762 0.924802
vt 0.316397 0.931955
vt 0.323165 0.937203
vt 0.321787 0.002491
vt 0.328084 0.010013
vt 0.334379 0.017605
vt 0.386443 0.001818
vt 0.379876 0.009467
vt 0.373336 0.017157
vt 0.235942 0.936828
vt 0.241611 0.936849
vt 0.247555 0.936875
vt 0.202634 0.936820
vt 0.196967 0.936846
vt 0.191025 0.936875
vt 0.311594 0.660831
vt 0.307084 0.654704
vt 0.300848 0.645857
vt 0.251123 0.660831
vt 0.255657 0.654712
vt 0.261927 0.645875
vt 0.356621 0.464638
vt 0.393327 0.497496
vt 0.313078 0.499195
vt 0.340358 0.466361
vt 0.405186 0.729640
vt 0.406317 0.859905
vt 0.316060 0.860676
vt 0.314948 0.730411
vt 0.409783 0.862855
vt 0.313078 0.863681
vt 0.407128 0.949422
vt 0.848948 0.016745
vt 0.876229 0.049578
vt 0.795979 0.047880
vt 0.832686 0.015022
vt 0.874358 0.280794
vt 0.873247 0.411060
vt 0.782990 0.410289
vt 0.784121 0.280024
vt 0.407636 0.865636
vt 0.876229 0.414065
vt 0.779524 0.413239
vt 0.315098 0.011576
vt 0.393153 0.011164
vt 0.432080 0.533790
vt 0.313350 0.534804
vt 0.406533 0.580447
vt 0.313723 0.581240
vt 0.432834 0.606346
vt 0.313928 0.607361
vt 0.416682 0.632447
vt 0.314138 0.633323
vt 0.875378 0.157745
vt 0.875169 0.183707
vt 0.772624 0.182831
vt 0.756472 0.156730
vt 0.875583 0.131624
vt 0.782773 0.130831
vt 0.875956 0.085188
vt 0.757226 0.084174
vt 0.440935 0.655696
vt 0.314329 0.656777
vt 0.441251 0.688488
vt 0.314603 0.689570
vt 0.874704 0.239954
vt 0.748055 0.238872
vt 0.874978 0.207161
vt 0.748371 0.206080
vt 0.412656 0.796011
vt 0.507325 0.751056
vt 0.420429 0.812373
vt 0.593161 0.000682
vt 0.609523 0.008455
vt 0.548205 0.095351
vt 0.533086 0.642638
vt 0.439788 0.121112
vt 0.881411 0.569967
vt 0.939247 0.646282
vt 0.779606 0.514194
vt 0.705816 0.518323
vt 0.443432 0.527274
vt 0.367116 0.469437
vt 0.315473 0.293842
vt 0.311344 0.367633
vt 0.961969 0.739699
vt 0.940780 0.854431
vt 0.891249 0.908701
vt 0.536849 0.549996
vt 0.705851 0.479275
vt 0.651580 0.528806
vt 0.636114 0.534236
vt 0.581896 0.582744
vt 0.379894 0.169922
vt 0.331386 0.224141
vt 0.749827 0.422904
vt 0.761211 0.351051
vt 0.761211 0.273791
vt 0.712701 0.173488
vt 0.763025 0.964061
vt 0.685764 0.964061
vt 0.585462 0.915551
vt 0.834878 0.952677
vt 0.488117 0.961819
vt 0.758968 0.076144
s 0
usemtl test
f 6/1/1 1/2/1 7/3/1 10/4/1
f 5/5/2 9/6/2 8/7/2 2/8/2
f 12/9/1 16/10/1 15/11/1 11/12/1
f 16/10/1 20/13/1 19/14/1 15/11/1
f 13/15/1 17/16/1 16/10/1 12/9/1
f 17/16/1 21/17/1 20/13/1 16/10/1
f 14/18/1 18/19/1 17/16/1 13/15/1
f 18/19/1 22/20/1 21/17/1 17/16/1
f 4/21/1 10/4/1 18/19/1 14/18/1
f 10/4/1 7/3/1 22/20/1 18/19/1
f 23/22/2 27/23/2 9/6/2 3/24/2
f 27/23/2 31/25/2 8/7/2 9/6/2
f 24/26/2 28/27/2 27/23/2 23/22/2
f 28/27/2 32/28/2 31/25/2 27/23/2
f 25/29/2 29/30/2 28/27/2 24/26/2
f 29/30/2 33/31/2 32/28/2 28/27/2
f 26/32/2 30/33/2 29/30/2 25/29/2
f 30/33/2 34/34/2 33/31/2 29/30/2
f 35/35/3 38/36/3 39/37/3 41/38/3
f 36/39/4 40/40/4 39/37/4 38/36/4
f 37/41/5 41/38/5 39/37/5 40/40/5
f 42/42/6 45/43/6 46/44/6 48/45/6
f 43/46/7 47/47/7 46/44/7 45/43/7
f 44/48/8 48/45/8 46/44/8 47/47/8
f 49/49/9 52/50/9 53/51/9 55/52/9
f 50/53/10 54/54/10 53/51/10 52/50/10
f 51/55/11 55/52/11 53/51/11 54/54/11
f 56/56/12 59/57/12 60/58/12 62/59/12
f 57/60/13 61/61/13 60/58/13 59/57/13
f 58/62/14 62/59/14 60/58/14 61/61/14
f 63/63/15 66/64/15 67/65/15 69/66/15
f 64/67/16 68/68/16 67/65/16 66/64/16
f 65/69/17 69/66/17 67/65/17 68/68/17
f 70/70/18 73/71/18 74/72/18 76/73/18
f 71/74/19 75/75/19 74/72/19 73/71/19
f 72/76/20 76/73/20 74/72/20 75/75/20
f 77/77/21 80/78/21 81/79/21 83/80/21
f 78/81/22 82/82/22 81/79/22 80/78/22
f 79/83/23 83/80/23 81/79/23 82/82/23
f 84/84/24 87/85/24 88/86/24 90/87/24
f 85/88/25 89/89/25 88/86/25 87/85/25
f 86/90/26 90/87/26 88/86/26 89/89/26
f 109/91/27 112/92/27 113/93/27 115/94/27
f 110/95/28 114/96/28 113/93/28 112/92/28
f 111/97/29 115/94/29 113/93/29 114/96/29
f 116/98/30 119/99/30 120/100/30 122/101/30
f 117/102/31 121/103/31 120/100/31 119/99/31
f 118/104/32 122/101/32 120/100/32 121/103/32
f 123/105/33 126/106/33 127/107/33 129/108/33
f 124/109/34 128/110/34 127/107/34 126/106/34
f 125/111/35 129/108/35 127/107/35 128/110/35
f 130/112/36 133/113/36 134/114/36 136/115/36
f 131/116/37 135/117/37 134/114/37 133/113/37
f 132/118/38 136/115/38 134/114/38 135/117/38
f 137/119/39 140/120/39 141/121/39 143/122/39
f 138/123/40 142/124/40 141/121/40 140/120/40
f 139/125/41 143/122/41 141/121/41 142/124/41
f 144/126/42 147/127/42 148/128/42 150/129/42
f 145/130/43 149/131/43 148/128/43 147/127/43
f 146/132/44 150/129/44 148/128/44 149/131/44
f 151/133/45 154/134/45 155/135/45 157/136/45
f 152/137/46 156/138/46 155/135/46 154/134/46
f 153/139/47 157/136/47 155/135/47 156/138/47
f 164/140/48 167/141/48 168/142/48 170/143/48
f 165/144/49 169/145/49 168/142/49 167/141/49
f 166/146/50 170/143/50 168/142/50 169/145/50
f 189/147/51 192/148/51 193/149/51 195/150/51
f 190/151/52 194/152/52 193/149/52 192/148/52
f 191/153/53 195/150/53 193/149/53 194/152/53
f 196/154/54 199/155/54 200/156/54 202/157/54
f 197/158/55 201/159/55 200/156/55 199/155/55
f 198/160/56 202/157/56 200/156/56 201/159/56
f 203/161/57 206/162/57 207/163/57 209/164/57
f 204/165/58 208/166/58 207/163/58 206/162/58
f 205/167/59 209/164/59 207/163/59 208/166/59
f 210/168/60 213/169/60 214/170/60 216/171/60
f 211/172/61 215/173/61 214/170/61 213/169/61
f 212/174/62 216/171/62 214/170/62 215/173/62
f 217/175/63 220/176/63 221/177/63 223/178/63
f 218/179/64 222/180/64 221/177/64 220/176/64
f 219/181/65 223/178/65 221/177/65 222/180/65
f 224/182/66 227/183/66 228/184/66 230/185/66
f 225/186/67 229/187/67 228/184/67 227/183/67
f 226/188/68 230/185/68 228/184/68 229/187/68
f 237/189/69 240/190/69 241/191/69 243/192/69
f 238/193/70 242/194/70 241/191/70 240/190/70
f 239/195/71 243/192/71 241/191/71 242/194/71
f 244/196/72 247/197/72 248/198/72 250/199/72
f 245/200/73 249/201/73 248/198/73 247/197/73
f 246/202/74 250/199/74 248/198/74 249/201/74
f 251/203/75 254/204/75 255/205/75 257/206/75
f 252/207/76 256/208/76 255/205/76 254/204/76
f 253/209/77 257/206/77 255/205/77 256/208/77
f 258/210/78 261/211/78 262/212/78 264/213/78
f 259/214/79 263/215/79 262/212/79 261/211/79
f 260/216/80 264/213/80 262/212/80 263/215/80
f 265/217/81 268/218/81 269/219/81 271/220/81
f 266/221/82 270/222/82 269/219/82 268/218/82
f 267/223/83 271/220/83 269/219/83 270/222/83
f 272/224/84 275/225/84 276/226/84 278/227/84
f 273/228/85 277/229/85 276/226/85 275/225/85
f 274/230/86 278/227/86 276/226/86 277/229/86
f 279/231/87 282/232/87 283/233/87 285/234/87
f 280/235/88 284/236/88 283/233/88 282/232/88
f 281/237/89 285/234/89 283/233/89 284/236/89
f 286/238/90 289/239/90 290/240/90 292/241/90
f 287/242/91 291/243/91 290/240/91 289/239/91
f 288/244/92 292/241/92 290/240/92 291/243/92
f 293/245/93 296/246/93 297/247/93 299/248/93
f 294/249/94 298/250/94 297/247/94 296/246/94
f 295/251/95 299/248/95 297/247/95 298/250/95
f 300/252/96 303/253/96 304/254/96 306/255/96
f 301/256/97 305/257/97 304/254/97 303/253/97
f 302/258/98 306/255/98 304/254/98 305/257/98
f 307/259/99 310/260/99 311/261/99 313/262/99
f 308/263/100 312/264/100 311/261/100 310/260/100
f 309/265/101 313/262/101 311/261/101 312/264/101
f 314/266/102 317/267/102 318/268/102 320/269/102
f 315/270/103 319/271/103 318/268/103 317/267/103
f 316/272/104 320/269/104 318/268/104 319/271/104
f 333/273/105 336/274/105 337/275/105 339/276/105
f 334/277/106 338/278/106 337/275/106 336/274/106
f 335/279/107 339/276/107 337/275/107 338/278/107
f 364/280/108 367/281/108 368/282/108 370/283/108
f 365/284/109 369/285/109 368/282/109 367/281/109
f 366/286/110 370/283/110 368/282/110 369/285/110
f 371/287/111 374/288/111 375/289/111 377/290/111
f 372/291/112 376/292/112 375/289/112 374/288/112
f 373/293/113 377/290/113 375/289/113 376/292/113
f 402/294/114 405/295/114 406/296/114 408/297/114
f 403/298/115 407/299/115 406/296/115 405/295/115
f 404/300/116 408/297/116 406/296/116 407/299/116
f 421/301/117 424/302/117 425/303/117 427/304/117
f 422/305/118 426/306/118 425/303/118 424/302/118
f 423/307/119 427/304/119 425/303/119 426/306/119
f 428/308/120 431/309/120 432/310/120 434/311/120
f 429/312/121 433/313/121 432/310/121 431/309/121
f 430/314/122 434/311/122 432/310/122 433/313/122
f 49/49/123 36/39/123 38/36/123 52/50/123
f 52/50/124 38/36/124 35/35/124 50/53/124
f 232/315/125 42/42/125 48/45/125 233/316/125
f 233/316/126 48/45/126 44/48/126 231/317/126
f 43/46/127 56/56/127 62/59/127 47/47/127
f 47/47/128 62/59/128 58/62/128 44/48/128
f 153/318/129 51/319/129 54/320/129 157/321/129
f 157/321/130 54/320/130 50/322/130 151/323/130
f 77/77/131 49/49/131 55/52/131 80/78/131
f 80/78/132 55/52/132 51/55/132 78/81/132
f 159/324/133 79/325/133 82/326/133 160/327/133
f 160/327/134 82/326/134 78/328/134 158/329/134
f 63/63/135 77/77/135 83/80/135 66/64/135
f 66/64/136 83/80/136 79/83/136 64/67/136
f 84/84/137 70/70/137 76/73/137 87/85/137
f 87/85/138 76/73/138 72/76/138 85/88/138
f 162/330/139 65/331/139 68/332/139 163/333/139
f 163/333/140 68/332/140 64/334/140 161/335/140
f 36/39/141 63/63/141 69/66/141 40/40/141
f 40/40/142 69/66/142 65/69/142 37/41/142
f 166/146/143 91/336/143 93/337/143 170/143/143
f 170/143/144 93/337/144 92/338/144 164/140/144
f 91/336/145 94/339/145 96/340/145 93/337/145
f 93/337/146 96/340/146 95/341/146 92/338/146
f 94/339/147 97/342/147 99/343/147 96/340/147
f 96/340/148 99/343/148 98/344/148 95/341/148
f 187/345/149 100/346/149 102/347/149 188/348/149
f 188/348/150 102/347/150 101/349/150 186/350/150
f 100/346/151 103/351/151 105/352/151 102/347/151
f 102/347/152 105/352/152 104/353/152 101/349/152
f 103/351/153 106/354/153 108/355/153 105/352/153
f 105/352/154 108/355/154 107/356/154 104/353/154
f 205/357/155 109/91/155 115/94/155 209/358/155
f 209/358/156 115/94/156 111/97/156 203/359/156
f 110/360/157 116/98/157 122/101/157 114/361/157
f 114/361/158 122/101/158 118/104/158 111/362/158
f 117/363/159 123/364/159 129/365/159 121/366/159
f 121/366/160 129/365/160 125/367/160 118/368/160
f 226/369/161 131/116/161 133/113/161 230/370/161
f 230/370/162 133/113/162 130/112/162 224/371/162
f 131/372/163 138/123/163 140/120/163 135/373/163
f 135/373/164 140/120/164 137/119/164 132/374/164
f 138/375/165 145/376/165 147/377/165 142/378/165
f 142/378/166 147/377/166 144/379/166 139/380/166
f 123/105/167 144/126/167 150/129/167 126/106/167
f 126/106/168 150/129/168 146/132/168 124/109/168
f 116/98/169 137/119/169 143/122/169 119/99/169
f 119/99/170 143/122/170 139/125/170 117/102/170
f 109/91/171 130/112/171 136/115/171 112/92/171
f 112/92/172 136/115/172 132/118/172 110/95/172
f 106/354/173 153/139/173 156/138/173 108/355/173
f 108/355/174 156/138/174 152/137/174 107/356/174
f 124/109/175 159/324/175 160/327/175 128/110/175
f 128/110/176 160/327/176 158/329/176 125/111/176
f 145/130/177 162/330/177 163/333/177 149/131/177
f 149/131/178 163/333/178 161/335/178 146/132/178
f 37/381/179 166/382/179 169/383/179 41/384/179
f 41/384/180 169/383/180 165/385/180 35/386/180
f 164/140/181 152/137/181 154/134/181 167/141/181
f 167/141/182 154/134/182 151/133/182 165/144/182
f 97/342/183 171/387/183 173/388/183 99/343/183
f 99/343/184 173/388/184 172/389/184 98/344/184
f 171/387/185 174/390/185 176/391/185 173/388/185
f 173/388/186 176/391/186 175/392/186 172/389/186
f 174/390/187 177/393/187 179/394/187 176/391/187
f 176/391/188 179/394/188 178/395/188 175/392/188
f 235/396/189 180/397/189 182/398/189 236/399/189
f 236/399/190 182/398/190 181/400/190 234/401/190
f 180/397/191 183/402/191 185/403/191 182/398/191
f 182/398/192 185/403/192 184/404/192 181/400/192
f 183/402/193 187/345/193 188/348/193 185/403/193
f 185/403/194 188/348/194 186/350/194 184/404/194
f 239/405/195 189/147/195 195/150/195 243/406/195
f 243/406/196 195/150/196 191/153/196 237/407/196
f 190/408/197 196/154/197 202/157/197 194/409/197
f 194/409/198 202/157/198 198/160/198 191/410/198
f 197/411/199 204/165/199 206/162/199 201/412/199
f 201/412/200 206/162/200 203/161/200 198/413/200
f 246/414/201 211/172/201 213/169/201 250/415/201
f 250/415/202 213/169/202 210/168/202 244/416/202
f 211/417/203 218/179/203 220/176/203 215/418/203
f 215/418/204 220/176/204 217/175/204 212/419/204
f 218/420/205 226/188/205 229/187/205 222/421/205
f 222/421/206 229/187/206 225/186/206 219/422/206
f 204/165/207 225/186/207 227/183/207 208/166/207
f 208/166/208 227/183/208 224/182/208 205/167/208
f 196/154/209 217/175/209 223/178/209 199/155/209
f 199/155/210 223/178/210 219/181/210 197/158/210
f 189/147/211 210/168/211 216/171/211 192/148/211
f 192/148/212 216/171/212 212/174/212 190/151/212
f 177/393/213 232/315/213 233/316/213 179/394/213
f 179/394/214 233/316/214 231/317/214 178/395/214
f 57/60/215 235/396/215 236/399/215 61/61/215
f 61/61/216 236/399/216 234/401/216 58/62/216
f 85/88/217 238/193/217 240/190/217 89/89/217
f 89/89/218 240/190/218 237/189/218 86/90/218
f 71/74/219 246/202/219 249/201/219 75/75/219
f 75/75/220 249/201/220 245/200/220 72/76/220
f 238/193/212 245/200/212 247/197/212 242/194/212
f 242/194/211 247/197/211 244/196/211 239/195/211
f 251/203/221 258/210/221 264/213/221 254/204/221
f 254/204/222 264/213/222 260/216/222 252/207/222
f 259/214/223 57/423/223 59/424/223 263/215/223
f 263/215/224 59/424/224 56/425/224 260/216/224
f 42/426/225 253/209/225 256/208/225 45/427/225
f 45/427/226 256/208/226 252/207/226 43/428/226
f 274/230/138 266/221/138 268/218/138 278/227/138
f 278/227/137 268/218/137 265/217/137 272/224/137
f 286/238/137 279/231/137 285/234/137 289/239/137
f 289/239/138 285/234/138 281/237/138 287/242/138
f 280/235/227 267/223/227 270/222/227 284/236/227
f 284/236/228 270/222/228 266/221/228 281/237/228
f 273/228/229 288/244/229 291/243/229 277/229/229
f 277/229/230 291/243/230 287/242/230 274/230/230
f 300/252/231 293/245/231 299/248/231 303/253/231
f 303/253/232 299/248/232 295/251/232 301/256/232
f 294/249/225 280/235/225 282/232/225 298/250/225
f 298/250/226 282/232/226 279/231/226 295/251/226
f 288/244/223 302/258/223 305/257/223 292/241/223
f 292/241/224 305/257/224 301/256/224 286/238/224
f 314/266/233 307/259/233 313/262/233 317/267/233
f 317/267/234 313/262/234 309/265/234 315/270/234
f 308/263/235 294/429/235 296/430/235 312/264/235
f 312/264/236 296/430/236 293/431/236 309/265/236
f 302/432/237 316/272/237 319/271/237 306/433/237
f 306/433/238 319/271/238 315/270/238 300/434/238
f 404/300/239 327/435/239 329/436/239 408/297/239
f 408/297/240 329/436/240 328/437/240 402/294/240
f 350/438/241 308/439/241 310/440/241 351/441/241
f 351/441/242 310/440/242 307/442/242 349/443/242
f 366/286/243 324/444/243 326/445/243 370/283/243
f 370/283/244 326/445/244 325/446/244 364/280/244
f 410/447/245 330/448/245 332/449/245 411/450/245
f 411/450/246 332/449/246 331/451/246 409/452/246
f 413/453/247 328/437/247 329/436/247 414/454/247
f 414/454/248 329/436/248 327/435/248 412/455/248
f 322/456/249 334/277/249 336/274/249 323/457/249
f 323/457/250 336/274/250 333/273/250 321/458/250
f 334/277/251 340/459/251 342/460/251 338/278/251
f 338/278/252 342/460/252 341/461/252 335/279/252
f 340/459/253 343/462/253 345/463/253 342/460/253
f 342/460/254 345/463/254 344/464/254 341/461/254
f 343/465/255 346/466/255 348/467/255 345/468/255
f 345/468/256 348/467/256 347/469/256 344/470/256
f 346/466/257 350/438/257 351/441/257 348/467/257
f 348/467/258 351/441/258 349/443/258 347/469/258
f 316/471/259 352/472/259 354/473/259 320/474/259
f 320/474/260 354/473/260 353/475/260 314/476/260
f 352/472/261 355/477/261 357/478/261 354/473/261
f 354/473/262 357/478/262 356/479/262 353/475/262
f 355/477/263 358/480/263 360/481/263 357/478/263
f 357/478/264 360/481/264 359/482/264 356/479/264
f 358/483/265 361/484/265 363/485/265 360/486/265
f 360/486/266 363/485/266 362/487/266 359/488/266
f 361/484/267 366/286/267 369/285/267 363/485/267
f 363/485/268 369/285/268 365/284/268 362/487/268
f 364/280/269 333/273/269 339/276/269 367/281/269
f 367/281/270 339/276/270 335/279/270 365/284/270
f 330/448/271 372/291/271 374/288/271 332/449/271
f 332/449/272 374/288/272 371/287/272 331/451/272
f 372/291/273 378/489/273 380/490/273 376/292/273
f 376/292/274 380/490/274 379/491/274 373/293/274
f 378/489/275 381/492/275 383/493/275 380/490/275
f 380/490/276 383/493/276 382/494/276 379/491/276
f 381/495/277 384/496/277 386/497/277 383/498/277
f 383/498/278 386/497/278 385/499/278 382/500/278
f 384/496/279 387/501/279 389/502/279 386/497/279
f 386/497/280 389/502/280 388/503/280 385/499/280
f 391/504/281 393/505/281 395/506/281 392/507/281
f 392/507/282 395/506/282 394/508/282 390/509/282
f 393/505/283 396/510/283 398/511/283 395/506/283
f 395/506/284 398/511/284 397/512/284 394/508/284
f 396/513/285 399/514/285 401/515/285 398/516/285
f 398/516/286 401/515/286 400/517/286 397/518/286
f 399/514/287 404/300/287 407/299/287 401/515/287
f 401/515/288 407/299/288 403/298/288 400/517/288
f 402/294/289 371/287/289 377/290/289 405/295/289
f 405/295/290 377/290/290 373/293/290 403/298/290
f 324/444/291 410/519/291 411/520/291 326/445/291
f 326/445/292 411/520/292 409/521/292 325/446/292
f 321/458/293 413/522/293 414/523/293 323/457/293
f 323/457/294 414/523/294 412/524/294 322/456/294
f 258/210/295 418/525/295 420/526/295 261/211/295
f 261/211/296 420/526/296 419/527/296 259/214/296
f 416/528/297 251/203/297 257/206/297 417/529/297
f 417/529/298 257/206/298 253/209/298 415/530/298
f 267/223/225 71/531/225 73/532/225 271/220/225
f 271/220/226 73/532/226 70/533/226 265/217/226
f 86/534/223 273/228/223 275/225/223 90/535/223
f 90/535/224 275/225/224 272/224/224 84/536/224
f 418/537/299 428/308/299 434/311/299 420/538/299
f 420/538/300 434/311/300 430/314/300 419/539/300
f 421/301/301 416/540/301 417/541/301 424/302/301
f 424/302/302 417/541/302 415/542/302 422/305/302
f 423/307/303 429/312/303 431/309/303 427/304/303
f 427/304/304 431/309/304 428/308/304 421/301/304
f 387/501/305 430/543/305 433/544/305 389/502/305
f 389/502/306 433/544/306 429/545/306 388/503/306
f 422/546/307 391/504/307 392/507/307 426/547/307
f 426/547/308 392/507/308 390/509/308 423/548/308
f 35/386/309 165/385/309 151/323/309 50/322/309
f 49/49/310 77/77/310 63/63/310 36/39/310
f 65/549/2 162/550/2 166/551/2 37/552/2
f 246/553/2 71/554/2 42/555/2 232/556/2
f 231/317/311 44/48/311 58/62/311 234/401/311
f 71/554/2 5/557/2 2/558/2 42/555/2
f 56/425/312 43/428/312 252/207/312 260/216/312
f 253/209/2 42/426/2 2/559/2 415/530/2
f 51/560/1 153/561/1 158/562/1 78/563/1
f 235/564/1 57/565/1 86/566/1 237/567/1
f 57/423/1 259/214/1 419/527/1 1/568/1
f 86/566/1 57/565/1 1/569/1 6/570/1
f 79/325/313 159/324/313 161/335/313 64/334/313
f 272/224/312 265/217/312 70/533/312 84/536/312
f 238/193/314 85/88/314 72/76/314 245/200/314
f 267/223/2 280/235/2 5/571/2 71/531/2
f 6/572/1 288/244/1 273/228/1 86/534/1
f 164/140/311 92/338/311 107/356/311 152/137/311
f 162/550/2 145/573/2 91/574/2 166/551/2
f 92/338/311 95/341/311 104/353/311 107/356/311
f 145/573/2 138/575/2 94/576/2 91/574/2
f 95/341/311 98/344/311 101/349/311 104/353/311
f 138/575/2 131/577/2 97/578/2 94/576/2
f 98/344/311 172/389/311 186/350/311 101/349/311
f 131/577/2 226/579/2 171/580/2 97/578/2
f 100/581/1 187/582/1 203/583/1 111/584/1
f 103/585/1 100/581/1 111/584/1 118/586/1
f 106/587/1 103/585/1 118/586/1 125/588/1
f 153/561/1 106/587/1 125/588/1 158/562/1
f 109/91/315 205/357/315 224/371/315 130/112/315
f 116/98/316 110/360/316 132/374/316 137/119/316
f 123/364/317 117/363/317 139/380/317 144/379/317
f 159/324/318 124/109/318 146/132/318 161/335/318
f 172/389/311 175/392/311 184/404/311 186/350/311
f 226/579/2 218/589/2 174/590/2 171/580/2
f 175/392/311 178/395/311 181/400/311 184/404/311
f 218/589/2 211/591/2 177/592/2 174/590/2
f 178/395/311 231/317/311 234/401/311 181/400/311
f 211/591/2 246/553/2 232/556/2 177/592/2
f 180/593/1 235/564/1 237/567/1 191/594/1
f 183/595/1 180/593/1 191/594/1 198/596/1
f 187/582/1 183/595/1 198/596/1 203/583/1
f 189/147/319 239/405/319 244/416/319 210/168/319
f 196/154/314 190/408/314 212/419/314 217/175/314
f 204/165/320 197/411/320 219/422/320 225/186/320
f 251/203/311 416/528/311 418/525/311 258/210/311
f 266/221/1 274/230/1 287/242/1 281/237/1
f 279/231/312 286/238/312 301/256/312 295/251/312
f 294/597/2 308/598/2 3/24/2 280/599/2
f 3/24/2 9/6/2 5/5/2 280/599/2
f 302/600/1 288/601/1 4/21/1 316/602/1
f 288/601/1 6/1/1 10/4/1 4/21/1
f 293/431/314 300/434/314 315/270/314 309/265/314
f 307/442/321 314/476/321 353/475/321 349/443/321
f 350/603/2 23/22/2 3/24/2 308/598/2
f 316/602/1 4/21/1 14/18/1 352/604/1
f 325/446/322 409/521/322 413/522/322 321/458/322
f 333/273/323 364/280/323 325/446/323 321/458/323
f 322/605/2 412/606/2 30/33/2 26/32/2
f 334/607/2 322/605/2 26/32/2 340/608/2
f 11/12/1 15/11/1 410/609/1 324/610/1
f 361/611/1 11/12/1 324/610/1 366/612/1
f 409/452/324 331/451/324 328/437/324 413/453/324
f 412/606/2 327/613/2 34/34/2 30/33/2
f 371/287/325 402/294/325 328/437/325 331/451/325
f 327/613/2 404/614/2 399/615/2 34/34/2
f 15/11/1 19/14/1 330/616/1 410/609/1
f 19/14/1 378/617/1 372/618/1 330/616/1
f 341/461/326 362/487/326 365/284/326 335/279/326
f 344/464/327 359/488/327 362/487/327 341/461/327
f 340/608/2 26/32/2 25/29/2 343/619/2
f 347/469/328 356/479/328 359/482/328 344/470/328
f 343/619/2 25/29/2 24/26/2 346/620/2
f 349/443/329 353/475/329 356/479/329 347/469/329
f 346/620/2 24/26/2 23/22/2 350/603/2
f 352/604/1 14/18/1 13/15/1 355/621/1
f 355/621/1 13/15/1 12/9/1 358/622/1
f 358/622/1 12/9/1 11/12/1 361/611/1
f 379/491/330 400/517/330 403/298/330 373/293/330
f 382/494/331 397/518/331 400/517/331 379/491/331
f 20/13/1 381/623/1 378/617/1 19/14/1
f 385/499/332 394/508/332 397/512/332 382/500/332
f 21/17/1 384/624/1 381/623/1 20/13/1
f 388/503/333 390/509/333 394/508/333 385/499/333
f 22/20/1 387/625/1 384/624/1 21/17/1
f 429/545/334 423/548/334 390/509/334 388/503/334
f 7/3/1 430/626/1 387/625/1 22/20/1
f 32/28/2 393/627/2 391/628/2 31/25/2
f 31/25/2 391/628/2 422/629/2 8/7/2
f 33/31/2 396/630/2 393/627/2 32/28/2
f 34/34/2 399/615/2 396/630/2 33/31/2
f 415/631/2 2/8/2 8/7/2 422/629/2
f 418/537/311 416/540/311 421/301/311 428/308/311
f 1/2/1 419/632/1 430/626/1 7/3/1
