# This file uses centimeters as units for non-parametric coordinates.

mtllib Prop_Libro2.mtl
g default
v -0.032622 -0.236609 0.236609
v 0.032622 -0.236609 0.236609
v -0.032622 0.236609 0.236609
v 0.032622 0.236609 0.236609
v -0.032622 0.217677 -0.217677
v 0.032622 0.217677 -0.217677
v 0.032622 -0.217677 -0.217677
v -0.032622 -0.217677 -0.217677
v 0.032622 -0.220000 0.219714
v -0.032622 -0.220000 0.219714
v 0.032622 0.220000 0.219714
v -0.032622 0.220000 0.219714
v -0.042025 0.236609 -0.236609
v -0.045158 0.233475 -0.233475
v -0.045158 -0.233475 -0.233475
v -0.042025 -0.236609 -0.236609
v -0.035756 0.236609 -0.236609
v -0.032622 0.233475 -0.233475
v -0.035756 -0.236609 -0.236609
v -0.032622 -0.233475 -0.233475
v 0.035756 0.236609 -0.236609
v 0.032622 0.233475 -0.233475
v 0.035756 -0.236609 -0.236609
v 0.032622 -0.233475 -0.233475
v 0.045158 0.233475 -0.233475
v 0.042025 0.236609 -0.236609
v 0.042025 -0.236609 -0.236609
v 0.045158 -0.233475 -0.233475
v -0.042025 -0.236609 0.219714
v -0.045158 -0.236609 0.221930
v -0.045158 -0.233475 0.219714
v -0.035756 -0.236609 0.222848
v -0.032622 -0.233475 0.219714
v 0.035756 -0.236609 0.222848
v 0.032622 -0.233475 0.219714
v 0.045158 -0.233475 0.219714
v 0.045158 -0.236609 0.221930
v 0.042025 -0.236609 0.219714
v -0.042025 0.236609 0.219714
v -0.045158 0.233475 0.219714
v -0.045158 0.236609 0.221930
v 0.042025 0.236609 0.219714
v 0.045158 0.236609 0.221930
v 0.045158 0.233475 0.219714
v 0.035756 0.236609 0.222848
v 0.032622 0.233475 0.219714
v -0.035756 0.236609 0.222848
v -0.032622 0.233475 0.219714
v -0.046695 -0.236609 0.230341
v -0.038891 -0.236609 0.238736
v -0.046695 0.236609 0.230341
v -0.038891 0.236609 0.238736
v 0.046695 -0.236609 0.230341
v 0.038891 -0.236609 0.238736
v 0.046695 0.236609 0.230341
v 0.038891 0.236609 0.238736
vt 0.395443 0.546756
vt 0.776334 0.929684
vt 0.757073 0.552370
vt 0.760785 0.551866
vt 0.772652 0.927484
vt 0.383394 0.915863
vt 0.379730 0.917866
vt 0.393574 0.565785
vt 0.397262 0.566241
vt 0.762347 0.109380
vt 0.764906 0.105845
vt 0.760067 0.462511
vt 0.756383 0.462166
vt 0.374338 0.105184
vt 0.396845 0.477292
vt 0.758524 0.481916
vt 0.374689 0.917289
vt 0.771016 0.107730
vt 0.370625 0.103138
vt 0.380721 0.919343
vt 0.388767 0.561360
vt 0.371695 0.096591
vt 0.393129 0.477818
vt 0.764963 0.466818
vt 0.775041 0.936136
vt 0.362216 0.106957
vt 0.786972 0.124004
vt 0.784814 0.926005
vt 0.359104 0.900752
vt 0.384800 0.483369
vt 0.387310 0.080545
vt 0.385166 0.560361
vt 0.374059 0.481859
vt 0.383174 0.928009
vt 0.374332 0.556518
vt 0.768542 0.467794
vt 0.779909 0.548167
vt 0.762203 0.097219
vt 0.779387 0.471656
vt 0.769159 0.546327
vt 0.758881 0.951883
vt 0.395174 0.564787
vt 0.394784 0.478924
vt 0.758527 0.463643
vt 0.396907 0.551107
vt 0.397549 0.559119
vt 0.756366 0.545222
vt 0.765594 0.547275
vt 0.759102 0.550732
vt 0.388385 0.482447
vt 0.397450 0.484395
vt 0.397076 0.492362
vt 0.395737 0.496723
vt 0.756145 0.469404
vt 0.756723 0.537136
vt 0.758189 0.532696
vt 0.756854 0.477528
vt 0.177737 0.981964
vt 0.374454 0.562099
vt 0.182842 0.659904
vt 0.396079 0.941075
vt 0.371235 0.914455
vt 0.374277 0.093069
vt 0.230883 0.660665
vt 0.350424 0.121767
vt 0.371720 0.101610
vt 0.365600 0.103866
vt 0.380630 0.924374
vt 0.187924 0.339348
vt 0.193029 0.017289
vt 0.241069 0.018050
vt 0.235964 0.340110
vt 0.225777 0.982725
vt 0.779899 0.542394
vt 0.779260 0.465702
vt 0.748957 0.084399
vt 0.774534 0.110500
vt 0.764846 0.100807
vt 0.765965 0.107272
vt 0.772341 0.939610
vt 0.796878 0.911328
vt 0.775170 0.931113
vt 0.781372 0.929051
vt 0.374093 0.487011
vn 0.321348 0.000000 0.946961
vn 0.321348 0.000000 0.946961
vn 0.029733 0.000000 0.999558
vn 0.029733 0.000000 0.999558
vn 0.029733 0.000000 0.999558
vn -0.029733 0.000000 0.999558
vn -0.029733 0.000000 0.999558
vn 0.029733 0.000000 0.999558
vn -0.029733 0.000000 0.999558
vn -0.321348 0.000000 0.946961
vn -0.321348 0.000000 0.946961
vn -0.029733 0.000000 0.999558
vn 0.000000 0.000000 -1.000000
vn 0.000000 0.000000 -1.000000
vn 0.000000 0.000000 -1.000000
vn 0.000000 0.000000 -1.000000
vn 0.989680 -0.000000 -0.143295
vn 0.989680 -0.000000 -0.143295
vn 0.989680 -0.000000 -0.143295
vn 0.999986 0.000000 -0.005323
vn 0.999986 0.000000 -0.005323
vn 0.989680 -0.000000 -0.143295
vn 0.000000 -0.999986 -0.005311
vn 0.000000 -0.999986 -0.005311
vn 0.000000 -0.999986 -0.005311
vn 0.000000 -0.999986 -0.005311
vn 0.000000 0.999986 -0.005311
vn 0.000000 0.999986 -0.005311
vn 0.000000 0.999986 -0.005311
vn 0.000000 0.999986 -0.005311
vn -0.989680 -0.000000 -0.143295
vn -0.999986 0.000000 -0.005323
vn -0.999986 0.000000 -0.005323
vn -0.989680 -0.000000 -0.143295
vn -0.989680 -0.000000 -0.143295
vn -0.989680 -0.000000 -0.143295
vn -0.707106 0.707107 0.000000
vn -0.707106 0.707107 0.000000
vn -0.707106 0.707107 0.000000
vn -0.707106 0.707107 0.000000
vn -0.707106 0.000000 -0.707108
vn -0.707106 0.000000 -0.707108
vn -0.707106 0.000000 -0.707108
vn -0.707106 0.000000 -0.707108
vn -0.707106 -0.707107 0.000000
vn -0.707106 -0.707107 0.000000
vn -0.707106 -0.707107 0.000000
vn -0.707106 -0.707107 0.000000
vn 0.707106 0.000000 -0.707108
vn 0.707106 0.000000 -0.707108
vn 0.707106 0.000000 -0.707108
vn 0.707106 0.000000 -0.707108
vn 0.707107 0.707107 0.000000
vn 0.707107 0.707107 0.000000
vn 0.707107 0.707107 0.000000
vn 0.707107 0.707107 0.000000
vn 0.707107 -0.707107 0.000000
vn 0.707107 -0.707107 0.000000
vn 0.707107 -0.707107 0.000000
vn 0.707107 -0.707107 0.000000
vn -0.707107 0.707107 0.000000
vn -0.707107 0.707107 0.000000
vn -0.707107 0.707107 0.000000
vn -0.707107 0.707107 0.000000
vn -0.707106 0.000000 -0.707108
vn -0.707106 0.000000 -0.707108
vn -0.707106 0.000000 -0.707108
vn -0.707106 0.000000 -0.707108
vn -0.707107 -0.707107 0.000000
vn -0.707107 -0.707107 0.000000
vn -0.707107 -0.707107 0.000000
vn -0.707107 -0.707107 0.000000
vn 0.707106 0.707107 0.000000
vn 0.707106 0.707107 0.000000
vn 0.707106 0.707107 0.000000
vn 0.707106 0.707107 0.000000
vn 0.707106 0.000000 -0.707108
vn 0.707106 0.000000 -0.707108
vn 0.707106 0.000000 -0.707108
vn 0.707106 0.000000 -0.707108
vn 0.707106 -0.707107 0.000000
vn 0.707106 -0.707107 0.000000
vn 0.707106 -0.707107 0.000000
vn 0.707106 -0.707107 0.000000
vn 0.000000 -0.707108 -0.707106
vn 0.000000 -0.707108 -0.707106
vn 0.000000 -0.707108 -0.707106
vn 0.000000 -0.707108 -0.707106
vn 0.000000 0.707111 -0.707103
vn 0.000000 0.707111 -0.707103
vn 0.000000 0.707111 -0.707103
vn 0.000000 0.707111 -0.707103
vn 0.000000 1.000000 0.000000
vn 0.000000 1.000000 0.000000
vn 0.000000 1.000000 0.000000
vn 0.000000 1.000000 0.000000
vn 0.000000 1.000000 0.000000
vn 0.000000 1.000000 0.000000
vn 0.000000 1.000000 0.000000
vn 0.000000 1.000000 0.000000
vn 0.000000 1.000000 0.000000
vn 0.000000 1.000000 0.000000
vn 0.000000 0.000000 -1.000000
vn 0.000000 0.000000 -1.000000
vn 0.000000 0.000000 -1.000000
vn 0.000000 0.000000 -1.000000
vn 0.000000 0.000000 -1.000000
vn 0.000000 0.000000 -1.000000
vn 0.000000 0.000000 -1.000000
vn 0.000000 0.000000 -1.000000
vn 0.000000 -1.000000 0.000000
vn 0.000000 -1.000000 0.000000
vn 0.000000 -1.000000 0.000000
vn 0.000000 -1.000000 0.000000
vn 0.000000 -1.000000 0.000000
vn 0.000000 -1.000000 0.000000
vn 0.000000 -1.000000 0.000000
vn 0.000000 -1.000000 0.000000
vn 0.000000 -1.000000 0.000000
vn 0.000000 -1.000000 0.000000
vn -1.000000 0.000000 0.000000
vn -0.999986 0.000000 -0.005323
vn -0.999986 0.000000 -0.005323
vn -1.000000 0.000000 0.000000
vn 0.000000 -1.000000 0.000000
vn 0.000000 -1.000000 0.000000
vn 0.000000 -1.000000 0.000000
vn 0.000000 -1.000000 0.000000
vn 0.000000 -1.000000 0.000000
vn 0.000000 -1.000000 0.000000
vn 0.000000 -1.000000 0.000000
vn 0.000000 -1.000000 0.000000
vn 1.000000 0.000000 0.000000
vn 0.999986 0.000000 -0.005323
vn 0.999986 0.000000 -0.005323
vn 1.000000 0.000000 0.000000
vn 0.000000 1.000000 0.000000
vn 0.000000 1.000000 0.000000
vn 0.000000 1.000000 0.000000
vn 0.000000 1.000000 0.000000
vn 0.000000 1.000000 0.000000
vn 0.000000 1.000000 0.000000
vn 0.000000 1.000000 0.000000
vn 0.000000 1.000000 0.000000
vn -1.000000 0.000000 0.000000
vn -1.000000 0.000000 0.000000
vn -1.000000 0.000000 0.000000
vn -1.000000 0.000000 0.000000
vn 1.000000 0.000000 0.000000
vn 1.000000 0.000000 0.000000
vn 1.000000 0.000000 0.000000
vn 1.000000 0.000000 0.000000
vn -1.000000 0.000000 0.000000
vn -1.000000 0.000000 0.000000
vn -1.000000 0.000000 0.000000
vn -1.000000 0.000000 0.000000
vn 0.000000 0.000000 -1.000000
vn 0.000000 0.000000 -1.000000
vn 0.000000 0.000000 -1.000000
vn 0.000000 0.000000 -1.000000
vn 1.000000 0.000000 0.000000
vn 1.000000 0.000000 0.000000
vn 1.000000 0.000000 0.000000
vn 1.000000 0.000000 0.000000
vn 0.000000 0.000000 -1.000000
vn 0.000000 0.000000 -1.000000
vn 0.000000 0.000000 -1.000000
vn 0.000000 0.000000 -1.000000
vn -1.000000 0.000000 0.000000
vn -1.000000 0.000000 0.000000
vn -1.000000 0.000000 0.000000
vn -1.000000 0.000000 0.000000
vn 1.000000 0.000000 0.000000
vn 1.000000 0.000000 0.000000
vn 1.000000 0.000000 0.000000
vn 1.000000 0.000000 0.000000
vn 0.000000 -1.000000 0.000000
vn 0.000000 -1.000000 0.000000
vn 0.000000 -1.000000 0.000000
vn 0.000000 -1.000000 0.000000
vn 0.000000 -1.000000 0.000000
vn 0.000000 -1.000000 0.000000
vn -0.500001 -0.499999 -0.707106
vn -0.500001 -0.499999 -0.707106
vn -0.500001 -0.499999 -0.707106
vn 0.500001 -0.499999 -0.707106
vn 0.500001 -0.499999 -0.707106
vn 0.500001 -0.499999 -0.707106
vn -0.500004 0.500006 -0.707100
vn -0.500004 0.500006 -0.707100
vn -0.500004 0.500006 -0.707100
vn 0.500004 0.500006 -0.707100
vn 0.500004 0.500006 -0.707100
vn 0.500004 0.500006 -0.707100
vn 0.000000 1.000000 0.000000
vn 0.000000 1.000000 0.000000
vn 0.000000 1.000000 0.000000
vn 0.000000 1.000000 0.000000
vn 0.000000 1.000000 0.000000
vn 0.000000 1.000000 0.000000
vn -0.732403 0.000000 0.680872
vn -0.732403 0.000000 0.680872
vn -0.732403 0.000000 0.680872
vn -0.732403 0.000000 0.680872
vn 0.732403 0.000000 0.680872
vn 0.732403 0.000000 0.680872
vn 0.732403 0.000000 0.680872
vn 0.732403 0.000000 0.680872
s off
g libro
usemtl libroSG
f 52/55/1 50/45/2 1/1/3 3/56/4
f 1/1/5 2/53/6 4/16/7 3/56/8
f 2/53/9 54/52/10 56/57/11 4/16/12
f 5/69/13 6/72/14 7/64/15 8/60/16
f 55/54/17 53/51/18 37/43/19 36/15/20 44/13/21 43/44/22
f 8/60/23 7/64/24 9/73/25 10/58/26
f 12/70/27 11/71/28 6/72/29 5/69/30
f 41/49/31 40/3/32 31/9/33 30/42/34 49/46/35 51/47/36
f 13/2/37 14/5/38 40/3/39 39/4/40
f 14/5/41 13/82/42 16/20/43 15/6/44
f 15/6/45 16/7/46 29/8/47 31/9/48
f 17/25/49 18/80/50 20/34/51 19/68/52
f 18/28/53 17/83/54 47/48/55 48/40/56
f 19/17/57 20/62/58 33/32/59 32/21/60
f 21/18/61 22/77/62 46/36/63 45/24/64
f 22/38/65 21/78/66 23/22/67 24/63/68
f 24/26/69 23/67/70 34/50/71 35/30/72
f 25/10/73 26/79/74 42/12/75 44/13/76
f 26/11/77 25/10/78 28/14/79 27/66/80
f 27/19/81 28/14/82 36/15/83 38/23/84
f 32/21/85 33/32/86 35/30/87 34/50/88
f 45/24/89 46/36/90 48/40/91 47/48/92
f 3/56/93 4/16/94 45/24/95 47/48/96
f 4/16/97 56/57/98 55/54/99 43/44/100 42/12/101 45/24/102
f 13/82/103 17/25/104 19/68/105 16/20/106
f 21/78/107 26/11/108 27/66/109 23/22/110
f 32/21/111 34/50/112 2/53/113 1/1/114
f 34/50/115 38/23/116 37/43/117 53/51/118 54/52/119 2/53/120
f 15/6/121 31/9/122 40/3/123 14/5/124
f 16/7/125 19/17/126 32/21/127 29/8/128
f 23/67/129 27/19/130 38/23/131 34/50/132
f 25/10/133 44/13/134 36/15/135 28/14/136
f 45/24/137 42/12/138 26/79/139 21/18/140
f 13/2/141 39/4/142 47/48/143 17/83/144
f 22/38/145 24/63/146 7/31/147 6/76/148
f 20/34/149 18/80/150 5/41/151 8/61/152
f 24/26/153 35/30/154 9/33/155 7/65/156
f 35/30/157 33/32/158 10/35/159 9/84/160
f 33/32/161 20/62/162 8/29/163 10/59/164
f 48/40/165 46/36/166 11/39/167 12/74/168
f 46/36/169 22/77/170 6/27/171 11/75/172
f 18/28/173 48/40/174 12/37/175 5/81/176
f 30/42/177 29/8/178 32/21/179 1/1/180 50/45/181 49/46/182
f 29/8/183 30/42/184 31/9/185
f 36/15/186 37/43/187 38/23/188
f 39/4/189 40/3/190 41/49/191
f 42/12/192 43/44/193 44/13/194
f 51/47/195 52/55/196 3/56/197 47/48/198 39/4/199 41/49/200
f 49/46/201 50/45/202 52/55/203 51/47/204
f 54/52/205 53/51/206 55/54/207 56/57/208
g default
v 0.065192 -0.236609 0.236609
v 0.195948 -0.236609 0.236609
v 0.065192 0.348601 0.236609
v 0.195948 0.348601 0.236609
v 0.065192 0.329669 -0.217677
v 0.195948 0.329669 -0.217677
v 0.195948 -0.217677 -0.217677
v 0.065192 -0.217677 -0.217677
v 0.195948 -0.220000 0.219714
v 0.065192 -0.220000 0.219714
v 0.195948 0.330000 0.219714
v 0.065192 0.330000 0.219714
v 0.055789 0.348601 -0.236609
v 0.052655 0.345467 -0.233475
v 0.052655 -0.233475 -0.233475
v 0.055789 -0.236609 -0.236609
v 0.062058 0.348601 -0.236609
v 0.065192 0.345467 -0.233475
v 0.062058 -0.236609 -0.236609
v 0.065192 -0.233475 -0.233475
v 0.199082 0.348601 -0.236609
v 0.195948 0.345467 -0.233475
v 0.199082 -0.236609 -0.236609
v 0.195948 -0.233475 -0.233475
v 0.208484 0.345467 -0.233475
v 0.205351 0.348601 -0.236609
v 0.205351 -0.236609 -0.236609
v 0.208484 -0.233475 -0.233475
v 0.055789 -0.236609 0.219714
v 0.052655 -0.236609 0.221930
v 0.052655 -0.233475 0.219714
v 0.062058 -0.236609 0.222848
v 0.065192 -0.233475 0.219714
v 0.199082 -0.236609 0.222848
v 0.195948 -0.233475 0.219714
v 0.208484 -0.233475 0.219714
v 0.208484 -0.236609 0.221930
v 0.205351 -0.236609 0.219714
v 0.055789 0.348601 0.219714
v 0.052655 0.345467 0.219714
v 0.052655 0.348601 0.221930
v 0.205351 0.348601 0.219714
v 0.208484 0.348601 0.221930
v 0.208484 0.345467 0.219714
v 0.199082 0.348601 0.222848
v 0.195948 0.345467 0.219714
v 0.062058 0.348601 0.222848
v 0.065192 0.345467 0.219714
v 0.051119 -0.236609 0.230341
v 0.058923 -0.236609 0.238736
v 0.051119 0.348601 0.230341
v 0.058923 0.348601 0.238736
v 0.210021 -0.236609 0.230341
v 0.202217 -0.236609 0.238736
v 0.210021 0.348601 0.230341
v 0.202217 0.348601 0.238736
vt 0.395443 0.546756
vt 0.776334 0.929684
vt 0.757073 0.552370
vt 0.760785 0.551866
vt 0.772652 0.927484
vt 0.383394 0.915863
vt 0.379730 0.917866
vt 0.393574 0.565785
vt 0.397262 0.566241
vt 0.762347 0.109380
vt 0.764906 0.105845
vt 0.760067 0.462511
vt 0.756383 0.462166
vt 0.374338 0.105184
vt 0.396845 0.477292
vt 0.758524 0.481916
vt 0.374689 0.917289
vt 0.771016 0.107730
vt 0.370625 0.103138
vt 0.380721 0.919343
vt 0.388767 0.561360
vt 0.371695 0.096591
vt 0.393129 0.477818
vt 0.764963 0.466818
vt 0.775041 0.936136
vt 0.362216 0.106957
vt 0.786972 0.124004
vt 0.784814 0.926005
vt 0.359104 0.900752
vt 0.384800 0.483369
vt 0.387310 0.080545
vt 0.385166 0.560361
vt 0.374059 0.481859
vt 0.383174 0.928009
vt 0.374332 0.556518
vt 0.768542 0.467794
vt 0.779909 0.548167
vt 0.762203 0.097219
vt 0.779387 0.471656
vt 0.769159 0.546327
vt 0.758881 0.951883
vt 0.395174 0.564787
vt 0.394784 0.478924
vt 0.758527 0.463643
vt 0.396907 0.551107
vt 0.397549 0.559119
vt 0.756366 0.545222
vt 0.765594 0.547275
vt 0.759102 0.550732
vt 0.388385 0.482447
vt 0.397450 0.484395
vt 0.397076 0.492362
vt 0.395737 0.496723
vt 0.756145 0.469404
vt 0.756723 0.537136
vt 0.758189 0.532696
vt 0.756854 0.477528
vt 0.177737 0.981964
vt 0.374454 0.562099
vt 0.182842 0.659904
vt 0.396079 0.941075
vt 0.371235 0.914455
vt 0.374277 0.093069
vt 0.230883 0.660665
vt 0.350424 0.121767
vt 0.371720 0.101610
vt 0.365600 0.103866
vt 0.380630 0.924374
vt 0.187924 0.339348
vt 0.193029 0.017289
vt 0.241069 0.018050
vt 0.235964 0.340110
vt 0.225777 0.982725
vt 0.779899 0.542394
vt 0.779260 0.465702
vt 0.748957 0.084399
vt 0.774534 0.110500
vt 0.764846 0.100807
vt 0.765965 0.107272
vt 0.772341 0.939610
vt 0.796878 0.911328
vt 0.775170 0.931113
vt 0.781372 0.929051
vt 0.374093 0.487011
vn 0.321348 0.000000 0.946961
vn 0.321348 0.000000 0.946961
vn 0.029733 0.000000 0.999558
vn 0.029733 0.000000 0.999558
vn 0.029733 0.000000 0.999558
vn -0.029733 0.000000 0.999558
vn -0.029733 0.000000 0.999558
vn 0.029733 0.000000 0.999558
vn -0.029733 0.000000 0.999558
vn -0.321348 0.000000 0.946961
vn -0.321348 0.000000 0.946961
vn -0.029733 0.000000 0.999558
vn 0.000000 0.000000 -1.000000
vn 0.000000 0.000000 -1.000000
vn 0.000000 0.000000 -1.000000
vn 0.000000 0.000000 -1.000000
vn 0.989680 -0.000000 -0.143295
vn 0.989680 -0.000000 -0.143295
vn 0.989680 -0.000000 -0.143295
vn 0.999986 0.000000 -0.005323
vn 0.999986 0.000000 -0.005323
vn 0.989680 -0.000000 -0.143295
vn 0.000000 -0.999986 -0.005311
vn 0.000000 -0.999986 -0.005311
vn 0.000000 -0.999986 -0.005311
vn 0.000000 -0.999986 -0.005311
vn 0.000000 0.999986 -0.005311
vn 0.000000 0.999986 -0.005311
vn 0.000000 0.999986 -0.005311
vn 0.000000 0.999986 -0.005311
vn -0.989680 -0.000000 -0.143295
vn -0.999986 0.000000 -0.005323
vn -0.999986 0.000000 -0.005323
vn -0.989680 -0.000000 -0.143295
vn -0.989680 -0.000000 -0.143295
vn -0.989680 -0.000000 -0.143295
vn -0.707106 0.707107 0.000000
vn -0.707106 0.707107 0.000000
vn -0.707106 0.707107 0.000000
vn -0.707106 0.707107 0.000000
vn -0.707106 0.000000 -0.707108
vn -0.707106 0.000000 -0.707108
vn -0.707106 0.000000 -0.707108
vn -0.707106 0.000000 -0.707108
vn -0.707106 -0.707107 0.000000
vn -0.707106 -0.707107 0.000000
vn -0.707106 -0.707107 0.000000
vn -0.707106 -0.707107 0.000000
vn 0.707106 0.000000 -0.707108
vn 0.707106 0.000000 -0.707108
vn 0.707106 0.000000 -0.707108
vn 0.707106 0.000000 -0.707108
vn 0.707107 0.707107 0.000000
vn 0.707107 0.707107 0.000000
vn 0.707107 0.707107 0.000000
vn 0.707107 0.707107 0.000000
vn 0.707107 -0.707107 0.000000
vn 0.707107 -0.707107 0.000000
vn 0.707107 -0.707107 0.000000
vn 0.707107 -0.707107 0.000000
vn -0.707107 0.707107 0.000000
vn -0.707107 0.707107 0.000000
vn -0.707107 0.707107 0.000000
vn -0.707107 0.707107 0.000000
vn -0.707106 0.000000 -0.707108
vn -0.707106 0.000000 -0.707108
vn -0.707106 0.000000 -0.707108
vn -0.707106 0.000000 -0.707108
vn -0.707107 -0.707107 0.000000
vn -0.707107 -0.707107 0.000000
vn -0.707107 -0.707107 0.000000
vn -0.707107 -0.707107 0.000000
vn 0.707106 0.707107 0.000000
vn 0.707106 0.707107 0.000000
vn 0.707106 0.707107 0.000000
vn 0.707106 0.707107 0.000000
vn 0.707106 0.000000 -0.707108
vn 0.707106 0.000000 -0.707108
vn 0.707106 0.000000 -0.707108
vn 0.707106 0.000000 -0.707108
vn 0.707106 -0.707107 0.000000
vn 0.707106 -0.707107 0.000000
vn 0.707106 -0.707107 0.000000
vn 0.707106 -0.707107 0.000000
vn 0.000000 -0.707108 -0.707106
vn 0.000000 -0.707108 -0.707106
vn 0.000000 -0.707108 -0.707106
vn 0.000000 -0.707108 -0.707106
vn 0.000000 0.707111 -0.707103
vn 0.000000 0.707111 -0.707103
vn 0.000000 0.707111 -0.707103
vn 0.000000 0.707111 -0.707103
vn 0.000000 1.000000 0.000000
vn 0.000000 1.000000 0.000000
vn 0.000000 1.000000 0.000000
vn 0.000000 1.000000 0.000000
vn 0.000000 1.000000 0.000000
vn 0.000000 1.000000 0.000000
vn 0.000000 1.000000 0.000000
vn 0.000000 1.000000 0.000000
vn 0.000000 1.000000 0.000000
vn 0.000000 1.000000 0.000000
vn 0.000000 0.000000 -1.000000
vn 0.000000 0.000000 -1.000000
vn 0.000000 0.000000 -1.000000
vn 0.000000 0.000000 -1.000000
vn 0.000000 0.000000 -1.000000
vn 0.000000 0.000000 -1.000000
vn 0.000000 0.000000 -1.000000
vn 0.000000 0.000000 -1.000000
vn 0.000000 -1.000000 0.000000
vn 0.000000 -1.000000 0.000000
vn 0.000000 -1.000000 0.000000
vn 0.000000 -1.000000 0.000000
vn 0.000000 -1.000000 0.000000
vn 0.000000 -1.000000 0.000000
vn 0.000000 -1.000000 0.000000
vn 0.000000 -1.000000 0.000000
vn 0.000000 -1.000000 0.000000
vn 0.000000 -1.000000 0.000000
vn -1.000000 0.000000 0.000000
vn -0.999986 0.000000 -0.005323
vn -0.999986 0.000000 -0.005323
vn -1.000000 0.000000 0.000000
vn 0.000000 -1.000000 0.000000
vn 0.000000 -1.000000 0.000000
vn 0.000000 -1.000000 0.000000
vn 0.000000 -1.000000 0.000000
vn 0.000000 -1.000000 0.000000
vn 0.000000 -1.000000 0.000000
vn 0.000000 -1.000000 0.000000
vn 0.000000 -1.000000 0.000000
vn 1.000000 0.000000 0.000000
vn 0.999986 0.000000 -0.005323
vn 0.999986 0.000000 -0.005323
vn 1.000000 0.000000 0.000000
vn 0.000000 1.000000 0.000000
vn 0.000000 1.000000 0.000000
vn 0.000000 1.000000 0.000000
vn 0.000000 1.000000 0.000000
vn 0.000000 1.000000 0.000000
vn 0.000000 1.000000 0.000000
vn 0.000000 1.000000 0.000000
vn 0.000000 1.000000 0.000000
vn -1.000000 0.000000 0.000000
vn -1.000000 0.000000 0.000000
vn -1.000000 0.000000 0.000000
vn -1.000000 0.000000 0.000000
vn 1.000000 0.000000 0.000000
vn 1.000000 0.000000 0.000000
vn 1.000000 0.000000 0.000000
vn 1.000000 0.000000 0.000000
vn -1.000000 0.000000 0.000000
vn -1.000000 0.000000 0.000000
vn -1.000000 0.000000 0.000000
vn -1.000000 0.000000 0.000000
vn 0.000000 0.000000 -1.000000
vn 0.000000 0.000000 -1.000000
vn 0.000000 0.000000 -1.000000
vn 0.000000 0.000000 -1.000000
vn 1.000000 0.000000 0.000000
vn 1.000000 0.000000 0.000000
vn 1.000000 0.000000 0.000000
vn 1.000000 0.000000 0.000000
vn 0.000000 0.000000 -1.000000
vn 0.000000 0.000000 -1.000000
vn 0.000000 0.000000 -1.000000
vn 0.000000 0.000000 -1.000000
vn -1.000000 0.000000 0.000000
vn -1.000000 0.000000 0.000000
vn -1.000000 0.000000 0.000000
vn -1.000000 0.000000 0.000000
vn 1.000000 0.000000 0.000000
vn 1.000000 0.000000 0.000000
vn 1.000000 0.000000 0.000000
vn 1.000000 0.000000 0.000000
vn 0.000000 -1.000000 0.000000
vn 0.000000 -1.000000 0.000000
vn 0.000000 -1.000000 0.000000
vn 0.000000 -1.000000 0.000000
vn 0.000000 -1.000000 0.000000
vn 0.000000 -1.000000 0.000000
vn -0.500001 -0.499999 -0.707106
vn -0.500001 -0.499999 -0.707106
vn -0.500001 -0.499999 -0.707106
vn 0.500001 -0.499999 -0.707106
vn 0.500001 -0.499999 -0.707106
vn 0.500001 -0.499999 -0.707106
vn -0.500004 0.500006 -0.707100
vn -0.500004 0.500006 -0.707100
vn -0.500004 0.500006 -0.707100
vn 0.500004 0.500006 -0.707100
vn 0.500004 0.500006 -0.707100
vn 0.500004 0.500006 -0.707100
vn 0.000000 1.000000 0.000000
vn 0.000000 1.000000 0.000000
vn 0.000000 1.000000 0.000000
vn 0.000000 1.000000 0.000000
vn 0.000000 1.000000 0.000000
vn 0.000000 1.000000 0.000000
vn -0.732403 0.000000 0.680872
vn -0.732403 0.000000 0.680872
vn -0.732403 0.000000 0.680872
vn -0.732403 0.000000 0.680872
vn 0.732403 0.000000 0.680872
vn 0.732403 0.000000 0.680872
vn 0.732403 0.000000 0.680872
vn 0.732403 0.000000 0.680872
s off
g libro1
usemtl libro1SG
f 108/139/209 106/129/210 57/85/211 59/140/212
f 57/85/213 58/137/214 60/100/215 59/140/216
f 58/137/217 110/136/218 112/141/219 60/100/220
f 61/153/221 62/156/222 63/148/223 64/144/224
f 111/138/225 109/135/226 93/127/227 92/99/228 100/97/229 99/128/230
f 64/144/231 63/148/232 65/157/233 66/142/234
f 68/154/235 67/155/236 62/156/237 61/153/238
f 97/133/239 96/87/240 87/93/241 86/126/242 105/130/243 107/131/244
f 69/86/245 70/89/246 96/87/247 95/88/248
f 70/89/249 69/166/250 72/104/251 71/90/252
f 71/90/253 72/91/254 85/92/255 87/93/256
f 73/109/257 74/164/258 76/118/259 75/152/260
f 74/112/261 73/167/262 103/132/263 104/124/264
f 75/101/265 76/146/266 89/116/267 88/105/268
f 77/102/269 78/161/270 102/120/271 101/108/272
f 78/122/273 77/162/274 79/106/275 80/147/276
f 80/110/277 79/151/278 90/134/279 91/114/280
f 81/94/281 82/163/282 98/96/283 100/97/284
f 82/95/285 81/94/286 84/98/287 83/150/288
f 83/103/289 84/98/290 92/99/291 94/107/292
f 88/105/293 89/116/294 91/114/295 90/134/296
f 101/108/297 102/120/298 104/124/299 103/132/300
f 59/140/301 60/100/302 101/108/303 103/132/304
f 60/100/305 112/141/306 111/138/307 99/128/308 98/96/309 101/108/310
f 69/166/311 73/109/312 75/152/313 72/104/314
f 77/162/315 82/95/316 83/150/317 79/106/318
f 88/105/319 90/134/320 58/137/321 57/85/322
f 90/134/323 94/107/324 93/127/325 109/135/326 110/136/327 58/137/328
f 71/90/329 87/93/330 96/87/331 70/89/332
f 72/91/333 75/101/334 88/105/335 85/92/336
f 79/151/337 83/103/338 94/107/339 90/134/340
f 81/94/341 100/97/342 92/99/343 84/98/344
f 101/108/345 98/96/346 82/163/347 77/102/348
f 69/86/349 95/88/350 103/132/351 73/167/352
f 78/122/353 80/147/354 63/115/355 62/160/356
f 76/118/357 74/164/358 61/125/359 64/145/360
f 80/110/361 91/114/362 65/117/363 63/149/364
f 91/114/365 89/116/366 66/119/367 65/168/368
f 89/116/369 76/146/370 64/113/371 66/143/372
f 104/124/373 102/120/374 67/123/375 68/158/376
f 102/120/377 78/161/378 62/111/379 67/159/380
f 74/112/381 104/124/382 68/121/383 61/165/384
f 86/126/385 85/92/386 88/105/387 57/85/388 106/129/389 105/130/390
f 85/92/391 86/126/392 87/93/393
f 92/99/394 93/127/395 94/107/396
f 95/88/397 96/87/398 97/133/399
f 98/96/400 99/128/401 100/97/402
f 107/131/403 108/139/404 59/140/405 103/132/406 95/88/407 97/133/408
f 105/130/409 106/129/410 108/139/411 107/131/412
f 110/136/413 109/135/414 111/138/415 112/141/416
g default
v 0.227778 -0.236609 0.236609
v 0.293022 -0.236609 0.236609
v 0.227778 0.236609 0.236609
v 0.293022 0.236609 0.236609
v 0.227778 0.217677 -0.217677
v 0.293022 0.217677 -0.217677
v 0.293022 -0.217677 -0.217677
v 0.227778 -0.217677 -0.217677
v 0.293022 -0.220000 0.219714
v 0.227778 -0.220000 0.219714
v 0.293022 0.220000 0.219714
v 0.227778 0.220000 0.219714
v 0.218375 0.236609 -0.236609
v 0.215242 0.233475 -0.233475
v 0.215242 -0.233475 -0.233475
v 0.218375 -0.236609 -0.236609
v 0.224644 0.236609 -0.236609
v 0.227778 0.233475 -0.233475
v 0.224644 -0.236609 -0.236609
v 0.227778 -0.233475 -0.233475
v 0.296156 0.236609 -0.236609
v 0.293022 0.233475 -0.233475
v 0.296156 -0.236609 -0.236609
v 0.293022 -0.233475 -0.233475
v 0.305559 0.233475 -0.233475
v 0.302425 0.236609 -0.236609
v 0.302425 -0.236609 -0.236609
v 0.305559 -0.233475 -0.233475
v 0.218375 -0.236609 0.219714
v 0.215242 -0.236609 0.221930
v 0.215242 -0.233475 0.219714
v 0.224644 -0.236609 0.222848
v 0.227778 -0.233475 0.219714
v 0.296156 -0.236609 0.222848
v 0.293022 -0.233475 0.219714
v 0.305559 -0.233475 0.219714
v 0.305559 -0.236609 0.221930
v 0.302425 -0.236609 0.219714
v 0.218375 0.236609 0.219714
v 0.215242 0.233475 0.219714
v 0.215242 0.236609 0.221930
v 0.302425 0.236609 0.219714
v 0.305559 0.236609 0.221930
v 0.305559 0.233475 0.219714
v 0.296156 0.236609 0.222848
v 0.293022 0.233475 0.219714
v 0.224644 0.236609 0.222848
v 0.227778 0.233475 0.219714
v 0.213705 -0.236609 0.230341
v 0.221509 -0.236609 0.238736
v 0.213705 0.236609 0.230341
v 0.221509 0.236609 0.238736
v 0.307095 -0.236609 0.230341
v 0.299291 -0.236609 0.238736
v 0.307095 0.236609 0.230341
v 0.299291 0.236609 0.238736
vt 0.395443 0.546756
vt 0.776334 0.929684
vt 0.757073 0.552370
vt 0.760785 0.551866
vt 0.772652 0.927484
vt 0.383394 0.915863
vt 0.379730 0.917866
vt 0.393574 0.565785
vt 0.397262 0.566241
vt 0.762347 0.109380
vt 0.764906 0.105845
vt 0.760067 0.462511
vt 0.756383 0.462166
vt 0.374338 0.105184
vt 0.396845 0.477292
vt 0.758524 0.481916
vt 0.374689 0.917289
vt 0.771016 0.107730
vt 0.370625 0.103138
vt 0.380721 0.919343
vt 0.388767 0.561360
vt 0.371695 0.096591
vt 0.393129 0.477818
vt 0.764963 0.466818
vt 0.775041 0.936136
vt 0.362216 0.106957
vt 0.786972 0.124004
vt 0.784814 0.926005
vt 0.359104 0.900752
vt 0.384800 0.483369
vt 0.387310 0.080545
vt 0.385166 0.560361
vt 0.374059 0.481859
vt 0.383174 0.928009
vt 0.374332 0.556518
vt 0.768542 0.467794
vt 0.779909 0.548167
vt 0.762203 0.097219
vt 0.779387 0.471656
vt 0.769159 0.546327
vt 0.758881 0.951883
vt 0.395174 0.564787
vt 0.394784 0.478924
vt 0.758527 0.463643
vt 0.396907 0.551107
vt 0.397549 0.559119
vt 0.756366 0.545222
vt 0.765594 0.547275
vt 0.759102 0.550732
vt 0.388385 0.482447
vt 0.397450 0.484395
vt 0.397076 0.492362
vt 0.395737 0.496723
vt 0.756145 0.469404
vt 0.756723 0.537136
vt 0.758189 0.532696
vt 0.756854 0.477528
vt 0.177737 0.981964
vt 0.374454 0.562099
vt 0.182842 0.659904
vt 0.396079 0.941075
vt 0.371235 0.914455
vt 0.374277 0.093069
vt 0.230883 0.660665
vt 0.350424 0.121767
vt 0.371720 0.101610
vt 0.365600 0.103866
vt 0.380630 0.924374
vt 0.187924 0.339348
vt 0.193029 0.017289
vt 0.241069 0.018050
vt 0.235964 0.340110
vt 0.225777 0.982725
vt 0.779899 0.542394
vt 0.779260 0.465702
vt 0.748957 0.084399
vt 0.774534 0.110500
vt 0.764846 0.100807
vt 0.765965 0.107272
vt 0.772341 0.939610
vt 0.796878 0.911328
vt 0.775170 0.931113
vt 0.781372 0.929051
vt 0.374093 0.487011
vn 0.321348 0.000000 0.946961
vn 0.321348 0.000000 0.946961
vn 0.029733 0.000000 0.999558
vn 0.029733 0.000000 0.999558
vn 0.029733 0.000000 0.999558
vn -0.029733 0.000000 0.999558
vn -0.029733 0.000000 0.999558
vn 0.029733 0.000000 0.999558
vn -0.029733 0.000000 0.999558
vn -0.321348 0.000000 0.946961
vn -0.321348 0.000000 0.946961
vn -0.029733 0.000000 0.999558
vn 0.000000 0.000000 -1.000000
vn 0.000000 0.000000 -1.000000
vn 0.000000 0.000000 -1.000000
vn 0.000000 0.000000 -1.000000
vn 0.989680 -0.000000 -0.143295
vn 0.989680 -0.000000 -0.143295
vn 0.989680 -0.000000 -0.143295
vn 0.999986 0.000000 -0.005323
vn 0.999986 0.000000 -0.005323
vn 0.989680 -0.000000 -0.143295
vn 0.000000 -0.999986 -0.005311
vn 0.000000 -0.999986 -0.005311
vn 0.000000 -0.999986 -0.005311
vn 0.000000 -0.999986 -0.005311
vn 0.000000 0.999986 -0.005311
vn 0.000000 0.999986 -0.005311
vn 0.000000 0.999986 -0.005311
vn 0.000000 0.999986 -0.005311
vn -0.989680 -0.000000 -0.143295
vn -0.999986 0.000000 -0.005323
vn -0.999986 0.000000 -0.005323
vn -0.989680 -0.000000 -0.143295
vn -0.989680 -0.000000 -0.143295
vn -0.989680 -0.000000 -0.143295
vn -0.707106 0.707107 0.000000
vn -0.707106 0.707107 0.000000
vn -0.707106 0.707107 0.000000
vn -0.707106 0.707107 0.000000
vn -0.707106 0.000000 -0.707108
vn -0.707106 0.000000 -0.707108
vn -0.707106 0.000000 -0.707108
vn -0.707106 0.000000 -0.707108
vn -0.707106 -0.707107 0.000000
vn -0.707106 -0.707107 0.000000
vn -0.707106 -0.707107 0.000000
vn -0.707106 -0.707107 0.000000
vn 0.707106 0.000000 -0.707108
vn 0.707106 0.000000 -0.707108
vn 0.707106 0.000000 -0.707108
vn 0.707106 0.000000 -0.707108
vn 0.707107 0.707107 0.000000
vn 0.707107 0.707107 0.000000
vn 0.707107 0.707107 0.000000
vn 0.707107 0.707107 0.000000
vn 0.707107 -0.707107 0.000000
vn 0.707107 -0.707107 0.000000
vn 0.707107 -0.707107 0.000000
vn 0.707107 -0.707107 0.000000
vn -0.707107 0.707107 0.000000
vn -0.707107 0.707107 0.000000
vn -0.707107 0.707107 0.000000
vn -0.707107 0.707107 0.000000
vn -0.707106 0.000000 -0.707108
vn -0.707106 0.000000 -0.707108
vn -0.707106 0.000000 -0.707108
vn -0.707106 0.000000 -0.707108
vn -0.707107 -0.707107 0.000000
vn -0.707107 -0.707107 0.000000
vn -0.707107 -0.707107 0.000000
vn -0.707107 -0.707107 0.000000
vn 0.707106 0.707107 0.000000
vn 0.707106 0.707107 0.000000
vn 0.707106 0.707107 0.000000
vn 0.707106 0.707107 0.000000
vn 0.707106 0.000000 -0.707108
vn 0.707106 0.000000 -0.707108
vn 0.707106 0.000000 -0.707108
vn 0.707106 0.000000 -0.707108
vn 0.707106 -0.707107 0.000000
vn 0.707106 -0.707107 0.000000
vn 0.707106 -0.707107 0.000000
vn 0.707106 -0.707107 0.000000
vn 0.000000 -0.707108 -0.707106
vn 0.000000 -0.707108 -0.707106
vn 0.000000 -0.707108 -0.707106
vn 0.000000 -0.707108 -0.707106
vn 0.000000 0.707111 -0.707103
vn 0.000000 0.707111 -0.707103
vn 0.000000 0.707111 -0.707103
vn 0.000000 0.707111 -0.707103
vn 0.000000 1.000000 0.000000
vn 0.000000 1.000000 0.000000
vn 0.000000 1.000000 0.000000
vn 0.000000 1.000000 0.000000
vn 0.000000 1.000000 0.000000
vn 0.000000 1.000000 0.000000
vn 0.000000 1.000000 0.000000
vn 0.000000 1.000000 0.000000
vn 0.000000 1.000000 0.000000
vn 0.000000 1.000000 0.000000
vn 0.000000 0.000000 -1.000000
vn 0.000000 0.000000 -1.000000
vn 0.000000 0.000000 -1.000000
vn 0.000000 0.000000 -1.000000
vn 0.000000 0.000000 -1.000000
vn 0.000000 0.000000 -1.000000
vn 0.000000 0.000000 -1.000000
vn 0.000000 0.000000 -1.000000
vn 0.000000 -1.000000 0.000000
vn 0.000000 -1.000000 0.000000
vn 0.000000 -1.000000 0.000000
vn 0.000000 -1.000000 0.000000
vn 0.000000 -1.000000 0.000000
vn 0.000000 -1.000000 0.000000
vn 0.000000 -1.000000 0.000000
vn 0.000000 -1.000000 0.000000
vn 0.000000 -1.000000 0.000000
vn 0.000000 -1.000000 0.000000
vn -1.000000 0.000000 0.000000
vn -0.999986 0.000000 -0.005323
vn -0.999986 0.000000 -0.005323
vn -1.000000 0.000000 0.000000
vn 0.000000 -1.000000 0.000000
vn 0.000000 -1.000000 0.000000
vn 0.000000 -1.000000 0.000000
vn 0.000000 -1.000000 0.000000
vn 0.000000 -1.000000 0.000000
vn 0.000000 -1.000000 0.000000
vn 0.000000 -1.000000 0.000000
vn 0.000000 -1.000000 0.000000
vn 1.000000 0.000000 0.000000
vn 0.999986 0.000000 -0.005323
vn 0.999986 0.000000 -0.005323
vn 1.000000 0.000000 0.000000
vn 0.000000 1.000000 0.000000
vn 0.000000 1.000000 0.000000
vn 0.000000 1.000000 0.000000
vn 0.000000 1.000000 0.000000
vn 0.000000 1.000000 0.000000
vn 0.000000 1.000000 0.000000
vn 0.000000 1.000000 0.000000
vn 0.000000 1.000000 0.000000
vn -1.000000 0.000000 0.000000
vn -1.000000 0.000000 0.000000
vn -1.000000 0.000000 0.000000
vn -1.000000 0.000000 0.000000
vn 1.000000 0.000000 0.000000
vn 1.000000 0.000000 0.000000
vn 1.000000 0.000000 0.000000
vn 1.000000 0.000000 0.000000
vn -1.000000 0.000000 0.000000
vn -1.000000 0.000000 0.000000
vn -1.000000 0.000000 0.000000
vn -1.000000 0.000000 0.000000
vn 0.000000 0.000000 -1.000000
vn 0.000000 0.000000 -1.000000
vn 0.000000 0.000000 -1.000000
vn 0.000000 0.000000 -1.000000
vn 1.000000 0.000000 0.000000
vn 1.000000 0.000000 0.000000
vn 1.000000 0.000000 0.000000
vn 1.000000 0.000000 0.000000
vn 0.000000 0.000000 -1.000000
vn 0.000000 0.000000 -1.000000
vn 0.000000 0.000000 -1.000000
vn 0.000000 0.000000 -1.000000
vn -1.000000 0.000000 0.000000
vn -1.000000 0.000000 0.000000
vn -1.000000 0.000000 0.000000
vn -1.000000 0.000000 0.000000
vn 1.000000 0.000000 0.000000
vn 1.000000 0.000000 0.000000
vn 1.000000 0.000000 0.000000
vn 1.000000 0.000000 0.000000
vn 0.000000 -1.000000 0.000000
vn 0.000000 -1.000000 0.000000
vn 0.000000 -1.000000 0.000000
vn 0.000000 -1.000000 0.000000
vn 0.000000 -1.000000 0.000000
vn 0.000000 -1.000000 0.000000
vn -0.500001 -0.499999 -0.707106
vn -0.500001 -0.499999 -0.707106
vn -0.500001 -0.499999 -0.707106
vn 0.500001 -0.499999 -0.707106
vn 0.500001 -0.499999 -0.707106
vn 0.500001 -0.499999 -0.707106
vn -0.500004 0.500006 -0.707100
vn -0.500004 0.500006 -0.707100
vn -0.500004 0.500006 -0.707100
vn 0.500004 0.500006 -0.707100
vn 0.500004 0.500006 -0.707100
vn 0.500004 0.500006 -0.707100
vn 0.000000 1.000000 0.000000
vn 0.000000 1.000000 0.000000
vn 0.000000 1.000000 0.000000
vn 0.000000 1.000000 0.000000
vn 0.000000 1.000000 0.000000
vn 0.000000 1.000000 0.000000
vn -0.732403 0.000000 0.680872
vn -0.732403 0.000000 0.680872
vn -0.732403 0.000000 0.680872
vn -0.732403 0.000000 0.680872
vn 0.732403 0.000000 0.680872
vn 0.732403 0.000000 0.680872
vn 0.732403 0.000000 0.680872
vn 0.732403 0.000000 0.680872
s off
g libro2
usemtl libro2SG
f 164/223/417 162/213/418 113/169/419 115/224/420
f 113/169/421 114/221/422 116/184/423 115/224/424
f 114/221/425 166/220/426 168/225/427 116/184/428
f 117/237/429 118/240/430 119/232/431 120/228/432
f 167/222/433 165/219/434 149/211/435 148/183/436 156/181/437 155/212/438
f 120/228/439 119/232/440 121/241/441 122/226/442
f 124/238/443 123/239/444 118/240/445 117/237/446
f 153/217/447 152/171/448 143/177/449 142/210/450 161/214/451 163/215/452
f 125/170/453 126/173/454 152/171/455 151/172/456
f 126/173/457 125/250/458 128/188/459 127/174/460
f 127/174/461 128/175/462 141/176/463 143/177/464
f 129/193/465 130/248/466 132/202/467 131/236/468
f 130/196/469 129/251/470 159/216/471 160/208/472
f 131/185/473 132/230/474 145/200/475 144/189/476
f 133/186/477 134/245/478 158/204/479 157/192/480
f 134/206/481 133/246/482 135/190/483 136/231/484
f 136/194/485 135/235/486 146/218/487 147/198/488
f 137/178/489 138/247/490 154/180/491 156/181/492
f 138/179/493 137/178/494 140/182/495 139/234/496
f 139/187/497 140/182/498 148/183/499 150/191/500
f 144/189/501 145/200/502 147/198/503 146/218/504
f 157/192/505 158/204/506 160/208/507 159/216/508
f 115/224/509 116/184/510 157/192/511 159/216/512
f 116/184/513 168/225/514 167/222/515 155/212/516 154/180/517 157/192/518
f 125/250/519 129/193/520 131/236/521 128/188/522
f 133/246/523 138/179/524 139/234/525 135/190/526
f 144/189/527 146/218/528 114/221/529 113/169/530
f 146/218/531 150/191/532 149/211/533 165/219/534 166/220/535 114/221/536
f 127/174/537 143/177/538 152/171/539 126/173/540
f 128/175/541 131/185/542 144/189/543 141/176/544
f 135/235/545 139/187/546 150/191/547 146/218/548
f 137/178/549 156/181/550 148/183/551 140/182/552
f 157/192/553 154/180/554 138/247/555 133/186/556
f 125/170/557 151/172/558 159/216/559 129/251/560
f 134/206/561 136/231/562 119/199/563 118/244/564
f 132/202/565 130/248/566 117/209/567 120/229/568
f 136/194/569 147/198/570 121/201/571 119/233/572
f 147/198/573 145/200/574 122/203/575 121/252/576
f 145/200/577 132/230/578 120/197/579 122/227/580
f 160/208/581 158/204/582 123/207/583 124/242/584
f 158/204/585 134/245/586 118/195/587 123/243/588
f 130/196/589 160/208/590 124/205/591 117/249/592
f 142/210/593 141/176/594 144/189/595 113/169/596 162/213/597 161/214/598
f 141/176/599 142/210/600 143/177/601
f 148/183/602 149/211/603 150/191/604
f 151/172/605 152/171/606 153/217/607
f 154/180/608 155/212/609 156/181/610
f 163/215/611 164/223/612 115/224/613 159/216/614 151/172/615 153/217/616
f 161/214/617 162/213/618 164/223/619 163/215/620
f 166/220/621 165/219/622 167/222/623 168/225/624
g default
v 0.324680 -0.236609 0.236609
v 0.365682 -0.236609 0.236609
v 0.324680 0.280239 0.236609
v 0.365682 0.280239 0.236609
v 0.324680 0.261307 -0.217677
v 0.365682 0.261307 -0.217677
v 0.365682 -0.217677 -0.217677
v 0.324680 -0.217677 -0.217677
v 0.365682 -0.220000 0.219714
v 0.324680 -0.220000 0.219714
v 0.365682 0.263630 0.219714
v 0.324680 0.263630 0.219714
v 0.315278 0.280239 -0.236609
v 0.312144 0.277105 -0.233475
v 0.312144 -0.233475 -0.233475
v 0.315278 -0.236609 -0.236609
v 0.321547 0.280239 -0.236609
v 0.324680 0.277105 -0.233475
v 0.321547 -0.236609 -0.236609
v 0.324680 -0.233475 -0.233475
v 0.368815 0.280239 -0.236609
v 0.365682 0.277105 -0.233475
v 0.368815 -0.236609 -0.236609
v 0.365682 -0.233475 -0.233475
v 0.378218 0.277105 -0.233475
v 0.375084 0.280239 -0.236609
v 0.375084 -0.236609 -0.236609
v 0.378218 -0.233475 -0.233475
v 0.315278 -0.236609 0.219714
v 0.312144 -0.236609 0.221930
v 0.312144 -0.233475 0.219714
v 0.321547 -0.236609 0.222848
v 0.324680 -0.233475 0.219714
v 0.368815 -0.236609 0.222848
v 0.365682 -0.233475 0.219714
v 0.378218 -0.233475 0.219714
v 0.378218 -0.236609 0.221930
v 0.375084 -0.236609 0.219714
v 0.315278 0.280239 0.219714
v 0.312144 0.277105 0.219714
v 0.312144 0.280239 0.221930
v 0.375084 0.280239 0.219714
v 0.378218 0.280239 0.221930
v 0.378218 0.277105 0.219714
v 0.368815 0.280239 0.222848
v 0.365682 0.277105 0.219714
v 0.321547 0.280239 0.222848
v 0.324680 0.277105 0.219714
v 0.310607 -0.236609 0.230341
v 0.318412 -0.236609 0.238736
v 0.310607 0.280239 0.230341
v 0.318412 0.280239 0.238736
v 0.379754 -0.236609 0.230341
v 0.371950 -0.236609 0.238736
v 0.379754 0.280239 0.230341
v 0.371950 0.280239 0.238736
vt 0.395443 0.546756
vt 0.776334 0.929684
vt 0.757073 0.552370
vt 0.760785 0.551866
vt 0.772652 0.927484
vt 0.383394 0.915863
vt 0.379730 0.917866
vt 0.393574 0.565785
vt 0.397262 0.566241
vt 0.762347 0.109380
vt 0.764906 0.105845
vt 0.760067 0.462511
vt 0.756383 0.462166
vt 0.374338 0.105184
vt 0.396845 0.477292
vt 0.758524 0.481916
vt 0.374689 0.917289
vt 0.771016 0.107730
vt 0.370625 0.103138
vt 0.380721 0.919343
vt 0.388767 0.561360
vt 0.371695 0.096591
vt 0.393129 0.477818
vt 0.764963 0.466818
vt 0.775041 0.936136
vt 0.362216 0.106957
vt 0.786972 0.124004
vt 0.784814 0.926005
vt 0.359104 0.900752
vt 0.384800 0.483369
vt 0.387310 0.080545
vt 0.385166 0.560361
vt 0.374059 0.481859
vt 0.383174 0.928009
vt 0.374332 0.556518
vt 0.768542 0.467794
vt 0.779909 0.548167
vt 0.762203 0.097219
vt 0.779387 0.471656
vt 0.769159 0.546327
vt 0.758881 0.951883
vt 0.395174 0.564787
vt 0.394784 0.478924
vt 0.758527 0.463643
vt 0.396907 0.551107
vt 0.397549 0.559119
vt 0.756366 0.545222
vt 0.765594 0.547275
vt 0.759102 0.550732
vt 0.388385 0.482447
vt 0.397450 0.484395
vt 0.397076 0.492362
vt 0.395737 0.496723
vt 0.756145 0.469404
vt 0.756723 0.537136
vt 0.758189 0.532696
vt 0.756854 0.477528
vt 0.177737 0.981964
vt 0.374454 0.562099
vt 0.182842 0.659904
vt 0.396079 0.941075
vt 0.371235 0.914455
vt 0.374277 0.093069
vt 0.230883 0.660665
vt 0.350424 0.121767
vt 0.371720 0.101610
vt 0.365600 0.103866
vt 0.380630 0.924374
vt 0.187924 0.339348
vt 0.193029 0.017289
vt 0.241069 0.018050
vt 0.235964 0.340110
vt 0.225777 0.982725
vt 0.779899 0.542394
vt 0.779260 0.465702
vt 0.748957 0.084399
vt 0.774534 0.110500
vt 0.764846 0.100807
vt 0.765965 0.107272
vt 0.772341 0.939610
vt 0.796878 0.911328
vt 0.775170 0.931113
vt 0.781372 0.929051
vt 0.374093 0.487011
vn 0.321348 0.000000 0.946961
vn 0.321348 0.000000 0.946961
vn 0.029733 0.000000 0.999558
vn 0.029733 0.000000 0.999558
vn 0.029733 0.000000 0.999558
vn -0.029733 0.000000 0.999558
vn -0.029733 0.000000 0.999558
vn 0.029733 0.000000 0.999558
vn -0.029733 0.000000 0.999558
vn -0.321348 0.000000 0.946961
vn -0.321348 0.000000 0.946961
vn -0.029733 0.000000 0.999558
vn 0.000000 0.000000 -1.000000
vn 0.000000 0.000000 -1.000000
vn 0.000000 0.000000 -1.000000
vn 0.000000 0.000000 -1.000000
vn 0.989680 -0.000000 -0.143295
vn 0.989680 -0.000000 -0.143295
vn 0.989680 -0.000000 -0.143295
vn 0.999986 0.000000 -0.005323
vn 0.999986 0.000000 -0.005323
vn 0.989680 -0.000000 -0.143295
vn 0.000000 -0.999986 -0.005311
vn 0.000000 -0.999986 -0.005311
vn 0.000000 -0.999986 -0.005311
vn 0.000000 -0.999986 -0.005311
vn 0.000000 0.999986 -0.005311
vn 0.000000 0.999986 -0.005311
vn 0.000000 0.999986 -0.005311
vn 0.000000 0.999986 -0.005311
vn -0.989680 -0.000000 -0.143295
vn -0.999986 0.000000 -0.005323
vn -0.999986 0.000000 -0.005323
vn -0.989680 -0.000000 -0.143295
vn -0.989680 -0.000000 -0.143295
vn -0.989680 -0.000000 -0.143295
vn -0.707106 0.707107 0.000000
vn -0.707106 0.707107 0.000000
vn -0.707106 0.707107 0.000000
vn -0.707106 0.707107 0.000000
vn -0.707106 0.000000 -0.707108
vn -0.707106 0.000000 -0.707108
vn -0.707106 0.000000 -0.707108
vn -0.707106 0.000000 -0.707108
vn -0.707106 -0.707107 0.000000
vn -0.707106 -0.707107 0.000000
vn -0.707106 -0.707107 0.000000
vn -0.707106 -0.707107 0.000000
vn 0.707106 0.000000 -0.707108
vn 0.707106 0.000000 -0.707108
vn 0.707106 0.000000 -0.707108
vn 0.707106 0.000000 -0.707108
vn 0.707107 0.707107 0.000000
vn 0.707107 0.707107 0.000000
vn 0.707107 0.707107 0.000000
vn 0.707107 0.707107 0.000000
vn 0.707107 -0.707107 0.000000
vn 0.707107 -0.707107 0.000000
vn 0.707107 -0.707107 0.000000
vn 0.707107 -0.707107 0.000000
vn -0.707107 0.707107 0.000000
vn -0.707107 0.707107 0.000000
vn -0.707107 0.707107 0.000000
vn -0.707107 0.707107 0.000000
vn -0.707106 0.000000 -0.707108
vn -0.707106 0.000000 -0.707108
vn -0.707106 0.000000 -0.707108
vn -0.707106 0.000000 -0.707108
vn -0.707107 -0.707107 0.000000
vn -0.707107 -0.707107 0.000000
vn -0.707107 -0.707107 0.000000
vn -0.707107 -0.707107 0.000000
vn 0.707106 0.707107 0.000000
vn 0.707106 0.707107 0.000000
vn 0.707106 0.707107 0.000000
vn 0.707106 0.707107 0.000000
vn 0.707106 0.000000 -0.707108
vn 0.707106 0.000000 -0.707108
vn 0.707106 0.000000 -0.707108
vn 0.707106 0.000000 -0.707108
vn 0.707106 -0.707107 0.000000
vn 0.707106 -0.707107 0.000000
vn 0.707106 -0.707107 0.000000
vn 0.707106 -0.707107 0.000000
vn 0.000000 -0.707108 -0.707106
vn 0.000000 -0.707108 -0.707106
vn 0.000000 -0.707108 -0.707106
vn 0.000000 -0.707108 -0.707106
vn 0.000000 0.707111 -0.707103
vn 0.000000 0.707111 -0.707103
vn 0.000000 0.707111 -0.707103
vn 0.000000 0.707111 -0.707103
vn 0.000000 1.000000 0.000000
vn 0.000000 1.000000 0.000000
vn 0.000000 1.000000 0.000000
vn 0.000000 1.000000 0.000000
vn 0.000000 1.000000 0.000000
vn 0.000000 1.000000 0.000000
vn 0.000000 1.000000 0.000000
vn 0.000000 1.000000 0.000000
vn 0.000000 1.000000 0.000000
vn 0.000000 1.000000 0.000000
vn 0.000000 0.000000 -1.000000
vn 0.000000 0.000000 -1.000000
vn 0.000000 0.000000 -1.000000
vn 0.000000 0.000000 -1.000000
vn 0.000000 0.000000 -1.000000
vn 0.000000 0.000000 -1.000000
vn 0.000000 0.000000 -1.000000
vn 0.000000 0.000000 -1.000000
vn 0.000000 -1.000000 0.000000
vn 0.000000 -1.000000 0.000000
vn 0.000000 -1.000000 0.000000
vn 0.000000 -1.000000 0.000000
vn 0.000000 -1.000000 0.000000
vn 0.000000 -1.000000 0.000000
vn 0.000000 -1.000000 0.000000
vn 0.000000 -1.000000 0.000000
vn 0.000000 -1.000000 0.000000
vn 0.000000 -1.000000 0.000000
vn -1.000000 0.000000 0.000000
vn -0.999986 0.000000 -0.005323
vn -0.999986 0.000000 -0.005323
vn -1.000000 0.000000 0.000000
vn 0.000000 -1.000000 0.000000
vn 0.000000 -1.000000 0.000000
vn 0.000000 -1.000000 0.000000
vn 0.000000 -1.000000 0.000000
vn 0.000000 -1.000000 0.000000
vn 0.000000 -1.000000 0.000000
vn 0.000000 -1.000000 0.000000
vn 0.000000 -1.000000 0.000000
vn 1.000000 0.000000 0.000000
vn 0.999986 0.000000 -0.005323
vn 0.999986 0.000000 -0.005323
vn 1.000000 0.000000 0.000000
vn 0.000000 1.000000 0.000000
vn 0.000000 1.000000 0.000000
vn 0.000000 1.000000 0.000000
vn 0.000000 1.000000 0.000000
vn 0.000000 1.000000 0.000000
vn 0.000000 1.000000 0.000000
vn 0.000000 1.000000 0.000000
vn 0.000000 1.000000 0.000000
vn -1.000000 0.000000 0.000000
vn -1.000000 0.000000 0.000000
vn -1.000000 0.000000 0.000000
vn -1.000000 0.000000 0.000000
vn 1.000000 0.000000 0.000000
vn 1.000000 0.000000 0.000000
vn 1.000000 0.000000 0.000000
vn 1.000000 0.000000 0.000000
vn -1.000000 0.000000 0.000000
vn -1.000000 0.000000 0.000000
vn -1.000000 0.000000 0.000000
vn -1.000000 0.000000 0.000000
vn 0.000000 0.000000 -1.000000
vn 0.000000 0.000000 -1.000000
vn 0.000000 0.000000 -1.000000
vn 0.000000 0.000000 -1.000000
vn 1.000000 0.000000 0.000000
vn 1.000000 0.000000 0.000000
vn 1.000000 0.000000 0.000000
vn 1.000000 0.000000 0.000000
vn 0.000000 0.000000 -1.000000
vn 0.000000 0.000000 -1.000000
vn 0.000000 0.000000 -1.000000
vn 0.000000 0.000000 -1.000000
vn -1.000000 0.000000 0.000000
vn -1.000000 0.000000 0.000000
vn -1.000000 0.000000 0.000000
vn -1.000000 0.000000 0.000000
vn 1.000000 0.000000 0.000000
vn 1.000000 0.000000 0.000000
vn 1.000000 0.000000 0.000000
vn 1.000000 0.000000 0.000000
vn 0.000000 -1.000000 0.000000
vn 0.000000 -1.000000 0.000000
vn 0.000000 -1.000000 0.000000
vn 0.000000 -1.000000 0.000000
vn 0.000000 -1.000000 0.000000
vn 0.000000 -1.000000 0.000000
vn -0.500001 -0.499999 -0.707106
vn -0.500001 -0.499999 -0.707106
vn -0.500001 -0.499999 -0.707106
vn 0.500001 -0.499999 -0.707106
vn 0.500001 -0.499999 -0.707106
vn 0.500001 -0.499999 -0.707106
vn -0.500004 0.500006 -0.707100
vn -0.500004 0.500006 -0.707100
vn -0.500004 0.500006 -0.707100
vn 0.500004 0.500006 -0.707100
vn 0.500004 0.500006 -0.707100
vn 0.500004 0.500006 -0.707100
vn 0.000000 1.000000 0.000000
vn 0.000000 1.000000 0.000000
vn 0.000000 1.000000 0.000000
vn 0.000000 1.000000 0.000000
vn 0.000000 1.000000 0.000000
vn 0.000000 1.000000 0.000000
vn -0.732403 0.000000 0.680872
vn -0.732403 0.000000 0.680872
vn -0.732403 0.000000 0.680872
vn -0.732403 0.000000 0.680872
vn 0.732403 0.000000 0.680872
vn 0.732403 0.000000 0.680872
vn 0.732403 0.000000 0.680872
vn 0.732403 0.000000 0.680872
s off
g libro3
usemtl libro3SG
f 220/307/625 218/297/626 169/253/627 171/308/628
f 169/253/629 170/305/630 172/268/631 171/308/632
f 170/305/633 222/304/634 224/309/635 172/268/636
f 173/321/637 174/324/638 175/316/639 176/312/640
f 223/306/641 221/303/642 205/295/643 204/267/644 212/265/645 211/296/646
f 176/312/647 175/316/648 177/325/649 178/310/650
f 180/322/651 179/323/652 174/324/653 173/321/654
f 209/301/655 208/255/656 199/261/657 198/294/658 217/298/659 219/299/660
f 181/254/661 182/257/662 208/255/663 207/256/664
f 182/257/665 181/334/666 184/272/667 183/258/668
f 183/258/669 184/259/670 197/260/671 199/261/672
f 185/277/673 186/332/674 188/286/675 187/320/676
f 186/280/677 185/335/678 215/300/679 216/292/680
f 187/269/681 188/314/682 201/284/683 200/273/684
f 189/270/685 190/329/686 214/288/687 213/276/688
f 190/290/689 189/330/690 191/274/691 192/315/692
f 192/278/693 191/319/694 202/302/695 203/282/696
f 193/262/697 194/331/698 210/264/699 212/265/700
f 194/263/701 193/262/702 196/266/703 195/318/704
f 195/271/705 196/266/706 204/267/707 206/275/708
f 200/273/709 201/284/710 203/282/711 202/302/712
f 213/276/713 214/288/714 216/292/715 215/300/716
f 171/308/717 172/268/718 213/276/719 215/300/720
f 172/268/721 224/309/722 223/306/723 211/296/724 210/264/725 213/276/726
f 181/334/727 185/277/728 187/320/729 184/272/730
f 189/330/731 194/263/732 195/318/733 191/274/734
f 200/273/735 202/302/736 170/305/737 169/253/738
f 202/302/739 206/275/740 205/295/741 221/303/742 222/304/743 170/305/744
f 183/258/745 199/261/746 208/255/747 182/257/748
f 184/259/749 187/269/750 200/273/751 197/260/752
f 191/319/753 195/271/754 206/275/755 202/302/756
f 193/262/757 212/265/758 204/267/759 196/266/760
f 213/276/761 210/264/762 194/331/763 189/270/764
f 181/254/765 207/256/766 215/300/767 185/335/768
f 190/290/769 192/315/770 175/283/771 174/328/772
f 188/286/773 186/332/774 173/293/775 176/313/776
f 192/278/777 203/282/778 177/285/779 175/317/780
f 203/282/781 201/284/782 178/287/783 177/336/784
f 201/284/785 188/314/786 176/281/787 178/311/788
f 216/292/789 214/288/790 179/291/791 180/326/792
f 214/288/793 190/329/794 174/279/795 179/327/796
f 186/280/797 216/292/798 180/289/799 173/333/800
f 198/294/801 197/260/802 200/273/803 169/253/804 218/297/805 217/298/806
f 197/260/807 198/294/808 199/261/809
f 204/267/810 205/295/811 206/275/812
f 207/256/813 208/255/814 209/301/815
f 210/264/816 211/296/817 212/265/818
f 219/299/819 220/307/820 171/308/821 215/300/822 207/256/823 209/301/824
f 217/298/825 218/297/826 220/307/827 219/299/828
f 222/304/829 221/303/830 223/306/831 224/309/832
g default
v 0.397100 -0.236609 0.236609
v 0.460013 -0.236609 0.236609
v 0.397100 0.174971 0.236609
v 0.460013 0.174971 0.236609
v 0.397100 0.156039 -0.217677
v 0.460013 0.156039 -0.217677
v 0.460013 -0.217677 -0.217677
v 0.397100 -0.217677 -0.217677
v 0.460013 -0.220000 0.219714
v 0.397100 -0.220000 0.219714
v 0.460013 0.158362 0.219714
v 0.397100 0.158362 0.219714
v 0.387698 0.174971 -0.236609
v 0.384564 0.171837 -0.233475
v 0.384564 -0.233475 -0.233475
v 0.387698 -0.236609 -0.236609
v 0.393966 0.174971 -0.236609
v 0.397100 0.171837 -0.233475
v 0.393966 -0.236609 -0.236609
v 0.397100 -0.233475 -0.233475
v 0.463147 0.174971 -0.236609
v 0.460013 0.171837 -0.233475
v 0.463147 -0.236609 -0.236609
v 0.460013 -0.233475 -0.233475
v 0.472549 0.171837 -0.233475
v 0.469415 0.174971 -0.236609
v 0.469415 -0.236609 -0.236609
v 0.472549 -0.233475 -0.233475
v 0.387698 -0.236609 0.219714
v 0.384564 -0.236609 0.221930
v 0.384564 -0.233475 0.219714
v 0.393966 -0.236609 0.222848
v 0.397100 -0.233475 0.219714
v 0.463147 -0.236609 0.222848
v 0.460013 -0.233475 0.219714
v 0.472549 -0.233475 0.219714
v 0.472549 -0.236609 0.221930
v 0.469415 -0.236609 0.219714
v 0.387698 0.174971 0.219714
v 0.384564 0.171837 0.219714
v 0.384564 0.174971 0.221930
v 0.469415 0.174971 0.219714
v 0.472549 0.174971 0.221930
v 0.472549 0.171837 0.219714
v 0.463147 0.174971 0.222848
v 0.460013 0.171837 0.219714
v 0.393966 0.174971 0.222848
v 0.397100 0.171837 0.219714
v 0.383027 -0.236609 0.230341
v 0.390831 -0.236609 0.238736
v 0.383027 0.174971 0.230341
v 0.390831 0.174971 0.238736
v 0.474086 -0.236609 0.230341
v 0.466281 -0.236609 0.238736
v 0.474086 0.174971 0.230341
v 0.466281 0.174971 0.238736
vt 0.395443 0.546756
vt 0.776334 0.929684
vt 0.757073 0.552370
vt 0.760785 0.551866
vt 0.772652 0.927484
vt 0.383394 0.915863
vt 0.379730 0.917866
vt 0.393574 0.565785
vt 0.397262 0.566241
vt 0.762347 0.109380
vt 0.764906 0.105845
vt 0.760067 0.462511
vt 0.756383 0.462166
vt 0.374338 0.105184
vt 0.396845 0.477292
vt 0.758524 0.481916
vt 0.374689 0.917289
vt 0.771016 0.107730
vt 0.370625 0.103138
vt 0.380721 0.919343
vt 0.388767 0.561360
vt 0.371695 0.096591
vt 0.393129 0.477818
vt 0.764963 0.466818
vt 0.775041 0.936136
vt 0.362216 0.106957
vt 0.786972 0.124004
vt 0.784814 0.926005
vt 0.359104 0.900752
vt 0.384800 0.483369
vt 0.387310 0.080545
vt 0.385166 0.560361
vt 0.374059 0.481859
vt 0.383174 0.928009
vt 0.374332 0.556518
vt 0.768542 0.467794
vt 0.779909 0.548167
vt 0.762203 0.097219
vt 0.779387 0.471656
vt 0.769159 0.546327
vt 0.758881 0.951883
vt 0.395174 0.564787
vt 0.394784 0.478924
vt 0.758527 0.463643
vt 0.396907 0.551107
vt 0.397549 0.559119
vt 0.756366 0.545222
vt 0.765594 0.547275
vt 0.759102 0.550732
vt 0.388385 0.482447
vt 0.397450 0.484395
vt 0.397076 0.492362
vt 0.395737 0.496723
vt 0.756145 0.469404
vt 0.756723 0.537136
vt 0.758189 0.532696
vt 0.756854 0.477528
vt 0.177737 0.981964
vt 0.374454 0.562099
vt 0.182842 0.659904
vt 0.396079 0.941075
vt 0.371235 0.914455
vt 0.374277 0.093069
vt 0.230883 0.660665
vt 0.350424 0.121767
vt 0.371720 0.101610
vt 0.365600 0.103866
vt 0.380630 0.924374
vt 0.187924 0.339348
vt 0.193029 0.017289
vt 0.241069 0.018050
vt 0.235964 0.340110
vt 0.225777 0.982725
vt 0.779899 0.542394
vt 0.779260 0.465702
vt 0.748957 0.084399
vt 0.774534 0.110500
vt 0.764846 0.100807
vt 0.765965 0.107272
vt 0.772341 0.939610
vt 0.796878 0.911328
vt 0.775170 0.931113
vt 0.781372 0.929051
vt 0.374093 0.487011
vn 0.321348 0.000000 0.946961
vn 0.321348 0.000000 0.946961
vn 0.029733 0.000000 0.999558
vn 0.029733 0.000000 0.999558
vn 0.029733 0.000000 0.999558
vn -0.029733 0.000000 0.999558
vn -0.029733 0.000000 0.999558
vn 0.029733 0.000000 0.999558
vn -0.029733 0.000000 0.999558
vn -0.321348 0.000000 0.946961
vn -0.321348 0.000000 0.946961
vn -0.029733 0.000000 0.999558
vn 0.000000 0.000000 -1.000000
vn 0.000000 0.000000 -1.000000
vn 0.000000 0.000000 -1.000000
vn 0.000000 0.000000 -1.000000
vn 0.989680 -0.000000 -0.143295
vn 0.989680 -0.000000 -0.143295
vn 0.989680 -0.000000 -0.143295
vn 0.999986 0.000000 -0.005323
vn 0.999986 0.000000 -0.005323
vn 0.989680 -0.000000 -0.143295
vn 0.000000 -0.999986 -0.005311
vn 0.000000 -0.999986 -0.005311
vn 0.000000 -0.999986 -0.005311
vn 0.000000 -0.999986 -0.005311
vn 0.000000 0.999986 -0.005311
vn 0.000000 0.999986 -0.005311
vn 0.000000 0.999986 -0.005311
vn 0.000000 0.999986 -0.005311
vn -0.989680 -0.000000 -0.143295
vn -0.999986 0.000000 -0.005323
vn -0.999986 0.000000 -0.005323
vn -0.989680 -0.000000 -0.143295
vn -0.989680 -0.000000 -0.143295
vn -0.989680 -0.000000 -0.143295
vn -0.707106 0.707107 0.000000
vn -0.707106 0.707107 0.000000
vn -0.707106 0.707107 0.000000
vn -0.707106 0.707107 0.000000
vn -0.707106 0.000000 -0.707108
vn -0.707106 0.000000 -0.707108
vn -0.707106 0.000000 -0.707108
vn -0.707106 0.000000 -0.707108
vn -0.707106 -0.707107 0.000000
vn -0.707106 -0.707107 0.000000
vn -0.707106 -0.707107 0.000000
vn -0.707106 -0.707107 0.000000
vn 0.707106 0.000000 -0.707108
vn 0.707106 0.000000 -0.707108
vn 0.707106 0.000000 -0.707108
vn 0.707106 0.000000 -0.707108
vn 0.707107 0.707107 0.000000
vn 0.707107 0.707107 0.000000
vn 0.707107 0.707107 0.000000
vn 0.707107 0.707107 0.000000
vn 0.707107 -0.707107 0.000000
vn 0.707107 -0.707107 0.000000
vn 0.707107 -0.707107 0.000000
vn 0.707107 -0.707107 0.000000
vn -0.707107 0.707107 0.000000
vn -0.707107 0.707107 0.000000
vn -0.707107 0.707107 0.000000
vn -0.707107 0.707107 0.000000
vn -0.707106 0.000000 -0.707108
vn -0.707106 0.000000 -0.707108
vn -0.707106 0.000000 -0.707108
vn -0.707106 0.000000 -0.707108
vn -0.707107 -0.707107 0.000000
vn -0.707107 -0.707107 0.000000
vn -0.707107 -0.707107 0.000000
vn -0.707107 -0.707107 0.000000
vn 0.707106 0.707107 0.000000
vn 0.707106 0.707107 0.000000
vn 0.707106 0.707107 0.000000
vn 0.707106 0.707107 0.000000
vn 0.707106 0.000000 -0.707108
vn 0.707106 0.000000 -0.707108
vn 0.707106 0.000000 -0.707108
vn 0.707106 0.000000 -0.707108
vn 0.707106 -0.707107 0.000000
vn 0.707106 -0.707107 0.000000
vn 0.707106 -0.707107 0.000000
vn 0.707106 -0.707107 0.000000
vn 0.000000 -0.707108 -0.707106
vn 0.000000 -0.707108 -0.707106
vn 0.000000 -0.707108 -0.707106
vn 0.000000 -0.707108 -0.707106
vn 0.000000 0.707111 -0.707103
vn 0.000000 0.707111 -0.707103
vn 0.000000 0.707111 -0.707103
vn 0.000000 0.707111 -0.707103
vn 0.000000 1.000000 0.000000
vn 0.000000 1.000000 0.000000
vn 0.000000 1.000000 0.000000
vn 0.000000 1.000000 0.000000
vn 0.000000 1.000000 0.000000
vn 0.000000 1.000000 0.000000
vn 0.000000 1.000000 0.000000
vn 0.000000 1.000000 0.000000
vn 0.000000 1.000000 0.000000
vn 0.000000 1.000000 0.000000
vn 0.000000 0.000000 -1.000000
vn 0.000000 0.000000 -1.000000
vn 0.000000 0.000000 -1.000000
vn 0.000000 0.000000 -1.000000
vn 0.000000 0.000000 -1.000000
vn 0.000000 0.000000 -1.000000
vn 0.000000 0.000000 -1.000000
vn 0.000000 0.000000 -1.000000
vn 0.000000 -1.000000 0.000000
vn 0.000000 -1.000000 0.000000
vn 0.000000 -1.000000 0.000000
vn 0.000000 -1.000000 0.000000
vn 0.000000 -1.000000 0.000000
vn 0.000000 -1.000000 0.000000
vn 0.000000 -1.000000 0.000000
vn 0.000000 -1.000000 0.000000
vn 0.000000 -1.000000 0.000000
vn 0.000000 -1.000000 0.000000
vn -1.000000 0.000000 0.000000
vn -0.999986 0.000000 -0.005323
vn -0.999986 0.000000 -0.005323
vn -1.000000 0.000000 0.000000
vn 0.000000 -1.000000 0.000000
vn 0.000000 -1.000000 0.000000
vn 0.000000 -1.000000 0.000000
vn 0.000000 -1.000000 0.000000
vn 0.000000 -1.000000 0.000000
vn 0.000000 -1.000000 0.000000
vn 0.000000 -1.000000 0.000000
vn 0.000000 -1.000000 0.000000
vn 1.000000 0.000000 0.000000
vn 0.999986 0.000000 -0.005323
vn 0.999986 0.000000 -0.005323
vn 1.000000 0.000000 0.000000
vn 0.000000 1.000000 0.000000
vn 0.000000 1.000000 0.000000
vn 0.000000 1.000000 0.000000
vn 0.000000 1.000000 0.000000
vn 0.000000 1.000000 0.000000
vn 0.000000 1.000000 0.000000
vn 0.000000 1.000000 0.000000
vn 0.000000 1.000000 0.000000
vn -1.000000 0.000000 0.000000
vn -1.000000 0.000000 0.000000
vn -1.000000 0.000000 0.000000
vn -1.000000 0.000000 0.000000
vn 1.000000 0.000000 0.000000
vn 1.000000 0.000000 0.000000
vn 1.000000 0.000000 0.000000
vn 1.000000 0.000000 0.000000
vn -1.000000 0.000000 0.000000
vn -1.000000 0.000000 0.000000
vn -1.000000 0.000000 0.000000
vn -1.000000 0.000000 0.000000
vn 0.000000 0.000000 -1.000000
vn 0.000000 0.000000 -1.000000
vn 0.000000 0.000000 -1.000000
vn 0.000000 0.000000 -1.000000
vn 1.000000 0.000000 0.000000
vn 1.000000 0.000000 0.000000
vn 1.000000 0.000000 0.000000
vn 1.000000 0.000000 0.000000
vn 0.000000 0.000000 -1.000000
vn 0.000000 0.000000 -1.000000
vn 0.000000 0.000000 -1.000000
vn 0.000000 0.000000 -1.000000
vn -1.000000 0.000000 0.000000
vn -1.000000 0.000000 0.000000
vn -1.000000 0.000000 0.000000
vn -1.000000 0.000000 0.000000
vn 1.000000 0.000000 0.000000
vn 1.000000 0.000000 0.000000
vn 1.000000 0.000000 0.000000
vn 1.000000 0.000000 0.000000
vn 0.000000 -1.000000 0.000000
vn 0.000000 -1.000000 0.000000
vn 0.000000 -1.000000 0.000000
vn 0.000000 -1.000000 0.000000
vn 0.000000 -1.000000 0.000000
vn 0.000000 -1.000000 0.000000
vn -0.500001 -0.499999 -0.707106
vn -0.500001 -0.499999 -0.707106
vn -0.500001 -0.499999 -0.707106
vn 0.500001 -0.499999 -0.707106
vn 0.500001 -0.499999 -0.707106
vn 0.500001 -0.499999 -0.707106
vn -0.500004 0.500006 -0.707100
vn -0.500004 0.500006 -0.707100
vn -0.500004 0.500006 -0.707100
vn 0.500004 0.500006 -0.707100
vn 0.500004 0.500006 -0.707100
vn 0.500004 0.500006 -0.707100
vn 0.000000 1.000000 0.000000
vn 0.000000 1.000000 0.000000
vn 0.000000 1.000000 0.000000
vn 0.000000 1.000000 0.000000
vn 0.000000 1.000000 0.000000
vn 0.000000 1.000000 0.000000
vn -0.732403 0.000000 0.680872
vn -0.732403 0.000000 0.680872
vn -0.732403 0.000000 0.680872
vn -0.732403 0.000000 0.680872
vn 0.732403 0.000000 0.680872
vn 0.732403 0.000000 0.680872
vn 0.732403 0.000000 0.680872
vn 0.732403 0.000000 0.680872
s off
g libro4
usemtl libro4SG
f 276/391/833 274/381/834 225/337/835 227/392/836
f 225/337/837 226/389/838 228/352/839 227/392/840
f 226/389/841 278/388/842 280/393/843 228/352/844
f 229/405/845 230/408/846 231/400/847 232/396/848
f 279/390/849 277/387/850 261/379/851 260/351/852 268/349/853 267/380/854
f 232/396/855 231/400/856 233/409/857 234/394/858
f 236/406/859 235/407/860 230/408/861 229/405/862
f 265/385/863 264/339/864 255/345/865 254/378/866 273/382/867 275/383/868
f 237/338/869 238/341/870 264/339/871 263/340/872
f 238/341/873 237/418/874 240/356/875 239/342/876
f 239/342/877 240/343/878 253/344/879 255/345/880
f 241/361/881 242/416/882 244/370/883 243/404/884
f 242/364/885 241/419/886 271/384/887 272/376/888
f 243/353/889 244/398/890 257/368/891 256/357/892
f 245/354/893 246/413/894 270/372/895 269/360/896
f 246/374/897 245/414/898 247/358/899 248/399/900
f 248/362/901 247/403/902 258/386/903 259/366/904
f 249/346/905 250/415/906 266/348/907 268/349/908
f 250/347/909 249/346/910 252/350/911 251/402/912
f 251/355/913 252/350/914 260/351/915 262/359/916
f 256/357/917 257/368/918 259/366/919 258/386/920
f 269/360/921 270/372/922 272/376/923 271/384/924
f 227/392/925 228/352/926 269/360/927 271/384/928
f 228/352/929 280/393/930 279/390/931 267/380/932 266/348/933 269/360/934
f 237/418/935 241/361/936 243/404/937 240/356/938
f 245/414/939 250/347/940 251/402/941 247/358/942
f 256/357/943 258/386/944 226/389/945 225/337/946
f 258/386/947 262/359/948 261/379/949 277/387/950 278/388/951 226/389/952
f 239/342/953 255/345/954 264/339/955 238/341/956
f 240/343/957 243/353/958 256/357/959 253/344/960
f 247/403/961 251/355/962 262/359/963 258/386/964
f 249/346/965 268/349/966 260/351/967 252/350/968
f 269/360/969 266/348/970 250/415/971 245/354/972
f 237/338/973 263/340/974 271/384/975 241/419/976
f 246/374/977 248/399/978 231/367/979 230/412/980
f 244/370/981 242/416/982 229/377/983 232/397/984
f 248/362/985 259/366/986 233/369/987 231/401/988
f 259/366/989 257/368/990 234/371/991 233/420/992
f 257/368/993 244/398/994 232/365/995 234/395/996
f 272/376/997 270/372/998 235/375/999 236/410/1000
f 270/372/1001 246/413/1002 230/363/1003 235/411/1004
f 242/364/1005 272/376/1006 236/373/1007 229/417/1008
f 254/378/1009 253/344/1010 256/357/1011 225/337/1012 274/381/1013 273/382/1014
f 253/344/1015 254/378/1016 255/345/1017
f 260/351/1018 261/379/1019 262/359/1020
f 263/340/1021 264/339/1022 265/385/1023
f 266/348/1024 267/380/1025 268/349/1026
f 275/383/1027 276/391/1028 227/392/1029 271/384/1030 263/340/1031 265/385/1032
f 273/382/1033 274/381/1034 276/391/1035 275/383/1036
f 278/388/1037 277/387/1038 279/390/1039 280/393/1040
