# This file uses centimeters as units for non-parametric coordinates.

mtllib Prop_Nota2.mtl
g default
v -0.247949 -0.023154 0.422225
v -0.140618 0.003748 0.404521
v -0.017766 -0.014870 0.384258
v 0.140340 0.007020 0.358179
v 0.263192 0.002724 0.337915
v 0.363076 -0.021130 0.321440
v -0.275995 -0.025994 0.252197
v -0.166229 0.004880 0.231043
v -0.045189 -0.015038 0.211078
v 0.110584 0.000808 0.185384
v 0.231623 -0.003425 0.165419
v 0.335031 -0.030872 0.151412
v -0.309181 -0.032037 0.050998
v -0.198926 -0.001569 0.032812
v -0.077886 -0.019913 0.012847
v 0.077886 0.001654 -0.012847
v 0.198926 -0.002578 -0.032812
v 0.301844 -0.030013 -0.049788
v -0.339696 -0.012000 -0.134001
v -0.228990 0.018173 -0.149458
v -0.107951 -0.000171 -0.169423
v 0.047822 0.026259 -0.195116
v 0.168861 0.017164 -0.215081
v 0.271329 -0.009975 -0.234787
v -0.370413 -0.023154 -0.320229
v -0.263082 0.003748 -0.337933
v -0.140230 -0.014870 -0.358197
v 0.017876 0.007020 -0.384276
v 0.140728 0.002724 -0.404540
v 0.240612 -0.021130 -0.421015
v -0.291069 -0.019818 0.160804
v -0.181081 0.007036 0.140998
v -0.060042 -0.007873 0.121033
v 0.095731 0.013694 0.095339
v 0.216771 -0.009821 0.075374
v 0.319956 -0.017793 0.060019
v -0.322659 -0.023187 -0.030713
v -0.212205 0.020310 -0.047694
v -0.091165 -0.006756 -0.067658
v 0.064607 0.026369 -0.093352
v 0.185647 0.006141 -0.113317
v 0.288366 -0.021162 -0.131499
v -0.244844 -0.017318 0.416056
v -0.138693 0.009206 0.398544
v -0.166315 0.006943 0.231090
v -0.272450 -0.020113 0.248594
v -0.017530 -0.009115 0.378532
v -0.045150 -0.012973 0.211125
v 0.138114 0.012462 0.352819
v 0.110542 0.002873 0.185416
v 0.259504 0.008209 0.332780
v 0.231883 -0.001376 0.165354
v 0.358113 -0.015320 0.316517
v 0.330404 -0.024900 0.149105
v -0.287297 -0.014028 0.158468
v -0.181180 0.009100 0.140967
v -0.199017 0.000492 0.032938
v -0.305184 -0.026101 0.050428
v -0.060034 -0.005808 0.121009
v -0.077861 -0.017850 0.012965
v 0.095718 0.015760 0.095349
v 0.077862 0.003714 -0.012685
v 0.217028 -0.007771 0.075346
v 0.199244 -0.000538 -0.032727
v 0.315464 -0.011995 0.059110
v 0.297723 -0.024057 -0.049022
v -0.318513 -0.017397 -0.029931
v -0.212282 0.022359 -0.047444
v -0.229102 0.020236 -0.149467
v -0.335286 -0.006345 -0.131942
v -0.091119 -0.004706 -0.067406
v -0.107960 0.001895 -0.169462
v 0.064580 0.028417 -0.093082
v 0.047734 0.028323 -0.195133
v 0.186029 0.008164 -0.113138
v 0.169185 0.019204 -0.215121
v 0.284557 -0.015360 -0.129415
v 0.267746 -0.004334 -0.231344
v -0.259368 0.009204 -0.333041
v -0.365510 -0.017320 -0.315532
v -0.138239 -0.009122 -0.353035
v 0.017436 0.012454 -0.378727
v 0.138864 0.008206 -0.398741
v 0.237455 -0.015320 -0.414988
vt 0.329362 0.360304
vt 0.329362 0.360304
vt 0.329362 0.360304
vt 0.329362 0.360304
vt 0.329362 0.360304
vt 0.329362 0.360304
vt 0.329362 0.360304
vt 0.103373 0.565809
vt 0.193947 0.565788
vt 0.309779 0.565936
vt 0.399800 0.566025
vt 0.329362 0.360304
vt 0.329362 0.360304
vt 0.102437 0.712737
vt 0.193331 0.712498
vt 0.309596 0.712858
vt 0.400049 0.713075
vt 0.329362 0.360304
vt 0.329362 0.360304
vt 0.102785 0.848535
vt 0.193212 0.848765
vt 0.309525 0.849046
vt 0.398933 0.848816
vt 0.329362 0.360304
vt 0.329362 0.360304
vt 0.329362 0.360304
vt 0.329362 0.360304
vt 0.329362 0.360304
vt 0.329362 0.360304
vt 0.329362 0.360304
vt 0.329362 0.360304
vt 0.103307 0.632349
vt 0.193523 0.632509
vt 0.309441 0.632873
vt 0.400167 0.632864
vt 0.329362 0.360304
vt 0.329362 0.360304
vt 0.103102 0.774206
vt 0.193448 0.772434
vt 0.309821 0.774605
vt 0.399785 0.772913
vt 0.329362 0.360304
vt 0.597953 0.460175
vt 0.690819 0.460578
vt 0.809774 0.460910
vt 0.901928 0.461165
vt 0.598189 0.392019
vt 0.597707 0.309540
vt 0.690682 0.392250
vt 0.690781 0.310115
vt 0.809637 0.392261
vt 0.809979 0.310123
vt 0.902638 0.392506
vt 0.902329 0.310104
vt 0.598762 0.246495
vt 0.598380 0.170352
vt 0.691107 0.248547
vt 0.690995 0.170454
vt 0.810413 0.246673
vt 0.810360 0.170525
vt 0.902277 0.248704
vt 0.901752 0.171026
vt 0.023070 0.442151
vt 0.329362 0.360304
vt 0.022571 0.565625
vt 0.329362 0.360304
vt 0.329362 0.360304
vt 0.329362 0.360304
vt 0.329362 0.360304
vt 0.329362 0.360304
vt 0.020961 0.711969
vt 0.329362 0.360304
vt 0.472733 0.632879
vt 0.329362 0.360304
vt 0.021961 0.848249
vt 0.329362 0.360304
vt 0.474353 0.772491
vt 0.329362 0.360304
vt 0.102208 0.983907
vt 0.329362 0.360304
vt 0.192851 0.984847
vt 0.309203 0.984676
vt 0.399422 0.984386
vt 0.329362 0.360304
vt 0.474983 0.712891
vt 0.329362 0.360304
vt 0.329362 0.360304
vt 0.020703 0.771546
vt 0.474653 0.566066
vt 0.329362 0.360304
vt 0.329362 0.360304
vt 0.023438 0.632178
vt 0.329362 0.360304
vt 0.474253 0.984656
vt 0.473457 0.848587
vt 0.329362 0.360304
vt 0.329362 0.360304
vt 0.329362 0.360304
vt 0.329362 0.360304
vt 0.021384 0.984275
vt 0.473808 0.442610
vt 0.399209 0.442182
vt 0.309769 0.442060
vt 0.193987 0.442451
vt 0.103662 0.442149
vt 0.329362 0.360304
vt 0.329362 0.360304
vt 0.511852 0.590748
vt 0.329362 0.360304
vt 0.981967 0.248620
vt 0.981390 0.169506
vt 0.511093 0.247596
vt 0.512761 0.168357
vt 0.980613 0.394255
vt 0.982251 0.310855
vt 0.513167 0.392967
vt 0.511047 0.309768
vt 0.905008 0.027985
vt 0.982757 0.027984
vt 0.811434 0.027399
vt 0.690323 0.026759
vt 0.595876 0.027525
vt 0.512090 0.027019
vt 0.981952 0.463802
vt 0.512026 0.462151
vt 0.980452 0.592569
vt 0.902837 0.592583
vt 0.810040 0.592092
vt 0.689438 0.591210
vt 0.595499 0.591141
vn -0.240758 0.970262 0.025051
vn -0.035480 0.999310 -0.010938
vn -0.031957 0.999423 0.011474
vn -0.232530 0.971583 0.044236
vn -0.035480 0.999310 -0.010938
vn -0.003445 0.999544 -0.030008
vn 0.000823 0.999953 0.009683
vn -0.031957 0.999423 0.011474
vn -0.003445 0.999544 -0.030008
vn -0.058221 0.997582 -0.037956
vn -0.039636 0.999209 0.003115
vn 0.000823 0.999953 0.009683
vn -0.058221 0.997582 -0.037956
vn 0.112245 0.990826 -0.075269
vn 0.118303 0.991998 -0.044101
vn -0.039636 0.999209 0.003115
vn 0.112245 0.990826 -0.075269
vn 0.216893 0.971901 -0.091469
vn 0.191449 0.979902 -0.056031
vn 0.118303 0.991998 -0.044101
vn -0.227891 0.973662 0.006858
vn -0.038626 0.998982 -0.023283
vn -0.034885 0.998595 0.039884
vn -0.247695 0.966554 0.066487
vn -0.038626 0.998982 -0.023283
vn -0.014535 0.999767 -0.015959
vn -0.011081 0.999191 0.038655
vn -0.034885 0.998595 0.039884
vn -0.014535 0.999767 -0.015959
vn -0.023262 0.999729 -0.000137
vn -0.030082 0.997787 0.059305
vn -0.011081 0.999191 0.038655
vn -0.023262 0.999729 -0.000137
vn 0.122753 0.992308 -0.016033
vn 0.145872 0.988771 0.032442
vn -0.030082 0.997787 0.059305
vn 0.122753 0.992308 -0.016033
vn 0.136517 0.990469 -0.018288
vn 0.180262 0.983613 0.003292
vn 0.145872 0.988771 0.032442
vn -0.272256 0.950548 0.149452
vn -0.026252 0.993570 0.110135
vn -0.042760 0.998889 -0.019819
vn -0.259607 0.965489 0.020841
vn -0.026252 0.993570 0.110135
vn -0.002215 0.993156 0.116771
vn -0.027117 0.999211 -0.029008
vn -0.042760 0.998889 -0.019819
vn -0.002215 0.993156 0.116771
vn -0.033238 0.991667 0.124469
vn -0.062882 0.997786 -0.021632
vn -0.027117 0.999211 -0.029008
vn -0.033238 0.991667 0.124469
vn 0.179432 0.980165 0.084151
vn 0.141769 0.989141 -0.038740
vn -0.062882 0.997786 -0.021632
vn 0.179432 0.980165 0.084151
vn 0.241895 0.968127 0.064941
vn 0.226303 0.973356 -0.036948
vn 0.141769 0.989141 -0.038740
vn -0.259607 0.965489 0.020841
vn -0.042760 0.998889 -0.019819
vn -0.045056 0.997607 -0.052444
vn -0.245347 0.969274 -0.017674
vn -0.042760 0.998889 -0.019819
vn -0.027117 0.999211 -0.029008
vn -0.030743 0.997589 -0.062224
vn -0.045056 0.997607 -0.052444
vn -0.027117 0.999211 -0.029008
vn -0.062882 0.997786 -0.021632
vn -0.072531 0.995505 -0.060904
vn -0.030743 0.997589 -0.062224
vn -0.062882 0.997786 -0.021632
vn 0.141769 0.989141 -0.038740
vn 0.121967 0.988754 -0.086544
vn -0.072531 0.995505 -0.060904
vn 0.141769 0.989141 -0.038740
vn 0.226303 0.973356 -0.036948
vn 0.216515 0.971753 -0.093899
vn 0.121967 0.988754 -0.086544
vn -0.232530 0.971583 0.044236
vn -0.031957 0.999423 0.011474
vn -0.038626 0.998982 -0.023283
vn -0.227891 0.973662 0.006858
vn -0.031957 0.999423 0.011474
vn 0.000823 0.999953 0.009683
vn -0.014535 0.999767 -0.015959
vn -0.038626 0.998982 -0.023283
vn 0.000823 0.999953 0.009683
vn -0.039636 0.999209 0.003115
vn -0.023262 0.999729 -0.000137
vn -0.014535 0.999767 -0.015959
vn -0.039636 0.999209 0.003115
vn 0.118303 0.991998 -0.044101
vn 0.122753 0.992308 -0.016033
vn -0.023262 0.999729 -0.000137
vn 0.118303 0.991998 -0.044101
vn 0.191449 0.979902 -0.056031
vn 0.136517 0.990469 -0.018288
vn 0.122753 0.992308 -0.016033
vn -0.247695 0.966554 0.066487
vn -0.034885 0.998595 0.039884
vn -0.026252 0.993570 0.110135
vn -0.272256 0.950548 0.149452
vn -0.034885 0.998595 0.039884
vn -0.011081 0.999191 0.038655
vn -0.002215 0.993156 0.116771
vn -0.026252 0.993570 0.110135
vn -0.011081 0.999191 0.038655
vn -0.030082 0.997787 0.059305
vn -0.033238 0.991667 0.124469
vn -0.002215 0.993156 0.116771
vn -0.030082 0.997787 0.059305
vn 0.145872 0.988771 0.032442
vn 0.179432 0.980165 0.084151
vn -0.033238 0.991667 0.124469
vn 0.145872 0.988771 0.032442
vn 0.180262 0.983613 0.003292
vn 0.241895 0.968127 0.064941
vn 0.179432 0.980165 0.084151
vn 0.251264 -0.967306 -0.034438
vn 0.247016 -0.967658 -0.051205
vn 0.038150 -0.999012 -0.022809
vn 0.042063 -0.999097 -0.005931
vn 0.042063 -0.999097 -0.005931
vn 0.038150 -0.999012 -0.022809
vn -0.002715 -0.999733 -0.022947
vn -0.000607 -0.999965 0.008387
vn -0.000607 -0.999965 0.008387
vn -0.002715 -0.999733 -0.022947
vn 0.038159 -0.999145 -0.015909
vn 0.054680 -0.998357 0.017152
vn 0.054680 -0.998357 0.017152
vn 0.038159 -0.999145 -0.015909
vn -0.127974 -0.991139 0.035590
vn -0.123195 -0.990460 0.061736
vn -0.123195 -0.990460 0.061736
vn -0.127974 -0.991139 0.035590
vn -0.211436 -0.975894 0.054091
vn -0.231746 -0.969030 0.085291
vn 0.250517 -0.968045 -0.011442
vn 0.269920 -0.960366 -0.069572
vn 0.051700 -0.997761 -0.042427
vn 0.054652 -0.998287 0.020879
vn 0.054652 -0.998287 0.020879
vn 0.051700 -0.997761 -0.042427
vn 0.011077 -0.999191 -0.038672
vn 0.014551 -0.999767 0.015915
vn 0.014551 -0.999767 0.015915
vn 0.011077 -0.999191 -0.038672
vn 0.030209 -0.997781 -0.059328
vn 0.023372 -0.999727 0.000114
vn 0.023372 -0.999727 0.000114
vn 0.030209 -0.997781 -0.059328
vn -0.159736 -0.986724 -0.029340
vn -0.136768 -0.990431 0.018466
vn -0.136768 -0.990431 0.018466
vn -0.159736 -0.986724 -0.029340
vn -0.207543 -0.978224 0.001818
vn -0.165587 -0.985932 0.022792
vn 0.291900 -0.944349 -0.151657
vn 0.273204 -0.961774 -0.018723
vn 0.051991 -0.998296 0.026487
vn 0.042009 -0.992721 -0.112876
vn 0.042009 -0.992721 -0.112876
vn 0.051991 -0.998296 0.026487
vn 0.029317 -0.998730 0.040968
vn 0.002168 -0.993149 -0.116831
vn 0.002168 -0.993149 -0.116831
vn 0.029317 -0.998730 0.040968
vn 0.065127 -0.997342 0.032681
vn 0.033365 -0.991650 -0.124563
vn 0.033365 -0.991650 -0.124563
vn 0.065127 -0.997342 0.032681
vn -0.147934 -0.987883 0.046926
vn -0.192873 -0.977829 -0.081553
vn -0.192873 -0.977829 -0.081553
vn -0.147934 -0.987883 0.046926
vn -0.241018 -0.969499 0.044514
vn -0.266372 -0.961985 -0.060256
vn 0.273204 -0.961774 -0.018723
vn 0.256259 -0.966366 0.021646
vn 0.055144 -0.996466 0.063365
vn 0.051991 -0.998296 0.026487
vn 0.051991 -0.998296 0.026487
vn 0.055144 -0.996466 0.063365
vn 0.032841 -0.996316 0.079218
vn 0.029317 -0.998730 0.040968
vn 0.029317 -0.998730 0.040968
vn 0.032841 -0.996316 0.079218
vn 0.074779 -0.994268 0.076412
vn 0.065127 -0.997342 0.032681
vn 0.065127 -0.997342 0.032681
vn 0.074779 -0.994268 0.076412
vn -0.126888 -0.987049 0.098148
vn -0.147934 -0.987883 0.046926
vn -0.147934 -0.987883 0.046926
vn -0.126888 -0.987049 0.098148
vn -0.226013 -0.968832 0.101408
vn -0.241018 -0.969499 0.044514
vn 0.247016 -0.967658 -0.051205
vn 0.250517 -0.968045 -0.011442
vn 0.054652 -0.998287 0.020879
vn 0.038150 -0.999012 -0.022809
vn 0.038150 -0.999012 -0.022809
vn 0.054652 -0.998287 0.020879
vn 0.014551 -0.999767 0.015915
vn -0.002715 -0.999733 -0.022947
vn -0.002715 -0.999733 -0.022947
vn 0.014551 -0.999767 0.015915
vn 0.023372 -0.999727 0.000114
vn 0.038159 -0.999145 -0.015909
vn 0.038159 -0.999145 -0.015909
vn 0.023372 -0.999727 0.000114
vn -0.136768 -0.990431 0.018466
vn -0.127974 -0.991139 0.035590
vn -0.127974 -0.991139 0.035590
vn -0.136768 -0.990431 0.018466
vn -0.165587 -0.985932 0.022792
vn -0.211436 -0.975894 0.054091
vn 0.269920 -0.960366 -0.069572
vn 0.291900 -0.944349 -0.151657
vn 0.042009 -0.992721 -0.112876
vn 0.051700 -0.997761 -0.042427
vn 0.051700 -0.997761 -0.042427
vn 0.042009 -0.992721 -0.112876
vn 0.002168 -0.993149 -0.116831
vn 0.011077 -0.999191 -0.038672
vn 0.011077 -0.999191 -0.038672
vn 0.002168 -0.993149 -0.116831
vn 0.033365 -0.991650 -0.124563
vn 0.030209 -0.997781 -0.059328
vn 0.030209 -0.997781 -0.059328
vn 0.033365 -0.991650 -0.124563
vn -0.192873 -0.977829 -0.081553
vn -0.159736 -0.986724 -0.029340
vn -0.159736 -0.986724 -0.029340
vn -0.192873 -0.977829 -0.081553
vn -0.266372 -0.961985 -0.060256
vn -0.207543 -0.978224 0.001818
vn -0.077579 0.745974 0.661441
vn 0.053957 0.726995 0.684519
vn 0.125752 0.710959 0.691899
vn -0.077579 0.745974 0.661441
vn -0.809914 0.570705 0.135409
vn -0.814571 0.566465 0.124866
vn -0.814571 0.566465 0.124866
vn -0.804973 0.574995 0.146282
vn 0.053957 0.726995 0.684519
vn 0.117582 0.698366 0.706017
vn 0.100013 0.700078 0.707028
vn 0.125752 0.710959 0.691899
vn 0.117582 0.698366 0.706017
vn 0.075056 0.715256 0.694821
vn 0.065351 0.713662 0.697435
vn 0.100013 0.700078 0.707028
vn 0.075056 0.715256 0.694821
vn 0.218632 0.740445 0.635564
vn 0.180298 0.733333 0.655527
vn 0.065351 0.713662 0.697435
vn 0.218632 0.740445 0.635564
vn 0.277982 0.748743 0.601755
vn 0.277982 0.748743 0.601755
vn 0.180298 0.733333 0.655527
vn 0.812254 0.559118 -0.166224
vn 0.809775 0.569850 -0.139765
vn 0.806251 0.581200 -0.110301
vn 0.812254 0.559118 -0.166224
vn -0.817762 0.561763 0.125250
vn -0.808967 0.574813 0.123139
vn -0.812905 0.571934 0.109893
vn -0.817888 0.561810 0.124215
vn 0.796314 0.593211 -0.118259
vn 0.805123 0.575670 -0.142763
vn 0.804899 0.575734 -0.143761
vn 0.795658 0.589264 -0.140343
vn -0.803208 0.582874 0.122945
vn -0.807872 0.556661 0.193576
vn -0.807815 0.556730 0.193615
vn -0.805150 0.575386 0.143752
vn 0.820003 0.567604 -0.073619
vn 0.795003 0.590095 -0.140563
vn 0.803268 0.583258 -0.120708
vn 0.819836 0.567857 -0.073530
vn -0.170306 0.717379 -0.675546
vn -0.285539 0.737653 -0.611830
vn -0.285539 0.737653 -0.611830
vn -0.104816 0.700573 -0.705841
vn -0.800171 0.591968 0.096437
vn -0.803208 0.582874 0.122945
vn -0.805150 0.575386 0.143752
vn -0.800171 0.591968 0.096437
vn -0.117211 0.685854 -0.718238
vn -0.170306 0.717379 -0.675546
vn -0.104816 0.700573 -0.705841
vn -0.133612 0.687288 -0.713991
vn -0.153705 0.700707 -0.696695
vn -0.117211 0.685854 -0.718238
vn -0.133612 0.687288 -0.713991
vn -0.163875 0.699188 -0.695903
vn -0.001434 0.726095 -0.687593
vn -0.153705 0.700707 -0.696695
vn -0.163875 0.699188 -0.695903
vn -0.044106 0.718406 -0.694225
vn 0.795003 0.590095 -0.140563
vn 0.784162 0.598178 -0.165148
vn 0.784162 0.598178 -0.165148
vn 0.803268 0.583258 -0.120708
vn 0.064254 0.735200 -0.674798
vn -0.001434 0.726095 -0.687593
vn -0.044106 0.718406 -0.694225
vn 0.064254 0.735200 -0.674798
vn -0.808967 0.574813 0.123139
vn -0.809914 0.570705 0.135409
vn -0.804973 0.574995 0.146282
vn -0.812905 0.571934 0.109893
vn 0.809775 0.569850 -0.139765
vn 0.796314 0.593211 -0.118259
vn 0.795658 0.589264 -0.140343
vn 0.806251 0.581200 -0.110301
vn -0.807872 0.556661 0.193576
vn -0.817762 0.561763 0.125250
vn -0.817888 0.561810 0.124215
vn -0.807815 0.556730 0.193615
vn 0.805123 0.575670 -0.142763
vn 0.820003 0.567604 -0.073619
vn 0.819836 0.567857 -0.073530
vn 0.804899 0.575734 -0.143761
s off
g nota
usemtl notaSG
f 43/63/1 44/105/2 45/8/3 46/65/4
f 44/105/5 47/104/6 48/9/7 45/8/8
f 47/104/9 49/103/10 50/10/11 48/9/12
f 49/103/13 51/102/14 52/11/15 50/10/16
f 51/102/17 53/101/18 54/89/19 52/11/20
f 55/92/21 56/32/22 57/14/23 58/71/24
f 56/32/25 59/33/26 60/15/27 57/14/28
f 59/33/29 61/34/30 62/16/31 60/15/32
f 61/34/33 63/35/34 64/17/35 62/16/36
f 63/35/37 65/73/38 66/85/39 64/17/40
f 67/88/41 68/38/42 69/20/43 70/75/44
f 68/38/45 71/39/46 72/21/47 69/20/48
f 71/39/49 73/40/50 74/22/51 72/21/52
f 73/40/53 75/41/54 76/23/55 74/22/56
f 75/41/57 77/77/58 78/95/59 76/23/60
f 70/75/61 69/20/62 79/79/63 80/100/64
f 69/20/65 72/21/66 81/81/67 79/79/68
f 72/21/69 74/22/70 82/82/71 81/81/72
f 74/22/73 76/23/74 83/83/75 82/82/76
f 76/23/77 78/95/78 84/94/79 83/83/80
f 46/65/81 45/8/82 56/32/83 55/92/84
f 45/8/85 48/9/86 59/33/87 56/32/88
f 48/9/89 50/10/90 61/34/91 59/33/92
f 50/10/93 52/11/94 63/35/95 61/34/96
f 52/11/97 54/89/98 65/73/99 63/35/100
f 58/71/101 57/14/102 68/38/103 67/88/104
f 57/14/105 60/15/106 71/39/107 68/38/108
f 60/15/109 62/16/110 73/40/111 71/39/112
f 62/16/113 64/17/114 75/41/115 73/40/116
f 64/17/117 66/85/118 77/77/119 75/41/120
f 1/108/121 7/125/122 8/43/123 2/130/124
f 2/130/125 8/43/126 9/44/127 3/129/128
f 3/129/129 9/44/130 10/45/131 4/128/132
f 4/128/133 10/45/134 11/46/135 5/127/136
f 5/127/137 11/46/138 12/124/139 6/126/140
f 31/116/141 13/117/142 14/48/143 32/47/144
f 32/47/145 14/48/146 15/50/147 33/49/148
f 33/49/149 15/50/150 16/52/151 34/51/152
f 34/51/153 16/52/154 17/54/155 35/53/156
f 35/53/157 17/54/158 18/115/159 36/114/160
f 37/112/161 19/113/162 20/56/163 38/55/164
f 38/55/165 20/56/166 21/58/167 39/57/168
f 39/57/169 21/58/170 22/60/171 40/59/172
f 40/59/173 22/60/174 23/62/175 41/61/176
f 41/61/177 23/62/178 24/111/179 42/110/180
f 19/113/181 25/123/182 26/122/183 20/56/184
f 20/56/185 26/122/186 27/121/187 21/58/188
f 21/58/189 27/121/190 28/120/191 22/60/192
f 22/60/193 28/120/194 29/118/195 23/62/196
f 23/62/197 29/118/198 30/119/199 24/111/200
f 7/125/201 31/116/202 32/47/203 8/43/204
f 8/43/205 32/47/206 33/49/207 9/44/208
f 9/44/209 33/49/210 34/51/211 10/45/212
f 10/45/213 34/51/214 35/53/215 11/46/216
f 11/46/217 35/53/218 36/114/219 12/124/220
f 13/117/221 37/112/222 38/55/223 14/48/224
f 14/48/225 38/55/226 39/57/227 15/50/228
f 15/50/229 39/57/230 40/59/231 16/52/232
f 16/52/233 40/59/234 41/61/235 17/54/236
f 17/54/237 41/61/238 42/110/239 18/115/240
f 1/1/241 2/2/242 44/64/243 43/106/244
f 7/7/245 1/109/246 43/107/247 46/91/248
f 2/2/249 3/3/250 47/66/251 44/64/252
f 3/3/253 4/4/254 49/67/255 47/66/256
f 4/4/257 5/5/258 51/68/259 49/67/260
f 5/5/261 6/6/262 53/69/263 51/68/264
f 6/6/265 12/12/266 54/70/267 53/69/268
f 13/13/269 31/31/270 55/72/271 58/87/272
f 36/36/273 18/18/274 66/74/275 65/90/276
f 19/19/277 37/37/278 67/76/279 70/99/280
f 42/42/281 24/24/282 78/78/283 77/86/284
f 26/26/285 25/25/286 80/80/287 79/98/288
f 25/25/289 19/19/290 70/99/291 80/80/292
f 27/27/293 26/26/294 79/98/295 81/97/296
f 28/28/297 27/27/298 81/97/299 82/96/300
f 29/29/301 28/28/302 82/96/303 83/93/304
f 24/24/305 30/30/306 84/84/307 78/78/308
f 30/30/309 29/29/310 83/93/311 84/84/312
f 31/31/313 7/7/314 46/91/315 55/72/316
f 12/12/317 36/36/318 65/90/319 54/70/320
f 37/37/321 13/13/322 58/87/323 67/76/324
f 18/18/325 42/42/326 77/86/327 66/74/328
g default
v -0.416980 0.057035 0.251863
v -0.314749 0.083843 0.289111
v -0.196399 0.065290 0.327826
v -0.045327 0.087103 0.381287
v 0.072636 0.082822 0.421138
v 0.169096 0.059052 0.451924
v -0.361474 0.068647 0.089111
v -0.255577 0.099663 0.124793
v -0.138930 0.079816 0.162812
v 0.010067 0.095606 0.215031
v 0.126290 0.091388 0.254294
v 0.224789 0.063785 0.288625
v -0.295718 0.079713 -0.103691
v -0.190779 0.110075 -0.065204
v -0.074174 0.091795 -0.027060
v 0.074668 0.113286 0.025612
v 0.190891 0.109069 0.064875
v 0.290358 0.081731 0.096369
v -0.235950 0.115393 -0.278940
v -0.131892 0.145228 -0.237867
v -0.015288 0.126948 -0.199723
v 0.133424 0.153285 -0.146665
v 0.249778 0.144222 -0.107787
v 0.350127 0.117410 -0.078879
v -0.174937 0.120095 -0.457837
v -0.072706 0.146903 -0.420589
v 0.045645 0.128350 -0.381874
v 0.196717 0.150163 -0.328413
v 0.314680 0.145882 -0.288562
v 0.411140 0.122112 -0.257776
v -0.331846 0.082563 0.002240
v -0.226281 0.109460 0.038892
v -0.109769 0.094603 0.077308
v 0.039073 0.116094 0.129981
v 0.155818 0.092663 0.167714
v 0.254230 0.084581 0.202301
v -0.269319 0.095472 -0.181096
v -0.165126 0.138714 -0.140423
v -0.048285 0.111743 -0.102971
v 0.100245 0.144752 -0.049381
v 0.216900 0.124595 -0.011387
v 0.316757 0.097490 0.018965
v -0.411492 0.063318 0.248375
v -0.310382 0.089749 0.285204
v -0.255731 0.101717 0.124958
v -0.356810 0.074757 0.088087
v -0.193648 0.071495 0.323367
v -0.138974 0.081869 0.163036
v -0.044910 0.092999 0.375963
v 0.009960 0.097662 0.215203
v 0.071658 0.088762 0.415325
v 0.126493 0.093432 0.254522
v 0.166885 0.065316 0.445720
v 0.221637 0.069990 0.284889
v -0.327576 0.088474 0.002428
v -0.226410 0.111520 0.038981
v -0.190975 0.112119 -0.064973
v -0.292086 0.085622 -0.101835
v -0.109807 0.096664 0.077455
v -0.074264 0.093840 -0.026782
v 0.039002 0.118153 0.130146
v 0.074515 0.115326 0.025906
v 0.156002 0.094704 0.167973
v 0.191076 0.111090 0.065261
v 0.250542 0.090495 0.199842
v 0.286203 0.087659 0.095569
v -0.266189 0.101121 -0.177993
v -0.165367 0.140736 -0.140077
v -0.132042 0.147286 -0.237764
v -0.233186 0.120797 -0.274601
v -0.048419 0.113765 -0.102564
v -0.015333 0.129010 -0.199598
v 0.100038 0.146771 -0.048995
v 0.133298 0.155345 -0.146557
v 0.217098 0.126591 -0.010889
v 0.250027 0.146254 -0.107508
v 0.312260 0.103152 0.019457
v 0.345192 0.122796 -0.077100
v -0.071886 0.151885 -0.414108
v -0.172987 0.125453 -0.450935
v 0.044811 0.133624 -0.375946
v 0.193566 0.155125 -0.323317
v 0.310155 0.150891 -0.283916
v 0.405359 0.127446 -0.253514
vt 0.329362 0.360304
vt 0.329362 0.360304
vt 0.329362 0.360304
vt 0.329362 0.360304
vt 0.329362 0.360304
vt 0.329362 0.360304
vt 0.329362 0.360304
vt 0.103373 0.565809
vt 0.193947 0.565788
vt 0.309779 0.565936
vt 0.399800 0.566025
vt 0.329362 0.360304
vt 0.329362 0.360304
vt 0.102437 0.712737
vt 0.193331 0.712498
vt 0.309596 0.712858
vt 0.400049 0.713075
vt 0.329362 0.360304
vt 0.329362 0.360304
vt 0.102785 0.848535
vt 0.193212 0.848765
vt 0.309525 0.849046
vt 0.398933 0.848816
vt 0.329362 0.360304
vt 0.329362 0.360304
vt 0.329362 0.360304
vt 0.329362 0.360304
vt 0.329362 0.360304
vt 0.329362 0.360304
vt 0.329362 0.360304
vt 0.329362 0.360304
vt 0.103307 0.632349
vt 0.193523 0.632509
vt 0.309441 0.632873
vt 0.400167 0.632864
vt 0.329362 0.360304
vt 0.329362 0.360304
vt 0.103102 0.774206
vt 0.193448 0.772434
vt 0.309821 0.774605
vt 0.399785 0.772913
vt 0.329362 0.360304
vt 0.597953 0.460175
vt 0.690819 0.460578
vt 0.809774 0.460910
vt 0.901928 0.461165
vt 0.598189 0.392019
vt 0.597707 0.309540
vt 0.690682 0.392250
vt 0.690781 0.310115
vt 0.809637 0.392261
vt 0.809979 0.310123
vt 0.902638 0.392506
vt 0.902329 0.310104
vt 0.598762 0.246495
vt 0.598380 0.170352
vt 0.691107 0.248547
vt 0.690995 0.170454
vt 0.810413 0.246673
vt 0.810360 0.170525
vt 0.902277 0.248704
vt 0.901752 0.171026
vt 0.023070 0.442151
vt 0.329362 0.360304
vt 0.022571 0.565625
vt 0.329362 0.360304
vt 0.329362 0.360304
vt 0.329362 0.360304
vt 0.329362 0.360304
vt 0.329362 0.360304
vt 0.020961 0.711969
vt 0.329362 0.360304
vt 0.472733 0.632879
vt 0.329362 0.360304
vt 0.021961 0.848249
vt 0.329362 0.360304
vt 0.474353 0.772491
vt 0.329362 0.360304
vt 0.102208 0.983907
vt 0.329362 0.360304
vt 0.192851 0.984847
vt 0.309203 0.984676
vt 0.399422 0.984386
vt 0.329362 0.360304
vt 0.474983 0.712891
vt 0.329362 0.360304
vt 0.329362 0.360304
vt 0.020703 0.771546
vt 0.474653 0.566066
vt 0.329362 0.360304
vt 0.329362 0.360304
vt 0.023438 0.632178
vt 0.329362 0.360304
vt 0.474253 0.984656
vt 0.473457 0.848587
vt 0.329362 0.360304
vt 0.329362 0.360304
vt 0.329362 0.360304
vt 0.329362 0.360304
vt 0.021384 0.984275
vt 0.473808 0.442610
vt 0.399209 0.442182
vt 0.309769 0.442060
vt 0.193987 0.442451
vt 0.103662 0.442149
vt 0.329362 0.360304
vt 0.329362 0.360304
vt 0.511852 0.590748
vt 0.329362 0.360304
vt 0.981967 0.248620
vt 0.981390 0.169506
vt 0.511093 0.247596
vt 0.512761 0.168357
vt 0.980613 0.394255
vt 0.982251 0.310855
vt 0.513167 0.392967
vt 0.511047 0.309768
vt 0.905008 0.027985
vt 0.982757 0.027984
vt 0.811434 0.027399
vt 0.690323 0.026759
vt 0.595876 0.027525
vt 0.512090 0.027019
vt 0.981952 0.463802
vt 0.512026 0.462151
vt 0.980452 0.592569
vt 0.902837 0.592583
vt 0.810040 0.592092
vt 0.689438 0.591210
vt 0.595499 0.591141
vn -0.250284 0.968061 -0.014681
vn -0.053152 0.997184 0.052912
vn -0.060615 0.995395 0.074262
vn -0.252111 0.967679 0.006153
vn -0.053152 0.997184 0.052912
vn -0.015929 0.998556 0.051306
vn -0.030889 0.995623 0.088203
vn -0.060615 0.995395 0.074262
vn -0.015929 0.998556 0.051306
vn -0.060415 0.998005 0.018319
vn -0.063437 0.995977 0.063281
vn -0.030889 0.995623 0.088203
vn -0.060415 0.998005 0.018319
vn 0.107624 0.992033 0.065478
vn 0.098239 0.990541 0.095797
vn -0.063437 0.995977 0.063281
vn 0.107624 0.992033 0.065478
vn 0.208019 0.973087 0.099145
vn 0.168669 0.978477 0.118885
vn 0.098239 0.990541 0.095797
vn -0.230458 0.972778 -0.024312
vn -0.050097 0.997920 0.040561
vn -0.076565 0.992261 0.097759
vn -0.275832 0.961035 0.018133
vn -0.050097 0.997920 0.040561
vn -0.032334 0.997768 0.058425
vn -0.055019 0.992631 0.107963
vn -0.076565 0.992261 0.097759
vn -0.032334 0.997768 0.058425
vn -0.047485 0.996541 0.068195
vn -0.081465 0.989783 0.117015
vn -0.055019 0.992631 0.107963
vn -0.047485 0.996541 0.068195
vn 0.088922 0.988469 0.122565
vn 0.086546 0.980621 0.175760
vn -0.081465 0.989783 0.117015
vn 0.088922 0.988469 0.122565
vn 0.102169 0.986635 0.126936
vn 0.130742 0.977422 0.165988
vn 0.086546 0.980621 0.175760
vn -0.336160 0.938560 0.078118
vn -0.101937 0.981326 0.163118
vn -0.055371 0.997597 0.041645
vn -0.264786 0.963911 -0.027652
vn -0.101937 0.981326 0.163118
vn -0.083864 0.980038 0.180257
vn -0.037258 0.998465 0.040985
vn -0.055371 0.997597 0.041645
vn -0.083864 0.980038 0.180257
vn -0.114800 0.978340 0.172255
vn -0.072225 0.996923 0.030468
vn -0.037258 0.998465 0.040985
vn -0.114800 0.978340 0.172255
vn 0.091986 0.967312 0.236319
vn 0.116475 0.986932 0.111353
vn -0.072225 0.996923 0.030468
vn 0.091986 0.967312 0.236319
vn 0.156429 0.956053 0.247979
vn 0.190575 0.969901 0.151572
vn 0.116475 0.986932 0.111353
vn -0.264786 0.963911 -0.027652
vn -0.055371 0.997597 0.041645
vn -0.041981 0.999049 0.011813
vn -0.234162 0.970672 -0.054439
vn -0.055371 0.997597 0.041645
vn -0.037258 0.998465 0.040985
vn -0.024753 0.999644 0.009980
vn -0.041981 0.999049 0.011813
vn -0.037258 0.998465 0.040985
vn -0.072225 0.996923 0.030468
vn -0.062155 0.998028 -0.008750
vn -0.024753 0.999644 0.009980
vn -0.072225 0.996923 0.030468
vn 0.116475 0.986932 0.111353
vn 0.121565 0.990768 0.060002
vn -0.062155 0.998028 -0.008750
vn 0.116475 0.986932 0.111353
vn 0.190575 0.969901 0.151572
vn 0.208836 0.973146 0.096821
vn 0.121565 0.990768 0.060002
vn -0.252111 0.967679 0.006153
vn -0.060615 0.995395 0.074262
vn -0.050097 0.997920 0.040561
vn -0.230458 0.972778 -0.024312
vn -0.060615 0.995395 0.074262
vn -0.030889 0.995623 0.088203
vn -0.032334 0.997768 0.058425
vn -0.050097 0.997920 0.040561
vn -0.030889 0.995623 0.088203
vn -0.063437 0.995977 0.063281
vn -0.047485 0.996541 0.068195
vn -0.032334 0.997768 0.058425
vn -0.063437 0.995977 0.063281
vn 0.098239 0.990541 0.095797
vn 0.088922 0.988469 0.122565
vn -0.047485 0.996541 0.068195
vn 0.098239 0.990541 0.095797
vn 0.168669 0.978477 0.118885
vn 0.102169 0.986635 0.126936
vn 0.088922 0.988469 0.122565
vn -0.275832 0.961035 0.018133
vn -0.076565 0.992261 0.097759
vn -0.101937 0.981326 0.163118
vn -0.336160 0.938560 0.078118
vn -0.076565 0.992261 0.097759
vn -0.055019 0.992631 0.107963
vn -0.083864 0.980038 0.180257
vn -0.101937 0.981326 0.163118
vn -0.055019 0.992631 0.107963
vn -0.081465 0.989783 0.117015
vn -0.114800 0.978340 0.172255
vn -0.083864 0.980038 0.180257
vn -0.081465 0.989783 0.117015
vn 0.086546 0.980621 0.175760
vn 0.091986 0.967312 0.236319
vn -0.114800 0.978340 0.172255
vn 0.086546 0.980621 0.175760
vn 0.130742 0.977422 0.165988
vn 0.156429 0.956053 0.247979
vn 0.091986 0.967312 0.236319
vn 0.263890 -0.964483 0.011632
vn 0.268059 -0.963389 -0.005123
vn 0.071405 -0.994132 -0.081259
vn 0.066900 -0.995666 -0.064599
vn 0.066900 -0.995666 -0.064599
vn 0.071405 -0.994132 -0.081259
vn 0.035467 -0.994282 -0.100725
vn 0.022561 -0.997132 -0.072237
vn 0.022561 -0.997132 -0.072237
vn 0.035467 -0.994282 -0.100725
vn 0.068165 -0.994835 -0.075207
vn 0.067121 -0.997009 -0.038318
vn 0.067121 -0.997009 -0.038318
vn 0.068165 -0.994835 -0.075207
vn -0.102776 -0.988850 -0.107765
vn -0.110906 -0.990401 -0.082499
vn -0.110906 -0.990401 -0.082499
vn -0.102776 -0.988850 -0.107765
vn -0.185482 -0.974050 -0.129705
vn -0.218278 -0.969513 -0.111352
vn 0.252411 -0.967110 0.031412
vn 0.296710 -0.954917 -0.009862
vn 0.092564 -0.991448 -0.091989
vn 0.065338 -0.997247 -0.035053
vn 0.065338 -0.997247 -0.035053
vn 0.092564 -0.991448 -0.091989
vn 0.055024 -0.992629 -0.107979
vn 0.032369 -0.997765 -0.058456
vn 0.032369 -0.997765 -0.058456
vn 0.055024 -0.992629 -0.107979
vn 0.081588 -0.989778 -0.116974
vn 0.047592 -0.996538 -0.068163
vn 0.047592 -0.996538 -0.068163
vn 0.081588 -0.989778 -0.116974
vn -0.100285 -0.978648 -0.179418
vn -0.102474 -0.986609 -0.126896
vn -0.102474 -0.986609 -0.126896
vn -0.100285 -0.978648 -0.179418
vn -0.157345 -0.972103 -0.173949
vn -0.130039 -0.982090 -0.136343
vn 0.354348 -0.932468 -0.070290
vn 0.275673 -0.960569 0.036224
vn 0.060349 -0.997684 -0.031386
vn 0.117095 -0.980468 -0.158021
vn 0.117095 -0.980468 -0.158021
vn 0.060349 -0.997684 -0.031386
vn 0.033547 -0.999004 -0.029407
vn 0.083851 -0.980025 -0.180332
vn 0.083851 -0.980025 -0.180332
vn 0.033547 -0.999004 -0.029407
vn 0.068983 -0.997424 -0.019672
vn 0.114956 -0.978318 -0.172276
vn 0.114956 -0.978318 -0.172276
vn 0.068983 -0.997424 -0.019672
vn -0.125802 -0.986271 -0.106975
vn -0.105122 -0.965015 -0.240197
vn -0.105122 -0.965015 -0.240197
vn -0.125802 -0.986271 -0.106975
vn -0.207216 -0.966483 -0.151568
vn -0.180380 -0.949986 -0.254931
vn 0.275673 -0.960569 0.036224
vn 0.241830 -0.968251 0.063307
vn 0.045694 -0.998952 0.002628
vn 0.060349 -0.997684 -0.031386
vn 0.060349 -0.997684 -0.031386
vn 0.045694 -0.998952 0.002628
vn 0.018557 -0.999810 0.006032
vn 0.033547 -0.999004 -0.029407
vn 0.033547 -0.999004 -0.029407
vn 0.018557 -0.999810 0.006032
vn 0.056793 -0.998109 0.023525
vn 0.068983 -0.997424 -0.019672
vn 0.068983 -0.997424 -0.019672
vn 0.056793 -0.998109 0.023525
vn -0.131418 -0.989962 -0.052001
vn -0.125802 -0.986271 -0.106975
vn -0.125802 -0.986271 -0.106975
vn -0.131418 -0.989962 -0.052001
vn -0.220827 -0.970726 -0.094479
vn -0.207216 -0.966483 -0.151568
vn 0.268059 -0.963389 -0.005123
vn 0.252411 -0.967110 0.031412
vn 0.065338 -0.997247 -0.035053
vn 0.071405 -0.994132 -0.081259
vn 0.071405 -0.994132 -0.081259
vn 0.065338 -0.997247 -0.035053
vn 0.032369 -0.997765 -0.058456
vn 0.035467 -0.994282 -0.100725
vn 0.035467 -0.994282 -0.100725
vn 0.032369 -0.997765 -0.058456
vn 0.047592 -0.996538 -0.068163
vn 0.068165 -0.994835 -0.075207
vn 0.068165 -0.994835 -0.075207
vn 0.047592 -0.996538 -0.068163
vn -0.102474 -0.986609 -0.126896
vn -0.102776 -0.988850 -0.107765
vn -0.102776 -0.988850 -0.107765
vn -0.102474 -0.986609 -0.126896
vn -0.130039 -0.982090 -0.136343
vn -0.185482 -0.974050 -0.129705
vn 0.296710 -0.954917 -0.009862
vn 0.354348 -0.932468 -0.070290
vn 0.117095 -0.980468 -0.158021
vn 0.092564 -0.991448 -0.091989
vn 0.092564 -0.991448 -0.091989
vn 0.117095 -0.980468 -0.158021
vn 0.083851 -0.980025 -0.180332
vn 0.055024 -0.992629 -0.107979
vn 0.055024 -0.992629 -0.107979
vn 0.083851 -0.980025 -0.180332
vn 0.114956 -0.978318 -0.172276
vn 0.081588 -0.989778 -0.116974
vn 0.081588 -0.989778 -0.116974
vn 0.114956 -0.978318 -0.172276
vn -0.105122 -0.965015 -0.240197
vn -0.100285 -0.978648 -0.179418
vn -0.100285 -0.978648 -0.179418
vn -0.105122 -0.965015 -0.240197
vn -0.180380 -0.949986 -0.254931
vn -0.157345 -0.972103 -0.173949
vn -0.400371 0.689717 0.603319
vn -0.294788 0.667103 0.684159
vn -0.234545 0.649533 0.723253
vn -0.400371 0.689717 0.603319
vn -0.793211 0.568547 -0.218105
vn -0.792232 0.565257 -0.229897
vn -0.792232 0.565258 -0.229897
vn -0.794098 0.571856 -0.205887
vn -0.294788 0.667103 0.684159
vn -0.248062 0.635928 0.730795
vn -0.264072 0.637791 0.723526
vn -0.234545 0.649533 0.723253
vn -0.248062 0.635928 0.730795
vn -0.280727 0.654265 0.702232
vn -0.290472 0.652593 0.699821
vn -0.264072 0.637791 0.723526
vn -0.280727 0.654265 0.702232
vn -0.126912 0.682306 0.719966
vn -0.169922 0.674092 0.718837
vn -0.290472 0.652593 0.699821
vn -0.126912 0.682306 0.719966
vn -0.058882 0.692562 0.718951
vn -0.058882 0.692562 0.718951
vn -0.169922 0.674092 0.718837
vn 0.779238 0.559818 0.281767
vn 0.764290 0.568358 0.304680
vn 0.746986 0.577280 0.329787
vn 0.779238 0.559818 0.281767
vn -0.795099 0.560583 -0.231439
vn -0.786703 0.573642 -0.228106
vn -0.783854 0.571922 -0.241824
vn -0.794723 0.560718 -0.232404
vn 0.741654 0.590042 0.319062
vn 0.761444 0.574469 0.300313
vn 0.761716 0.574618 0.299337
vn 0.751593 0.587944 0.299049
vn -0.781754 0.581612 -0.224918
vn -0.818452 0.549715 -0.167183
vn -0.818422 0.549780 -0.167117
vn -0.793072 0.572456 -0.208160
vn 0.742185 0.560511 0.367408
vn 0.751096 0.588799 0.298613
vn 0.749208 0.580231 0.319405
vn 0.741989 0.560758 0.367427
vn 0.148924 0.773036 -0.616633
vn 0.016761 0.789542 -0.613468
vn 0.016761 0.789542 -0.613468
vn 0.221389 0.757901 -0.613656
vn -0.766827 0.592825 -0.246039
vn -0.781754 0.581612 -0.224918
vn -0.793072 0.572456 -0.208160
vn -0.766827 0.592825 -0.246039
vn 0.216706 0.744428 -0.631558
vn 0.148924 0.773036 -0.616633
vn 0.221389 0.757901 -0.613656
vn 0.200207 0.745729 -0.635457
vn 0.173979 0.757945 -0.628690
vn 0.216706 0.744428 -0.631558
vn 0.200207 0.745729 -0.635457
vn 0.164681 0.756504 -0.632915
vn 0.303228 0.780414 -0.546815
vn 0.173979 0.757945 -0.628690
vn 0.164681 0.756504 -0.632915
vn 0.268947 0.773882 -0.573388
vn 0.751096 0.588799 0.298613
vn 0.752911 0.599034 0.272550
vn 0.752911 0.599034 0.272550
vn 0.749208 0.580231 0.319405
vn 0.354855 0.787533 -0.503855
vn 0.303228 0.780414 -0.546815
vn 0.268947 0.773882 -0.573388
vn 0.354855 0.787533 -0.503855
vn -0.786703 0.573642 -0.228106
vn -0.793211 0.568547 -0.218105
vn -0.794098 0.571856 -0.205887
vn -0.783854 0.571922 -0.241824
vn 0.764290 0.568358 0.304680
vn 0.741654 0.590042 0.319062
vn 0.751593 0.587944 0.299049
vn 0.746986 0.577280 0.329787
vn -0.818452 0.549715 -0.167183
vn -0.795099 0.560583 -0.231439
vn -0.794723 0.560718 -0.232404
vn -0.818422 0.549780 -0.167117
vn 0.761444 0.574469 0.300313
vn 0.742185 0.560511 0.367408
vn 0.741989 0.560758 0.367427
vn 0.761716 0.574618 0.299337
s off
g nota1
usemtl nota1SG
f 127/193/329 128/235/330 129/138/331 130/195/332
f 128/235/333 131/234/334 132/139/335 129/138/336
f 131/234/337 133/233/338 134/140/339 132/139/340
f 133/233/341 135/232/342 136/141/343 134/140/344
f 135/232/345 137/231/346 138/219/347 136/141/348
f 139/222/349 140/162/350 141/144/351 142/201/352
f 140/162/353 143/163/354 144/145/355 141/144/356
f 143/163/357 145/164/358 146/146/359 144/145/360
f 145/164/361 147/165/362 148/147/363 146/146/364
f 147/165/365 149/203/366 150/215/367 148/147/368
f 151/218/369 152/168/370 153/150/371 154/205/372
f 152/168/373 155/169/374 156/151/375 153/150/376
f 155/169/377 157/170/378 158/152/379 156/151/380
f 157/170/381 159/171/382 160/153/383 158/152/384
f 159/171/385 161/207/386 162/225/387 160/153/388
f 154/205/389 153/150/390 163/209/391 164/230/392
f 153/150/393 156/151/394 165/211/395 163/209/396
f 156/151/397 158/152/398 166/212/399 165/211/400
f 158/152/401 160/153/402 167/213/403 166/212/404
f 160/153/405 162/225/406 168/224/407 167/213/408
f 130/195/409 129/138/410 140/162/411 139/222/412
f 129/138/413 132/139/414 143/163/415 140/162/416
f 132/139/417 134/140/418 145/164/419 143/163/420
f 134/140/421 136/141/422 147/165/423 145/164/424
f 136/141/425 138/219/426 149/203/427 147/165/428
f 142/201/429 141/144/430 152/168/431 151/218/432
f 141/144/433 144/145/434 155/169/435 152/168/436
f 144/145/437 146/146/438 157/170/439 155/169/440
f 146/146/441 148/147/442 159/171/443 157/170/444
f 148/147/445 150/215/446 161/207/447 159/171/448
f 85/238/449 91/255/450 92/173/451 86/260/452
f 86/260/453 92/173/454 93/174/455 87/259/456
f 87/259/457 93/174/458 94/175/459 88/258/460
f 88/258/461 94/175/462 95/176/463 89/257/464
f 89/257/465 95/176/466 96/254/467 90/256/468
f 115/246/469 97/247/470 98/178/471 116/177/472
f 116/177/473 98/178/474 99/180/475 117/179/476
f 117/179/477 99/180/478 100/182/479 118/181/480
f 118/181/481 100/182/482 101/184/483 119/183/484
f 119/183/485 101/184/486 102/245/487 120/244/488
f 121/242/489 103/243/490 104/186/491 122/185/492
f 122/185/493 104/186/494 105/188/495 123/187/496
f 123/187/497 105/188/498 106/190/499 124/189/500
f 124/189/501 106/190/502 107/192/503 125/191/504
f 125/191/505 107/192/506 108/241/507 126/240/508
f 103/243/509 109/253/510 110/252/511 104/186/512
f 104/186/513 110/252/514 111/251/515 105/188/516
f 105/188/517 111/251/518 112/250/519 106/190/520
f 106/190/521 112/250/522 113/248/523 107/192/524
f 107/192/525 113/248/526 114/249/527 108/241/528
f 91/255/529 115/246/530 116/177/531 92/173/532
f 92/173/533 116/177/534 117/179/535 93/174/536
f 93/174/537 117/179/538 118/181/539 94/175/540
f 94/175/541 118/181/542 119/183/543 95/176/544
f 95/176/545 119/183/546 120/244/547 96/254/548
f 97/247/549 121/242/550 122/185/551 98/178/552
f 98/178/553 122/185/554 123/187/555 99/180/556
f 99/180/557 123/187/558 124/189/559 100/182/560
f 100/182/561 124/189/562 125/191/563 101/184/564
f 101/184/565 125/191/566 126/240/567 102/245/568
f 85/131/569 86/132/570 128/194/571 127/236/572
f 91/137/573 85/239/574 127/237/575 130/221/576
f 86/132/577 87/133/578 131/196/579 128/194/580
f 87/133/581 88/134/582 133/197/583 131/196/584
f 88/134/585 89/135/586 135/198/587 133/197/588
f 89/135/589 90/136/590 137/199/591 135/198/592
f 90/136/593 96/142/594 138/200/595 137/199/596
f 97/143/597 115/161/598 139/202/599 142/217/600
f 120/166/601 102/148/602 150/204/603 149/220/604
f 103/149/605 121/167/606 151/206/607 154/229/608
f 126/172/609 108/154/610 162/208/611 161/216/612
f 110/156/613 109/155/614 164/210/615 163/228/616
f 109/155/617 103/149/618 154/229/619 164/210/620
f 111/157/621 110/156/622 163/228/623 165/227/624
f 112/158/625 111/157/626 165/227/627 166/226/628
f 113/159/629 112/158/630 166/226/631 167/223/632
f 108/154/633 114/160/634 168/214/635 162/208/636
f 114/160/637 113/159/638 167/223/639 168/214/640
f 115/161/641 91/137/642 130/221/643 139/202/644
f 96/142/645 120/166/646 149/220/647 138/200/648
f 121/167/649 97/143/650 142/217/651 151/206/652
f 102/148/653 126/172/654 161/216/655 150/204/656
g default
v -0.279637 0.009887 0.298621
v -0.173536 0.036790 0.322626
v -0.052094 0.018171 0.350102
v 0.104198 0.040061 0.385462
v 0.225641 0.035765 0.412937
v 0.324379 0.011911 0.435276
v -0.241610 0.007048 0.130544
v -0.131956 0.037921 0.152268
v -0.012304 0.018003 0.179338
v 0.141681 0.033849 0.214177
v 0.261332 0.029616 0.241247
v 0.362406 0.002169 0.267199
v -0.196612 0.001004 -0.068347
v -0.087621 0.031473 -0.043689
v 0.032030 0.013128 -0.016619
v 0.186015 0.034695 0.018220
v 0.305666 0.030463 0.045290
v 0.407404 0.003029 0.068308
v -0.155237 0.021041 -0.251224
v -0.046857 0.051214 -0.223867
v 0.072794 0.032870 -0.196797
v 0.226780 0.059300 -0.161959
v 0.346431 0.050205 -0.134888
v 0.448779 0.023066 -0.114569
v -0.113588 0.009887 -0.435316
v -0.007487 0.036790 -0.411311
v 0.113955 0.018171 -0.383836
v 0.270247 0.040061 -0.348476
v 0.391690 0.035765 -0.321000
v 0.490428 0.011911 -0.298661
v -0.221170 0.013223 0.040199
v -0.111817 0.040077 0.063256
v 0.007834 0.025168 0.090327
v 0.161820 0.046735 0.125165
v 0.281471 0.023220 0.152235
v 0.382846 0.015248 0.176854
v -0.178338 0.009854 -0.149121
v -0.069617 0.053351 -0.123271
v 0.050034 0.026285 -0.096200
v 0.204020 0.059410 -0.061362
v 0.323671 0.039183 -0.034292
v 0.425678 0.011879 -0.012466
v -0.274437 0.015723 0.294075
v -0.169502 0.042247 0.317813
v -0.132053 0.039984 0.152279
v -0.236970 0.012928 0.128540
v -0.049720 0.023926 0.344886
v -0.012286 0.020068 0.179397
v 0.104154 0.045503 0.379659
v 0.141631 0.035914 0.214191
v 0.224158 0.041250 0.406792
v 0.261597 0.031665 0.241285
v 0.321635 0.017721 0.428847
v 0.358988 0.008141 0.263320
v -0.216796 0.019013 0.039455
v -0.111897 0.042141 0.063190
v -0.087754 0.033533 -0.043607
v -0.192694 0.006941 -0.067371
v 0.007850 0.027234 0.090308
v 0.032008 0.015191 -0.016500
v 0.161804 0.048801 0.125169
v 0.185932 0.036755 0.018360
v 0.281720 0.025270 0.152306
v 0.305929 0.032503 0.045488
v 0.379026 0.021046 0.174321
v 0.403298 0.008984 0.067465
v -0.174790 0.015644 -0.146835
v -0.069782 0.055400 -0.123068
v -0.046957 0.053277 -0.223918
v -0.151927 0.026696 -0.247656
v 0.049982 0.028335 -0.095949
v 0.072800 0.034936 -0.196837
v 0.203894 0.061458 -0.061122
v 0.226704 0.061364 -0.162007
v 0.323958 0.041205 -0.033982
v 0.346746 0.052245 -0.134804
v 0.421365 0.017681 -0.011970
v 0.444162 0.028707 -0.112729
v -0.005888 0.042246 -0.405381
v -0.110814 0.015721 -0.429118
v 0.113856 0.023919 -0.378304
v 0.267751 0.045495 -0.343500
v 0.387781 0.041248 -0.316330
v 0.485235 0.017721 -0.294266
vt 0.329362 0.360304
vt 0.329362 0.360304
vt 0.329362 0.360304
vt 0.329362 0.360304
vt 0.329362 0.360304
vt 0.329362 0.360304
vt 0.329362 0.360304
vt 0.103373 0.565809
vt 0.193947 0.565788
vt 0.309779 0.565936
vt 0.399800 0.566025
vt 0.329362 0.360304
vt 0.329362 0.360304
vt 0.102437 0.712737
vt 0.193331 0.712498
vt 0.309596 0.712858
vt 0.400049 0.713075
vt 0.329362 0.360304
vt 0.329362 0.360304
vt 0.102785 0.848535
vt 0.193212 0.848765
vt 0.309525 0.849046
vt 0.398933 0.848816
vt 0.329362 0.360304
vt 0.329362 0.360304
vt 0.329362 0.360304
vt 0.329362 0.360304
vt 0.329362 0.360304
vt 0.329362 0.360304
vt 0.329362 0.360304
vt 0.329362 0.360304
vt 0.103307 0.632349
vt 0.193523 0.632509
vt 0.309441 0.632873
vt 0.400167 0.632864
vt 0.329362 0.360304
vt 0.329362 0.360304
vt 0.103102 0.774206
vt 0.193448 0.772434
vt 0.309821 0.774605
vt 0.399785 0.772913
vt 0.329362 0.360304
vt 0.597953 0.460175
vt 0.690819 0.460578
vt 0.809774 0.460910
vt 0.901928 0.461165
vt 0.598189 0.392019
vt 0.597707 0.309540
vt 0.690682 0.392250
vt 0.690781 0.310115
vt 0.809637 0.392261
vt 0.809979 0.310123
vt 0.902638 0.392506
vt 0.902329 0.310104
vt 0.598762 0.246495
vt 0.598380 0.170352
vt 0.691107 0.248547
vt 0.690995 0.170454
vt 0.810413 0.246673
vt 0.810360 0.170525
vt 0.902277 0.248704
vt 0.901752 0.171026
vt 0.023070 0.442151
vt 0.329362 0.360304
vt 0.022571 0.565625
vt 0.329362 0.360304
vt 0.329362 0.360304
vt 0.329362 0.360304
vt 0.329362 0.360304
vt 0.329362 0.360304
vt 0.020961 0.711969
vt 0.329362 0.360304
vt 0.472733 0.632879
vt 0.329362 0.360304
vt 0.021961 0.848249
vt 0.329362 0.360304
vt 0.474353 0.772491
vt 0.329362 0.360304
vt 0.102208 0.983907
vt 0.329362 0.360304
vt 0.192851 0.984847
vt 0.309203 0.984676
vt 0.399422 0.984386
vt 0.329362 0.360304
vt 0.474983 0.712891
vt 0.329362 0.360304
vt 0.329362 0.360304
vt 0.020703 0.771546
vt 0.474653 0.566066
vt 0.329362 0.360304
vt 0.329362 0.360304
vt 0.023438 0.632178
vt 0.329362 0.360304
vt 0.474253 0.984656
vt 0.473457 0.848587
vt 0.329362 0.360304
vt 0.329362 0.360304
vt 0.329362 0.360304
vt 0.329362 0.360304
vt 0.021384 0.984275
vt 0.473808 0.442610
vt 0.399209 0.442182
vt 0.309769 0.442060
vt 0.193987 0.442451
vt 0.103662 0.442149
vt 0.329362 0.360304
vt 0.329362 0.360304
vt 0.511852 0.590748
vt 0.329362 0.360304
vt 0.981967 0.248620
vt 0.981390 0.169506
vt 0.511093 0.247596
vt 0.512761 0.168357
vt 0.980613 0.394255
vt 0.982251 0.310855
vt 0.513167 0.392967
vt 0.511047 0.309768
vt 0.905008 0.027985
vt 0.982757 0.027984
vt 0.811434 0.027399
vt 0.690323 0.026759
vt 0.595876 0.027525
vt 0.512090 0.027019
vt 0.981952 0.463802
vt 0.512026 0.462151
vt 0.980452 0.592569
vt 0.902837 0.592583
vt 0.810040 0.592092
vt 0.689438 0.591210
vt 0.595499 0.591141
vn -0.232477 0.970262 -0.067428
vn -0.028752 0.999310 -0.023490
vn -0.033926 0.999423 -0.001401
vn -0.232076 0.971583 -0.046557
vn -0.028752 0.999310 -0.023490
vn 0.008106 0.999544 -0.029097
vn -0.002883 0.999953 0.009280
vn -0.033926 0.999423 -0.001401
vn 0.008106 0.999544 -0.029097
vn -0.039649 0.997582 -0.057081
vn -0.037893 0.999209 -0.012035
vn -0.002883 0.999953 0.009280
vn -0.039649 0.997582 -0.057081
vn 0.132324 0.990826 -0.027476
vn 0.126202 0.991998 0.003680
vn -0.037893 0.999209 -0.012035
vn 0.132324 0.990826 -0.027476
vn 0.235371 0.971901 -0.003088
vn 0.198458 0.979902 0.020163
vn 0.126202 0.991998 0.003680
vn -0.213708 0.973662 -0.079438
vn -0.027020 0.998982 -0.036112
vn -0.047333 0.998595 0.023817
vn -0.254503 0.966554 -0.031652
vn -0.027020 0.998982 -0.036112
vn -0.007457 0.999767 -0.020257
vn -0.024818 0.999191 0.031640
vn -0.047333 0.998595 0.023817
vn -0.007457 0.999767 -0.020257
vn -0.021499 0.999729 -0.008885
vn -0.050195 0.997787 0.043618
vn -0.024818 0.999191 0.031640
vn -0.021499 0.999729 -0.008885
vn 0.119758 0.992308 0.031357
vn 0.122928 0.988771 0.084970
vn -0.050195 0.997787 0.043618
vn 0.119758 0.992308 0.031357
vn 0.133359 0.990469 0.034450
vn 0.165761 0.983613 0.070911
vn 0.122928 0.988771 0.084970
vn -0.308489 0.950548 0.035964
vn -0.065782 0.993570 0.092150
vn -0.032154 0.998889 -0.034458
vn -0.248354 0.965489 -0.078423
vn -0.065782 0.993570 0.092150
vn -0.046011 0.993156 0.107346
vn -0.014201 0.999211 -0.037083
vn -0.032154 0.998889 -0.034458
vn -0.046011 0.993156 0.107346
vn -0.077650 0.991667 0.102799
vn -0.050113 0.997787 -0.043713
vn -0.014201 0.999211 -0.037083
vn -0.077650 0.991667 0.102799
vn 0.134552 0.980165 0.145509
vn 0.145924 0.989141 0.017480
vn -0.050113 0.997787 -0.043713
vn 0.134552 0.980165 0.145509
vn 0.199652 0.968127 0.151227
vn 0.223565 0.973356 0.050964
vn 0.145924 0.989141 0.017480
vn -0.248354 0.965489 -0.078423
vn -0.032154 0.998889 -0.034458
vn -0.021998 0.997607 -0.065548
vn -0.220644 0.969274 -0.108737
vn -0.032154 0.998889 -0.034458
vn -0.014201 0.999211 -0.037083
vn -0.005056 0.997589 -0.069220
vn -0.021998 0.997607 -0.065548
vn -0.014201 0.999211 -0.037083
vn -0.050113 0.997787 -0.043713
vn -0.044267 0.995505 -0.083729
vn -0.005056 0.997589 -0.069220
vn -0.050113 0.997787 -0.043713
vn 0.145924 0.989141 0.017480
vn 0.145574 0.988754 -0.034262
vn -0.044267 0.995505 -0.083729
vn 0.145924 0.989141 0.017480
vn 0.223565 0.973356 0.050964
vn 0.235936 0.971753 -0.005482
vn 0.145574 0.988754 -0.034262
vn -0.232076 0.971583 -0.046557
vn -0.033926 0.999423 -0.001401
vn -0.027020 0.998982 -0.036112
vn -0.213708 0.973662 -0.079438
vn -0.033926 0.999423 -0.001401
vn -0.002883 0.999953 0.009280
vn -0.007457 0.999767 -0.020257
vn -0.027020 0.998982 -0.036112
vn -0.002883 0.999953 0.009280
vn -0.037893 0.999209 -0.012035
vn -0.021499 0.999729 -0.008885
vn -0.007457 0.999767 -0.020257
vn -0.037893 0.999209 -0.012035
vn 0.126202 0.991998 0.003680
vn 0.119758 0.992308 0.031357
vn -0.021499 0.999729 -0.008885
vn 0.126202 0.991998 0.003680
vn 0.198458 0.979902 0.020163
vn 0.133359 0.990469 0.034450
vn 0.119758 0.992308 0.031357
vn -0.254503 0.966554 -0.031652
vn -0.047333 0.998595 0.023817
vn -0.065782 0.993570 0.092150
vn -0.308489 0.950548 0.035964
vn -0.047333 0.998595 0.023817
vn -0.024818 0.999191 0.031640
vn -0.046011 0.993156 0.107346
vn -0.065782 0.993570 0.092150
vn -0.024818 0.999191 0.031640
vn -0.050195 0.997787 0.043618
vn -0.077650 0.991667 0.102799
vn -0.046011 0.993156 0.107346
vn -0.050195 0.997787 0.043618
vn 0.122928 0.988771 0.084970
vn 0.134552 0.980165 0.145509
vn -0.077650 0.991667 0.102799
vn 0.122928 0.988771 0.084970
vn 0.165761 0.983613 0.070911
vn 0.199652 0.968127 0.151227
vn 0.134552 0.980165 0.145509
vn 0.245744 -0.967306 0.062686
vn 0.248120 -0.967658 0.045554
vn 0.043930 -0.999012 -0.006769
vn 0.041201 -0.999097 0.010340
vn 0.041201 -0.999097 0.010340
vn 0.043930 -0.999012 -0.006769
vn 0.006123 -0.999733 -0.022281
vn -0.003720 -0.999965 0.007541
vn -0.003720 -0.999965 0.007541
vn 0.006123 -0.999733 -0.022281
vn 0.041341 -0.999145 -0.000373
vn 0.044200 -0.998357 0.036475
vn 0.044200 -0.998357 0.036475
vn 0.041341 -0.999145 -0.000373
vn -0.131958 -0.991139 -0.015205
vn -0.137373 -0.990460 0.010817
vn -0.137373 -0.990460 0.010817
vn -0.131958 -0.991139 -0.015205
vn -0.216245 -0.975894 -0.029485
vn -0.246806 -0.969030 -0.008226
vn 0.236394 -0.968045 0.083709
vn 0.276253 -0.960366 0.037160
vn 0.063868 -0.997761 -0.019843
vn 0.042772 -0.998287 0.039918
vn 0.042772 -0.998287 0.039918
vn 0.063868 -0.997761 -0.019843
vn 0.024821 -0.999191 -0.031657
vn 0.007489 -0.999767 0.020222
vn 0.007489 -0.999767 0.020222
vn 0.024821 -0.999191 -0.031657
vn 0.050322 -0.997781 -0.043591
vn 0.021609 -0.999727 0.008904
vn 0.021609 -0.999727 0.008904
vn 0.050322 -0.997781 -0.043591
vn -0.136939 -0.986724 -0.087316
vn -0.133658 -0.990431 -0.034380
vn -0.133658 -0.990431 -0.034380
vn -0.136939 -0.986724 -0.087316
vn -0.192959 -0.978224 -0.076447
vn -0.161985 -0.985932 -0.041222
vn 0.327518 -0.944349 -0.030611
vn 0.260154 -0.961774 0.085505
vn 0.038195 -0.998296 0.044111
vn 0.081412 -0.992721 -0.088758
vn 0.081412 -0.992721 -0.088758
vn 0.038195 -0.998296 0.044111
vn 0.011737 -0.998730 0.048991
vn 0.045991 -0.993149 -0.107420
vn 0.045991 -0.993149 -0.107420
vn 0.011737 -0.998730 0.048991
vn 0.048033 -0.997342 0.054794
vn 0.077803 -0.991650 -0.102839
vn 0.077803 -0.991650 -0.102839
vn 0.048033 -0.997342 0.054794
vn -0.154717 -0.987883 -0.012217
vn -0.147982 -0.977829 -0.148162
vn -0.147982 -0.977829 -0.148162
vn -0.154717 -0.987883 -0.012217
vn -0.240045 -0.969499 -0.049494
vn -0.224092 -0.961985 -0.156101
vn 0.260154 -0.961774 0.085505
vn 0.229258 -0.966366 0.116524
vn 0.027232 -0.996466 0.079463
vn 0.038195 -0.998296 0.044111
vn 0.038195 -0.998296 0.044111
vn 0.027232 -0.996466 0.079463
vn 0.000603 -0.996316 0.085753
vn 0.011737 -0.998730 0.048991
vn 0.011737 -0.998730 0.048991
vn 0.000603 -0.996316 0.085753
vn 0.040512 -0.994268 0.098942
vn 0.048033 -0.997342 0.054794
vn 0.048033 -0.997342 0.054794
vn 0.040512 -0.994268 0.098942
vn -0.154501 -0.987049 0.043159
vn -0.154717 -0.987883 -0.012217
vn -0.154717 -0.987883 -0.012217
vn -0.154501 -0.987049 0.043159
vn -0.247561 -0.968832 0.008863
vn -0.240045 -0.969499 -0.049494
vn 0.248120 -0.967658 0.045554
vn 0.236394 -0.968045 0.083709
vn 0.042772 -0.998287 0.039918
vn 0.043930 -0.999012 -0.006769
vn 0.043930 -0.999012 -0.006769
vn 0.042772 -0.998287 0.039918
vn 0.007489 -0.999767 0.020222
vn 0.006123 -0.999733 -0.022281
vn 0.006123 -0.999733 -0.022281
vn 0.007489 -0.999767 0.020222
vn 0.021609 -0.999727 0.008904
vn 0.041341 -0.999145 -0.000373
vn 0.041341 -0.999145 -0.000373
vn 0.021609 -0.999727 0.008904
vn -0.133658 -0.990431 -0.034380
vn -0.131958 -0.991139 -0.015205
vn -0.131958 -0.991139 -0.015205
vn -0.133658 -0.990431 -0.034380
vn -0.161985 -0.985932 -0.041222
vn -0.216245 -0.975894 -0.029485
vn 0.276253 -0.960366 0.037160
vn 0.327518 -0.944349 -0.030611
vn 0.081412 -0.992721 -0.088758
vn 0.063868 -0.997761 -0.019843
vn 0.063868 -0.997761 -0.019843
vn 0.081412 -0.992721 -0.088758
vn 0.045991 -0.993149 -0.107420
vn 0.024821 -0.999191 -0.031657
vn 0.024821 -0.999191 -0.031657
vn 0.045991 -0.993149 -0.107420
vn 0.077803 -0.991650 -0.102839
vn 0.050322 -0.997781 -0.043591
vn 0.050322 -0.997781 -0.043591
vn 0.077803 -0.991650 -0.102839
vn -0.147982 -0.977829 -0.148162
vn -0.136939 -0.986724 -0.087316
vn -0.136939 -0.986724 -0.087316
vn -0.147982 -0.977829 -0.148162
vn -0.224092 -0.961985 -0.156101
vn -0.192959 -0.978224 -0.076447
vn -0.320877 0.745974 0.583576
vn -0.207706 0.726995 0.654474
vn -0.143971 0.710959 0.688339
vn -0.320877 0.745974 0.583576
vn -0.801307 0.570705 -0.179452
vn -0.801652 0.566465 -0.190973
vn -0.801652 0.566465 -0.190973
vn -0.800823 0.574995 -0.167519
vn -0.207706 0.726995 0.654474
vn -0.156854 0.698366 0.698343
vn -0.173512 0.700078 0.692665
vn -0.143971 0.710959 0.688339
vn -0.156854 0.698366 0.698343
vn -0.192037 0.715256 0.671961
vn -0.202013 0.713662 0.670729
vn -0.173512 0.700078 0.692665
vn -0.192037 0.715256 0.671961
vn -0.036715 0.740444 0.671114
vn -0.079745 0.733333 0.675177
vn -0.202013 0.713662 0.670729
vn -0.036715 0.740444 0.671114
vn 0.030996 0.748743 0.662135
vn 0.030996 0.748743 0.662135
vn -0.079745 0.733333 0.675177
vn 0.815075 0.559118 0.151785
vn 0.802819 0.569850 0.175364
vn 0.788461 0.581200 0.201334
vn 0.815075 0.559118 0.151785
vn -0.804754 0.561762 -0.191819
vn -0.795810 0.574813 -0.190463
vn -0.794473 0.571934 -0.204217
vn -0.804480 0.561810 -0.192825
vn 0.782251 0.593211 0.190220
vn 0.799637 0.575670 0.170835
vn 0.799806 0.575734 0.169827
vn 0.789958 0.589264 0.169514
vn -0.790402 0.582874 -0.188474
vn -0.821313 0.556661 -0.124796
vn -0.821275 0.556730 -0.124738
vn -0.800035 0.575386 -0.169929
vn 0.787393 0.567604 0.240495
vn 0.789433 0.590095 0.169064
vn 0.789616 0.583258 0.190570
vn 0.787205 0.567857 0.240514
vn 0.096538 0.717379 -0.689962
vn -0.034204 0.737653 -0.674313
vn -0.034204 0.737653 -0.674313
vn 0.168615 0.700573 -0.693373
vn -0.777610 0.591968 -0.211889
vn -0.790402 0.582874 -0.188474
vn -0.800035 0.575386 -0.169929
vn -0.777610 0.591968 -0.211889
vn 0.161799 0.685854 -0.709525
vn 0.096538 0.717379 -0.689962
vn 0.168615 0.700573 -0.693373
vn 0.145006 0.687288 -0.711764
vn 0.119880 0.700707 -0.703305
vn 0.161799 0.685854 -0.709525
vn 0.145006 0.687288 -0.711764
vn 0.110159 0.699188 -0.706400
vn 0.257522 0.726095 -0.637549
vn 0.119880 0.700707 -0.703305
vn 0.110159 0.699188 -0.706400
vn 0.220485 0.718406 -0.659757
vn 0.789433 0.590095 0.169064
vn 0.788645 0.598178 0.142206
vn 0.788645 0.598178 0.142206
vn 0.789616 0.583258 0.190570
vn 0.313561 0.735200 -0.600967
vn 0.257522 0.726095 -0.637549
vn 0.220485 0.718406 -0.659757
vn 0.313561 0.735200 -0.600967
vn -0.795810 0.574813 -0.190463
vn -0.801307 0.570705 -0.179452
vn -0.800823 0.574995 -0.167519
vn -0.794473 0.571934 -0.204217
vn 0.802819 0.569850 0.175364
vn 0.782251 0.593211 0.190220
vn 0.789958 0.589264 0.169514
vn 0.788461 0.581200 0.201334
vn -0.821313 0.556661 -0.124796
vn -0.804754 0.561762 -0.191819
vn -0.804480 0.561810 -0.192825
vn -0.821275 0.556730 -0.124738
vn 0.799637 0.575670 0.170835
vn 0.787393 0.567604 0.240495
vn 0.787205 0.567857 0.240514
vn 0.799806 0.575734 0.169827
s off
g nota2
usemtl nota2SG
f 211/323/657 212/365/658 213/268/659 214/325/660
f 212/365/661 215/364/662 216/269/663 213/268/664
f 215/364/665 217/363/666 218/270/667 216/269/668
f 217/363/669 219/362/670 220/271/671 218/270/672
f 219/362/673 221/361/674 222/349/675 220/271/676
f 223/352/677 224/292/678 225/274/679 226/331/680
f 224/292/681 227/293/682 228/275/683 225/274/684
f 227/293/685 229/294/686 230/276/687 228/275/688
f 229/294/689 231/295/690 232/277/691 230/276/692
f 231/295/693 233/333/694 234/345/695 232/277/696
f 235/348/697 236/298/698 237/280/699 238/335/700
f 236/298/701 239/299/702 240/281/703 237/280/704
f 239/299/705 241/300/706 242/282/707 240/281/708
f 241/300/709 243/301/710 244/283/711 242/282/712
f 243/301/713 245/337/714 246/355/715 244/283/716
f 238/335/717 237/280/718 247/339/719 248/360/720
f 237/280/721 240/281/722 249/341/723 247/339/724
f 240/281/725 242/282/726 250/342/727 249/341/728
f 242/282/729 244/283/730 251/343/731 250/342/732
f 244/283/733 246/355/734 252/354/735 251/343/736
f 214/325/737 213/268/738 224/292/739 223/352/740
f 213/268/741 216/269/742 227/293/743 224/292/744
f 216/269/745 218/270/746 229/294/747 227/293/748
f 218/270/749 220/271/750 231/295/751 229/294/752
f 220/271/753 222/349/754 233/333/755 231/295/756
f 226/331/757 225/274/758 236/298/759 235/348/760
f 225/274/761 228/275/762 239/299/763 236/298/764
f 228/275/765 230/276/766 241/300/767 239/299/768
f 230/276/769 232/277/770 243/301/771 241/300/772
f 232/277/773 234/345/774 245/337/775 243/301/776
f 169/368/777 175/385/778 176/303/779 170/390/780
f 170/390/781 176/303/782 177/304/783 171/389/784
f 171/389/785 177/304/786 178/305/787 172/388/788
f 172/388/789 178/305/790 179/306/791 173/387/792
f 173/387/793 179/306/794 180/384/795 174/386/796
f 199/376/797 181/377/798 182/308/799 200/307/800
f 200/307/801 182/308/802 183/310/803 201/309/804
f 201/309/805 183/310/806 184/312/807 202/311/808
f 202/311/809 184/312/810 185/314/811 203/313/812
f 203/313/813 185/314/814 186/375/815 204/374/816
f 205/372/817 187/373/818 188/316/819 206/315/820
f 206/315/821 188/316/822 189/318/823 207/317/824
f 207/317/825 189/318/826 190/320/827 208/319/828
f 208/319/829 190/320/830 191/322/831 209/321/832
f 209/321/833 191/322/834 192/371/835 210/370/836
f 187/373/837 193/383/838 194/382/839 188/316/840
f 188/316/841 194/382/842 195/381/843 189/318/844
f 189/318/845 195/381/846 196/380/847 190/320/848
f 190/320/849 196/380/850 197/378/851 191/322/852
f 191/322/853 197/378/854 198/379/855 192/371/856
f 175/385/857 199/376/858 200/307/859 176/303/860
f 176/303/861 200/307/862 201/309/863 177/304/864
f 177/304/865 201/309/866 202/311/867 178/305/868
f 178/305/869 202/311/870 203/313/871 179/306/872
f 179/306/873 203/313/874 204/374/875 180/384/876
f 181/377/877 205/372/878 206/315/879 182/308/880
f 182/308/881 206/315/882 207/317/883 183/310/884
f 183/310/885 207/317/886 208/319/887 184/312/888
f 184/312/889 208/319/890 209/321/891 185/314/892
f 185/314/893 209/321/894 210/370/895 186/375/896
f 169/261/897 170/262/898 212/324/899 211/366/900
f 175/267/901 169/369/902 211/367/903 214/351/904
f 170/262/905 171/263/906 215/326/907 212/324/908
f 171/263/909 172/264/910 217/327/911 215/326/912
f 172/264/913 173/265/914 219/328/915 217/327/916
f 173/265/917 174/266/918 221/329/919 219/328/920
f 174/266/921 180/272/922 222/330/923 221/329/924
f 181/273/925 199/291/926 223/332/927 226/347/928
f 204/296/929 186/278/930 234/334/931 233/350/932
f 187/279/933 205/297/934 235/336/935 238/359/936
f 210/302/937 192/284/938 246/338/939 245/346/940
f 194/286/941 193/285/942 248/340/943 247/358/944
f 193/285/945 187/279/946 238/359/947 248/340/948
f 195/287/949 194/286/950 247/358/951 249/357/952
f 196/288/953 195/287/954 249/357/955 250/356/956
f 197/289/957 196/288/958 250/356/959 251/353/960
f 192/284/961 198/290/962 252/344/963 246/338/964
f 198/290/965 197/289/966 251/353/967 252/344/968
f 199/291/969 175/267/970 214/351/971 223/332/972
f 180/272/973 204/296/974 233/350/975 222/330/976
f 205/297/977 181/273/978 226/347/979 235/336/980
f 186/278/981 210/302/982 245/346/983 234/334/984
g default
v -0.584394 -0.006990 0.294835
v -0.480475 0.026870 0.319565
v -0.358421 0.016317 0.348572
v -0.204226 0.048491 0.385252
v -0.083073 0.052231 0.414055
v 0.016710 0.034953 0.437763
v -0.544361 -0.009695 0.127222
v -0.437118 0.028320 0.149653
v -0.316766 0.016352 0.178254
v -0.164487 0.042343 0.214474
v -0.045121 0.046027 0.242853
v 0.057178 0.025359 0.270248
v -0.496819 -0.015574 -0.071081
v -0.390247 0.022035 -0.045718
v -0.269994 0.011637 -0.017139
v -0.118074 0.043337 0.019000
v 0.001291 0.047022 0.047378
v 0.104285 0.026369 0.071846
v -0.454715 0.004561 -0.253781
v -0.348764 0.041873 -0.225722
v -0.228511 0.031475 -0.197143
v -0.076897 0.068028 -0.161073
v 0.042774 0.066860 -0.132626
v 0.146389 0.046504 -0.110853
v -0.410362 -0.006430 -0.437250
v -0.306442 0.027430 -0.412520
v -0.184388 0.016876 -0.383513
v -0.030194 0.049051 -0.346833
v 0.090959 0.052791 -0.318030
v 0.190743 0.035513 -0.294322
v -0.523327 -0.003463 0.037018
v -0.416147 0.030540 0.060835
v -0.296110 0.023570 0.089365
v -0.144191 0.055270 0.125504
v -0.023612 0.039712 0.154156
v 0.077778 0.038480 0.179946
v -0.478223 -0.006681 -0.151777
v -0.372752 0.043928 -0.125410
v -0.251951 0.024827 -0.096707
v -0.100758 0.068061 -0.060732
v 0.019613 0.055784 -0.032126
v 0.122882 0.035262 -0.008849
v -0.579521 -0.000899 0.290261
v -0.476738 0.032506 0.314717
v -0.437345 0.030374 0.149634
v -0.540077 -0.003561 0.125184
v -0.356355 0.022139 0.343300
v -0.316878 0.018415 0.178283
v -0.204547 0.053841 0.379372
v -0.164667 0.044401 0.214459
v -0.084829 0.057528 0.407818
v -0.044986 0.048089 0.242864
v 0.013679 0.040491 0.431224
v 0.053435 0.031051 0.266249
v -0.519317 0.002581 0.036238
v -0.416356 0.032593 0.060739
v -0.390509 0.024084 -0.045667
v -0.493294 -0.009390 -0.070148
v -0.296224 0.025632 0.089317
v -0.270146 0.013696 -0.017050
v -0.144336 0.057330 0.125478
v -0.118288 0.045389 0.019110
v -0.023494 0.041775 0.154200
v 0.001422 0.049076 0.047550
v 0.073630 0.043991 0.177291
v 0.099822 0.032042 0.070877
v -0.475073 -0.000648 -0.149536
v -0.373049 0.045966 -0.125238
v -0.348993 0.043925 -0.225803
v -0.451807 0.010461 -0.250259
v -0.252135 0.026873 -0.096485
v -0.228635 0.033536 -0.197213
v -0.101016 0.070100 -0.060523
v -0.077102 0.070082 -0.161152
v 0.019769 0.057824 -0.031843
v 0.042959 0.068917 -0.132566
v 0.118207 0.040787 -0.008480
v 0.141406 0.051867 -0.109141
v -0.305257 0.033055 -0.406651
v -0.408030 -0.000349 -0.431107
v -0.184911 0.022681 -0.378065
v -0.033083 0.054383 -0.341962
v 0.086660 0.058078 -0.313479
v 0.185145 0.041042 -0.290065
vt 0.329362 0.360304
vt 0.329362 0.360304
vt 0.329362 0.360304
vt 0.329362 0.360304
vt 0.329362 0.360304
vt 0.329362 0.360304
vt 0.329362 0.360304
vt 0.103373 0.565809
vt 0.193947 0.565788
vt 0.309779 0.565936
vt 0.399800 0.566025
vt 0.329362 0.360304
vt 0.329362 0.360304
vt 0.102437 0.712737
vt 0.193331 0.712498
vt 0.309596 0.712858
vt 0.400049 0.713075
vt 0.329362 0.360304
vt 0.329362 0.360304
vt 0.102785 0.848535
vt 0.193212 0.848765
vt 0.309525 0.849046
vt 0.398933 0.848816
vt 0.329362 0.360304
vt 0.329362 0.360304
vt 0.329362 0.360304
vt 0.329362 0.360304
vt 0.329362 0.360304
vt 0.329362 0.360304
vt 0.329362 0.360304
vt 0.329362 0.360304
vt 0.103307 0.632349
vt 0.193523 0.632509
vt 0.309441 0.632873
vt 0.400167 0.632864
vt 0.329362 0.360304
vt 0.329362 0.360304
vt 0.103102 0.774206
vt 0.193448 0.772434
vt 0.309821 0.774605
vt 0.399785 0.772913
vt 0.329362 0.360304
vt 0.597953 0.460175
vt 0.690819 0.460578
vt 0.809774 0.460910
vt 0.901928 0.461165
vt 0.598189 0.392019
vt 0.597707 0.309540
vt 0.690682 0.392250
vt 0.690781 0.310115
vt 0.809637 0.392261
vt 0.809979 0.310123
vt 0.902638 0.392506
vt 0.902329 0.310104
vt 0.598762 0.246495
vt 0.598380 0.170352
vt 0.691107 0.248547
vt 0.690995 0.170454
vt 0.810413 0.246673
vt 0.810360 0.170525
vt 0.902277 0.248704
vt 0.901752 0.171026
vt 0.023070 0.442151
vt 0.329362 0.360304
vt 0.022571 0.565625
vt 0.329362 0.360304
vt 0.329362 0.360304
vt 0.329362 0.360304
vt 0.329362 0.360304
vt 0.329362 0.360304
vt 0.020961 0.711969
vt 0.329362 0.360304
vt 0.472733 0.632879
vt 0.329362 0.360304
vt 0.021961 0.848249
vt 0.329362 0.360304
vt 0.474353 0.772491
vt 0.329362 0.360304
vt 0.102208 0.983907
vt 0.329362 0.360304
vt 0.192851 0.984847
vt 0.309203 0.984676
vt 0.399422 0.984386
vt 0.329362 0.360304
vt 0.474983 0.712891
vt 0.329362 0.360304
vt 0.329362 0.360304
vt 0.020703 0.771546
vt 0.474653 0.566066
vt 0.329362 0.360304
vt 0.329362 0.360304
vt 0.023438 0.632178
vt 0.329362 0.360304
vt 0.474253 0.984656
vt 0.473457 0.848587
vt 0.329362 0.360304
vt 0.329362 0.360304
vt 0.329362 0.360304
vt 0.329362 0.360304
vt 0.021384 0.984275
vt 0.473808 0.442610
vt 0.399209 0.442182
vt 0.309769 0.442060
vt 0.193987 0.442451
vt 0.103662 0.442149
vt 0.329362 0.360304
vt 0.329362 0.360304
vt 0.511852 0.590748
vt 0.329362 0.360304
vt 0.981967 0.248620
vt 0.981390 0.169506
vt 0.511093 0.247596
vt 0.512761 0.168357
vt 0.980613 0.394255
vt 0.982251 0.310855
vt 0.513167 0.392967
vt 0.511047 0.309768
vt 0.905008 0.027985
vt 0.982757 0.027984
vt 0.811434 0.027399
vt 0.690323 0.026759
vt 0.595876 0.027525
vt 0.512090 0.027019
vt 0.981952 0.463802
vt 0.512026 0.462151
vt 0.980452 0.592569
vt 0.902837 0.592583
vt 0.810040 0.592092
vt 0.689438 0.591210
vt 0.595499 0.591141
vn -0.292256 0.952678 -0.083616
vn -0.091273 0.995102 -0.037965
vn -0.096694 0.995187 -0.015935
vn -0.292176 0.954303 -0.062763
vn -0.091273 0.995102 -0.037965
vn -0.054442 0.997582 -0.043189
vn -0.065869 0.997816 -0.004938
vn -0.096694 0.995187 -0.015935
vn -0.054442 0.997582 -0.043189
vn -0.101658 0.992237 -0.071640
vn -0.100518 0.994579 -0.026606
vn -0.065869 0.997816 -0.004938
vn -0.101658 0.992237 -0.071640
vn 0.070052 0.996735 -0.040144
vn 0.063516 0.997940 -0.009073
vn -0.100518 0.994579 -0.026606
vn 0.070052 0.996735 -0.040144
vn 0.173802 0.984675 -0.014413
vn 0.136199 0.990646 0.008335
vn 0.063516 0.997940 -0.009073
vn -0.273603 0.957092 -0.095476
vn -0.089380 0.994713 -0.050562
vn -0.110307 0.993855 0.009151
vn -0.314409 0.948072 -0.048024
vn -0.089380 0.994713 -0.050562
vn -0.070087 0.996944 -0.034516
vn -0.087964 0.995975 0.017199
vn -0.110307 0.993855 0.009151
vn -0.070087 0.996944 -0.034516
vn -0.084227 0.996174 -0.023292
vn -0.113337 0.993135 0.028930
vn -0.087964 0.995975 0.017199
vn -0.084227 0.996174 -0.023292
vn 0.056752 0.998216 0.018528
vn 0.059530 0.995611 0.072215
vn -0.113337 0.993135 0.028930
vn 0.056752 0.998216 0.018528
vn 0.070406 0.997280 0.021789
vn 0.102760 0.992974 0.058680
vn 0.059530 0.995611 0.072215
vn -0.368046 0.929608 0.019244
vn -0.129178 0.988600 0.077351
vn -0.094517 0.994319 -0.048961
vn -0.307676 0.946766 -0.094709
vn -0.129178 0.988600 0.077351
vn -0.109594 0.989639 0.092758
vn -0.076592 0.995737 -0.051402
vn -0.094517 0.994319 -0.048961
vn -0.109594 0.989639 0.092758
vn -0.141022 0.986096 0.087901
vn -0.112265 0.991961 -0.058387
vn -0.076592 0.995737 -0.051402
vn -0.141022 0.986096 0.087901
vn 0.070985 0.988572 0.132989
vn 0.083221 0.996519 0.004972
vn -0.112265 0.991961 -0.058387
vn 0.070985 0.988572 0.132989
vn 0.136644 0.980740 0.139558
vn 0.161316 0.986113 0.039487
vn 0.083221 0.996519 0.004972
vn -0.307676 0.946766 -0.094709
vn -0.094517 0.994319 -0.048961
vn -0.083949 0.993260 -0.079921
vn -0.279917 0.951880 -0.124781
vn -0.094517 0.994319 -0.048961
vn -0.076592 0.995737 -0.051402
vn -0.066998 0.994260 -0.083416
vn -0.083949 0.993260 -0.079921
vn -0.076592 0.995737 -0.051402
vn -0.112265 0.991961 -0.058387
vn -0.105834 0.989513 -0.098303
vn -0.066998 0.994260 -0.083416
vn -0.112265 0.991961 -0.058387
vn 0.083221 0.996519 0.004972
vn 0.083483 0.995411 -0.046760
vn -0.105834 0.989513 -0.098303
vn 0.083221 0.996519 0.004972
vn 0.161316 0.986113 0.039487
vn 0.174403 0.984531 -0.016798
vn 0.083483 0.995411 -0.046760
vn -0.292176 0.954303 -0.062763
vn -0.096694 0.995187 -0.015935
vn -0.089380 0.994713 -0.050562
vn -0.273603 0.957092 -0.095476
vn -0.096694 0.995187 -0.015935
vn -0.065869 0.997816 -0.004938
vn -0.070087 0.996944 -0.034516
vn -0.089380 0.994713 -0.050562
vn -0.065869 0.997816 -0.004938
vn -0.100518 0.994579 -0.026606
vn -0.084227 0.996174 -0.023292
vn -0.070087 0.996944 -0.034516
vn -0.100518 0.994579 -0.026606
vn 0.063516 0.997940 -0.009073
vn 0.056752 0.998216 0.018528
vn -0.084227 0.996174 -0.023292
vn 0.063516 0.997940 -0.009073
vn 0.136199 0.990646 0.008335
vn 0.070406 0.997280 0.021789
vn 0.056752 0.998216 0.018528
vn -0.314409 0.948072 -0.048024
vn -0.110307 0.993855 0.009151
vn -0.129178 0.988600 0.077351
vn -0.368046 0.929608 0.019244
vn -0.110307 0.993855 0.009151
vn -0.087964 0.995975 0.017199
vn -0.109594 0.989639 0.092758
vn -0.129178 0.988600 0.077351
vn -0.087964 0.995975 0.017199
vn -0.113337 0.993135 0.028930
vn -0.141022 0.986096 0.087901
vn -0.109594 0.989639 0.092758
vn -0.113337 0.993135 0.028930
vn 0.059530 0.995611 0.072215
vn 0.070985 0.988572 0.132989
vn -0.141022 0.986096 0.087901
vn 0.059530 0.995611 0.072215
vn 0.102760 0.992974 0.058680
vn 0.136644 0.980740 0.139558
vn 0.070985 0.988572 0.132989
vn 0.305364 -0.948955 0.078973
vn 0.307951 -0.949388 0.061872
vn 0.106744 -0.994255 0.007865
vn 0.103832 -0.994282 0.024945
vn 0.103832 -0.994282 0.024945
vn 0.106744 -0.994255 0.007865
vn 0.069236 -0.997568 -0.008030
vn 0.059089 -0.998017 0.021688
vn 0.059089 -0.998017 0.021688
vn 0.069236 -0.997568 -0.008030
vn 0.104096 -0.994465 0.014235
vn 0.106482 -0.993001 0.051096
vn 0.106482 -0.993001 0.051096
vn 0.104096 -0.994465 0.014235
vn -0.069183 -0.997601 -0.002522
vn -0.074925 -0.996914 0.023429
vn -0.074925 -0.996914 0.023429
vn -0.069183 -0.997601 -0.002522
vn -0.154095 -0.987894 -0.017899
vn -0.185266 -0.982684 0.002939
vn 0.295841 -0.949998 0.099905
vn 0.335664 -0.940451 0.053671
vn 0.126711 -0.991927 -0.005015
vn 0.105013 -0.992975 0.054522
vn 0.105013 -0.992975 0.054522
vn 0.126711 -0.991927 -0.005015
vn 0.087967 -0.995975 -0.017216
vn 0.070119 -0.996942 0.034482
vn 0.070119 -0.996942 0.034482
vn 0.087967 -0.995975 -0.017216
vn 0.113463 -0.993122 -0.028902
vn 0.084336 -0.996165 0.023313
vn 0.084336 -0.996165 0.023313
vn 0.113463 -0.993122 -0.028902
vn -0.073615 -0.994482 -0.074737
vn -0.070707 -0.997261 -0.021722
vn -0.070707 -0.997261 -0.021722
vn -0.073615 -0.994482 -0.074737
vn -0.130178 -0.989385 -0.064576
vn -0.099182 -0.994649 -0.028923
vn 0.386586 -0.922150 -0.013780
vn 0.319137 -0.942219 0.101860
vn 0.100399 -0.993216 0.058667
vn 0.144683 -0.986721 -0.073808
vn 0.144683 -0.986721 -0.073808
vn 0.100399 -0.993216 0.058667
vn 0.073967 -0.995251 0.063276
vn 0.109573 -0.989634 -0.092832
vn 0.109573 -0.989634 -0.092832
vn 0.073967 -0.995251 0.063276
vn 0.110036 -0.991499 0.069438
vn 0.141175 -0.986071 -0.087939
vn 0.141175 -0.986071 -0.087939
vn 0.110036 -0.991499 0.069438
vn -0.092135 -0.995746 0.000181
vn -0.084505 -0.987124 -0.135816
vn -0.084505 -0.987124 -0.135816
vn -0.092135 -0.995746 0.000181
vn -0.178022 -0.983283 -0.038244
vn -0.161365 -0.976218 -0.144775
vn 0.319137 -0.942219 0.101860
vn 0.288242 -0.948330 0.132616
vn 0.088943 -0.991603 0.093873
vn 0.100399 -0.993216 0.058667
vn 0.100399 -0.993216 0.058667
vn 0.088943 -0.991603 0.093873
vn 0.062287 -0.993048 0.099881
vn 0.073967 -0.995251 0.063276
vn 0.073967 -0.995251 0.063276
vn 0.062287 -0.993048 0.099881
vn 0.101836 -0.988310 0.113457
vn 0.110036 -0.991499 0.069438
vn 0.110036 -0.991499 0.069438
vn 0.101836 -0.988310 0.113457
vn -0.092600 -0.994153 0.055539
vn -0.092135 -0.995746 0.000181
vn -0.092135 -0.995746 0.000181
vn -0.092600 -0.994153 0.055539
vn -0.186227 -0.982303 0.020015
vn -0.178022 -0.983283 -0.038244
vn 0.307951 -0.949388 0.061872
vn 0.295841 -0.949998 0.099905
vn 0.105013 -0.992975 0.054522
vn 0.106744 -0.994255 0.007865
vn 0.106744 -0.994255 0.007865
vn 0.105013 -0.992975 0.054522
vn 0.070119 -0.996942 0.034482
vn 0.069236 -0.997568 -0.008030
vn 0.069236 -0.997568 -0.008030
vn 0.070119 -0.996942 0.034482
vn 0.084336 -0.996165 0.023313
vn 0.104096 -0.994465 0.014235
vn 0.104096 -0.994465 0.014235
vn 0.084336 -0.996165 0.023313
vn -0.070707 -0.997261 -0.021722
vn -0.069183 -0.997601 -0.002522
vn -0.069183 -0.997601 -0.002522
vn -0.070707 -0.997261 -0.021722
vn -0.099182 -0.994649 -0.028923
vn -0.154095 -0.987894 -0.017899
vn 0.335664 -0.940451 0.053671
vn 0.386586 -0.922150 -0.013780
vn 0.144683 -0.986721 -0.073808
vn 0.126711 -0.991927 -0.005015
vn 0.126711 -0.991927 -0.005015
vn 0.144683 -0.986721 -0.073808
vn 0.109573 -0.989634 -0.092832
vn 0.087967 -0.995975 -0.017216
vn 0.087967 -0.995975 -0.017216
vn 0.109573 -0.989634 -0.092832
vn 0.141175 -0.986071 -0.087939
vn 0.113463 -0.993122 -0.028902
vn 0.113463 -0.993122 -0.028902
vn 0.141175 -0.986071 -0.087939
vn -0.084505 -0.987124 -0.135816
vn -0.073615 -0.994482 -0.074737
vn -0.073615 -0.994482 -0.074737
vn -0.084505 -0.987124 -0.135816
vn -0.161365 -0.976218 -0.144775
vn -0.130178 -0.989385 -0.064576
vn -0.373753 0.732072 0.569543
vn -0.260424 0.721225 0.641883
vn -0.196194 0.709696 0.676638
vn -0.373753 0.732072 0.569543
vn -0.833525 0.516580 -0.195909
vn -0.833473 0.512172 -0.207371
vn -0.833473 0.512172 -0.207371
vn -0.833448 0.521053 -0.184034
vn -0.260424 0.721225 0.641883
vn -0.208373 0.696452 0.686684
vn -0.225040 0.697034 0.680809
vn -0.196194 0.709696 0.676638
vn -0.208373 0.696452 0.686684
vn -0.244246 0.710733 0.659698
vn -0.254088 0.708497 0.658385
vn -0.225040 0.697034 0.680809
vn -0.244246 0.710733 0.659698
vn -0.090817 0.745650 0.660120
vn -0.133357 0.735895 0.663833
vn -0.254088 0.708497 0.658385
vn -0.090817 0.745650 0.660120
vn -0.023665 0.758079 0.651734
vn -0.023665 0.758079 0.651734
vn -0.133357 0.735895 0.663833
vn 0.776526 0.611387 0.152361
vn 0.763352 0.621642 0.175656
vn 0.748015 0.632414 0.201310
vn 0.776526 0.611387 0.152361
vn -0.836262 0.507272 -0.208183
vn -0.828173 0.520877 -0.206919
vn -0.826502 0.517903 -0.220616
vn -0.835981 0.507323 -0.209186
vn 0.741189 0.643858 0.189963
vn 0.759862 0.627188 0.171012
vn 0.760037 0.627249 0.170005
vn 0.749362 0.640126 0.169397
vn -0.823306 0.529289 -0.204988
vn -0.853227 0.502042 -0.141271
vn -0.853194 0.502114 -0.141214
vn -0.832658 0.521460 -0.186441
vn 0.747360 0.619308 0.240647
vn 0.748792 0.640916 0.168929
vn 0.749161 0.634395 0.190531
vn 0.747156 0.619548 0.240660
vn 0.059050 0.712658 -0.699022
vn -0.072878 0.724859 -0.685032
vn -0.072878 0.724859 -0.685032
vn 0.132074 0.700384 -0.701440
vn -0.810846 0.538855 -0.228394
vn -0.823306 0.529289 -0.204988
vn -0.832658 0.521460 -0.186441
vn -0.810846 0.538855 -0.228394
vn 0.126382 0.685049 -0.717451
vn 0.059050 0.712658 -0.699022
vn 0.132074 0.700384 -0.701440
vn 0.109558 0.685391 -0.719886
vn 0.083544 0.697312 -0.711882
vn 0.126382 0.685049 -0.717451
vn 0.109558 0.685391 -0.719886
vn 0.073973 0.695142 -0.715057
vn 0.218562 0.732212 -0.645055
vn 0.083544 0.697312 -0.711882
vn 0.073973 0.695142 -0.715057
vn 0.182337 0.721904 -0.667539
vn 0.748792 0.640916 0.168929
vn 0.747801 0.648569 0.141953
vn 0.747801 0.648569 0.141953
vn 0.749161 0.634395 0.190531
vn 0.273499 0.745324 -0.608021
vn 0.218562 0.732212 -0.645055
vn 0.182337 0.721904 -0.667539
vn 0.273499 0.745324 -0.608021
vn -0.828173 0.520877 -0.206919
vn -0.833525 0.516580 -0.195909
vn -0.833448 0.521053 -0.184034
vn -0.826502 0.517903 -0.220616
vn 0.763352 0.621642 0.175656
vn 0.741189 0.643858 0.189963
vn 0.749362 0.640126 0.169397
vn 0.748015 0.632414 0.201310
vn -0.853227 0.502042 -0.141271
vn -0.836262 0.507272 -0.208183
vn -0.835981 0.507323 -0.209186
vn -0.853194 0.502114 -0.141214
vn 0.759862 0.627188 0.171012
vn 0.747360 0.619308 0.240647
vn 0.747156 0.619548 0.240660
vn 0.760037 0.627249 0.170005
s off
g nota3
usemtl nota3SG
f 295/453/985 296/495/986 297/398/987 298/455/988
f 296/495/989 299/494/990 300/399/991 297/398/992
f 299/494/993 301/493/994 302/400/995 300/399/996
f 301/493/997 303/492/998 304/401/999 302/400/1000
f 303/492/1001 305/491/1002 306/479/1003 304/401/1004
f 307/482/1005 308/422/1006 309/404/1007 310/461/1008
f 308/422/1009 311/423/1010 312/405/1011 309/404/1012
f 311/423/1013 313/424/1014 314/406/1015 312/405/1016
f 313/424/1017 315/425/1018 316/407/1019 314/406/1020
f 315/425/1021 317/463/1022 318/475/1023 316/407/1024
f 319/478/1025 320/428/1026 321/410/1027 322/465/1028
f 320/428/1029 323/429/1030 324/411/1031 321/410/1032
f 323/429/1033 325/430/1034 326/412/1035 324/411/1036
f 325/430/1037 327/431/1038 328/413/1039 326/412/1040
f 327/431/1041 329/467/1042 330/485/1043 328/413/1044
f 322/465/1045 321/410/1046 331/469/1047 332/490/1048
f 321/410/1049 324/411/1050 333/471/1051 331/469/1052
f 324/411/1053 326/412/1054 334/472/1055 333/471/1056
f 326/412/1057 328/413/1058 335/473/1059 334/472/1060
f 328/413/1061 330/485/1062 336/484/1063 335/473/1064
f 298/455/1065 297/398/1066 308/422/1067 307/482/1068
f 297/398/1069 300/399/1070 311/423/1071 308/422/1072
f 300/399/1073 302/400/1074 313/424/1075 311/423/1076
f 302/400/1077 304/401/1078 315/425/1079 313/424/1080
f 304/401/1081 306/479/1082 317/463/1083 315/425/1084
f 310/461/1085 309/404/1086 320/428/1087 319/478/1088
f 309/404/1089 312/405/1090 323/429/1091 320/428/1092
f 312/405/1093 314/406/1094 325/430/1095 323/429/1096
f 314/406/1097 316/407/1098 327/431/1099 325/430/1100
f 316/407/1101 318/475/1102 329/467/1103 327/431/1104
f 253/498/1105 259/515/1106 260/433/1107 254/520/1108
f 254/520/1109 260/433/1110 261/434/1111 255/519/1112
f 255/519/1113 261/434/1114 262/435/1115 256/518/1116
f 256/518/1117 262/435/1118 263/436/1119 257/517/1120
f 257/517/1121 263/436/1122 264/514/1123 258/516/1124
f 283/506/1125 265/507/1126 266/438/1127 284/437/1128
f 284/437/1129 266/438/1130 267/440/1131 285/439/1132
f 285/439/1133 267/440/1134 268/442/1135 286/441/1136
f 286/441/1137 268/442/1138 269/444/1139 287/443/1140
f 287/443/1141 269/444/1142 270/505/1143 288/504/1144
f 289/502/1145 271/503/1146 272/446/1147 290/445/1148
f 290/445/1149 272/446/1150 273/448/1151 291/447/1152
f 291/447/1153 273/448/1154 274/450/1155 292/449/1156
f 292/449/1157 274/450/1158 275/452/1159 293/451/1160
f 293/451/1161 275/452/1162 276/501/1163 294/500/1164
f 271/503/1165 277/513/1166 278/512/1167 272/446/1168
f 272/446/1169 278/512/1170 279/511/1171 273/448/1172
f 273/448/1173 279/511/1174 280/510/1175 274/450/1176
f 274/450/1177 280/510/1178 281/508/1179 275/452/1180
f 275/452/1181 281/508/1182 282/509/1183 276/501/1184
f 259/515/1185 283/506/1186 284/437/1187 260/433/1188
f 260/433/1189 284/437/1190 285/439/1191 261/434/1192
f 261/434/1193 285/439/1194 286/441/1195 262/435/1196
f 262/435/1197 286/441/1198 287/443/1199 263/436/1200
f 263/436/1201 287/443/1202 288/504/1203 264/514/1204
f 265/507/1205 289/502/1206 290/445/1207 266/438/1208
f 266/438/1209 290/445/1210 291/447/1211 267/440/1212
f 267/440/1213 291/447/1214 292/449/1215 268/442/1216
f 268/442/1217 292/449/1218 293/451/1219 269/444/1220
f 269/444/1221 293/451/1222 294/500/1223 270/505/1224
f 253/391/1225 254/392/1226 296/454/1227 295/496/1228
f 259/397/1229 253/499/1230 295/497/1231 298/481/1232
f 254/392/1233 255/393/1234 299/456/1235 296/454/1236
f 255/393/1237 256/394/1238 301/457/1239 299/456/1240
f 256/394/1241 257/395/1242 303/458/1243 301/457/1244
f 257/395/1245 258/396/1246 305/459/1247 303/458/1248
f 258/396/1249 264/402/1250 306/460/1251 305/459/1252
f 265/403/1253 283/421/1254 307/462/1255 310/477/1256
f 288/426/1257 270/408/1258 318/464/1259 317/480/1260
f 271/409/1261 289/427/1262 319/466/1263 322/489/1264
f 294/432/1265 276/414/1266 330/468/1267 329/476/1268
f 278/416/1269 277/415/1270 332/470/1271 331/488/1272
f 277/415/1273 271/409/1274 322/489/1275 332/470/1276
f 279/417/1277 278/416/1278 331/488/1279 333/487/1280
f 280/418/1281 279/417/1282 333/487/1283 334/486/1284
f 281/419/1285 280/418/1286 334/486/1287 335/483/1288
f 276/414/1289 282/420/1290 336/474/1291 330/468/1292
f 282/420/1293 281/419/1294 335/483/1295 336/474/1296
f 283/421/1297 259/397/1298 298/481/1299 307/462/1300
f 264/402/1301 288/426/1302 317/480/1303 306/460/1304
f 289/427/1305 265/403/1306 310/477/1307 319/466/1308
f 270/408/1309 294/432/1310 329/476/1311 318/464/1312
g default
v -0.456403 0.036106 0.059532
v -0.377804 0.063199 0.134668
v -0.286660 0.044825 0.219551
v -0.170456 0.067005 0.329828
v -0.079654 0.062946 0.415036
v -0.005342 0.039296 0.483852
v -0.338345 0.038920 -0.066000
v -0.255622 0.070086 0.009064
v -0.165785 0.050410 0.092660
v -0.051159 0.066545 0.201181
v 0.038303 0.062546 0.285131
v 0.112880 0.035211 0.358164
v -0.198580 0.039568 -0.214608
v -0.117906 0.070231 -0.137362
v -0.028108 0.052128 -0.053731
v 0.086383 0.073980 0.054920
v 0.175845 0.069981 0.138869
v 0.252482 0.042758 0.209712
v -0.070678 0.065744 -0.350671
v 0.008108 0.096021 -0.271418
v 0.097907 0.077918 -0.187787
v 0.212281 0.104630 -0.079026
v 0.301859 0.095771 0.004814
v 0.380383 0.068934 0.073649
v 0.058820 0.060786 -0.488347
v 0.137420 0.087879 -0.413212
v 0.228564 0.069505 -0.328328
v 0.344768 0.091685 -0.218051
v 0.435570 0.087627 -0.132844
v 0.509882 0.063977 -0.064027
v -0.275071 0.048130 -0.133302
v -0.193187 0.075234 -0.057334
v -0.103470 0.060564 0.026375
v 0.011020 0.082417 0.135025
v 0.100942 0.059146 0.218540
v 0.175990 0.051321 0.291018
v -0.142088 0.051129 -0.274705
v -0.062562 0.094773 -0.196275
v 0.027445 0.067954 -0.112841
v 0.141660 0.101358 -0.003929
v 0.231503 0.081372 0.079659
v 0.308974 0.054320 0.149615
v -0.449757 0.042129 0.058388
v -0.372017 0.068842 0.132693
v -0.255760 0.072147 0.009071
v -0.333472 0.044903 -0.065238
v -0.282108 0.050763 0.216394
v -0.165848 0.052472 0.092766
v -0.167681 0.072627 0.324931
v -0.051259 0.068608 0.201214
v -0.077946 0.068608 0.409114
v 0.038463 0.064594 0.285344
v -0.004585 0.045281 0.477053
v 0.111760 0.041272 0.353223
v -0.271063 0.053980 -0.131593
v -0.193272 0.077298 -0.057385
v -0.118111 0.072286 -0.137312
v -0.195841 0.045506 -0.211644
v -0.103496 0.062630 0.026414
v -0.028235 0.054185 -0.053593
v 0.010955 0.084481 0.135067
v 0.086191 0.076034 0.055045
v 0.101072 0.061195 0.218773
v 0.175922 0.072016 0.139219
v 0.173846 0.057161 0.287028
v 0.249229 0.048700 0.207037
v -0.140328 0.056876 -0.270805
v -0.062856 0.096814 -0.196138
v 0.007999 0.098083 -0.271466
v -0.069770 0.071313 -0.345790
v 0.027224 0.069994 -0.112604
v 0.097883 0.079983 -0.187772
v 0.141380 0.103396 -0.003741
v 0.212191 0.106694 -0.079060
v 0.231545 0.083387 0.080117
v 0.302039 0.097811 0.005093
v 0.304868 0.060065 0.147984
v 0.375338 0.074473 0.073018
v 0.135660 0.093160 -0.407168
v 0.057929 0.066447 -0.481469
v 0.225536 0.075075 -0.323484
v 0.339965 0.096937 -0.214910
v 0.429703 0.092923 -0.130682
v 0.503040 0.069597 -0.062746
vt 0.329362 0.360304
vt 0.329362 0.360304
vt 0.329362 0.360304
vt 0.329362 0.360304
vt 0.329362 0.360304
vt 0.329362 0.360304
vt 0.329362 0.360304
vt 0.103373 0.565809
vt 0.193947 0.565788
vt 0.309779 0.565936
vt 0.399800 0.566025
vt 0.329362 0.360304
vt 0.329362 0.360304
vt 0.102437 0.712737
vt 0.193331 0.712498
vt 0.309596 0.712858
vt 0.400049 0.713075
vt 0.329362 0.360304
vt 0.329362 0.360304
vt 0.102785 0.848535
vt 0.193212 0.848765
vt 0.309525 0.849046
vt 0.398933 0.848816
vt 0.329362 0.360304
vt 0.329362 0.360304
vt 0.329362 0.360304
vt 0.329362 0.360304
vt 0.329362 0.360304
vt 0.329362 0.360304
vt 0.329362 0.360304
vt 0.329362 0.360304
vt 0.103307 0.632349
vt 0.193523 0.632509
vt 0.309441 0.632873
vt 0.400167 0.632864
vt 0.329362 0.360304
vt 0.329362 0.360304
vt 0.103102 0.774206
vt 0.193448 0.772434
vt 0.309821 0.774605
vt 0.399785 0.772913
vt 0.329362 0.360304
vt 0.597953 0.460175
vt 0.690819 0.460578
vt 0.809774 0.460910
vt 0.901928 0.461165
vt 0.598189 0.392019
vt 0.597707 0.309540
vt 0.690682 0.392250
vt 0.690781 0.310115
vt 0.809637 0.392261
vt 0.809979 0.310123
vt 0.902638 0.392506
vt 0.902329 0.310104
vt 0.598762 0.246495
vt 0.598380 0.170352
vt 0.691107 0.248547
vt 0.690995 0.170454
vt 0.810413 0.246673
vt 0.810360 0.170525
vt 0.902277 0.248704
vt 0.901752 0.171026
vt 0.023070 0.442151
vt 0.329362 0.360304
vt 0.022571 0.565625
vt 0.329362 0.360304
vt 0.329362 0.360304
vt 0.329362 0.360304
vt 0.329362 0.360304
vt 0.329362 0.360304
vt 0.020961 0.711969
vt 0.329362 0.360304
vt 0.472733 0.632879
vt 0.329362 0.360304
vt 0.021961 0.848249
vt 0.329362 0.360304
vt 0.474353 0.772491
vt 0.329362 0.360304
vt 0.102208 0.983907
vt 0.329362 0.360304
vt 0.192851 0.984847
vt 0.309203 0.984676
vt 0.399422 0.984386
vt 0.329362 0.360304
vt 0.474983 0.712891
vt 0.329362 0.360304
vt 0.329362 0.360304
vt 0.020703 0.771546
vt 0.474653 0.566066
vt 0.329362 0.360304
vt 0.329362 0.360304
vt 0.023438 0.632178
vt 0.329362 0.360304
vt 0.474253 0.984656
vt 0.473457 0.848587
vt 0.329362 0.360304
vt 0.329362 0.360304
vt 0.329362 0.360304
vt 0.329362 0.360304
vt 0.021384 0.984275
vt 0.473808 0.442610
vt 0.399209 0.442182
vt 0.309769 0.442060
vt 0.193987 0.442451
vt 0.103662 0.442149
vt 0.329362 0.360304
vt 0.329362 0.360304
vt 0.511852 0.590748
vt 0.329362 0.360304
vt 0.981967 0.248620
vt 0.981390 0.169506
vt 0.511093 0.247596
vt 0.512761 0.168357
vt 0.980613 0.394255
vt 0.982251 0.310855
vt 0.513167 0.392967
vt 0.511047 0.309768
vt 0.905008 0.027985
vt 0.982757 0.027984
vt 0.811434 0.027399
vt 0.690323 0.026759
vt 0.595876 0.027525
vt 0.512090 0.027019
vt 0.981952 0.463802
vt 0.512026 0.462151
vt 0.980452 0.592569
vt 0.902837 0.592583
vt 0.810040 0.592092
vt 0.689438 0.591210
vt 0.595499 0.591141
vn -0.189238 0.969757 -0.154142
vn -0.036687 0.999252 -0.012240
vn -0.052348 0.998620 0.004163
vn -0.199508 0.970422 -0.135932
vn -0.036687 0.999252 -0.012240
vn -0.002094 0.999996 0.001643
vn -0.031031 0.999094 0.029130
vn -0.052348 0.998620 0.004163
vn -0.002094 0.999996 0.001643
vn -0.029001 0.998486 -0.046742
vn -0.050368 0.998706 -0.007015
vn -0.031031 0.999094 0.029130
vn -0.029001 0.998486 -0.046742
vn 0.104315 0.992359 0.065890
vn 0.083214 0.992491 0.089644
vn -0.050368 0.998706 -0.007015
vn 0.104315 0.992359 0.065890
vn 0.181182 0.973610 0.138769
vn 0.137399 0.980537 0.140243
vn 0.083214 0.992491 0.089644
vn -0.167059 0.973706 -0.154884
vn -0.028786 0.999338 -0.022239
vn -0.076667 0.996875 0.019060
vn -0.226268 0.964722 -0.134590
vn -0.028786 0.999338 -0.022239
vn -0.019990 0.999799 0.001363
vn -0.061249 0.997428 0.037239
vn -0.076667 0.996875 0.019060
vn -0.019990 0.999799 0.001363
vn -0.037854 0.999275 0.004031
vn -0.089154 0.995415 0.034644
vn -0.061249 0.997428 0.037239
vn -0.037854 0.999275 0.004031
vn 0.063621 0.991869 0.110220
vn 0.039250 0.986670 0.157927
vn -0.089154 0.995415 0.034644
vn 0.063621 0.991869 0.110220
vn 0.073814 0.990057 0.119746
vn 0.083406 0.982348 0.167441
vn 0.039250 0.986670 0.157927
vn -0.306686 0.946099 -0.104114
vn -0.127092 0.989527 0.068439
vn -0.034046 0.999146 -0.023423
vn -0.197229 0.965190 -0.171779
vn -0.127092 0.989527 0.068439
vn -0.117754 0.988813 0.091554
vn -0.017256 0.999714 -0.016564
vn -0.034046 0.999146 -0.023423
vn -0.117754 0.988813 0.091554
vn -0.142672 0.987181 0.071545
vn -0.044800 0.998173 -0.040535
vn -0.017256 0.999714 -0.016564
vn -0.142672 0.987181 0.071545
vn 0.018773 0.976262 0.215776
vn 0.093276 0.989380 0.111476
vn -0.044800 0.998173 -0.040535
vn 0.018773 0.976262 0.215776
vn 0.072249 0.964641 0.253471
vn 0.143567 0.973250 0.179366
vn 0.093276 0.989380 0.111476
vn -0.197229 0.965190 -0.171779
vn -0.034046 0.999146 -0.023423
vn -0.009501 0.998938 -0.045076
vn -0.158073 0.970182 -0.183739
vn -0.034046 0.999146 -0.023423
vn -0.017256 0.999714 -0.016564
vn 0.006958 0.999190 -0.039640
vn -0.009501 0.998938 -0.045076
vn -0.017256 0.999714 -0.016564
vn -0.044800 0.998173 -0.040535
vn -0.019418 0.997209 -0.072086
vn 0.006958 0.999190 -0.039640
vn -0.044800 0.998173 -0.040535
vn 0.093276 0.989380 0.111476
vn 0.119222 0.990623 0.066724
vn -0.019418 0.997209 -0.072086
vn 0.093276 0.989380 0.111476
vn 0.143567 0.973250 0.179366
vn 0.182886 0.973543 0.136991
vn 0.119222 0.990623 0.066724
vn -0.199508 0.970422 -0.135932
vn -0.052348 0.998620 0.004163
vn -0.028786 0.999338 -0.022239
vn -0.167059 0.973706 -0.154884
vn -0.052348 0.998620 0.004163
vn -0.031031 0.999094 0.029130
vn -0.019990 0.999799 0.001363
vn -0.028786 0.999338 -0.022239
vn -0.031031 0.999094 0.029130
vn -0.050368 0.998706 -0.007015
vn -0.037854 0.999275 0.004031
vn -0.019990 0.999799 0.001363
vn -0.050368 0.998706 -0.007015
vn 0.083214 0.992491 0.089644
vn 0.063621 0.991869 0.110220
vn -0.037854 0.999275 0.004031
vn 0.083214 0.992491 0.089644
vn 0.137399 0.980537 0.140243
vn 0.073814 0.990057 0.119746
vn 0.063621 0.991869 0.110220
vn -0.226268 0.964722 -0.134590
vn -0.076667 0.996875 0.019060
vn -0.127092 0.989527 0.068439
vn -0.306686 0.946099 -0.104114
vn -0.076667 0.996875 0.019060
vn -0.061249 0.997428 0.037239
vn -0.117754 0.988813 0.091554
vn -0.127092 0.989527 0.068439
vn -0.061249 0.997428 0.037239
vn -0.089154 0.995415 0.034644
vn -0.142672 0.987181 0.071545
vn -0.117754 0.988813 0.091554
vn -0.089154 0.995415 0.034644
vn 0.039250 0.986670 0.157927
vn 0.018773 0.976262 0.215776
vn -0.142672 0.987181 0.071545
vn 0.039250 0.986670 0.157927
vn 0.083406 0.982348 0.167441
vn 0.072249 0.964641 0.253471
vn 0.018773 0.976262 0.215776
vn 0.203003 -0.966533 0.156859
vn 0.213746 -0.966322 0.143300
vn 0.065100 -0.997860 -0.006113
vn 0.054075 -0.998511 0.007237
vn 0.054075 -0.998511 0.007237
vn 0.065100 -0.997860 -0.006113
vn 0.040410 -0.998434 -0.038679
vn 0.016813 -0.999697 -0.017994
vn 0.016813 -0.999697 -0.017994
vn 0.040410 -0.998434 -0.038679
vn 0.059630 -0.998219 -0.001921
vn 0.043390 -0.998568 0.031286
vn 0.043390 -0.998568 0.031286
vn 0.059630 -0.998219 -0.001921
vn -0.082350 -0.991321 -0.102473
vn -0.100226 -0.991514 -0.082793
vn -0.100226 -0.991514 -0.082793
vn -0.082350 -0.991321 -0.102473
vn -0.148092 -0.976399 -0.157208
vn -0.185366 -0.970487 -0.154254
vn 0.184305 -0.968020 0.170204
vn 0.242067 -0.958514 0.150514
vn 0.088878 -0.996016 -0.007225
vn 0.040411 -0.998620 0.033528
vn 0.040411 -0.998620 0.033528
vn 0.088878 -0.996016 -0.007225
vn 0.061260 -0.997427 -0.037252
vn 0.020035 -0.999798 -0.001377
vn 0.020035 -0.999798 -0.001377
vn 0.061260 -0.997427 -0.037252
vn 0.089249 -0.995410 -0.034557
vn 0.037939 -0.999272 -0.003958
vn 0.037939 -0.999272 -0.003958
vn 0.089249 -0.995410 -0.034557
vn -0.050182 -0.984677 -0.167013
vn -0.074108 -0.990024 -0.119836
vn -0.074108 -0.990024 -0.119836
vn -0.050182 -0.984677 -0.167013
vn -0.104161 -0.977034 -0.185892
vn -0.095153 -0.985568 -0.140005
vn 0.320219 -0.939900 0.118523
vn 0.203715 -0.961593 0.183951
vn 0.034342 -0.998803 0.034817
vn 0.138818 -0.988643 -0.057566
vn 0.138818 -0.988643 -0.057566
vn 0.034342 -0.998803 0.034817
vn 0.009083 -0.999631 0.025582
vn 0.117774 -0.988804 -0.091628
vn 0.117774 -0.988804 -0.091628
vn 0.009083 -0.999631 0.025582
vn 0.037379 -0.998097 0.049034
vn 0.142824 -0.987162 -0.071501
vn 0.142824 -0.987162 -0.071501
vn 0.037379 -0.998097 0.049034
vn -0.103551 -0.988368 -0.111378
vn -0.029054 -0.973966 -0.224825
vn -0.029054 -0.973966 -0.224825
vn -0.103551 -0.988368 -0.111378
vn -0.158604 -0.969592 -0.186378
vn -0.090981 -0.958571 -0.269935
vn 0.203715 -0.961593 0.183951
vn 0.161477 -0.967443 0.194885
vn 0.006927 -0.998190 0.059744
vn 0.034342 -0.998803 0.034817
vn 0.034342 -0.998803 0.034817
vn 0.006927 -0.998190 0.059744
vn -0.019209 -0.998481 0.051649
vn 0.009083 -0.999631 0.025582
vn 0.009083 -0.999631 0.025582
vn -0.019209 -0.998481 0.051649
vn 0.008439 -0.996488 0.083311
vn 0.037379 -0.998097 0.049034
vn 0.037379 -0.998097 0.049034
vn 0.008439 -0.996488 0.083311
vn -0.131465 -0.989282 -0.063552
vn -0.103551 -0.988368 -0.111378
vn -0.103551 -0.988368 -0.111378
vn -0.131465 -0.989282 -0.063552
vn -0.194687 -0.970835 -0.139914
vn -0.158604 -0.969592 -0.186378
vn 0.213746 -0.966322 0.143300
vn 0.184305 -0.968020 0.170204
vn 0.040411 -0.998620 0.033528
vn 0.065100 -0.997860 -0.006113
vn 0.065100 -0.997860 -0.006113
vn 0.040411 -0.998620 0.033528
vn 0.020035 -0.999798 -0.001377
vn 0.040410 -0.998434 -0.038679
vn 0.040410 -0.998434 -0.038679
vn 0.020035 -0.999798 -0.001377
vn 0.037939 -0.999272 -0.003958
vn 0.059630 -0.998219 -0.001921
vn 0.059630 -0.998219 -0.001921
vn 0.037939 -0.999272 -0.003958
vn -0.074108 -0.990024 -0.119836
vn -0.082350 -0.991321 -0.102473
vn -0.082350 -0.991321 -0.102473
vn -0.074108 -0.990024 -0.119836
vn -0.095153 -0.985568 -0.140005
vn -0.148092 -0.976399 -0.157208
vn 0.242067 -0.958514 0.150514
vn 0.320219 -0.939900 0.118523
vn 0.138818 -0.988643 -0.057566
vn 0.088878 -0.996016 -0.007225
vn 0.088878 -0.996016 -0.007225
vn 0.138818 -0.988643 -0.057566
vn 0.117774 -0.988804 -0.091628
vn 0.061260 -0.997427 -0.037252
vn 0.061260 -0.997427 -0.037252
vn 0.117774 -0.988804 -0.091628
vn 0.142824 -0.987162 -0.071501
vn 0.089249 -0.995410 -0.034557
vn 0.089249 -0.995410 -0.034557
vn 0.142824 -0.987162 -0.071501
vn -0.029054 -0.973966 -0.224825
vn -0.050182 -0.984677 -0.167013
vn -0.050182 -0.984677 -0.167013
vn -0.029054 -0.973966 -0.224825
vn -0.090981 -0.958571 -0.269935
vn -0.104161 -0.977034 -0.185892
vn -0.590161 0.724233 0.356646
vn -0.528154 0.704054 0.474723
vn -0.490031 0.687535 0.535878
vn -0.590161 0.724233 0.356646
vn -0.612996 0.568791 -0.548373
vn -0.607350 0.564914 -0.558568
vn -0.607350 0.564914 -0.558568
vn -0.618732 0.572706 -0.537753
vn -0.528154 0.704054 0.474723
vn -0.505904 0.674515 0.537671
vn -0.517417 0.676255 0.524365
vn -0.490031 0.687535 0.535878
vn -0.505904 0.674515 0.537671
vn -0.523241 0.691910 0.497473
vn -0.531173 0.690265 0.491313
vn -0.517417 0.676255 0.524365
vn -0.523241 0.691910 0.497473
vn -0.389592 0.718522 0.576147
vn -0.428555 0.710895 0.557646
vn -0.531173 0.690265 0.491313
vn -0.389592 0.718522 0.576147
vn -0.326898 0.727714 0.602967
vn -0.326898 0.727714 0.602967
vn -0.428555 0.710895 0.557646
vn 0.611950 0.561421 0.557067
vn 0.589178 0.571292 0.571398
vn 0.563368 0.581685 0.586736
vn 0.611950 0.561421 0.557067
vn -0.609482 0.560212 -0.560976
vn -0.602775 0.573294 -0.554975
vn -0.594580 0.570863 -0.566208
vn -0.608737 0.560294 -0.561703
vn 0.563367 0.593984 0.574283
vn 0.588594 0.577223 0.566014
vn 0.589249 0.577320 0.565232
vn 0.580600 0.590763 0.560270
vn -0.599316 0.581336 -0.550335
vn -0.657612 0.552847 -0.511768
vn -0.657610 0.552914 -0.511697
vn -0.616840 0.573180 -0.539420
vn 0.542915 0.566850 0.619616
vn 0.580357 0.591603 0.559635
vn 0.569773 0.584092 0.578097
vn 0.542737 0.567101 0.619543
vn 0.415932 0.739653 -0.529069
vn 0.294869 0.758235 -0.581491
vn 0.294869 0.758235 -0.581491
vn 0.480162 0.723618 -0.495804
vn -0.576638 0.591282 -0.563804
vn -0.599316 0.581336 -0.550335
vn -0.616840 0.573180 -0.539420
vn -0.576638 0.591282 -0.563804
vn 0.482831 0.709355 -0.513508
vn 0.415932 0.739653 -0.529069
vn 0.480162 0.723618 -0.495804
vn 0.469463 0.710707 -0.523928
vn 0.443207 0.723623 -0.529091
vn 0.482831 0.709355 -0.513508
vn 0.469463 0.710707 -0.523928
vn 0.436437 0.722115 -0.536725
vn 0.527846 0.748170 -0.402019
vn 0.443207 0.723623 -0.529091
vn 0.436437 0.722115 -0.536725
vn 0.507381 0.740850 -0.440120
vn 0.580357 0.591603 0.559635
vn 0.593104 0.600522 0.536284
vn 0.593104 0.600522 0.536284
vn 0.569773 0.584092 0.578097
vn 0.557361 0.756624 -0.341862
vn 0.527846 0.748170 -0.402019
vn 0.507381 0.740850 -0.440120
vn 0.557361 0.756624 -0.341862
vn -0.602775 0.573294 -0.554975
vn -0.612996 0.568791 -0.548373
vn -0.618732 0.572706 -0.537753
vn -0.594580 0.570863 -0.566208
vn 0.589178 0.571292 0.571398
vn 0.563367 0.593984 0.574283
vn 0.580600 0.590763 0.560270
vn 0.563368 0.581685 0.586736
vn -0.657612 0.552847 -0.511768
vn -0.609482 0.560212 -0.560976
vn -0.608737 0.560294 -0.561703
vn -0.657610 0.552914 -0.511697
vn 0.588594 0.577223 0.566014
vn 0.542915 0.566850 0.619616
vn 0.542737 0.567101 0.619543
vn 0.589249 0.577320 0.565232
s off
g nota4
usemtl nota4SG
f 379/583/1313 380/625/1314 381/528/1315 382/585/1316
f 380/625/1317 383/624/1318 384/529/1319 381/528/1320
f 383/624/1321 385/623/1322 386/530/1323 384/529/1324
f 385/623/1325 387/622/1326 388/531/1327 386/530/1328
f 387/622/1329 389/621/1330 390/609/1331 388/531/1332
f 391/612/1333 392/552/1334 393/534/1335 394/591/1336
f 392/552/1337 395/553/1338 396/535/1339 393/534/1340
f 395/553/1341 397/554/1342 398/536/1343 396/535/1344
f 397/554/1345 399/555/1346 400/537/1347 398/536/1348
f 399/555/1349 401/593/1350 402/605/1351 400/537/1352
f 403/608/1353 404/558/1354 405/540/1355 406/595/1356
f 404/558/1357 407/559/1358 408/541/1359 405/540/1360
f 407/559/1361 409/560/1362 410/542/1363 408/541/1364
f 409/560/1365 411/561/1366 412/543/1367 410/542/1368
f 411/561/1369 413/597/1370 414/615/1371 412/543/1372
f 406/595/1373 405/540/1374 415/599/1375 416/620/1376
f 405/540/1377 408/541/1378 417/601/1379 415/599/1380
f 408/541/1381 410/542/1382 418/602/1383 417/601/1384
f 410/542/1385 412/543/1386 419/603/1387 418/602/1388
f 412/543/1389 414/615/1390 420/614/1391 419/603/1392
f 382/585/1393 381/528/1394 392/552/1395 391/612/1396
f 381/528/1397 384/529/1398 395/553/1399 392/552/1400
f 384/529/1401 386/530/1402 397/554/1403 395/553/1404
f 386/530/1405 388/531/1406 399/555/1407 397/554/1408
f 388/531/1409 390/609/1410 401/593/1411 399/555/1412
f 394/591/1413 393/534/1414 404/558/1415 403/608/1416
f 393/534/1417 396/535/1418 407/559/1419 404/558/1420
f 396/535/1421 398/536/1422 409/560/1423 407/559/1424
f 398/536/1425 400/537/1426 411/561/1427 409/560/1428
f 400/537/1429 402/605/1430 413/597/1431 411/561/1432
f 337/628/1433 343/645/1434 344/563/1435 338/650/1436
f 338/650/1437 344/563/1438 345/564/1439 339/649/1440
f 339/649/1441 345/564/1442 346/565/1443 340/648/1444
f 340/648/1445 346/565/1446 347/566/1447 341/647/1448
f 341/647/1449 347/566/1450 348/644/1451 342/646/1452
f 367/636/1453 349/637/1454 350/568/1455 368/567/1456
f 368/567/1457 350/568/1458 351/570/1459 369/569/1460
f 369/569/1461 351/570/1462 352/572/1463 370/571/1464
f 370/571/1465 352/572/1466 353/574/1467 371/573/1468
f 371/573/1469 353/574/1470 354/635/1471 372/634/1472
f 373/632/1473 355/633/1474 356/576/1475 374/575/1476
f 374/575/1477 356/576/1478 357/578/1479 375/577/1480
f 375/577/1481 357/578/1482 358/580/1483 376/579/1484
f 376/579/1485 358/580/1486 359/582/1487 377/581/1488
f 377/581/1489 359/582/1490 360/631/1491 378/630/1492
f 355/633/1493 361/643/1494 362/642/1495 356/576/1496
f 356/576/1497 362/642/1498 363/641/1499 357/578/1500
f 357/578/1501 363/641/1502 364/640/1503 358/580/1504
f 358/580/1505 364/640/1506 365/638/1507 359/582/1508
f 359/582/1509 365/638/1510 366/639/1511 360/631/1512
f 343/645/1513 367/636/1514 368/567/1515 344/563/1516
f 344/563/1517 368/567/1518 369/569/1519 345/564/1520
f 345/564/1521 369/569/1522 370/571/1523 346/565/1524
f 346/565/1525 370/571/1526 371/573/1527 347/566/1528
f 347/566/1529 371/573/1530 372/634/1531 348/644/1532
f 349/637/1533 373/632/1534 374/575/1535 350/568/1536
f 350/568/1537 374/575/1538 375/577/1539 351/570/1540
f 351/570/1541 375/577/1542 376/579/1543 352/572/1544
f 352/572/1545 376/579/1546 377/581/1547 353/574/1548
f 353/574/1549 377/581/1550 378/630/1551 354/635/1552
f 337/521/1553 338/522/1554 380/584/1555 379/626/1556
f 343/527/1557 337/629/1558 379/627/1559 382/611/1560
f 338/522/1561 339/523/1562 383/586/1563 380/584/1564
f 339/523/1565 340/524/1566 385/587/1567 383/586/1568
f 340/524/1569 341/525/1570 387/588/1571 385/587/1572
f 341/525/1573 342/526/1574 389/589/1575 387/588/1576
f 342/526/1577 348/532/1578 390/590/1579 389/589/1580
f 349/533/1581 367/551/1582 391/592/1583 394/607/1584
f 372/556/1585 354/538/1586 402/594/1587 401/610/1588
f 355/539/1589 373/557/1590 403/596/1591 406/619/1592
f 378/562/1593 360/544/1594 414/598/1595 413/606/1596
f 362/546/1597 361/545/1598 416/600/1599 415/618/1600
f 361/545/1601 355/539/1602 406/619/1603 416/600/1604
f 363/547/1605 362/546/1606 415/618/1607 417/617/1608
f 364/548/1609 363/547/1610 417/617/1611 418/616/1612
f 365/549/1613 364/548/1614 418/616/1615 419/613/1616
f 360/544/1617 366/550/1618 420/604/1619 414/598/1620
f 366/550/1621 365/549/1622 419/613/1623 420/604/1624
f 367/551/1625 343/527/1626 382/611/1627 391/592/1628
f 348/532/1629 372/556/1630 401/610/1631 390/590/1632
f 373/557/1633 349/533/1634 394/607/1635 403/596/1636
f 354/538/1637 378/562/1638 413/606/1639 402/594/1640
