# This file uses centimeters as units for non-parametric coordinates.

mtllib Prop_Nota1.mtl
g default
v -0.313359 -0.023154 0.376243
v -0.204577 0.003748 0.376243
v -0.080065 -0.014870 0.376243
v 0.080177 0.007020 0.376243
v 0.204689 0.002724 0.376243
v 0.305923 -0.021130 0.376243
v -0.313359 -0.025994 0.203918
v -0.201614 0.004880 0.200909
v -0.078939 -0.015038 0.200909
v 0.078939 0.000808 0.200909
v 0.201614 -0.003425 0.200909
v 0.305923 -0.030872 0.203918
v -0.313359 -0.032037 0.000000
v -0.201614 -0.001569 0.000000
v -0.078939 -0.019913 0.000000
v 0.078939 0.001654 0.000000
v 0.201614 -0.002578 0.000000
v 0.305923 -0.030013 0.000000
v -0.313359 -0.012000 -0.187499
v -0.201614 0.018173 -0.184732
v -0.078939 -0.000171 -0.184732
v 0.078939 0.026259 -0.184732
v 0.201614 0.017164 -0.184732
v 0.305923 -0.009975 -0.187499
v -0.313359 -0.023154 -0.376243
v -0.204577 0.003748 -0.376243
v -0.080065 -0.014870 -0.376243
v 0.080177 0.007020 -0.376243
v 0.204689 0.002724 -0.376243
v 0.305923 -0.021130 -0.376243
v -0.313359 -0.019818 0.111290
v -0.201614 0.007036 0.109648
v -0.078939 -0.007873 0.109648
v 0.078939 0.013694 0.109648
v 0.201614 -0.009821 0.109648
v 0.305923 -0.017793 0.111290
v -0.313359 -0.023187 -0.082815
v -0.201614 0.020310 -0.081593
v -0.078939 -0.006756 -0.081593
v 0.078939 0.026369 -0.081593
v 0.201614 0.006141 -0.081593
v 0.305923 -0.021162 -0.082815
v -0.309291 -0.017318 0.370662
v -0.201705 0.009206 0.370659
v -0.201706 0.006943 0.200942
v -0.309276 -0.020113 0.200940
v -0.078901 -0.009115 0.370633
v -0.078908 -0.012973 0.200962
v 0.078853 0.012462 0.370593
v 0.078893 0.002873 0.200935
v 0.201886 0.008209 0.370577
v 0.201880 -0.001376 0.200888
v 0.301827 -0.015320 0.370579
v 0.301733 -0.024900 0.200889
v -0.309257 -0.014028 0.109599
v -0.201707 0.009100 0.109601
v -0.201725 0.000492 0.000109
v -0.309322 -0.026101 0.000088
v -0.078927 -0.005808 0.109626
v -0.078933 -0.017850 0.000120
v 0.078924 0.015760 0.109655
v 0.078889 0.003714 0.000155
v 0.201872 -0.007771 0.109662
v 0.201913 -0.000538 0.000135
v 0.301638 -0.011995 0.109662
v 0.301732 -0.024057 0.000085
v -0.309395 -0.017397 -0.081368
v -0.201731 0.022359 -0.081359
v -0.201722 0.020236 -0.184760
v -0.309343 -0.006345 -0.184749
v -0.078934 -0.004706 -0.081336
v -0.078942 0.001895 -0.184773
v 0.078868 0.028417 -0.081331
v 0.078854 0.028323 -0.184763
v 0.201962 0.008164 -0.081354
v 0.201940 0.019204 -0.184719
v 0.301825 -0.015360 -0.081379
v 0.301826 -0.004334 -0.184685
v -0.201709 0.009204 -0.370812
v -0.309286 -0.017320 -0.370810
v -0.078941 -0.009122 -0.370826
v 0.078840 0.012454 -0.370840
v 0.201906 0.008206 -0.370826
v 0.301827 -0.015320 -0.370811
vt 0.329362 0.360304
vt 0.329362 0.360304
vt 0.329362 0.360304
vt 0.329362 0.360304
vt 0.329362 0.360304
vt 0.329362 0.360304
vt 0.329362 0.360304
vt 0.103373 0.565809
vt 0.193947 0.565788
vt 0.309779 0.565936
vt 0.399800 0.566025
vt 0.329362 0.360304
vt 0.329362 0.360304
vt 0.102437 0.712737
vt 0.193331 0.712498
vt 0.309596 0.712858
vt 0.400049 0.713075
vt 0.329362 0.360304
vt 0.329362 0.360304
vt 0.102785 0.848535
vt 0.193212 0.848765
vt 0.309525 0.849046
vt 0.398933 0.848816
vt 0.329362 0.360304
vt 0.329362 0.360304
vt 0.329362 0.360304
vt 0.329362 0.360304
vt 0.329362 0.360304
vt 0.329362 0.360304
vt 0.329362 0.360304
vt 0.329362 0.360304
vt 0.103307 0.632349
vt 0.193523 0.632509
vt 0.309441 0.632873
vt 0.400167 0.632864
vt 0.329362 0.360304
vt 0.329362 0.360304
vt 0.103102 0.774206
vt 0.193448 0.772434
vt 0.309821 0.774605
vt 0.399785 0.772913
vt 0.329362 0.360304
vt 0.597953 0.460175
vt 0.690819 0.460578
vt 0.809774 0.460910
vt 0.901928 0.461165
vt 0.598189 0.392019
vt 0.597707 0.309540
vt 0.690682 0.392250
vt 0.690781 0.310115
vt 0.809637 0.392261
vt 0.809979 0.310123
vt 0.902638 0.392506
vt 0.902329 0.310104
vt 0.598762 0.246495
vt 0.598380 0.170352
vt 0.691107 0.248547
vt 0.690995 0.170454
vt 0.810413 0.246673
vt 0.810360 0.170525
vt 0.902277 0.248704
vt 0.901752 0.171026
vt 0.023070 0.442151
vt 0.329362 0.360304
vt 0.022571 0.565625
vt 0.329362 0.360304
vt 0.329362 0.360304
vt 0.329362 0.360304
vt 0.329362 0.360304
vt 0.329362 0.360304
vt 0.020961 0.711969
vt 0.329362 0.360304
vt 0.472733 0.632879
vt 0.329362 0.360304
vt 0.021961 0.848249
vt 0.329362 0.360304
vt 0.474353 0.772491
vt 0.329362 0.360304
vt 0.102208 0.983907
vt 0.329362 0.360304
vt 0.192851 0.984847
vt 0.309203 0.984676
vt 0.399422 0.984386
vt 0.329362 0.360304
vt 0.474983 0.712891
vt 0.329362 0.360304
vt 0.329362 0.360304
vt 0.020703 0.771546
vt 0.474653 0.566066
vt 0.329362 0.360304
vt 0.329362 0.360304
vt 0.023438 0.632178
vt 0.329362 0.360304
vt 0.474253 0.984656
vt 0.473457 0.848587
vt 0.329362 0.360304
vt 0.329362 0.360304
vt 0.329362 0.360304
vt 0.329362 0.360304
vt 0.021384 0.984275
vt 0.473808 0.442610
vt 0.399209 0.442182
vt 0.309769 0.442060
vt 0.193987 0.442451
vt 0.103662 0.442149
vt 0.329362 0.360304
vt 0.329362 0.360304
vt 0.511852 0.590748
vt 0.329362 0.360304
vt 0.981967 0.248620
vt 0.981390 0.169506
vt 0.511093 0.247596
vt 0.512761 0.168357
vt 0.980613 0.394255
vt 0.982251 0.310855
vt 0.513167 0.392967
vt 0.511047 0.309768
vt 0.905008 0.027985
vt 0.982757 0.027984
vt 0.811434 0.027399
vt 0.690323 0.026759
vt 0.595876 0.027525
vt 0.512090 0.027019
vt 0.981952 0.463802
vt 0.512026 0.462151
vt 0.980452 0.592569
vt 0.902837 0.592583
vt 0.810040 0.592092
vt 0.689438 0.591210
vt 0.595499 0.591141
vn -0.241625 0.970262 -0.014466
vn -0.033227 0.999310 -0.016566
vn -0.033399 0.999423 0.006120
vn -0.236629 0.971583 0.005803
vn -0.033227 0.999310 -0.016566
vn 0.001485 0.999544 -0.030169
vn -0.000764 0.999953 0.009688
vn -0.033399 0.999423 0.006120
vn 0.001485 0.999544 -0.030169
vn -0.051267 0.997582 -0.046925
vn -0.039614 0.999209 -0.003377
vn -0.000764 0.999953 0.009688
vn -0.051267 0.997582 -0.046925
vn 0.122999 0.990826 -0.055998
vn 0.123903 0.991998 -0.024259
vn -0.039614 0.999209 -0.003377
vn 0.122999 0.990826 -0.055998
vn 0.228887 0.971901 -0.054951
vn 0.198016 0.979902 -0.024127
vn 0.123903 0.991998 -0.024259
vn -0.225969 0.973662 -0.030322
vn -0.034322 0.998982 -0.029259
vn -0.040911 0.998595 0.033675
vn -0.255213 0.966554 0.025289
vn -0.034322 0.998982 -0.029259
vn -0.011744 0.999767 -0.018112
vn -0.017224 0.999191 0.036336
vn -0.040911 0.998595 0.033675
vn -0.011744 0.999767 -0.018112
vn -0.022930 0.999729 -0.003921
vn -0.039332 0.997787 0.053619
vn -0.017224 0.999191 0.036336
vn -0.022930 0.999729 -0.003921
vn 0.123725 0.992308 0.004158
vn 0.138648 0.988771 0.055749
vn -0.039332 0.997787 0.053619
vn 0.123725 0.992308 0.004158
vn 0.137674 0.990469 0.004173
vn 0.177323 0.983613 0.032585
vn 0.138648 0.988771 0.055749
vn -0.292949 0.950548 0.103151
vn -0.043826 0.993570 0.104394
vn -0.038965 0.998889 -0.026514
vn -0.259538 0.965489 -0.021687
vn -0.043826 0.993570 0.104394
vn -0.021189 0.993156 0.114853
vn -0.022034 0.999211 -0.033035
vn -0.038965 0.998889 -0.026514
vn -0.021189 0.993156 0.114853
vn -0.053052 0.991667 0.117400
vn -0.058524 0.997786 -0.031577
vn -0.022034 0.999211 -0.033035
vn -0.053052 0.991667 0.117400
vn 0.163345 0.980165 0.112230
vn 0.146184 0.989141 -0.015151
vn -0.058524 0.997786 -0.031577
vn 0.163345 0.980165 0.112230
vn 0.228101 0.968127 0.103443
vn 0.229300 0.973356 0.000374
vn 0.146184 0.989141 -0.015151
vn -0.259538 0.965489 -0.021687
vn -0.038965 0.998889 -0.026514
vn -0.035920 0.997607 -0.059077
vn -0.239200 0.969274 -0.057368
vn -0.038965 0.998889 -0.026514
vn -0.022034 0.999211 -0.033035
vn -0.020206 0.997589 -0.066398
vn -0.035920 0.997607 -0.059077
vn -0.022034 0.999211 -0.033035
vn -0.058524 0.997786 -0.031577
vn -0.061652 0.995505 -0.071896
vn -0.020206 0.997589 -0.066398
vn -0.058524 0.997786 -0.031577
vn 0.146184 0.989141 -0.015151
vn 0.134425 0.988754 -0.065541
vn -0.061652 0.995505 -0.071896
vn 0.146184 0.989141 -0.015151
vn 0.229300 0.973356 0.000374
vn 0.228910 0.971753 -0.057410
vn 0.134425 0.988754 -0.065541
vn -0.236629 0.971583 0.005803
vn -0.033399 0.999423 0.006120
vn -0.034322 0.998982 -0.029259
vn -0.225969 0.973662 -0.030322
vn -0.033399 0.999423 0.006120
vn -0.000764 0.999953 0.009688
vn -0.011744 0.999767 -0.018112
vn -0.034322 0.998982 -0.029259
vn -0.000764 0.999953 0.009688
vn -0.039614 0.999209 -0.003377
vn -0.022930 0.999729 -0.003921
vn -0.011744 0.999767 -0.018112
vn -0.039614 0.999209 -0.003377
vn 0.123903 0.991998 -0.024259
vn 0.123725 0.992308 0.004158
vn -0.022930 0.999729 -0.003921
vn 0.123903 0.991998 -0.024259
vn 0.198016 0.979902 -0.024127
vn 0.137674 0.990469 0.004173
vn 0.123725 0.992308 0.004158
vn -0.255213 0.966554 0.025289
vn -0.040911 0.998595 0.033675
vn -0.043826 0.993570 0.104394
vn -0.292949 0.950548 0.103151
vn -0.040911 0.998595 0.033675
vn -0.017224 0.999191 0.036336
vn -0.021189 0.993156 0.114853
vn -0.043826 0.993570 0.104394
vn -0.017224 0.999191 0.036336
vn -0.039332 0.997787 0.053619
vn -0.053052 0.991667 0.117400
vn -0.021189 0.993156 0.114853
vn -0.039332 0.997787 0.053619
vn 0.138648 0.988771 0.055749
vn 0.163345 0.980165 0.112230
vn -0.053052 0.991667 0.117400
vn 0.138648 0.988771 0.055749
vn 0.177323 0.983613 0.032585
vn 0.228101 0.968127 0.103443
vn 0.163345 0.980165 0.112230
vn 0.253519 -0.967306 0.006914
vn 0.252056 -0.967658 -0.010321
vn 0.041353 -0.999012 -0.016296
vn 0.042467 -0.999097 0.000994
vn 0.042467 -0.999097 0.000994
vn 0.041353 -0.999012 -0.016296
vn 0.001055 -0.999733 -0.023083
vn -0.001964 -0.999965 0.008176
vn -0.001964 -0.999965 0.008176
vn 0.001055 -0.999733 -0.023083
vn 0.040239 -0.999145 -0.009487
vn 0.051159 -0.998357 0.025822
vn 0.051159 -0.998357 0.025822
vn 0.040239 -0.999145 -0.009487
vn -0.132060 -0.991139 0.014289
vn -0.131599 -0.990460 0.040864
vn -0.131599 -0.990460 0.040864
vn -0.132060 -0.991139 0.014289
vn -0.217420 -0.975894 0.018960
vn -0.242537 -0.969030 0.046438
vn 0.249039 -0.968045 0.029482
vn 0.277644 -0.960366 -0.024716
vn 0.057915 -0.997761 -0.033447
vn 0.050526 -0.998287 0.029495
vn 0.050526 -0.998287 0.029495
vn 0.057915 -0.997761 -0.033447
vn 0.017223 -0.999191 -0.036353
vn 0.011767 -0.999767 0.018071
vn 0.011767 -0.999767 0.018071
vn 0.017223 -0.999191 -0.036353
vn 0.039462 -0.997781 -0.053621
vn 0.023042 -0.999727 0.003916
vn 0.023042 -0.999727 0.003916
vn 0.039462 -0.997781 -0.053621
vn -0.152831 -0.986724 -0.054946
vn -0.137950 -0.990431 -0.004039
vn -0.137950 -0.990431 -0.004039
vn -0.152831 -0.986724 -0.054946
vn -0.205072 -0.978224 -0.031983
vn -0.167089 -0.985932 -0.004461
vn 0.312690 -0.944349 -0.102129
vn 0.272609 -0.961774 0.025990
vn 0.046988 -0.998296 0.034595
vn 0.059819 -0.992721 -0.104535
vn 0.059819 -0.992721 -0.104535
vn 0.046988 -0.998296 0.034595
vn 0.022259 -0.998730 0.045193
vn 0.021153 -0.993149 -0.114921
vn 0.021153 -0.993149 -0.114921
vn 0.022259 -0.998730 0.045193
vn 0.058940 -0.997342 0.042844
vn 0.053193 -0.991650 -0.117472
vn 0.053193 -0.991650 -0.117472
vn 0.058940 -0.997342 0.042844
vn -0.153599 -0.987883 0.022225
vn -0.177029 -0.977829 -0.111855
vn -0.177029 -0.977829 -0.111855
vn -0.153599 -0.987883 0.022225
vn -0.245049 -0.969499 0.004696
vn -0.253015 -0.961985 -0.102804
vn 0.272609 -0.961774 0.025990
vn 0.249320 -0.966366 0.063062
vn 0.044096 -0.996466 0.071495
vn 0.046988 -0.998296 0.034595
vn 0.046988 -0.998296 0.034595
vn 0.044096 -0.996466 0.071495
vn 0.019511 -0.996316 0.083506
vn 0.022259 -0.998730 0.045193
vn 0.022259 -0.998730 0.045193
vn 0.019511 -0.996316 0.083506
vn 0.061346 -0.994268 0.087563
vn 0.058940 -0.997342 0.042844
vn 0.058940 -0.997342 0.042844
vn 0.061346 -0.994268 0.087563
vn -0.141169 -0.987049 0.076189
vn -0.153599 -0.987883 0.022225
vn -0.153599 -0.987883 0.022225
vn -0.141169 -0.987049 0.076189
vn -0.239503 -0.968832 0.063273
vn -0.245049 -0.969499 0.004696
vn 0.252056 -0.967658 -0.010321
vn 0.249039 -0.968045 0.029482
vn 0.050526 -0.998287 0.029495
vn 0.041353 -0.999012 -0.016296
vn 0.041353 -0.999012 -0.016296
vn 0.050526 -0.998287 0.029495
vn 0.011767 -0.999767 0.018071
vn 0.001055 -0.999733 -0.023083
vn 0.001055 -0.999733 -0.023083
vn 0.011767 -0.999767 0.018071
vn 0.023042 -0.999727 0.003916
vn 0.040239 -0.999145 -0.009487
vn 0.040239 -0.999145 -0.009487
vn 0.023042 -0.999727 0.003916
vn -0.137950 -0.990431 -0.004039
vn -0.132060 -0.991139 0.014289
vn -0.132060 -0.991139 0.014289
vn -0.137950 -0.990431 -0.004039
vn -0.167089 -0.985932 -0.004461
vn -0.217420 -0.975894 0.018960
vn 0.277644 -0.960366 -0.024716
vn 0.312690 -0.944349 -0.102129
vn 0.059819 -0.992721 -0.104535
vn 0.057915 -0.997761 -0.033447
vn 0.057915 -0.997761 -0.033447
vn 0.059819 -0.992721 -0.104535
vn 0.021153 -0.993149 -0.114921
vn 0.017223 -0.999191 -0.036353
vn 0.017223 -0.999191 -0.036353
vn 0.021153 -0.993149 -0.114921
vn 0.053193 -0.991650 -0.117472
vn 0.039462 -0.997781 -0.053621
vn 0.039462 -0.997781 -0.053621
vn 0.053193 -0.991650 -0.117472
vn -0.177029 -0.977829 -0.111855
vn -0.152831 -0.986724 -0.054946
vn -0.152831 -0.986724 -0.054946
vn -0.177029 -0.977829 -0.111855
vn -0.253015 -0.961985 -0.102804
vn -0.205072 -0.978224 -0.031983
vn -0.184191 0.745974 0.639997
vn -0.058165 0.726995 0.684174
vn 0.011472 0.710959 0.703140
vn -0.184191 0.745974 0.639997
vn -0.821153 0.570705 0.001794
vn -0.824032 0.566465 -0.009367
vn -0.824032 0.566465 -0.009367
vn -0.818048 0.574995 0.013325
vn -0.058165 0.726995 0.684174
vn 0.001113 0.698366 0.715740
vn -0.016386 0.700078 0.713879
vn 0.011472 0.710959 0.703140
vn 0.001113 0.698366 0.715740
vn -0.039023 0.715256 0.697772
vn -0.049025 0.713662 0.698773
vn -0.016386 0.700078 0.713879
vn -0.039023 0.715256 0.697772
vn 0.112282 0.740444 0.662672
vn 0.071210 0.733333 0.676130
vn -0.049025 0.713662 0.698773
vn 0.112282 0.740444 0.662672
vn 0.176343 0.748743 0.638973
vn 0.176343 0.748743 0.638973
vn 0.071210 0.733333 0.676130
vn 0.828477 0.559118 -0.031817
vn 0.821726 0.569850 -0.006115
vn 0.813453 0.581200 0.022384
vn 0.828477 0.559118 -0.031817
vn -0.827244 0.561762 -0.009508
vn -0.818222 0.574813 -0.010159
vn -0.819953 0.571934 -0.023869
vn -0.827199 0.561810 -0.010549
vn 0.804944 0.593211 0.012914
vn 0.817623 0.575670 -0.009829
vn 0.817565 0.575734 -0.010850
vn 0.807891 0.589264 -0.008982
vn -0.812508 0.582874 -0.009412
vn -0.828605 0.556661 0.059517
vn -0.828555 0.556730 0.059565
vn -0.817811 0.575386 0.010801
vn 0.821052 0.567604 0.060815
vn 0.807280 0.590095 -0.009305
vn 0.812204 0.583258 0.011630
vn 0.820873 0.567857 0.060875
vn -0.058093 0.717379 -0.694256
vn -0.182160 0.737653 -0.650143
vn -0.182160 0.737653 -0.650143
vn 0.011454 0.700573 -0.713489
vn -0.805198 0.591968 -0.035073
vn -0.812508 0.582874 -0.009412
vn -0.817811 0.575386 0.010801
vn -0.805198 0.591968 -0.035073
vn 0.001242 0.685854 -0.727738
vn -0.058093 0.717379 -0.694256
vn 0.011454 0.700573 -0.713489
vn -0.015632 0.687288 -0.726216
vn -0.038271 0.700707 -0.712422
vn 0.001242 0.685854 -0.727738
vn -0.015632 0.687288 -0.726216
vn -0.048435 0.699188 -0.713295
vn 0.110488 0.726095 -0.678659
vn -0.038271 0.700707 -0.712422
vn -0.048435 0.699188 -0.713295
vn 0.069464 0.718406 -0.692147
vn 0.807280 0.590095 -0.009305
vn 0.800584 0.598178 -0.035327
vn 0.800584 0.598178 -0.035327
vn 0.812204 0.583258 0.011630
vn 0.173218 0.735200 -0.655345
vn 0.110488 0.726095 -0.678659
vn 0.069464 0.718406 -0.692147
vn 0.173218 0.735200 -0.655345
vn -0.818222 0.574813 -0.010159
vn -0.821153 0.570705 0.001794
vn -0.818048 0.574995 0.013325
vn -0.819953 0.571934 -0.023869
vn 0.821726 0.569850 -0.006115
vn 0.804944 0.593211 0.012914
vn 0.807891 0.589264 -0.008982
vn 0.813453 0.581200 0.022384
vn -0.828605 0.556661 0.059517
vn -0.827244 0.561762 -0.009508
vn -0.827199 0.561810 -0.010549
vn -0.828555 0.556730 0.059565
vn 0.817623 0.575670 -0.009829
vn 0.821052 0.567604 0.060815
vn 0.820873 0.567857 0.060875
vn 0.817565 0.575734 -0.010850
s off
g nota
usemtl notaSG
f 43/63/1 44/105/2 45/8/3 46/65/4
f 44/105/5 47/104/6 48/9/7 45/8/8
f 47/104/9 49/103/10 50/10/11 48/9/12
f 49/103/13 51/102/14 52/11/15 50/10/16
f 51/102/17 53/101/18 54/89/19 52/11/20
f 55/92/21 56/32/22 57/14/23 58/71/24
f 56/32/25 59/33/26 60/15/27 57/14/28
f 59/33/29 61/34/30 62/16/31 60/15/32
f 61/34/33 63/35/34 64/17/35 62/16/36
f 63/35/37 65/73/38 66/85/39 64/17/40
f 67/88/41 68/38/42 69/20/43 70/75/44
f 68/38/45 71/39/46 72/21/47 69/20/48
f 71/39/49 73/40/50 74/22/51 72/21/52
f 73/40/53 75/41/54 76/23/55 74/22/56
f 75/41/57 77/77/58 78/95/59 76/23/60
f 70/75/61 69/20/62 79/79/63 80/100/64
f 69/20/65 72/21/66 81/81/67 79/79/68
f 72/21/69 74/22/70 82/82/71 81/81/72
f 74/22/73 76/23/74 83/83/75 82/82/76
f 76/23/77 78/95/78 84/94/79 83/83/80
f 46/65/81 45/8/82 56/32/83 55/92/84
f 45/8/85 48/9/86 59/33/87 56/32/88
f 48/9/89 50/10/90 61/34/91 59/33/92
f 50/10/93 52/11/94 63/35/95 61/34/96
f 52/11/97 54/89/98 65/73/99 63/35/100
f 58/71/101 57/14/102 68/38/103 67/88/104
f 57/14/105 60/15/106 71/39/107 68/38/108
f 60/15/109 62/16/110 73/40/111 71/39/112
f 62/16/113 64/17/114 75/41/115 73/40/116
f 64/17/117 66/85/118 77/77/119 75/41/120
f 1/108/121 7/125/122 8/43/123 2/130/124
f 2/130/125 8/43/126 9/44/127 3/129/128
f 3/129/129 9/44/130 10/45/131 4/128/132
f 4/128/133 10/45/134 11/46/135 5/127/136
f 5/127/137 11/46/138 12/124/139 6/126/140
f 31/116/141 13/117/142 14/48/143 32/47/144
f 32/47/145 14/48/146 15/50/147 33/49/148
f 33/49/149 15/50/150 16/52/151 34/51/152
f 34/51/153 16/52/154 17/54/155 35/53/156
f 35/53/157 17/54/158 18/115/159 36/114/160
f 37/112/161 19/113/162 20/56/163 38/55/164
f 38/55/165 20/56/166 21/58/167 39/57/168
f 39/57/169 21/58/170 22/60/171 40/59/172
f 40/59/173 22/60/174 23/62/175 41/61/176
f 41/61/177 23/62/178 24/111/179 42/110/180
f 19/113/181 25/123/182 26/122/183 20/56/184
f 20/56/185 26/122/186 27/121/187 21/58/188
f 21/58/189 27/121/190 28/120/191 22/60/192
f 22/60/193 28/120/194 29/118/195 23/62/196
f 23/62/197 29/118/198 30/119/199 24/111/200
f 7/125/201 31/116/202 32/47/203 8/43/204
f 8/43/205 32/47/206 33/49/207 9/44/208
f 9/44/209 33/49/210 34/51/211 10/45/212
f 10/45/213 34/51/214 35/53/215 11/46/216
f 11/46/217 35/53/218 36/114/219 12/124/220
f 13/117/221 37/112/222 38/55/223 14/48/224
f 14/48/225 38/55/226 39/57/227 15/50/228
f 15/50/229 39/57/230 40/59/231 16/52/232
f 16/52/233 40/59/234 41/61/235 17/54/236
f 17/54/237 41/61/238 42/110/239 18/115/240
f 1/1/241 2/2/242 44/64/243 43/106/244
f 7/7/245 1/109/246 43/107/247 46/91/248
f 2/2/249 3/3/250 47/66/251 44/64/252
f 3/3/253 4/4/254 49/67/255 47/66/256
f 4/4/257 5/5/258 51/68/259 49/67/260
f 5/5/261 6/6/262 53/69/263 51/68/264
f 6/6/265 12/12/266 54/70/267 53/69/268
f 13/13/269 31/31/270 55/72/271 58/87/272
f 36/36/273 18/18/274 66/74/275 65/90/276
f 19/19/277 37/37/278 67/76/279 70/99/280
f 42/42/281 24/24/282 78/78/283 77/86/284
f 26/26/285 25/25/286 80/80/287 79/98/288
f 25/25/289 19/19/290 70/99/291 80/80/292
f 27/27/293 26/26/294 79/98/295 81/97/296
f 28/28/297 27/27/298 81/97/299 82/96/300
f 29/29/301 28/28/302 82/96/303 83/93/304
f 24/24/305 30/30/306 84/84/307 78/78/308
f 30/30/309 29/29/310 83/93/311 84/84/312
f 31/31/313 7/7/314 46/91/315 55/72/316
f 12/12/317 36/36/318 65/90/319 54/70/320
f 37/37/321 13/13/322 58/87/323 67/76/324
f 18/18/325 42/42/326 77/86/327 66/74/328
