# Blender 4.5.11 LTS
# www.blender.org
mtllib ENV_Techo2.mtl
o Cube
v -4.350219 8.238780 5.585110
v -4.350219 8.278780 5.625110
v -4.390219 8.278780 5.585110
v -4.350219 8.250496 5.613394
v -4.373313 8.255686 5.608204
v -4.378503 8.278780 5.613394
v -4.378503 8.250496 5.585110
v -4.390219 8.942904 5.585110
v -4.350219 8.942904 5.625110
v -4.378503 8.942904 5.613394
v -4.350219 8.238780 -5.591011
v -4.390219 8.278780 -5.591011
v -4.350219 8.278780 -5.631011
v -4.378503 8.250496 -5.591011
v -4.373313 8.255686 -5.614105
v -4.378503 8.278780 -5.619295
v -4.350219 8.250496 -5.619295
v -4.350219 8.942904 -5.631011
v -4.390219 8.942904 -5.591011
v -4.378503 8.942904 -5.619295
v 4.354631 8.238780 5.585110
v 4.394631 8.278780 5.585110
v 4.354631 8.278780 5.625110
v 4.382915 8.250496 5.585110
v 4.377726 8.255686 5.608204
v 4.382915 8.278780 5.613394
v 4.354631 8.250496 5.613394
v 4.354631 8.942904 5.625110
v 4.394631 8.942904 5.585110
v 4.382915 8.942904 5.613394
v 4.354631 8.238780 -5.591011
v 4.354631 8.278780 -5.631011
v 4.394631 8.278780 -5.591011
v 4.354631 8.250496 -5.619295
v 4.377726 8.255686 -5.614105
v 4.382915 8.278780 -5.619295
v 4.382915 8.250496 -5.591011
v 4.394631 8.942904 -5.591011
v 4.354631 8.942904 -5.631011
v 4.382915 8.942904 -5.619295
vn -0.3251 -0.8881 0.3251
vn -0.3251 -0.3251 0.8881
vn -0.8881 -0.3251 0.3251
vn -0.3251 -0.8881 -0.3251
vn -0.8881 -0.3250 -0.3251
vn -0.3250 -0.3250 -0.8881
vn 0.3251 -0.8881 0.3251
vn 0.8881 -0.3251 0.3251
vn 0.3251 -0.3251 0.8881
vn 0.3251 -0.8881 -0.3251
vn 0.3250 -0.3250 -0.8881
vn 0.8881 -0.3250 -0.3250
vn -0.3827 -0.9239 -0.0000
vn -0.9239 -0.3827 -0.0000
vn -0.3827 -0.0000 0.9239
vn -0.9239 -0.0000 0.3827
vn -0.3827 -0.0000 -0.9239
vn -0.9239 -0.0000 -0.3827
vn -0.0000 -0.9239 -0.3827
vn -0.0000 -0.3827 -0.9239
vn 0.9239 -0.0000 -0.3827
vn 0.3827 -0.0000 -0.9239
vn 0.3827 -0.9239 -0.0000
vn 0.9239 -0.3827 -0.0000
vn 0.3827 -0.0000 0.9239
vn 0.9239 -0.0000 0.3827
vn -0.0000 -0.9239 0.3827
vn -0.0000 -0.3827 0.9239
vn -0.0000 -1.0000 -0.0000
vn -1.0000 -0.0000 -0.0000
vn -0.0000 -0.0000 1.0000
vn -0.0000 -0.0000 -1.0000
vn 1.0000 -0.0000 -0.0000
vt 0.759924 0.002461
vt 0.759924 0.000000
vt 0.761934 0.000452
vt 0.762385 0.002461
vt 0.938006 0.002461
vt 0.938193 -0.000000
vt 0.940251 0.000452
vt 0.940612 0.002461
vt 0.824413 0.004571
vt 0.821805 0.004472
vt 0.822165 0.002400
vt 0.824223 0.001968
vt 0.759924 0.974965
vt 0.762385 0.974965
vt 0.761934 0.976974
vt 0.759924 0.977426
vt 0.824413 0.960653
vt 0.824223 0.962889
vt 0.822165 0.962432
vt 0.821805 0.960553
vt 0.943220 0.004571
vt 0.940612 0.004472
vt 0.940972 0.002400
vt 0.943030 0.001968
vt 0.002461 0.002461
vt 0.000000 0.002461
vt 0.000452 0.000452
vt 0.002461 0.000000
vt 0.819199 0.002461
vt 0.819385 0.000000
vt 0.821444 0.000452
vt 0.821805 0.002461
vt 0.938006 0.759924
vt 0.940612 0.759924
vt 0.940251 0.761934
vt 0.938193 0.762385
vt 0.002461 0.974965
vt 0.002461 0.977426
vt 0.000452 0.976974
vt 0.000000 0.974965
vt 0.943220 0.749244
vt 0.943031 0.751480
vt 0.940972 0.751024
vt 0.940612 0.749145
vt 0.819199 0.974964
vt 0.821805 0.974965
vt 0.821444 0.976974
vt 0.819385 0.977426
vt 0.881193 0.002461
vt 0.881379 -0.000000
vt 0.881003 -0.000000
vt 0.881193 0.002603
vt 1.000000 0.002603
vt 0.999810 -0.000000
vt 0.881003 0.960921
vt 0.881193 0.958684
vt 0.762385 0.974964
vt 0.762572 0.977426
vt 0.999810 0.749512
vt 1.000000 0.747276
vt 0.881193 0.759924
vt 0.881379 0.762385
vt 0.762572 -0.000000
vt 0.762385 0.002461
s 0
usemtl Material.005
f 1/1/1 4/2/1 5/3/1 7/4/1
f 2/5/2 6/6/2 5/7/2 4/8/2
f 3/9/3 7/10/3 5/11/3 6/12/3
f 11/13/4 14/14/4 15/15/4 17/16/4
f 12/17/5 16/18/5 15/19/5 14/20/5
f 13/21/6 17/22/6 15/23/6 16/24/6
f 21/25/7 24/26/7 25/27/7 27/28/7
f 22/29/8 26/30/8 25/31/8 24/32/8
f 23/33/9 27/34/9 25/35/9 26/36/9
f 31/37/10 34/38/10 35/39/10 37/40/10
f 32/41/11 36/42/11 35/43/11 34/44/11
f 33/45/12 37/46/12 35/47/12 36/48/12
f 11/13/13 1/1/13 7/4/13 14/14/13
f 14/20/14 7/10/14 3/9/14 12/17/14
f 2/5/15 9/49/15 10/50/15 6/6/15
f 6/12/16 10/51/16 8/52/16 3/9/16
f 18/53/17 13/21/17 16/24/17 20/54/17
f 20/55/18 16/18/18 12/17/18 19/56/18
f 31/37/19 11/13/19 17/16/19 34/38/19
f 34/44/20 17/22/20 13/21/20 32/41/20
f 38/57/21 33/45/21 36/48/21 40/58/21
f 40/59/22 36/42/22 32/41/22 39/60/22
f 21/25/23 31/37/23 37/40/23 24/26/23
f 24/32/24 37/46/24 33/45/24 22/29/24
f 28/61/25 23/33/25 26/36/25 30/62/25
f 30/63/26 26/30/26 22/29/26 29/64/26
f 1/1/27 21/25/27 27/28/27 4/2/27
f 4/8/28 27/34/28 23/33/28 2/5/28
f 11/13/29 31/37/29 21/25/29 1/1/29
f 3/9/30 8/52/30 19/56/30 12/17/30
f 23/33/31 28/61/31 9/49/31 2/5/31
f 13/21/32 18/53/32 39/60/32 32/41/32
f 33/45/33 38/57/33 29/64/33 22/29/33
