# This file uses centimeters as units for non-parametric coordinates.

mtllib ENV_PUERTA.mtl
g default
v 1.774215 3.588767 0.308646
v 1.724400 3.637453 0.308646
v 1.654749 3.636655 0.308646
v 1.606063 3.586839 0.308646
v 1.606861 3.517188 0.308646
v 1.656676 3.468502 0.308646
v 1.726327 3.469301 0.308646
v 1.775014 3.519116 0.308646
v 1.835471 3.614967 0.375269
v 1.749188 3.699294 0.375269
v 1.628549 3.697911 0.375269
v 1.544222 3.611628 0.375269
v 1.545605 3.490989 0.375269
v 1.631888 3.406662 0.375269
v 1.752527 3.408045 0.375269
v 1.836854 3.494328 0.375269
v 1.857892 3.624557 0.466279
v 1.758261 3.721929 0.466279
v 1.618959 3.720332 0.466279
v 1.521587 3.620701 0.466279
v 1.523184 3.481399 0.466279
v 1.622815 3.384027 0.466279
v 1.762117 3.385624 0.466279
v 1.859489 3.485255 0.466279
v 1.835471 3.614967 0.557288
v 1.749188 3.699294 0.557288
v 1.628549 3.697911 0.557288
v 1.544222 3.611628 0.557288
v 1.545605 3.490989 0.557288
v 1.631888 3.406662 0.557288
v 1.752527 3.408045 0.557288
v 1.836854 3.494328 0.557288
v 1.774215 3.588767 0.623912
v 1.724400 3.637453 0.623912
v 1.654749 3.636655 0.623912
v 1.606063 3.586839 0.623912
v 1.606861 3.517188 0.623912
v 1.656676 3.468502 0.623912
v 1.726327 3.469301 0.623912
v 1.775014 3.519116 0.623912
v 1.623777 3.618158 0.308646
v 1.574904 3.643022 0.375269
v 1.557016 3.656952 0.466279
v 1.574904 3.643022 0.557288
v 1.623777 3.618158 0.623912
v 1.624986 3.478931 0.623912
v 1.576999 3.460306 0.557288
v 1.559435 3.445970 0.466279
v 1.576999 3.460306 0.375269
v 1.624986 3.478931 0.308646
v 1.758815 3.617011 0.308646
v 1.808798 3.641036 0.375269
v 1.827092 3.654658 0.466279
v 1.808798 3.641036 0.557288
v 1.758815 3.617011 0.623912
v 1.759963 3.483173 0.623912
v 1.810785 3.467655 0.557288
v 1.829388 3.454455 0.466279
v 1.810785 3.467655 0.375269
v 1.759963 3.483173 0.308646
v 1.655313 3.587404 0.623912
v 1.724964 3.588203 0.623912
v 1.656112 3.517753 0.623912
v 1.725763 3.518552 0.623912
v 1.606861 3.517188 0.232168
v 1.656112 3.517753 0.232168
v 1.656676 3.468502 0.232168
v 1.624986 3.478931 0.232168
v 1.725763 3.518552 0.232168
v 1.726327 3.469301 0.232168
v 1.775014 3.519116 0.232168
v 1.759963 3.483173 0.232168
v 1.654749 3.636655 0.232168
v 1.655313 3.587404 0.232168
v 1.606063 3.586839 0.232168
v 1.623777 3.618158 0.232168
v 1.724400 3.637453 0.232168
v 1.724964 3.588203 0.232168
v 1.774215 3.588767 0.232168
v 1.758815 3.617011 0.232168
vt 0.020861 0.160827
vt 0.099564 0.160827
vt 0.092601 0.261842
vt 0.001722 0.261842
vt 0.073150 0.086878
vt 0.104998 0.086878
vt 0.144579 0.160827
vt 0.144579 0.261842
vt 0.099564 0.362858
vt 0.020861 0.362858
vt 0.073150 0.001992
vt 0.104998 0.001992
vt 0.144579 0.086878
vt 0.268297 0.160827
vt 0.287437 0.261842
vt 0.144579 0.362858
vt 0.104998 0.436806
vt 0.073150 0.436806
vt 0.144579 0.001992
vt 0.216008 0.086878
vt 0.268297 0.362858
vt 0.144579 0.436806
vt 0.216008 0.001992
vt 0.216008 0.436806
vt 0.247938 0.086878
vt 0.247938 0.001992
vt 0.391991 0.261842
vt 0.397907 0.160827
vt 0.436154 0.160827
vt 0.436154 0.261842
vt 0.312435 0.160827
vt 0.293296 0.261842
vt 0.392907 0.086878
vt 0.436154 0.086878
vt 0.559872 0.160827
vt 0.579011 0.261842
vt 0.397907 0.362858
vt 0.436154 0.362858
vt 0.364725 0.086878
vt 0.312435 0.362858
vt 0.392907 0.001992
vt 0.436154 0.001992
vt 0.507582 0.086878
vt 0.559872 0.362858
vt 0.392907 0.436806
vt 0.436154 0.436806
vt 0.364725 0.001992
vt 0.364725 0.436806
vt 0.507582 0.001992
vt 0.507582 0.436806
vt 0.530321 0.086878
vt 0.530321 0.001992
vt 0.177719 0.665728
vt 0.228227 0.686649
vt 0.200697 0.709387
vt 0.156798 0.716235
vt 0.207306 0.594299
vt 0.257814 0.615220
vt 0.280516 0.738938
vt 0.242270 0.754780
vt 0.156798 0.790184
vt 0.106290 0.636141
vt 0.085369 0.686649
vt 0.257151 0.571974
vt 0.228227 0.543791
vt 0.135877 0.564712
vt 0.033080 0.738938
vt 0.055783 0.615220
vt 0.061099 0.654801
vt 0.156798 0.514204
vt 0.085369 0.543791
vt 0.119842 0.511861
vt 0.156798 0.440256
vt 0.280516 0.491502
vt 0.033080 0.491502
vt 0.078095 0.472856
vt 0.031308 0.966078
vt 0.081816 0.945157
vt 0.102737 0.995665
vt 0.065782 0.998008
vt 0.001722 0.894649
vt 0.052229 0.873728
vt 0.153245 0.915570
vt 0.174166 0.966078
vt 0.031308 0.823220
vt 0.007038 0.855068
vt 0.123658 0.844141
vt 0.203753 0.894649
vt 0.203090 0.937896
vt 0.102737 0.793634
vt 0.174166 0.823220
vt 0.146636 0.800482
vt 0.843412 0.642287
vt 0.805166 0.642287
vt 0.818389 0.541271
vt 0.862551 0.541271
vt 0.791123 0.716235
vt 0.763593 0.716235
vt 0.719694 0.642287
vt 0.719694 0.541271
vt 0.805166 0.440256
vt 0.843412 0.440256
vt 0.719694 0.716235
vt 0.595976 0.642287
vt 0.576836 0.541271
vt 0.719694 0.440256
vt 0.763593 0.801122
vt 0.719694 0.801122
vt 0.648265 0.716235
vt 0.595976 0.440256
vt 0.648265 0.801122
vt 0.337797 0.700106
vt 0.349973 0.599091
vt 0.428676 0.599091
vt 0.428676 0.700106
vt 0.304958 0.599091
vt 0.285819 0.700106
vt 0.391721 0.525142
vt 0.428676 0.525142
vt 0.552395 0.599091
vt 0.571534 0.700106
vt 0.349973 0.801122
vt 0.428676 0.801122
vt 0.357248 0.525142
vt 0.304958 0.801122
vt 0.391721 0.440256
vt 0.428676 0.440256
vt 0.500105 0.525142
vt 0.552395 0.801122
vt 0.500105 0.440256
vn 0.590303 0.457279 -0.665160
vn 0.521437 0.545323 -0.656297
vn 0.533814 0.530590 -0.658420
vn 0.590303 0.457279 -0.665160
vn -0.008421 0.734461 -0.678598
vn -0.008421 0.734461 -0.678598
vn -0.008421 0.734461 -0.678598
vn -0.008421 0.734461 -0.678598
vn -0.497396 0.573513 -0.650907
vn -0.533694 0.532420 -0.657039
vn -0.544500 0.519493 -0.658518
vn -0.497396 0.573513 -0.650907
vn -0.734461 -0.008421 -0.678598
vn -0.734461 -0.008421 -0.678598
vn -0.734461 -0.008421 -0.678598
vn -0.734461 -0.008421 -0.678598
vn -0.547011 -0.531713 -0.646576
vn -0.522965 -0.559914 -0.642653
vn -0.462182 -0.624527 -0.629566
vn -0.462182 -0.624527 -0.629566
vn 0.008421 -0.734461 -0.678598
vn 0.008421 -0.734461 -0.678598
vn 0.008421 -0.734461 -0.678598
vn 0.008421 -0.734461 -0.678598
vn 0.559857 -0.516139 -0.648197
vn 0.535279 -0.547756 -0.642993
vn 0.629752 -0.413548 -0.657564
vn 0.629752 -0.413548 -0.657564
vn 0.734461 0.008421 -0.678598
vn 0.734461 0.008421 -0.678598
vn 0.734461 0.008421 -0.678598
vn 0.734461 0.008421 -0.678598
vn 0.678474 0.694212 -0.240299
vn 0.678474 0.694212 -0.240299
vn 0.678474 0.694212 -0.240299
vn 0.678474 0.694212 -0.240299
vn -0.011128 0.970635 -0.240299
vn -0.011128 0.970635 -0.240299
vn -0.011128 0.970635 -0.240299
vn -0.011128 0.970635 -0.240299
vn -0.694212 0.678474 -0.240299
vn -0.694212 0.678474 -0.240299
vn -0.694212 0.678474 -0.240299
vn -0.694212 0.678474 -0.240299
vn -0.970635 -0.011128 -0.240299
vn -0.970635 -0.011128 -0.240299
vn -0.970635 -0.011128 -0.240299
vn -0.970635 -0.011128 -0.240299
vn -0.678474 -0.694212 -0.240299
vn -0.678474 -0.694212 -0.240299
vn -0.678474 -0.694212 -0.240299
vn -0.678474 -0.694212 -0.240299
vn 0.011128 -0.970635 -0.240299
vn 0.011128 -0.970635 -0.240299
vn 0.011128 -0.970635 -0.240299
vn 0.011128 -0.970635 -0.240299
vn 0.694212 -0.678474 -0.240299
vn 0.694212 -0.678474 -0.240299
vn 0.694212 -0.678474 -0.240299
vn 0.694212 -0.678474 -0.240299
vn 0.970635 0.011128 -0.240299
vn 0.970635 0.011128 -0.240299
vn 0.970635 0.011128 -0.240299
vn 0.970635 0.011128 -0.240299
vn 0.678474 0.694212 0.240299
vn 0.678474 0.694212 0.240299
vn 0.678474 0.694212 0.240299
vn 0.678474 0.694212 0.240299
vn -0.011128 0.970635 0.240299
vn -0.011128 0.970635 0.240299
vn -0.011128 0.970635 0.240299
vn -0.011128 0.970635 0.240299
vn -0.694212 0.678474 0.240299
vn -0.694212 0.678474 0.240299
vn -0.694212 0.678474 0.240299
vn -0.694212 0.678474 0.240299
vn -0.970635 -0.011128 0.240299
vn -0.970635 -0.011128 0.240299
vn -0.970635 -0.011128 0.240299
vn -0.970635 -0.011128 0.240299
vn -0.678474 -0.694212 0.240299
vn -0.678474 -0.694212 0.240299
vn -0.678474 -0.694212 0.240299
vn -0.678474 -0.694212 0.240299
vn 0.011128 -0.970635 0.240299
vn 0.011128 -0.970635 0.240299
vn 0.011128 -0.970635 0.240299
vn 0.011128 -0.970635 0.240299
vn 0.694212 -0.678474 0.240299
vn 0.694212 -0.678474 0.240299
vn 0.694212 -0.678474 0.240299
vn 0.694212 -0.678474 0.240299
vn 0.970635 0.011128 0.240299
vn 0.970635 0.011128 0.240299
vn 0.970635 0.011128 0.240299
vn 0.970635 0.011128 0.240299
vn 0.590303 0.457279 0.665160
vn 0.533814 0.530590 0.658420
vn 0.521437 0.545323 0.656297
vn 0.590303 0.457279 0.665160
vn -0.008421 0.734461 0.678598
vn -0.008421 0.734461 0.678598
vn -0.008421 0.734461 0.678598
vn -0.008421 0.734461 0.678598
vn -0.497396 0.573513 0.650907
vn -0.544500 0.519493 0.658518
vn -0.533694 0.532420 0.657039
vn -0.497396 0.573513 0.650907
vn -0.734461 -0.008421 0.678598
vn -0.734461 -0.008421 0.678598
vn -0.734461 -0.008421 0.678598
vn -0.734461 -0.008421 0.678598
vn -0.522965 -0.559914 0.642654
vn -0.547011 -0.531713 0.646576
vn -0.462182 -0.624527 0.629566
vn -0.462182 -0.624527 0.629566
vn 0.008421 -0.734461 0.678598
vn 0.008421 -0.734461 0.678598
vn 0.008421 -0.734461 0.678598
vn 0.008421 -0.734461 0.678598
vn 0.535279 -0.547756 0.642993
vn 0.559857 -0.516139 0.648198
vn 0.629752 -0.413548 0.657564
vn 0.629752 -0.413548 0.657564
vn 0.734461 0.008421 0.678598
vn 0.734461 0.008421 0.678598
vn 0.734461 0.008421 0.678598
vn 0.734461 0.008421 0.678598
vn -0.000000 -0.000000 1.000000
vn 0.000000 0.000000 1.000000
vn 0.000000 0.000000 1.000000
vn -0.000000 -0.000000 1.000000
vn -0.000000 -0.000000 -1.000000
vn -0.000000 -0.000000 -1.000000
vn -0.000000 0.000000 -1.000000
vn -0.000001 -0.000000 -1.000000
vn -0.592713 0.457411 -0.662923
vn -0.592713 0.457411 -0.662923
vn -0.694212 0.678474 -0.240299
vn -0.694212 0.678474 -0.240299
vn -0.694212 0.678474 0.240299
vn -0.694212 0.678474 0.240299
vn -0.592713 0.457411 0.662923
vn -0.592713 0.457411 0.662923
vn -0.615143 -0.441854 0.652965
vn -0.615143 -0.441854 0.652965
vn -0.678474 -0.694212 0.240299
vn -0.678474 -0.694212 0.240299
vn -0.678474 -0.694212 -0.240299
vn -0.678474 -0.694212 -0.240299
vn -0.615143 -0.441854 -0.652965
vn -0.615143 -0.441854 -0.652965
vn 0.488009 0.583035 -0.649552
vn 0.488009 0.583035 -0.649552
vn 0.678474 0.694211 -0.240299
vn 0.678474 0.694211 -0.240299
vn 0.678474 0.694211 0.240299
vn 0.678474 0.694212 0.240299
vn 0.488009 0.583035 0.649552
vn 0.488009 0.583035 0.649552
vn 0.485057 -0.606595 0.629890
vn 0.485057 -0.606595 0.629890
vn 0.694211 -0.678474 0.240299
vn 0.694211 -0.678474 0.240299
vn 0.694211 -0.678474 -0.240299
vn 0.694211 -0.678474 -0.240299
vn 0.485057 -0.606595 -0.629890
vn 0.485057 -0.606595 -0.629890
vn 0.000000 0.000000 1.000000
vn -0.000000 -0.000000 1.000000
vn -0.000000 -0.000000 1.000000
vn -0.000000 -0.000000 1.000000
vn 0.000000 0.000000 -1.000000
vn 0.000000 0.000000 -1.000000
vn -0.000000 -0.000000 -1.000000
vn 0.000000 -0.000000 -1.000000
vn -0.000000 -0.000000 1.000000
vn -0.000000 -0.000000 1.000000
vn 0.000000 0.000000 1.000000
vn 0.000000 0.000000 1.000000
vn 0.000000 -0.000000 -1.000000
vn -0.000000 -0.000000 -1.000000
vn -0.000000 -0.000000 -1.000000
vn 0.000000 -0.000000 -1.000000
vn 0.000000 0.000000 -1.000000
vn 0.000000 0.000000 -1.000000
vn 0.000000 0.000001 -1.000000
vn 0.000000 0.000000 -1.000000
vn -0.000000 -0.000000 1.000000
vn -0.000001 -0.000000 1.000000
vn 0.000000 0.000000 1.000000
vn 0.000000 0.000000 1.000000
vn -0.312581 -0.949891 0.000000
vn -0.312581 -0.949891 0.000000
vn -0.312581 -0.949891 0.000000
vn -0.312581 -0.949891 0.000000
vn -0.903709 -0.428147 0.000000
vn -0.903709 -0.428147 0.000000
vn -0.903709 -0.428147 0.000000
vn -0.903709 -0.428147 0.000000
vn 0.011464 -0.999934 0.000000
vn 0.011464 -0.999934 0.000000
vn 0.011464 -0.999934 0.000000
vn 0.011464 -0.999934 0.000000
vn 0.922398 -0.386241 0.000000
vn 0.922398 -0.386241 0.000000
vn 0.922398 -0.386241 0.000000
vn 0.922398 -0.386241 0.000000
vn 0.381273 -0.924462 0.000000
vn 0.381273 -0.924462 0.000000
vn 0.381273 -0.924462 0.000000
vn 0.381273 -0.924462 0.000000
vn -0.870412 0.492324 0.000000
vn -0.870412 0.492324 0.000000
vn -0.870412 0.492324 0.000000
vn -0.870412 0.492324 0.000000
vn -0.512742 0.858543 0.000000
vn -0.512742 0.858543 0.000000
vn -0.512742 0.858543 0.000000
vn -0.512742 0.858543 0.000000
vn -0.011464 0.999934 0.000000
vn -0.011464 0.999934 0.000000
vn -0.011464 0.999934 0.000000
vn -0.011464 0.999934 0.000000
vn 0.877973 0.478711 0.000000
vn 0.877973 0.478711 0.000000
vn 0.877973 0.478711 0.000000
vn 0.877973 0.478711 0.000000
vn 0.510687 0.859767 0.000000
vn 0.510687 0.859767 0.000000
vn 0.510687 0.859767 0.000000
vn 0.510687 0.859767 0.000000
vn -0.999934 -0.011464 0.000000
vn -0.999934 -0.011464 0.000000
vn -0.999934 -0.011464 0.000000
vn -0.999934 -0.011464 0.000000
vn 0.999934 0.011464 0.000000
vn 0.999934 0.011464 0.000000
vn 0.999934 0.011464 0.000000
vn 0.999934 0.011464 0.000000
s 1
g pSphere1 pomo puerta
usemtl lambert3SG
f 1/97/1 51/98/2 52/94/3 9/93/4
s off
f 2/103/5 3/109/6 11/104/7 10/99/8
s 2
f 3/5/9 41/6/10 42/2/11 11/1/12
s off
f 4/13/13 5/20/14 13/14/15 12/7/16
s 3
f 49/113/17 50/118/18 6/119/19 14/114/20
s off
f 6/119/21 7/128/22 15/120/23 14/114/24
s 4
f 59/28/25 60/33/26 8/34/27 16/29/28
s off
f 8/34/29 1/43/30 9/35/31 16/29/32
s 5
f 9/93/33 52/94/34 53/95/35 17/96/36
s off
f 10/99/37 11/104/38 19/105/39 18/100/40
s 6
f 11/1/41 42/2/42 43/3/43 19/4/44
s off
f 12/7/45 13/14/46 21/15/47 20/8/48
s 7
f 48/112/49 49/113/50 14/114/51 22/115/52
s off
f 14/114/53 15/120/54 23/121/55 22/115/56
s 8
f 58/27/57 59/28/58 16/29/59 24/30/60
s off
f 16/29/61 9/35/62 17/36/63 24/30/64
s 9
f 17/96/65 53/95/66 54/101/67 25/102/68
s off
f 18/100/69 19/105/70 27/110/71 26/106/72
s 10
f 19/4/73 43/3/74 44/9/75 27/10/76
s off
f 20/8/77 21/15/78 29/21/79 28/16/80
s 11
f 47/122/81 48/112/82 22/115/83 30/123/84
s off
f 22/115/85 23/121/86 31/129/87 30/123/88
s 12
f 57/37/89 58/27/90 24/30/91 32/38/92
s off
f 24/30/93 17/36/94 25/44/95 32/38/96
s 13
f 25/59/97 54/60/98 55/55/99 33/54/100
s off
f 26/61/101 27/67/102 35/63/103 34/56/104
s 14
f 27/10/105 44/9/106 45/17/107 35/18/108
s off
f 28/16/109 29/21/110 37/24/111 36/22/112
s 15
f 46/72/113 47/76/114 30/73/115 38/70/116
s off
f 30/73/117 31/74/118 39/65/119 38/70/120
s 16
f 56/45/121 57/37/122 32/38/123 40/46/124
s off
f 32/38/125 25/44/126 33/50/127 40/46/128
s 17
f 62/53/129 33/54/130 55/55/131 34/56/132
s 18
f 65/77/133 66/78/134 67/79/135 68/80/136
s 2
f 42/2/11 41/6/10 4/13/137 12/7/138
s 6
f 43/3/43 42/2/42 12/7/139 20/8/140
s 10
f 44/9/75 43/3/74 20/8/141 28/16/142
s 14
f 45/17/107 44/9/106 28/16/143 36/22/144
s 15
f 29/75/145 47/76/114 46/72/113 37/71/146
s 11
f 21/117/147 48/112/82 47/122/81 29/125/148
s 7
f 13/116/149 49/113/50 48/112/49 21/117/150
s 3
f 5/124/151 50/118/18 49/113/17 13/116/152
s 1
f 52/94/3 51/98/2 2/103/153 10/99/154
s 5
f 53/95/35 52/94/34 10/99/155 18/100/156
s 9
f 54/101/67 53/95/66 18/100/157 26/106/158
s 13
f 55/55/99 54/60/98 26/61/159 34/56/160
s 16
f 31/40/161 57/37/122 56/45/121 39/48/162
s 12
f 23/32/163 58/27/90 57/37/89 31/40/164
s 8
f 15/31/165 59/28/58 58/27/57 23/32/166
s 4
f 7/39/167 60/33/26 59/28/25 15/31/168
s 17
f 36/68/169 61/62/170 35/63/171 45/69/172
s 18
f 66/78/134 69/83/173 70/84/174 67/79/135
s 17
f 61/62/170 62/53/129 34/56/132 35/63/171
s 18
f 69/83/173 71/88/175 72/89/176 70/84/174
s 17
f 37/71/177 63/66/178 61/62/170 36/68/169
f 63/66/178 64/57/179 62/53/129 61/62/170
f 64/57/179 40/58/180 33/54/130 62/53/129
s 18
f 73/85/181 74/82/182 75/81/183 76/86/184
f 77/90/185 78/87/186 74/82/182 73/85/181
f 80/92/187 79/91/188 78/87/186 77/90/185
s 17
f 38/70/189 63/66/178 37/71/177 46/72/190
f 39/65/191 64/57/179 63/66/178 38/70/189
f 56/64/192 40/58/180 64/57/179 39/65/191
s 18
f 75/81/183 74/82/182 66/78/134 65/77/133
f 74/82/182 78/87/186 69/83/173 66/78/134
f 78/87/186 79/91/188 71/88/175 69/83/173
s off
f 6/119/193 50/118/194 68/126/195 67/127/196
f 50/25/197 5/20/198 65/23/199 68/26/200
f 7/128/201 6/119/202 67/127/203 70/130/204
f 8/34/205 60/33/206 72/41/207 71/42/208
f 60/33/209 7/39/210 70/47/211 72/41/212
f 4/13/213 41/6/214 76/12/215 75/19/216
f 41/6/217 3/5/218 73/11/219 76/12/220
f 3/109/221 2/103/222 77/108/223 73/111/224
f 51/51/225 1/43/226 79/49/227 80/52/228
f 2/103/229 51/98/230 80/107/231 77/108/232
f 5/20/233 4/13/234 75/19/235 65/23/236
f 1/43/237 8/34/238 71/42/239 79/49/240
g default
v 1.590511 3.468461 0.252075
v 1.649082 3.432021 0.252075
v 1.727508 3.432021 0.252075
v 1.786079 3.468461 0.252075
v 1.570655 3.510448 0.252075
v 1.649082 3.510448 0.252075
v 1.727508 3.510448 0.252075
v 1.805935 3.510448 0.252075
v 1.570655 3.588874 0.252075
v 1.649082 3.588874 0.252075
v 1.727508 3.588874 0.252075
v 1.805935 3.588874 0.252075
v 1.593152 3.635262 0.252075
v 1.649082 3.667300 0.252075
v 1.727508 3.667300 0.252075
v 1.783438 3.635262 0.252075
v 1.593152 3.635262 0.190651
v 1.649082 3.667300 0.190651
v 1.727508 3.667300 0.190651
v 1.783438 3.635262 0.190651
v 1.570655 3.588874 0.190651
v 1.649082 3.588874 0.190651
v 1.727508 3.588874 0.190651
v 1.805935 3.588874 0.190651
v 1.570655 3.510448 0.190651
v 1.649082 3.510448 0.190651
v 1.727508 3.510448 0.190651
v 1.805935 3.510448 0.190651
v 1.590511 3.468461 0.190651
v 1.649082 3.432021 0.190651
v 1.727508 3.432021 0.190651
v 1.786079 3.468461 0.190651
vt 0.375000 0.000000
vt 0.458333 0.000000
vt 0.541667 0.000000
vt 0.625000 0.000000
vt 0.375000 0.083333
vt 0.458333 0.083333
vt 0.541667 0.083333
vt 0.625000 0.083333
vt 0.375000 0.166667
vt 0.458333 0.166667
vt 0.541667 0.166667
vt 0.625000 0.166667
vt 0.375000 0.250000
vt 0.458333 0.250000
vt 0.541667 0.250000
vt 0.625000 0.250000
vt 0.375000 0.500000
vt 0.458333 0.500000
vt 0.541667 0.500000
vt 0.625000 0.500000
vt 0.375000 0.583333
vt 0.458333 0.583333
vt 0.541667 0.583333
vt 0.625000 0.583333
vt 0.375000 0.666667
vt 0.458333 0.666667
vt 0.541667 0.666667
vt 0.625000 0.666667
vt 0.375000 0.750000
vt 0.458333 0.750000
vt 0.541667 0.750000
vt 0.625000 0.750000
vt 0.375000 1.000000
vt 0.458333 1.000000
vt 0.541667 1.000000
vt 0.625000 1.000000
vt 0.875000 0.000000
vt 0.875000 0.083333
vt 0.875000 0.166667
vt 0.875000 0.250000
vt 0.125000 0.000000
vt 0.125000 0.083333
vt 0.125000 0.166667
vt 0.125000 0.250000
vn 0.000000 0.000000 1.000000
vn 0.000000 0.000000 1.000000
vn 0.000000 0.000000 1.000000
vn 0.000000 0.000000 1.000000
vn 0.000000 0.000000 1.000000
vn 0.000000 0.000000 1.000000
vn 0.000000 0.000000 1.000000
vn 0.000000 0.000000 1.000000
vn 0.000000 -0.000000 1.000000
vn 0.000000 -0.000000 1.000000
vn 0.000000 -0.000000 1.000000
vn 0.000000 -0.000000 1.000000
vn 0.000000 -0.000000 1.000000
vn 0.000000 -0.000000 1.000000
vn 0.000000 -0.000000 1.000000
vn 0.000000 -0.000000 1.000000
vn -0.497063 0.867714 0.000000
vn -0.231958 0.972726 0.000000
vn -0.231958 0.972726 0.000000
vn -0.497063 0.867714 0.000000
vn 0.231958 0.972726 0.000000
vn 0.231958 0.972726 0.000000
vn 0.497063 0.867714 0.000000
vn 0.497063 0.867714 0.000000
vn 0.000000 0.000000 -1.000000
vn 0.000000 0.000000 -1.000000
vn 0.000000 0.000000 -1.000000
vn 0.000000 0.000000 -1.000000
vn 0.000000 0.000000 -1.000000
vn 0.000000 0.000000 -1.000000
vn 0.000000 0.000000 -1.000000
vn 0.000000 0.000000 -1.000000
vn 0.000000 -0.000000 -1.000000
vn 0.000000 -0.000000 -1.000000
vn 0.000000 -0.000000 -1.000000
vn 0.000000 -0.000000 -1.000000
vn 0.000000 -0.000000 -1.000000
vn 0.000000 -0.000000 -1.000000
vn 0.000000 -0.000000 -1.000000
vn 0.000000 -0.000000 -1.000000
vn -0.528265 -0.849079 0.000000
vn -0.257055 -0.966397 0.000000
vn -0.257055 -0.966397 0.000000
vn -0.528265 -0.849079 0.000000
vn 0.257055 -0.966397 0.000000
vn 0.257055 -0.966397 0.000000
vn 0.528265 -0.849079 0.000000
vn 0.528265 -0.849079 0.000000
vn 0.904005 -0.427521 0.000000
vn 0.904005 -0.427521 0.000000
vn 0.986675 -0.162703 0.000000
vn 0.986675 -0.162703 0.000000
vn 0.984141 0.177385 -0.000000
vn 0.984141 0.177385 -0.000000
vn 0.899769 0.436367 -0.000000
vn 0.899769 0.436367 -0.000000
vn -0.904005 -0.427521 0.000000
vn -0.904005 -0.427521 0.000000
vn -0.986675 -0.162703 0.000000
vn -0.986675 -0.162703 0.000000
vn -0.984141 0.177385 -0.000000
vn -0.984141 0.177385 -0.000000
vn -0.899769 0.436367 -0.000000
vn -0.899769 0.436367 -0.000000
s 1
g pomo puerta pCube2
usemtl lambert3SG
f 81/131/241 82/132/242 86/136/243 85/135/244
f 82/132/242 83/133/245 87/137/246 86/136/243
f 83/133/245 84/134/247 88/138/248 87/137/246
f 85/135/244 86/136/243 90/140/249 89/139/250
f 86/136/243 87/137/246 91/141/251 90/140/249
f 87/137/246 88/138/248 92/142/252 91/141/251
f 89/139/250 90/140/249 94/144/253 93/143/254
f 90/140/249 91/141/251 95/145/255 94/144/253
f 91/141/251 92/142/252 96/146/256 95/145/255
s 2
f 93/143/257 94/144/258 98/148/259 97/147/260
f 94/144/258 95/145/261 99/149/262 98/148/259
f 95/145/261 96/146/263 100/150/264 99/149/262
s 3
f 97/147/265 98/148/266 102/152/267 101/151/268
f 98/148/266 99/149/269 103/153/270 102/152/267
f 99/149/269 100/150/271 104/154/272 103/153/270
f 101/151/268 102/152/267 106/156/273 105/155/274
f 102/152/267 103/153/270 107/157/275 106/156/273
f 103/153/270 104/154/272 108/158/276 107/157/275
f 105/155/274 106/156/273 110/160/277 109/159/278
f 106/156/273 107/157/275 111/161/279 110/160/277
f 107/157/275 108/158/276 112/162/280 111/161/279
s 4
f 109/159/281 110/160/282 82/164/283 81/163/284
f 110/160/282 111/161/285 83/165/286 82/164/283
f 111/161/285 112/162/287 84/166/288 83/165/286
s 5
f 84/134/289 112/167/290 108/168/291 88/138/292
f 88/138/292 108/168/291 104/169/293 92/142/294
f 92/142/294 104/169/293 100/170/295 96/146/296
s 6
f 109/171/297 81/131/298 85/135/299 105/172/300
f 105/172/300 85/135/299 89/139/301 101/173/302
f 101/173/302 89/139/301 93/143/303 97/174/304
g default
v 1.574331 3.733552 0.203112
v -1.574331 3.733552 0.203112
v 1.574331 6.443810 0.203112
v -1.574331 6.443810 0.203112
v 1.602706 2.518492 0.203112
v -1.602706 2.518492 0.203112
v 1.602706 3.252214 0.203112
v -1.602706 3.252214 0.203112
v -1.956824 0.017326 0.162494
v -1.930049 0.006950 0.162494
v -1.930049 0.017326 0.191215
v -1.930049 0.042380 0.203112
v -1.956824 0.042380 0.191215
v -1.967912 0.042380 0.162494
v 1.956824 0.017326 0.162494
v 1.967912 0.042380 0.162494
v 1.956824 0.042380 0.191215
v 1.930049 0.042380 0.203112
v 1.930049 0.017326 0.191215
v 1.930049 0.006950 0.162494
v -1.930049 6.772215 0.191215
v -1.930049 6.782592 0.162494
v -1.956824 6.772215 0.162494
v -1.967912 6.747166 0.162494
v -1.956824 6.747166 0.191215
v -1.930049 6.747166 0.203112
v 1.956824 6.747166 0.191215
v 1.967912 6.747166 0.162494
v 1.956824 6.772215 0.162494
v 1.930049 6.782592 0.162494
v 1.930049 6.772215 0.191215
v 1.930049 6.747166 0.203112
v -1.956824 6.747166 -0.191215
v -1.967912 6.747166 -0.162494
v -1.956824 6.772215 -0.162494
v -1.930049 6.782592 -0.162494
v -1.930049 6.772215 -0.191215
v -1.930049 6.747166 -0.203112
v 1.956824 6.747166 -0.191215
v 1.930049 6.747166 -0.203112
v 1.930049 6.772215 -0.191215
v 1.930049 6.782592 -0.162494
v 1.956824 6.772215 -0.162494
v 1.967912 6.747166 -0.162494
v -1.956824 0.042380 -0.191215
v -1.930049 0.042380 -0.203112
v -1.930049 0.017326 -0.191215
v -1.930049 0.006950 -0.162494
v -1.956824 0.017326 -0.162494
v -1.967912 0.042380 -0.162494
v 1.956824 0.042380 -0.191215
v 1.967912 0.042380 -0.162494
v 1.956824 0.017326 -0.162494
v 1.930049 0.006950 -0.162494
v 1.930049 0.017326 -0.191215
v 1.930049 0.042380 -0.203112
v -1.967912 2.375932 0.162494
v -1.956824 2.375932 0.191215
v -1.930049 2.375932 0.203112
v 1.967912 2.375932 0.162494
v 1.956824 2.375932 0.191215
v 1.930049 2.375932 0.203112
v -1.967912 3.394773 -0.162494
v -1.956824 3.394773 -0.191215
v -1.930049 3.394773 -0.203112
v 1.930049 3.394773 -0.203112
v 1.956824 3.394773 -0.191215
v 1.967912 3.394773 -0.162494
v -1.967912 3.394773 0.162493
v -1.956824 3.394773 0.191215
v -1.930049 3.394773 0.203112
v -1.967912 2.375932 -0.162494
v -1.956824 2.375932 -0.191215
v -1.930049 2.375932 -0.203112
v 1.930049 2.375932 -0.203112
v 1.956824 2.375932 -0.191215
v 1.967912 2.375932 -0.162494
v 1.967912 3.394773 0.162493
v 1.956824 3.394773 0.191215
v 1.930049 3.394773 0.203112
v -1.951903 0.021932 0.185936
v 1.951903 0.021932 0.185936
v -1.951903 6.767610 0.185936
v 1.951903 6.767610 0.185936
v -1.951903 6.767610 -0.185936
v 1.951903 6.767610 -0.185936
v -1.951903 0.021932 -0.185936
v 1.951903 0.021932 -0.185936
v 1.465676 3.827424 0.132047
v 1.456718 3.823898 0.132622
v 1.456718 3.819282 0.121961
v 1.484127 3.811200 0.121597
v 1.474587 3.835969 0.121171
v 1.469375 3.835969 0.131468
v -1.465676 3.827424 0.132047
v -1.469375 3.835969 0.131468
v -1.474630 3.835969 0.121204
v -1.484262 3.811083 0.121718
v -1.456718 3.819250 0.121980
v -1.456718 3.823898 0.132622
v 1.465676 6.349942 0.132048
v 1.469375 6.341400 0.131468
v 1.474630 6.341400 0.121205
v 1.484262 6.366284 0.121719
v 1.456718 6.358120 0.121981
v 1.456718 6.353472 0.132623
v -1.465676 6.349942 0.132048
v -1.456718 6.353472 0.132623
v -1.456718 6.358086 0.121962
v -1.484127 6.366170 0.121597
v -1.474587 6.341400 0.121171
v -1.469375 6.341400 0.131468
v 1.465753 3.835444 0.199226
v 1.457009 3.835469 0.203112
v 1.457023 3.827286 0.199226
v 1.457009 3.823898 0.189846
v 1.465753 3.827286 0.189846
v 1.469375 3.835469 0.189846
v -1.465753 3.835444 0.199226
v -1.469375 3.835469 0.189846
v -1.465753 3.827286 0.189846
v -1.457009 3.823898 0.189846
v -1.457023 3.827286 0.199226
v -1.457009 3.835469 0.203112
v 1.457023 6.350082 0.199226
v 1.457009 6.341901 0.203112
v 1.465753 6.341925 0.199226
v 1.469375 6.341901 0.189846
v 1.465753 6.350082 0.189846
v 1.457009 6.353472 0.189846
v -1.465753 6.341925 0.199226
v -1.457009 6.341901 0.203112
v -1.457023 6.350082 0.199226
v -1.457009 6.353472 0.189846
v -1.465753 6.350082 0.189846
v -1.469375 6.341901 0.189846
v 1.456718 3.811199 0.121598
v 1.476100 3.818454 0.121598
v 1.484129 3.835969 0.121598
v -1.484260 3.835969 0.121717
v -1.476194 3.818373 0.121718
v -1.456718 3.811086 0.121717
v 1.484261 6.341400 0.121717
v 1.476194 6.358997 0.121718
v 1.456718 6.366283 0.121717
v -1.456719 6.366171 0.121598
v -1.476100 6.358916 0.121598
v -1.484129 6.341401 0.121598
v 1.469560 3.824063 0.121534
v -1.469587 3.824041 0.121531
v 1.469587 6.353326 0.121531
v -1.469561 6.353306 0.121535
v 1.464151 3.828780 0.197502
v -1.464151 3.828780 0.197502
v 1.464151 6.348587 0.197502
v -1.464151 6.348587 0.197502
v 1.476888 2.564391 0.193399
v 1.476039 2.562171 0.193993
v 1.473870 2.561292 0.194567
v 1.475762 2.560783 0.191436
v 1.480307 2.560129 0.190207
v 1.477935 2.563175 0.191022
v -1.473870 2.561292 0.194567
v -1.476039 2.562171 0.193993
v -1.476888 2.564391 0.193399
v -1.477972 2.563162 0.191026
v -1.480433 2.560087 0.190220
v -1.475799 2.560772 0.191441
v 1.473870 3.209413 0.194567
v 1.476039 3.208534 0.193993
v 1.476888 3.206314 0.193399
v 1.477972 3.207543 0.191026
v 1.480433 3.210619 0.190220
v 1.475799 3.209933 0.191441
v -1.476888 3.206314 0.193399
v -1.476039 3.208534 0.193993
v -1.473870 3.209413 0.194567
v -1.475762 3.209922 0.191436
v -1.480307 3.210576 0.190207
v -1.477935 3.207530 0.191022
v 1.475979 2.564175 0.202136
v 1.473785 2.564196 0.203112
v 1.473774 2.562143 0.202137
v 1.473785 2.561292 0.199783
v 1.475979 2.562143 0.199783
v 1.476888 2.564196 0.199783
v -1.475979 2.564175 0.202136
v -1.476888 2.564196 0.199783
v -1.475979 2.562143 0.199783
v -1.473785 2.561292 0.199783
v -1.473774 2.562143 0.202137
v -1.473785 2.564196 0.203112
v 1.473774 3.208563 0.202137
v 1.473785 3.206510 0.203112
v 1.475979 3.206531 0.202136
v 1.476888 3.206510 0.199783
v 1.475979 3.208563 0.199783
v 1.473785 3.209413 0.199783
v -1.475979 3.206531 0.202136
v -1.473785 3.206510 0.203112
v -1.473774 3.208563 0.202137
v -1.473785 3.209413 0.199783
v -1.475979 3.208563 0.199783
v -1.476888 3.206510 0.199783
v 1.476627 2.561892 0.191719
v -1.476648 2.561885 0.191721
v 1.476648 3.208820 0.191721
v -1.476627 3.208813 0.191719
v 1.475569 2.562514 0.201705
v -1.475569 2.562514 0.201705
v 1.475569 3.208191 0.201705
v -1.475569 3.208191 0.201705
vt 0.002784 0.589294
vt 0.002784 0.572049
vt 0.086788 0.572049
vt 0.086788 0.589294
vt 0.001882 0.589294
vt 0.002048 0.575218
vt 0.002784 0.564906
vt 0.086788 0.564906
vt 0.123464 0.572049
vt 0.123464 0.589294
vt 0.002784 0.784428
vt 0.086788 0.784428
vt 0.001882 0.784428
vt 0.123464 0.564906
vt 0.244144 0.572049
vt 0.244144 0.589294
vt 0.123464 0.784428
vt 0.002784 0.801673
vt 0.086788 0.801673
vt 0.002048 0.798504
vt 0.244144 0.564906
vt 0.245046 0.589294
vt 0.244880 0.575218
vt 0.244144 0.784428
vt 0.123464 0.801673
vt 0.002784 0.808816
vt 0.086788 0.808816
vt 0.245046 0.784428
vt 0.244144 0.801673
vt 0.123464 0.808816
vt 0.244880 0.798504
vt 0.244144 0.808816
vt 0.493668 0.792424
vt 0.493668 0.809669
vt 0.372988 0.809669
vt 0.372988 0.792424
vt 0.494570 0.792424
vt 0.494405 0.806500
vt 0.493668 0.816813
vt 0.372988 0.816812
vt 0.336312 0.809669
vt 0.336312 0.792424
vt 0.372988 0.597291
vt 0.493668 0.597291
vt 0.494570 0.597291
vt 0.336312 0.816813
vt 0.252309 0.809669
vt 0.252309 0.792424
vt 0.336312 0.597291
vt 0.493668 0.580045
vt 0.372988 0.580045
vt 0.494405 0.583215
vt 0.252309 0.816813
vt 0.251407 0.792424
vt 0.251573 0.806500
vt 0.252309 0.597291
vt 0.336312 0.580045
vt 0.493668 0.572902
vt 0.372988 0.572902
vt 0.251407 0.597291
vt 0.252309 0.580045
vt 0.336312 0.572902
vt 0.251573 0.583215
vt 0.252309 0.572902
vt 0.209401 0.816816
vt 0.215584 0.816816
vt 0.215564 0.907007
vt 0.209401 0.907007
vt 0.209054 0.816509
vt 0.215366 0.816388
vt 0.209053 0.907315
vt 0.215368 0.907436
vt 0.174349 0.907025
vt 0.174349 0.816798
vt 0.174349 0.816504
vt 0.174349 0.907320
vt 0.168717 0.816797
vt 0.168717 0.907026
vt 0.169752 0.816557
vt 0.169752 0.907266
vt 0.166384 0.816798
vt 0.166384 0.907025
vt 0.373417 0.820819
vt 0.379580 0.820819
vt 0.379580 0.911010
vt 0.373397 0.911010
vt 0.379928 0.820511
vt 0.373613 0.820390
vt 0.414632 0.820801
vt 0.414632 0.911028
vt 0.379928 0.911317
vt 0.373616 0.911439
vt 0.414632 0.820507
vt 0.420264 0.820800
vt 0.420264 0.911029
vt 0.414632 0.911322
vt 0.419229 0.820560
vt 0.422597 0.820801
vt 0.422597 0.911028
vt 0.419229 0.911269
vt 0.106277 0.814511
vt 0.106277 0.912075
vt 0.057405 0.909284
vt 0.057405 0.908388
vt 0.057333 0.818197
vt 0.057332 0.817306
vt 0.110934 0.910148
vt 0.110934 0.812584
vt 0.159805 0.815375
vt 0.159806 0.816271
vt 0.159877 0.906462
vt 0.159878 0.907354
vt 0.937428 0.006967
vt 0.938856 0.006923
vt 0.938853 0.030119
vt 0.937428 0.030075
vt 0.937071 0.006887
vt 0.938437 0.006877
vt 0.939345 0.006814
vt 0.939337 0.030230
vt 0.937071 0.030155
vt 0.938436 0.030165
vt 0.933595 0.006960
vt 0.933595 0.030082
vt 0.933595 0.006886
vt 0.938607 0.006837
vt 0.938604 0.030205
vt 0.933595 0.030156
vt 0.932182 0.006959
vt 0.932182 0.030083
vt 0.932441 0.006900
vt 0.932441 0.030143
vt 0.931596 0.006960
vt 0.931596 0.030082
vt 0.935301 0.779541
vt 0.935785 0.779652
vt 0.935782 0.802848
vt 0.935293 0.802957
vt 0.936034 0.779566
vt 0.936202 0.779606
vt 0.937210 0.779696
vt 0.937210 0.802804
vt 0.936031 0.802934
vt 0.936201 0.802894
vt 0.937567 0.779616
vt 0.941043 0.802811
vt 0.941043 0.779689
vt 0.937567 0.802884
vt 0.941043 0.779615
vt 0.941043 0.802885
vt 0.942456 0.779688
vt 0.942456 0.802812
vt 0.942197 0.779628
vt 0.942197 0.802872
vt 0.943042 0.779689
vt 0.943042 0.802811
vt 0.931596 0.531104
vt 0.931596 0.332458
vt 0.939345 0.340043
vt 0.939337 0.523526
vt 0.943042 0.133764
vt 0.943042 0.332410
vt 0.935293 0.324825
vt 0.935301 0.141342
vt 0.558042 0.617286
vt 0.556383 0.617286
vt 0.556383 0.422153
vt 0.558042 0.422153
vt 0.558042 0.634531
vt 0.556688 0.631362
vt 0.558042 0.404907
vt 0.556688 0.408077
vt 0.797260 0.422153
vt 0.797260 0.617286
vt 0.797260 0.634531
vt 0.558042 0.641675
vt 0.556383 0.634531
vt 0.797260 0.404907
vt 0.556383 0.404907
vt 0.558042 0.397764
vt 0.798919 0.617286
vt 0.798919 0.422153
vt 0.798615 0.631362
vt 0.797260 0.641675
vt 0.797260 0.397764
vt 0.798615 0.408077
vt 0.798919 0.634531
vt 0.798919 0.404907
vt 0.500744 0.671173
vt 0.500744 0.653928
vt 0.739962 0.653928
vt 0.739962 0.671173
vt 0.499084 0.671173
vt 0.499389 0.657097
vt 0.500744 0.646785
vt 0.739962 0.646785
vt 0.741621 0.671173
vt 0.741316 0.657097
vt 0.739962 0.866307
vt 0.500744 0.866307
vt 0.499084 0.866307
vt 0.499084 0.653928
vt 0.741621 0.653928
vt 0.741621 0.866307
vt 0.500744 0.883552
vt 0.739962 0.883552
vt 0.499389 0.880383
vt 0.741316 0.880383
vt 0.500744 0.890695
vt 0.739962 0.890695
vt 0.499084 0.883552
vt 0.741621 0.883552
vt 0.873564 0.782347
vt 0.873219 0.781792
vt 0.907923 0.781788
vt 0.907923 0.782329
vt 0.867163 0.782347
vt 0.866906 0.781552
vt 0.913555 0.782329
vt 0.912520 0.781887
vt 0.873564 0.962899
vt 0.907923 0.962917
vt 0.867174 0.962899
vt 0.913555 0.962918
vt 0.913555 0.781788
vt 0.915888 0.782329
vt 0.873219 0.963454
vt 0.907923 0.963459
vt 0.866904 0.963696
vt 0.867016 0.962899
vt 0.866945 0.782347
vt 0.915888 0.962917
vt 0.912520 0.963360
vt 0.913555 0.963459
vt 0.044552 0.816105
vt 0.044207 0.816661
vt 0.009848 0.816643
vt 0.009848 0.816101
vt 0.050596 0.816661
vt 0.050866 0.815863
vt 0.044207 0.997212
vt 0.009848 0.997230
vt 0.004215 0.816642
vt 0.005251 0.816200
vt 0.050607 0.997212
vt 0.044552 0.997767
vt 0.009848 0.997772
vt 0.004215 0.997231
vt 0.001882 0.816643
vt 0.004215 0.816101
vt 0.050754 0.816661
vt 0.050826 0.997212
vt 0.050864 0.998008
vt 0.005251 0.997673
vt 0.001882 0.997230
vt 0.004215 0.997772
vt 0.746762 0.841878
vt 0.746762 0.646750
vt 0.795707 0.652340
vt 0.795706 0.654038
vt 0.795634 0.834590
vt 0.795634 0.836297
vt 0.849308 0.779584
vt 0.849308 0.974713
vt 0.800364 0.969123
vt 0.800365 0.967424
vt 0.800436 0.786873
vt 0.800437 0.785166
vt 0.004501 0.005694
vt 0.004156 0.005560
vt 0.007632 0.005563
vt 0.007632 0.005699
vt 0.002621 0.005577
vt 0.002791 0.005523
vt 0.009046 0.005700
vt 0.008786 0.005589
vt 0.007632 0.188366
vt 0.004501 0.188371
vt 0.002623 0.188491
vt 0.009046 0.188365
vt 0.009045 0.005563
vt 0.009631 0.005699
vt 0.004156 0.188506
vt 0.007632 0.188502
vt 0.002792 0.188543
vt 0.001882 0.005295
vt 0.001890 0.188778
vt 0.009631 0.188366
vt 0.008786 0.188477
vt 0.009045 0.188502
vt 0.859441 0.781039
vt 0.859096 0.781173
vt 0.855965 0.781178
vt 0.855965 0.781042
vt 0.860974 0.781054
vt 0.860805 0.781001
vt 0.859096 0.963850
vt 0.855965 0.963845
vt 0.854551 0.781179
vt 0.854811 0.781068
vt 0.860976 0.963968
vt 0.859441 0.963985
vt 0.855965 0.963981
vt 0.854551 0.963844
vt 0.853966 0.781178
vt 0.854551 0.781042
vt 0.861706 0.780766
vt 0.861715 0.964249
vt 0.860806 0.964021
vt 0.854811 0.963956
vt 0.853966 0.963845
vt 0.854551 0.963981
vt 0.563776 0.391681
vt 0.571678 0.002445
vt 0.890933 0.293113
vt 0.890933 0.532331
vt 0.896065 0.313399
vt 0.896065 0.512045
vt 0.927609 0.293113
vt 0.922477 0.313399
vt 0.927609 0.532331
vt 0.922477 0.512045
vt 0.920980 0.320977
vt 0.897564 0.320985
vt 0.897562 0.504467
vt 0.920978 0.504460
vt 0.825498 0.557278
vt 0.825498 0.752407
vt 0.933982 0.535234
vt 0.923062 0.557278
vt 0.933982 0.774452
vt 0.923062 0.752407
vt 0.209594 0.008068
vt 0.196950 0.523045
vt 0.016112 0.518604
vt 0.028756 0.003628
vt 0.288548 0.010007
vt 0.275905 0.524983
vt 0.548343 0.016385
vt 0.535699 0.531361
vt 0.713492 0.347515
vt 0.713492 0.002824
vt 0.885710 0.002824
vt 0.885710 0.347515
vt 0.933295 0.043675
vt 0.933295 0.044567
vt 0.932797 0.043936
vt 0.931596 0.043675
vt 0.932704 0.044567
vt 0.932392 0.044138
vt 0.931596 0.043966
vt 0.933303 0.134758
vt 0.932706 0.134758
vt 0.932803 0.135391
vt 0.932394 0.135187
vt 0.933303 0.135654
vt 0.931596 0.135654
vt 0.931596 0.135360
vt 0.937141 0.036810
vt 0.938848 0.036810
vt 0.937641 0.037072
vt 0.937141 0.037706
vt 0.938848 0.037104
vt 0.938051 0.037276
vt 0.937738 0.037706
vt 0.937741 0.127897
vt 0.937149 0.127897
vt 0.937647 0.128527
vt 0.938052 0.128325
vt 0.937149 0.128788
vt 0.938848 0.128788
vt 0.938848 0.128497
vt 0.890933 0.285845
vt 0.890933 0.002396
vt 0.926812 0.002396
vt 0.926812 0.285845
vt 0.708361 0.005220
vt 0.700460 0.394455
vt 0.813302 0.774452
vt 0.813302 0.535234
vn 0.000000 0.296050 0.955173
vn 0.000000 0.296050 0.955173
vn 0.000000 0.296050 0.955173
vn 0.000000 0.296050 0.955173
vn -0.006092 0.000000 0.999981
vn -0.006092 0.000001 0.999981
vn -0.098578 0.000000 0.995129
vn -0.098561 -0.000002 0.995131
vn 0.000000 -0.296050 0.955173
vn 0.000000 -0.296050 0.955173
vn 0.000000 -0.296050 0.955173
vn 0.000000 -0.296050 0.955173
vn 0.006092 0.000001 0.999981
vn 0.006092 0.000000 0.999981
vn 0.098578 -0.000000 0.995129
vn 0.098561 0.000002 0.995131
vn -0.002608 -0.999568 0.029268
vn -0.358854 -0.933183 0.019841
vn -0.358854 -0.933183 -0.019841
vn -0.002608 -0.999568 -0.029268
vn -0.915399 -0.401996 0.021077
vn -0.999501 -0.004589 0.031243
vn -0.999501 -0.004589 -0.031243
vn -0.915399 -0.401996 -0.021077
vn -0.003032 -0.005014 0.999983
vn -0.003425 -0.428556 0.903509
vn 0.003425 -0.428556 0.903509
vn 0.003032 -0.005014 0.999983
vn -0.000475 -0.940530 0.339710
vn 0.002608 -0.999568 0.029268
vn 0.000475 -0.940530 0.339710
vn -0.932908 -0.000537 0.360115
vn -0.932887 0.000000 0.360168
vn -0.999509 -0.000000 0.031335
vn -0.405457 -0.005796 0.914096
vn -0.004234 0.000000 0.999991
vn -0.406057 0.000000 0.913848
vn 0.999501 -0.004589 0.031243
vn 0.915399 -0.401996 0.021077
vn 0.915399 -0.401996 -0.021077
vn 0.999501 -0.004589 -0.031243
vn 0.358854 -0.933183 0.019841
vn 0.002608 -0.999568 -0.029268
vn 0.358854 -0.933183 -0.019841
vn -0.002608 0.999568 0.029271
vn -0.000475 0.940519 0.339740
vn 0.000475 0.940519 0.339740
vn 0.002608 0.999568 0.029271
vn -0.003425 0.428620 0.903478
vn -0.031635 0.036424 0.998836
vn 0.031635 0.036424 0.998836
vn 0.003425 0.428620 0.903478
vn -0.999506 0.003205 0.031271
vn -0.915372 0.402058 0.021077
vn -0.915371 0.402058 -0.021077
vn -0.999506 0.003205 -0.031271
vn -0.358883 0.933172 0.019841
vn -0.002608 0.999568 -0.029271
vn -0.358883 0.933172 -0.019841
vn 0.999506 0.003205 0.031271
vn 0.932902 0.000374 0.360131
vn 0.932887 0.000000 0.360168
vn 0.999509 -0.000000 0.031335
vn 0.405639 0.004053 0.914024
vn 0.033502 -0.000000 0.999439
vn 0.406057 0.000000 0.913848
vn 0.358883 0.933172 0.019841
vn 0.358883 0.933172 -0.019841
vn 0.002608 0.999568 -0.029271
vn 0.915371 0.402058 0.021077
vn 0.999506 0.003205 -0.031271
vn 0.915371 0.402058 -0.021077
vn -0.932902 0.000374 -0.360131
vn -0.932887 0.000000 -0.360168
vn -0.999509 -0.000000 -0.031335
vn -0.405639 0.004053 -0.914024
vn -0.003041 0.003501 -0.999989
vn -0.003061 0.000000 -0.999995
vn -0.406056 -0.000000 -0.913848
vn -0.003425 0.428620 -0.903479
vn 0.003425 0.428620 -0.903479
vn 0.003041 0.003501 -0.999989
vn -0.000475 0.940519 -0.339740
vn 0.000475 0.940519 -0.339740
vn 0.405639 0.004053 -0.914024
vn 0.406056 -0.000000 -0.913848
vn 0.003061 0.000000 -0.999995
vn 0.932902 0.000374 -0.360131
vn 0.999509 -0.000000 -0.031335
vn 0.932887 0.000000 -0.360168
vn -0.000475 -0.940530 -0.339710
vn 0.000475 -0.940530 -0.339710
vn -0.003425 -0.428556 -0.903509
vn -0.003032 -0.005014 -0.999983
vn 0.003032 -0.005014 -0.999983
vn 0.003425 -0.428556 -0.903509
vn 0.004234 0.000000 0.999991
vn -0.003061 -0.000000 -0.999995
vn 0.003061 -0.000000 -0.999995
vn 0.999509 -0.000000 -0.031335
vn 0.999509 -0.000000 0.031335
vn -0.999509 -0.000000 -0.031335
vn -0.999509 -0.000000 0.031335
vn -0.033502 -0.000000 0.999439
vn 0.000000 -0.000000 1.000000
vn -0.000000 -0.000000 1.000000
vn 0.000000 0.000000 1.000000
vn -0.000000 0.000000 1.000000
vn -0.932887 -0.000000 0.360168
vn -0.406057 0.000000 0.913848
vn 0.405457 -0.005796 0.914096
vn 0.406057 0.000000 0.913848
vn 0.932908 -0.000537 0.360115
vn 0.932887 0.000000 0.360168
vn -0.932887 -0.000000 -0.360168
vn -0.406056 -0.000000 -0.913848
vn 0.406056 -0.000000 -0.913848
vn 0.932887 -0.000000 -0.360168
vn -0.405639 0.004053 0.914024
vn -0.932902 0.000374 0.360131
vn -0.405457 -0.005796 -0.914096
vn -0.932908 -0.000537 -0.360115
vn 0.932908 -0.000537 -0.360115
vn 0.405457 -0.005796 -0.914096
vn -0.887414 -0.347384 0.303021
vn -0.310381 -0.905510 0.289337
vn -0.340652 -0.364049 0.866847
vn 0.310380 -0.905509 0.289339
vn 0.887413 -0.347384 0.303020
vn 0.340653 -0.364050 0.866847
vn -0.340643 0.364107 0.866827
vn -0.310383 0.905508 0.289338
vn -0.887394 0.347437 0.303016
vn 0.340643 0.364107 0.866827
vn 0.887393 0.347439 0.303016
vn 0.310384 0.905507 0.289341
vn -0.340643 0.364107 -0.866827
vn -0.887393 0.347440 -0.303016
vn -0.310384 0.905507 -0.289341
vn 0.887393 0.347441 -0.303016
vn 0.340643 0.364107 -0.866827
vn 0.310384 0.905508 -0.289339
vn -0.887413 -0.347384 -0.303020
vn -0.340653 -0.364050 -0.866847
vn -0.310380 -0.905509 -0.289339
vn 0.340652 -0.364049 -0.866847
vn 0.887414 -0.347384 -0.303021
vn 0.310381 -0.905510 -0.289337
vn 0.001497 -0.997687 0.067965
vn 0.363450 -0.922301 0.131394
vn 0.359020 -0.932777 0.032123
vn 0.001138 -0.998710 0.050764
vn 0.916471 -0.398885 0.031161
vn 0.997090 -0.001026 0.076235
vn 0.998575 -0.001389 0.053351
vn 0.917346 -0.396701 0.033232
vn 0.001617 -0.917003 0.398877
vn -0.001496 -0.997687 0.067966
vn -0.001619 -0.916998 0.398889
vn 0.891198 -0.001103 0.453612
vn 0.891193 0.001118 0.453622
vn 0.997089 0.001023 0.076239
vn -0.997089 -0.001024 0.076239
vn -0.916432 -0.398952 0.031453
vn -0.917342 -0.396710 0.033231
vn -0.998575 -0.001389 0.053351
vn -0.363545 -0.922117 0.132422
vn -0.001138 -0.998710 0.050764
vn -0.359020 -0.932777 0.032123
vn -0.891194 -0.001119 0.453621
vn -0.997090 0.001026 0.076235
vn -0.891199 0.001103 0.453611
vn 0.916395 0.399039 0.031431
vn 0.917303 0.396802 0.033226
vn 0.998575 0.001389 0.053351
vn 0.363808 0.922007 0.132465
vn 0.001497 0.997687 0.067953
vn 0.001139 0.998708 0.050803
vn 0.359285 0.932675 0.032134
vn 0.001620 0.917026 0.398825
vn -0.001618 0.917031 0.398812
vn -0.001499 0.997688 0.067952
vn -0.363655 0.922217 0.131419
vn -0.359285 0.932675 0.032133
vn -0.001139 0.998708 0.050803
vn -0.916431 0.398978 0.031145
vn -0.998575 0.001389 0.053351
vn -0.917303 0.396801 0.033226
vn 0.001326 -0.001541 0.999998
vn 0.405888 -0.001779 0.913921
vn 0.405888 0.001779 0.913921
vn 0.001326 0.001541 0.999998
vn 0.932877 -0.000163 0.360196
vn 0.932877 0.000163 0.360196
vn 0.000205 -0.940568 0.339606
vn -0.000205 -0.940568 0.339606
vn 0.001486 -0.428726 0.903433
vn -0.001326 -0.001541 0.999998
vn -0.001486 -0.428726 0.903433
vn -0.932877 -0.000163 0.360196
vn -0.932877 0.000163 0.360196
vn -0.405888 -0.001779 0.913921
vn -0.001326 0.001541 0.999998
vn -0.405888 0.001779 0.913921
vn 0.001486 0.428847 0.903376
vn -0.001486 0.428847 0.903376
vn 0.000205 0.940482 0.339845
vn -0.000205 0.940482 0.339845
vn -0.000000 0.724072 0.689725
vn -0.000000 0.724072 0.689725
vn -0.000000 0.724072 0.689725
vn -0.000000 0.724072 0.689725
vn -0.000000 0.724072 0.689725
vn -0.000000 0.724072 0.689725
vn -0.670471 -0.000000 0.741936
vn -0.670471 -0.000000 0.741936
vn -0.670471 -0.000000 0.741936
vn -0.670471 -0.000000 0.741936
vn -0.670471 -0.000000 0.741936
vn -0.670471 -0.000000 0.741936
vn -0.000000 -0.724101 0.689693
vn -0.000000 -0.724102 0.689693
vn -0.000000 -0.724102 0.689693
vn -0.000000 -0.724102 0.689693
vn -0.000000 -0.724102 0.689693
vn -0.000000 -0.724102 0.689693
vn 0.670472 0.000000 0.741935
vn 0.670472 0.000000 0.741935
vn 0.670472 0.000000 0.741935
vn 0.670472 0.000000 0.741935
vn 0.670472 0.000000 0.741935
vn 0.670472 0.000000 0.741935
vn 0.000042 -0.000048 1.000000
vn -0.048694 0.000049 0.998814
vn -0.004726 0.005176 0.999976
vn 0.000113 -0.038367 0.999264
vn 0.000123 -0.038397 0.999263
vn -0.000052 -0.038311 0.999266
vn -0.000041 -0.038297 0.999266
vn 0.000041 0.000047 1.000000
vn 0.008508 0.007842 0.999933
vn 0.048728 0.000123 0.998812
vn -0.048775 0.000126 0.998810
vn -0.048730 -0.000123 0.998812
vn -0.048852 -0.000210 0.998806
vn -0.000040 -0.000048 1.000000
vn 0.000041 0.038349 0.999264
vn -0.008501 -0.007841 0.999933
vn 0.000052 0.038363 0.999264
vn -0.000113 0.038418 0.999262
vn -0.000123 0.038449 0.999261
vn 0.048850 0.000210 0.998806
vn 0.048773 -0.000126 0.998810
vn 0.048693 -0.000049 0.998814
vn -0.000041 0.000048 1.000000
vn 0.004719 -0.005173 0.999976
vn 0.840638 -0.339224 0.422203
vn 0.343965 -0.856123 0.385671
vn 0.002209 0.000713 0.999997
vn -0.343997 -0.854997 0.388132
vn -0.838987 -0.339461 0.425285
vn 0.005927 0.011271 0.999919
vn 0.344220 0.854893 0.388163
vn 0.838972 0.339490 0.425291
vn -0.005911 -0.011253 0.999919
vn -0.840620 0.339214 0.422246
vn -0.344021 0.856097 0.385677
vn -0.002228 -0.000690 0.999997
vn 0.887691 -0.347414 0.302173
vn 0.340156 -0.363988 0.867068
vn 0.309975 -0.905916 0.288498
vn -0.340156 -0.363988 0.867068
vn -0.887689 -0.347418 0.302173
vn -0.309976 -0.905915 0.288500
vn 0.310124 0.905822 0.288634
vn 0.340163 0.364087 0.867024
vn 0.887648 0.347519 0.302177
vn -0.887650 0.347514 0.302178
vn -0.340164 0.364088 0.867023
vn -0.310124 0.905824 0.288629
vn 0.000357 -0.998008 0.063089
vn 0.833079 -0.544597 0.096915
vn 0.355927 -0.931211 0.078495
vn 0.000275 -0.993763 0.111509
vn 0.992411 -0.000797 0.122959
vn 0.994632 -0.001216 0.103468
vn 0.923580 -0.376682 0.071498
vn 0.000009 -0.877432 0.479701
vn 0.000005 -0.959790 0.280717
vn 0.000005 -0.959671 0.281126
vn 0.000009 -0.877432 0.479701
vn -0.000356 -0.998006 0.063120
vn 0.912366 -0.000182 0.409375
vn 0.912364 0.000127 0.409379
vn 0.992406 0.000779 0.123001
vn 0.318052 -0.000888 0.948073
vn 0.317999 0.000747 0.948091
vn -0.992406 -0.000779 0.123001
vn -0.833640 -0.543322 0.099222
vn -0.923580 -0.376681 0.071497
vn -0.994632 -0.001216 0.103468
vn -0.000275 -0.993763 0.111509
vn -0.355929 -0.931211 0.078494
vn -0.317999 -0.000747 0.948091
vn -0.318052 0.000888 0.948073
vn -0.912365 -0.000127 0.409377
vn -0.992411 0.000797 0.122958
vn -0.912367 0.000182 0.409372
vn 0.833640 0.543322 0.099226
vn 0.923578 0.376686 0.071499
vn 0.994632 0.001216 0.103468
vn 0.000356 0.998006 0.063122
vn 0.000275 0.993764 0.111504
vn 0.355940 0.931205 0.078511
vn -0.000005 0.959669 0.281134
vn -0.000005 0.959788 0.280725
vn -0.000357 0.998008 0.063092
vn -0.000009 0.877442 0.479683
vn -0.000009 0.877442 0.479683
vn -0.833080 0.544597 0.096915
vn -0.355938 0.931206 0.078510
vn -0.000275 0.993764 0.111504
vn -0.994632 0.001216 0.103468
vn -0.923578 0.376686 0.071498
vn 0.000330 -0.001511 0.999999
vn 0.405991 -0.001753 0.913875
vn 0.405991 0.001754 0.913875
vn 0.000330 0.001511 0.999999
vn 0.932898 -0.000161 0.360140
vn 0.932898 0.000161 0.360140
vn 0.000051 -0.940505 0.339781
vn -0.000051 -0.940505 0.339781
vn 0.000366 -0.428954 0.903326
vn -0.000330 -0.001511 0.999999
vn -0.000366 -0.428954 0.903326
vn -0.932898 -0.000161 0.360140
vn -0.932898 0.000161 0.360140
vn -0.405991 -0.001754 0.913875
vn -0.000330 0.001511 0.999999
vn -0.405991 0.001753 0.913875
vn 0.000366 0.428957 0.903325
vn -0.000366 0.428957 0.903325
vn 0.000051 0.940500 0.339793
vn -0.000051 0.940500 0.339793
vn 0.718766 -0.569576 0.398697
vn 0.535501 -0.765170 0.357427
vn 0.322787 -0.130662 0.937409
vn 0.322787 -0.130662 0.937409
vn -0.537036 -0.760053 0.365940
vn -0.716820 -0.565240 0.408255
vn -0.314857 -0.122969 0.941139
vn -0.314857 -0.122969 0.941140
vn 0.537033 0.760048 0.365955
vn 0.716827 0.565233 0.408252
vn 0.314868 0.122964 0.941137
vn 0.314868 0.122964 0.941137
vn -0.718774 0.569569 0.398693
vn -0.535501 0.765169 0.357429
vn -0.322798 0.130658 0.937406
vn -0.322798 0.130658 0.937406
vn 0.886605 -0.350161 0.302189
vn 0.338022 -0.366738 0.866744
vn 0.308793 -0.906049 0.289348
vn -0.338022 -0.366740 0.866743
vn -0.886606 -0.350160 0.302188
vn -0.308800 -0.906047 0.289348
vn 0.308842 0.906022 0.289379
vn 0.338029 0.366747 0.866737
vn 0.886593 0.350177 0.302206
vn -0.886593 0.350177 0.302207
vn -0.338031 0.366748 0.866736
vn -0.308836 0.906025 0.289376
s off
g puerta puerta
usemtl lambert2SG
f 118/331/305 117/332/306 273/333/307 279/334/308
s 1
f 117/491/309 119/494/310 285/497/311 273/498/312
s off
f 119/335/313 120/336/314 291/337/315 285/338/316
s 1
f 120/496/317 118/492/318 279/499/319 291/500/320
s 3
f 122/339/321 121/340/322 161/341/323 160/342/324
s 4
f 121/179/325 126/175/326 162/185/327 161/187/328
s 1
f 124/350/329 123/343/330 131/349/331 130/358/332
s 3
f 123/343/333 122/339/321 132/348/334 131/349/335
s 4
f 126/175/326 125/176/336 170/177/337 169/178/338
s 1
f 125/176/339 124/181/329 171/182/340 170/177/341
s 6
f 128/222/342 127/228/343 165/234/344 164/230/345
s 3
f 127/355/346 132/348/334 166/347/347 165/356/348
s 7
f 134/363/349 133/364/350 143/365/351 142/366/352
s 1
f 133/364/353 138/369/354 144/370/355 143/365/356
s 4
f 136/190/357 135/196/358 147/202/359 146/198/360
s 7
f 135/367/361 134/363/349 148/374/362 147/375/363
s 6
f 140/207/364 139/208/365 191/209/366 190/210/367
s 1
f 139/208/368 144/213/355 192/214/369 191/209/370
s 7
f 142/366/352 141/371/371 155/378/372 154/373/373
s 6
f 141/211/374 140/207/364 156/218/375 155/219/376
s 4
f 146/198/360 145/203/377 176/199/378 175/191/379
s 11
f 145/203/380 150/206/381 177/204/382 176/199/383
f 150/383/381 149/379/384 153/380/385 152/384/386
s 7
f 149/379/387 148/374/362 154/373/373 153/380/388
s 11
f 152/232/386 151/224/389 179/225/390 178/233/391
s 6
f 151/224/392 156/218/375 180/217/393 179/225/394
s 3
f 160/342/324 159/345/395 167/352/396 166/347/347
s 11
f 159/345/397 158/354/398 168/359/399 167/352/400
s 1
f 124/487/329 130/488/332 174/551/401 171/552/340
s 7
f 134/363/349 142/366/352 154/373/373 148/374/362
s 11
f 186/507/402 187/508/403 168/509/399 158/510/398
s 3
f 160/342/324 166/347/347 132/348/334 122/339/321
s 6
f 128/222/342 164/230/345 189/223/404 172/216/405
s 4
f 162/185/327 126/175/326 169/178/338 184/186/406
f 175/191/379 181/184/407 136/190/357 146/198/360
s 11
f 150/513/381 152/514/386 178/512/391 177/511/382
s 6
f 190/210/367 180/217/393 156/218/375 140/207/364
s 4
f 184/186/406 169/178/338 181/184/407 175/191/379
s 11
f 177/511/382 178/512/391 187/508/403 186/507/402
s 6
f 172/216/405 189/223/404 180/217/393 190/210/367
s 1
f 183/553/408 192/554/369 113/501/409 114/502/410
f 192/554/369 144/503/355 115/504/411 113/501/409
f 144/503/355 138/505/354 116/506/412 115/504/411
f 138/505/354 183/553/408 114/502/410 116/506/412
f 171/490/340 174/489/401 117/491/309 118/492/318
f 174/489/401 192/493/369 119/494/310 117/491/309
f 192/493/369 183/495/408 120/496/317 119/494/310
f 183/495/408 171/490/340 118/492/318 120/496/317
s 4
f 169/178/338 170/177/337 182/183/413 181/184/407
s 1
f 170/177/341 171/182/340 183/188/408 182/183/414
f 130/227/332 129/221/415 173/215/416 174/220/401
s 6
f 129/221/417 128/222/342 172/216/405 173/215/418
s 4
f 175/191/379 176/199/378 185/193/419 184/186/406
s 11
f 176/199/383 177/204/382 186/201/402 185/193/420
f 178/233/391 179/225/390 188/231/421 187/236/403
s 6
f 179/225/394 180/217/393 189/223/404 188/231/422
s 1
f 138/195/354 137/189/423 182/183/414 183/188/408
s 4
f 137/189/424 136/190/357 181/184/407 182/183/413
s 11
f 158/200/398 157/192/425 185/193/420 186/201/402
s 4
f 157/192/426 162/185/327 184/186/406 185/193/419
s 6
f 164/230/345 163/235/427 188/231/422 189/223/404
s 11
f 163/235/428 168/238/399 187/236/403 188/231/421
s 1
f 174/220/401 173/215/416 191/209/370 192/214/369
s 6
f 173/215/418 172/216/405 190/210/367 191/209/366
s 4
f 125/176/336 126/175/326 121/179/325 193/180/429
s 3
f 121/340/322 122/339/321 123/343/333 193/344/430
s 1
f 123/343/330 124/350/329 125/351/339 193/344/431
s 3
f 131/349/335 132/348/334 127/355/346 194/357/432
s 6
f 127/228/343 128/222/342 129/221/417 194/229/433
s 1
f 129/361/415 130/358/332 131/349/331 194/357/434
f 137/376/423 138/369/354 133/364/353 195/368/435
s 7
f 133/364/350 134/363/349 135/367/361 195/368/436
s 4
f 135/196/358 136/190/357 137/189/424 195/197/437
s 1
f 143/365/356 144/370/355 139/377/368 196/372/438
s 6
f 139/208/365 140/207/364 141/211/374 196/212/439
s 7
f 141/371/371 142/366/352 143/365/351 196/372/440
s 11
f 149/379/384 150/383/381 145/385/380 197/381/441
s 4
f 145/203/377 146/198/360 147/202/359 197/205/442
s 7
f 147/375/363 148/374/362 149/379/387 197/381/443
s 6
f 155/219/376 156/218/375 151/224/392 198/226/444
s 11
f 151/386/389 152/384/386 153/380/385 198/382/445
s 7
f 153/380/388 154/373/373 155/378/372 198/382/446
s 4
f 161/187/328 162/185/327 157/192/426 199/194/447
s 11
f 157/353/425 158/354/398 159/345/397 199/346/448
s 3
f 159/345/395 160/342/324 161/341/323 199/346/449
s 11
f 167/352/400 168/359/399 163/362/428 200/360/450
s 6
f 163/235/427 164/230/345 165/234/344 200/237/451
s 3
f 165/356/348 166/347/347 167/352/396 200/360/452
s 14
f 202/387/453 201/388/454 229/389/455 228/390/456
s 15
f 201/243/457 206/239/458 230/248/459 229/249/460
s 14
f 203/391/461 202/387/453 212/395/462 211/397/463
s 15
f 206/239/458 205/240/464 215/241/465 214/242/466
s 16
f 208/258/467 207/261/468 233/267/469 232/263/470
s 14
f 207/401/471 212/395/462 234/396/472 233/402/473
s 16
f 209/257/474 208/258/467 224/259/475 223/260/476
s 15
f 214/242/466 213/245/477 241/250/478 240/247/479
s 17
f 213/409/480 218/410/481 242/411/482 241/412/483
f 218/410/481 217/413/484 221/419/485 220/415/486
f 220/415/486 219/420/487 247/421/488 246/416/489
s 16
f 219/265/490 224/259/475 248/264/491 247/270/492
s 18
f 226/255/493 225/251/494 239/252/495 238/256/496
s 15
f 225/251/497 230/248/459 240/247/479 239/252/498
s 14
f 228/390/456 227/393/499 235/398/500 234/396/472
s 18
f 227/393/501 226/400/493 236/406/502 235/398/503
s 16
f 232/263/470 231/268/504 243/269/505 248/264/491
s 18
f 231/268/506 236/272/502 244/273/507 243/269/508
f 238/423/496 237/417/509 245/422/510 244/429/507
s 17
f 237/417/511 242/411/482 246/416/489 245/422/512
s 18
f 236/515/502 226/516/493 238/517/496 244/518/507
s off
f 114/431/513 113/432/514 204/433/515 249/434/516 254/435/517 210/436/518
f 113/275/519 115/276/520 216/277/521 255/278/522 251/279/523 204/280/524
f 115/437/525 116/438/526 222/439/527 258/440/528 257/441/529 216/442/530
f 116/281/531 114/282/532 210/283/533 252/284/534 260/285/535 222/286/536
s 14
f 212/395/462 202/387/453 228/390/456 234/396/472
s 15
f 206/239/458 214/242/466 240/247/479 230/248/459
s 17
f 218/410/481 220/415/486 246/416/489 242/411/482
s 16
f 224/259/475 208/258/467 232/263/470 248/264/491
s 19
f 204/519/537 251/520/538 250/521/539 249/522/540
f 203/391/541 211/397/542 254/404/543 249/405/540
f 210/533/544 254/534/543 253/535/545 252/536/546
f 205/523/547 251/520/538 255/526/548 215/527/549
f 216/530/550 257/531/551 256/528/552 255/526/548
f 217/413/553 257/425/551 258/426/554 221/419/555
f 209/539/556 223/540/557 260/541/558 252/536/546
f 222/544/559 260/541/558 259/542/560 258/545/554
s 15
f 205/240/464 206/239/458 201/243/457 261/244/561
s 14
f 201/388/454 202/387/453 203/391/461 261/392/562
s 19
f 203/525/541 249/522/540 250/521/539 261/524/563
f 250/521/539 251/520/538 205/523/547 261/524/563
s 14
f 211/397/463 212/395/462 207/401/471 262/403/564
s 16
f 207/261/468 208/258/467 209/257/474 262/262/565
s 19
f 209/539/556 252/536/546 253/535/545 262/538/566
f 253/535/545 254/534/543 211/537/542 262/538/566
s 17
f 217/413/484 218/410/481 213/409/480 263/414/567
s 15
f 213/245/477 214/242/466 215/241/465 263/246/568
s 19
f 215/527/549 255/526/548 256/528/552 263/529/569
f 256/528/552 257/531/551 217/532/553 263/529/569
s 16
f 223/260/476 224/259/475 219/265/490 264/266/570
s 17
f 219/420/487 220/415/486 221/419/485 264/427/571
s 19
f 221/546/555 258/545/554 259/542/560 264/543/572
f 259/542/560 260/541/558 223/540/557 264/543/572
s 15
f 229/249/460 230/248/459 225/251/497 265/253/573
s 18
f 225/399/494 226/400/493 227/393/501 265/394/574
s 14
f 227/393/499 228/390/456 229/389/455 265/394/575
s 18
f 235/398/503 236/406/502 231/408/506 266/407/576
s 16
f 231/268/504 232/263/470 233/267/469 266/271/577
s 14
f 233/402/473 234/396/472 235/398/500 266/407/578
s 17
f 241/412/483 242/411/482 237/417/511 267/418/579
s 18
f 237/417/509 238/423/496 239/424/495 267/418/580
s 15
f 239/252/498 240/247/479 241/250/478 267/254/581
s 16
f 247/270/492 248/264/491 243/269/505 268/274/582
s 18
f 243/430/508 244/429/507 245/422/510 268/428/583
s 17
f 245/422/512 246/416/489 247/421/488 268/428/584
s 23
f 271/443/585 270/444/586 297/445/587 296/446/588
f 270/291/586 269/287/589 298/297/590 297/299/591
f 273/460/592 272/447/593 280/453/594 279/461/595
f 272/447/593 271/443/585 275/452/596 280/453/594
f 269/287/589 274/288/597 284/289/598 283/290/599
s 1
f 274/288/600 273/293/312 285/294/311 284/289/601
s 23
f 277/315/602 276/319/603 301/323/604 300/321/605
f 276/457/603 275/452/596 302/451/606 301/458/607
s 1
f 279/309/319 278/310/608 292/311/609 291/312/320
s 23
f 278/310/610 277/315/602 287/316/611 292/311/612
f 283/290/599 282/295/613 309/302/614 308/298/615
f 282/465/613 281/466/616 310/467/617 309/468/618
f 281/466/616 286/469/619 290/475/620 289/471/621
f 286/469/619 285/481/622 291/482/623 290/475/620
f 289/471/621 288/476/624 315/477/625 314/472/626
f 288/322/624 287/316/611 316/320/627 315/324/628
s 31
f 294/307/629 293/303/630 307/304/631 306/308/632
s 23
f 293/303/633 298/297/590 308/298/615 307/304/634
f 296/446/588 295/449/635 303/454/636 302/451/606
s 31
f 295/449/637 294/456/629 304/462/638 303/454/639
s 23
f 300/321/605 299/325/640 311/326/641 316/320/627
s 31
f 299/325/642 304/329/638 312/330/643 311/326/644
f 306/479/632 305/473/645 313/478/646 312/485/643
s 23
f 305/473/647 310/467/617 314/472/626 313/478/648
s 31
f 304/547/638 294/548/629 306/549/632 312/550/643
s 23
f 302/451/606 275/452/596 271/443/585 296/446/588
f 298/297/590 269/287/589 283/290/599 308/298/615
f 316/320/627 287/316/611 277/315/602 300/321/605
f 310/467/617 281/466/616 289/471/621 314/472/626
f 274/288/597 269/287/589 270/291/586 317/292/649
f 270/444/586 271/443/585 272/447/650 317/448/649
s 1
f 272/300/651 273/293/312 274/288/600 317/292/652
s 23
f 280/453/653 275/452/596 276/457/603 318/459/654
f 276/319/603 277/315/602 278/310/610 318/314/654
s 1
f 278/310/608 279/309/319 280/313/655 318/314/656
s 23
f 286/469/657 281/466/616 282/465/613 319/470/658
f 282/295/613 283/290/599 284/289/598 319/296/658
s 1
f 284/289/601 285/294/311 286/301/659 319/296/660
s 23
f 292/311/612 287/316/611 288/322/624 320/318/661
f 288/476/624 289/471/621 290/475/662 320/483/661
s 1
f 290/317/663 291/312/320 292/311/609 320/318/664
s 23
f 297/299/591 298/297/590 293/303/633 321/305/665
s 31
f 293/455/630 294/456/629 295/449/637 321/450/666
s 23
f 295/449/635 296/446/588 297/445/587 321/450/667
s 31
f 303/454/639 304/462/638 299/464/642 322/463/668
s 23
f 299/325/640 300/321/605 301/323/604 322/327/669
f 301/458/607 302/451/606 303/454/636 322/463/670
f 309/468/618 310/467/617 305/473/647 323/474/671
s 31
f 305/473/645 306/479/632 307/480/631 323/474/672
s 23
f 307/304/634 308/298/615 309/302/614 323/306/673
f 315/324/628 316/320/627 311/326/641 324/328/674
s 31
f 311/486/644 312/485/643 313/478/646 324/484/675
s 23
f 313/478/648 314/472/626 315/477/625 324/484/676
